<svg width="447" height="603" viewBox="0 0 447 603" fill="none" xmlns="http://www.w3.org/2000/svg">
<path d="M10.6914 10.4023C8.80859 10.4023 7.32031 11.0312 6.22656 12.2891C5.14062 13.5391 4.59766 15.2539 4.59766 17.4336C4.59766 19.6758 5.12109 21.4102 6.16797 22.6367C7.22266 23.8555 8.72266 24.4648 10.668 24.4648C11.8633 24.4648 13.2266 24.25 14.7578 23.8203V25.5664C13.5703 26.0117 12.1055 26.2344 10.3633 26.2344C7.83984 26.2344 5.89062 25.4688 4.51562 23.9375C3.14844 22.4062 2.46484 20.2305 2.46484 17.4102C2.46484 15.6445 2.79297 14.0977 3.44922 12.7695C4.11328 11.4414 5.06641 10.418 6.30859 9.69922C7.55859 8.98047 9.02734 8.62109 10.7148 8.62109C12.5117 8.62109 14.082 8.94922 15.4258 9.60547L14.582 11.3164C13.2852 10.707 11.9883 10.4023 10.6914 10.4023ZM29.2891 19.5664C29.2891 21.6602 28.7617 23.2969 27.707 24.4766C26.6523 25.6484 25.1953 26.2344 23.3359 26.2344C22.1875 26.2344 21.168 25.9648 20.2773 25.4258C19.3867 24.8867 18.6992 24.1133 18.2148 23.1055C17.7305 22.0977 17.4883 20.918 17.4883 19.5664C17.4883 17.4727 18.0117 15.8438 19.0586 14.6797C20.1055 13.5078 21.5586 12.9219 23.418 12.9219C25.2148 12.9219 26.6406 13.5195 27.6953 14.7148C28.7578 15.9102 29.2891 17.5273 29.2891 19.5664ZM19.5039 19.5664C19.5039 21.207 19.832 22.457 20.4883 23.3164C21.1445 24.1758 22.1094 24.6055 23.3828 24.6055C24.6562 24.6055 25.6211 24.1797 26.2773 23.3281C26.9414 22.4688 27.2734 21.2148 27.2734 19.5664C27.2734 17.9336 26.9414 16.6953 26.2773 15.8516C25.6211 15 24.6484 14.5742 23.3594 14.5742C22.0859 14.5742 21.125 14.9922 20.4766 15.8281C19.8281 16.6641 19.5039 17.9102 19.5039 19.5664ZM34.6562 26H32.7109V7.76562H34.6562V26ZM49.8672 19.5664C49.8672 21.6602 49.3398 23.2969 48.2852 24.4766C47.2305 25.6484 45.7734 26.2344 43.9141 26.2344C42.7656 26.2344 41.7461 25.9648 40.8555 25.4258C39.9648 24.8867 39.2773 24.1133 38.793 23.1055C38.3086 22.0977 38.0664 20.918 38.0664 19.5664C38.0664 17.4727 38.5898 15.8438 39.6367 14.6797C40.6836 13.5078 42.1367 12.9219 43.9961 12.9219C45.793 12.9219 47.2188 13.5195 48.2734 14.7148C49.3359 15.9102 49.8672 17.5273 49.8672 19.5664ZM40.082 19.5664C40.082 21.207 40.4102 22.457 41.0664 23.3164C41.7227 24.1758 42.6875 24.6055 43.9609 24.6055C45.2344 24.6055 46.1992 24.1797 46.8555 23.3281C47.5195 22.4688 47.8516 21.2148 47.8516 19.5664C47.8516 17.9336 47.5195 16.6953 46.8555 15.8516C46.1992 15 45.2266 14.5742 43.9375 14.5742C42.6641 14.5742 41.7031 14.9922 41.0547 15.8281C40.4062 16.6641 40.082 17.9102 40.082 19.5664ZM59.1484 12.9219C59.7188 12.9219 60.2305 12.9688 60.6836 13.0625L60.4141 14.8672C59.8828 14.75 59.4141 14.6914 59.0078 14.6914C57.9688 14.6914 57.0781 15.1133 56.3359 15.957C55.6016 16.8008 55.2344 17.8516 55.2344 19.1094V26H53.2891V13.1562H54.8945L55.1172 15.5352H55.2109C55.6875 14.6992 56.2617 14.0547 56.9336 13.6016C57.6055 13.1484 58.3438 12.9219 59.1484 12.9219Z" fill="#001B36"/>
<path d="M1 49H241" stroke="#C9D6DF" stroke-width="2" stroke-linecap="round"/>
<path d="M14.2188 104.859C14.2188 106.594 13.625 107.93 12.4375 108.867C11.2578 109.797 9.56641 110.262 7.36328 110.262H5.34766V117H3.35547V99.8672H7.79688C12.0781 99.8672 14.2188 101.531 14.2188 104.859ZM5.34766 108.551H7.14062C8.90625 108.551 10.1836 108.266 10.9727 107.695C11.7617 107.125 12.1562 106.211 12.1562 104.953C12.1562 103.82 11.7852 102.977 11.043 102.422C10.3008 101.867 9.14453 101.59 7.57422 101.59H5.34766V108.551ZM23.3828 103.922C23.9531 103.922 24.4648 103.969 24.918 104.062L24.6484 105.867C24.1172 105.75 23.6484 105.691 23.2422 105.691C22.2031 105.691 21.3125 106.113 20.5703 106.957C19.8359 107.801 19.4688 108.852 19.4688 110.109V117H17.5234V104.156H19.1289L19.3516 106.535H19.4453C19.9219 105.699 20.4961 105.055 21.168 104.602C21.8398 104.148 22.5781 103.922 23.3828 103.922ZM29.2656 117H27.3203V104.156H29.2656V117ZM27.1562 100.676C27.1562 100.23 27.2656 99.9062 27.4844 99.7031C27.7031 99.4922 27.9766 99.3867 28.3047 99.3867C28.6172 99.3867 28.8867 99.4922 29.1133 99.7031C29.3398 99.9141 29.4531 100.238 29.4531 100.676C29.4531 101.113 29.3398 101.441 29.1133 101.66C28.8867 101.871 28.6172 101.977 28.3047 101.977C27.9766 101.977 27.7031 101.871 27.4844 101.66C27.2656 101.441 27.1562 101.113 27.1562 100.676ZM49.7617 117V108.645C49.7617 107.621 49.543 106.855 49.1055 106.348C48.668 105.832 47.9883 105.574 47.0664 105.574C45.8555 105.574 44.9609 105.922 44.3828 106.617C43.8047 107.312 43.5156 108.383 43.5156 109.828V117H41.5703V108.645C41.5703 107.621 41.3516 106.855 40.9141 106.348C40.4766 105.832 39.793 105.574 38.8633 105.574C37.6445 105.574 36.75 105.941 36.1797 106.676C35.6172 107.402 35.3359 108.598 35.3359 110.262V117H33.3906V104.156H34.9727L35.2891 105.914H35.3828C35.75 105.289 36.2656 104.801 36.9297 104.449C37.6016 104.098 38.3516 103.922 39.1797 103.922C41.1875 103.922 42.5 104.648 43.1172 106.102H43.2109C43.5938 105.43 44.1484 104.898 44.875 104.508C45.6016 104.117 46.4297 103.922 47.3594 103.922C48.8125 103.922 49.8984 104.297 50.6172 105.047C51.3438 105.789 51.707 106.98 51.707 108.621V117H49.7617ZM63.625 117L63.2383 115.172H63.1445C62.5039 115.977 61.8633 116.523 61.2227 116.812C60.5898 117.094 59.7969 117.234 58.8438 117.234C57.5703 117.234 56.5703 116.906 55.8438 116.25C55.125 115.594 54.7656 114.66 54.7656 113.449C54.7656 110.855 56.8398 109.496 60.9883 109.371L63.168 109.301V108.504C63.168 107.496 62.9492 106.754 62.5117 106.277C62.082 105.793 61.3906 105.551 60.4375 105.551C59.3672 105.551 58.1562 105.879 56.8047 106.535L56.207 105.047C56.8398 104.703 57.5312 104.434 58.2812 104.238C59.0391 104.043 59.7969 103.945 60.5547 103.945C62.0859 103.945 63.2188 104.285 63.9531 104.965C64.6953 105.645 65.0664 106.734 65.0664 108.234V117H63.625ZM59.2305 115.629C60.4414 115.629 61.3906 115.297 62.0781 114.633C62.7734 113.969 63.1211 113.039 63.1211 111.844V110.684L61.1758 110.766C59.6289 110.82 58.5117 111.062 57.8242 111.492C57.1445 111.914 56.8047 112.574 56.8047 113.473C56.8047 114.176 57.0156 114.711 57.4375 115.078C57.8672 115.445 58.4648 115.629 59.2305 115.629ZM74.9453 103.922C75.5156 103.922 76.0273 103.969 76.4805 104.062L76.2109 105.867C75.6797 105.75 75.2109 105.691 74.8047 105.691C73.7656 105.691 72.875 106.113 72.1328 106.957C71.3984 107.801 71.0312 108.852 71.0312 110.109V117H69.0859V104.156H70.6914L70.9141 106.535H71.0078C71.4844 105.699 72.0586 105.055 72.7305 104.602C73.4023 104.148 74.1406 103.922 74.9453 103.922ZM76.8438 104.156H78.9297L81.7422 111.48C82.3594 113.152 82.7422 114.359 82.8906 115.102H82.9844C83.0859 114.703 83.2969 114.023 83.6172 113.062C83.9453 112.094 85.0078 109.125 86.8047 104.156H88.8906L83.3711 118.781C82.8242 120.227 82.1836 121.25 81.4492 121.852C80.7227 122.461 79.8281 122.766 78.7656 122.766C78.1719 122.766 77.5859 122.699 77.0078 122.566V121.008C77.4375 121.102 77.918 121.148 78.4492 121.148C79.7852 121.148 80.7383 120.398 81.3086 118.898L82.0234 117.07L76.8438 104.156Z" fill="#001B36"/>
<path d="M250.023 112.441C250.023 113.949 249.477 115.125 248.383 115.969C247.289 116.812 245.805 117.234 243.93 117.234C241.898 117.234 240.336 116.973 239.242 116.449V114.527C239.945 114.824 240.711 115.059 241.539 115.23C242.367 115.402 243.188 115.488 244 115.488C245.328 115.488 246.328 115.238 247 114.738C247.672 114.23 248.008 113.527 248.008 112.629C248.008 112.035 247.887 111.551 247.645 111.176C247.41 110.793 247.012 110.441 246.449 110.121C245.895 109.801 245.047 109.438 243.906 109.031C242.312 108.461 241.172 107.785 240.484 107.004C239.805 106.223 239.465 105.203 239.465 103.945C239.465 102.625 239.961 101.574 240.953 100.793C241.945 100.012 243.258 99.6211 244.891 99.6211C246.594 99.6211 248.16 99.9336 249.59 100.559L248.969 102.293C247.555 101.699 246.18 101.402 244.844 101.402C243.789 101.402 242.965 101.629 242.371 102.082C241.777 102.535 241.48 103.164 241.48 103.969C241.48 104.562 241.59 105.051 241.809 105.434C242.027 105.809 242.395 106.156 242.91 106.477C243.434 106.789 244.23 107.137 245.301 107.52C247.098 108.16 248.332 108.848 249.004 109.582C249.684 110.316 250.023 111.27 250.023 112.441ZM258.66 117.234C256.762 117.234 255.262 116.656 254.16 115.5C253.066 114.344 252.52 112.738 252.52 110.684C252.52 108.613 253.027 106.969 254.043 105.75C255.066 104.531 256.438 103.922 258.156 103.922C259.766 103.922 261.039 104.453 261.977 105.516C262.914 106.57 263.383 107.965 263.383 109.699V110.93H254.535C254.574 112.438 254.953 113.582 255.672 114.363C256.398 115.145 257.418 115.535 258.73 115.535C260.113 115.535 261.48 115.246 262.832 114.668V116.402C262.145 116.699 261.492 116.91 260.875 117.035C260.266 117.168 259.527 117.234 258.66 117.234ZM258.133 105.551C257.102 105.551 256.277 105.887 255.66 106.559C255.051 107.23 254.691 108.16 254.582 109.348H261.297C261.297 108.121 261.023 107.184 260.477 106.535C259.93 105.879 259.148 105.551 258.133 105.551ZM271.844 117.234C269.984 117.234 268.543 116.664 267.52 115.523C266.504 114.375 265.996 112.754 265.996 110.66C265.996 108.512 266.512 106.852 267.543 105.68C268.582 104.508 270.059 103.922 271.973 103.922C272.59 103.922 273.207 103.988 273.824 104.121C274.441 104.254 274.926 104.41 275.277 104.59L274.68 106.242C274.25 106.07 273.781 105.93 273.273 105.82C272.766 105.703 272.316 105.645 271.926 105.645C269.316 105.645 268.012 107.309 268.012 110.637C268.012 112.215 268.328 113.426 268.961 114.27C269.602 115.113 270.547 115.535 271.797 115.535C272.867 115.535 273.965 115.305 275.09 114.844V116.566C274.23 117.012 273.148 117.234 271.844 117.234ZM289.234 110.566C289.234 112.66 288.707 114.297 287.652 115.477C286.598 116.648 285.141 117.234 283.281 117.234C282.133 117.234 281.113 116.965 280.223 116.426C279.332 115.887 278.645 115.113 278.16 114.105C277.676 113.098 277.434 111.918 277.434 110.566C277.434 108.473 277.957 106.844 279.004 105.68C280.051 104.508 281.504 103.922 283.363 103.922C285.16 103.922 286.586 104.52 287.641 105.715C288.703 106.91 289.234 108.527 289.234 110.566ZM279.449 110.566C279.449 112.207 279.777 113.457 280.434 114.316C281.09 115.176 282.055 115.605 283.328 115.605C284.602 115.605 285.566 115.18 286.223 114.328C286.887 113.469 287.219 112.215 287.219 110.566C287.219 108.934 286.887 107.695 286.223 106.852C285.566 106 284.594 105.574 283.305 105.574C282.031 105.574 281.07 105.992 280.422 106.828C279.773 107.664 279.449 108.91 279.449 110.566ZM301.445 117V108.691C301.445 107.645 301.207 106.863 300.73 106.348C300.254 105.832 299.508 105.574 298.492 105.574C297.148 105.574 296.164 105.938 295.539 106.664C294.914 107.391 294.602 108.59 294.602 110.262V117H292.656V104.156H294.238L294.555 105.914H294.648C295.047 105.281 295.605 104.793 296.324 104.449C297.043 104.098 297.844 103.922 298.727 103.922C300.273 103.922 301.438 104.297 302.219 105.047C303 105.789 303.391 106.98 303.391 108.621V117H301.445ZM316.141 115.277H316.035C315.137 116.582 313.793 117.234 312.004 117.234C310.324 117.234 309.016 116.66 308.078 115.512C307.148 114.363 306.684 112.73 306.684 110.613C306.684 108.496 307.152 106.852 308.09 105.68C309.027 104.508 310.332 103.922 312.004 103.922C313.746 103.922 315.082 104.555 316.012 105.82H316.164L316.082 104.895L316.035 103.992V98.7656H317.98V117H316.398L316.141 115.277ZM312.25 115.605C313.578 115.605 314.539 115.246 315.133 114.527C315.734 113.801 316.035 112.633 316.035 111.023V110.613C316.035 108.793 315.73 107.496 315.121 106.723C314.52 105.941 313.555 105.551 312.227 105.551C311.086 105.551 310.211 105.996 309.602 106.887C309 107.77 308.699 109.02 308.699 110.637C308.699 112.277 309 113.516 309.602 114.352C310.203 115.188 311.086 115.605 312.25 115.605ZM330.016 117L329.629 115.172H329.535C328.895 115.977 328.254 116.523 327.613 116.812C326.98 117.094 326.188 117.234 325.234 117.234C323.961 117.234 322.961 116.906 322.234 116.25C321.516 115.594 321.156 114.66 321.156 113.449C321.156 110.855 323.23 109.496 327.379 109.371L329.559 109.301V108.504C329.559 107.496 329.34 106.754 328.902 106.277C328.473 105.793 327.781 105.551 326.828 105.551C325.758 105.551 324.547 105.879 323.195 106.535L322.598 105.047C323.23 104.703 323.922 104.434 324.672 104.238C325.43 104.043 326.188 103.945 326.945 103.945C328.477 103.945 329.609 104.285 330.344 104.965C331.086 105.645 331.457 106.734 331.457 108.234V117H330.016ZM325.621 115.629C326.832 115.629 327.781 115.297 328.469 114.633C329.164 113.969 329.512 113.039 329.512 111.844V110.684L327.566 110.766C326.02 110.82 324.902 111.062 324.215 111.492C323.535 111.914 323.195 112.574 323.195 113.473C323.195 114.176 323.406 114.711 323.828 115.078C324.258 115.445 324.855 115.629 325.621 115.629ZM341.336 103.922C341.906 103.922 342.418 103.969 342.871 104.062L342.602 105.867C342.07 105.75 341.602 105.691 341.195 105.691C340.156 105.691 339.266 106.113 338.523 106.957C337.789 107.801 337.422 108.852 337.422 110.109V117H335.477V104.156H337.082L337.305 106.535H337.398C337.875 105.699 338.449 105.055 339.121 104.602C339.793 104.148 340.531 103.922 341.336 103.922ZM343.234 104.156H345.32L348.133 111.48C348.75 113.152 349.133 114.359 349.281 115.102H349.375C349.477 114.703 349.688 114.023 350.008 113.062C350.336 112.094 351.398 109.125 353.195 104.156H355.281L349.762 118.781C349.215 120.227 348.574 121.25 347.84 121.852C347.113 122.461 346.219 122.766 345.156 122.766C344.562 122.766 343.977 122.699 343.398 122.566V121.008C343.828 121.102 344.309 121.148 344.84 121.148C346.176 121.148 347.129 120.398 347.699 118.898L348.414 117.07L343.234 104.156Z" fill="#001B36"/>
<g filter="url(#filter0_d)">
<path d="M1 180C1 175.582 4.58172 172 9 172H113C117.418 172 121 175.582 121 180V244C121 248.418 117.418 252 113 252H41C18.9086 252 1 234.091 1 212V180Z" fill="#055F6F"/>
</g>
<path d="M156.352 229.273C156.352 231.247 156.039 232.721 155.414 233.695C154.794 234.669 153.844 235.156 152.562 235.156C151.333 235.156 150.398 234.659 149.758 233.664C149.117 232.664 148.797 231.201 148.797 229.273C148.797 227.284 149.107 225.807 149.727 224.844C150.346 223.88 151.292 223.398 152.562 223.398C153.802 223.398 154.742 223.901 155.383 224.906C156.029 225.911 156.352 227.367 156.352 229.273ZM150.109 229.273C150.109 230.935 150.305 232.146 150.695 232.906C151.086 233.661 151.708 234.039 152.562 234.039C153.427 234.039 154.052 233.656 154.438 232.891C154.828 232.12 155.023 230.914 155.023 229.273C155.023 227.633 154.828 226.432 154.438 225.672C154.052 224.906 153.427 224.523 152.562 224.523C151.708 224.523 151.086 224.901 150.695 225.656C150.305 226.406 150.109 227.612 150.109 229.273ZM161.508 228.023C162.711 228.023 163.656 228.323 164.344 228.922C165.036 229.516 165.383 230.331 165.383 231.367C165.383 232.549 165.005 233.477 164.25 234.148C163.5 234.82 162.464 235.156 161.141 235.156C159.854 235.156 158.872 234.951 158.195 234.539V233.289C158.56 233.523 159.013 233.708 159.555 233.844C160.096 233.974 160.63 234.039 161.156 234.039C162.073 234.039 162.784 233.823 163.289 233.391C163.799 232.958 164.055 232.333 164.055 231.516C164.055 229.922 163.078 229.125 161.125 229.125C160.63 229.125 159.969 229.201 159.141 229.352L158.469 228.922L158.898 223.578H164.578V224.773H160.008L159.719 228.203C160.318 228.083 160.914 228.023 161.508 228.023ZM170.664 228.023C171.867 228.023 172.812 228.323 173.5 228.922C174.193 229.516 174.539 230.331 174.539 231.367C174.539 232.549 174.161 233.477 173.406 234.148C172.656 234.82 171.62 235.156 170.297 235.156C169.01 235.156 168.029 234.951 167.352 234.539V233.289C167.716 233.523 168.169 233.708 168.711 233.844C169.253 233.974 169.786 234.039 170.312 234.039C171.229 234.039 171.94 233.823 172.445 233.391C172.956 232.958 173.211 232.333 173.211 231.516C173.211 229.922 172.234 229.125 170.281 229.125C169.786 229.125 169.125 229.201 168.297 229.352L167.625 228.922L168.055 223.578H173.734V224.773H169.164L168.875 228.203C169.474 228.083 170.07 228.023 170.664 228.023ZM178.367 235H177.039V223.578H183.406V224.758H178.367V228.938H183.102V230.117H178.367V235ZM184.648 230.117C184.648 227.872 185.083 226.195 185.953 225.086C186.828 223.971 188.12 223.414 189.828 223.414C190.417 223.414 190.88 223.464 191.219 223.562V224.68C190.818 224.549 190.359 224.484 189.844 224.484C188.62 224.484 187.685 224.867 187.039 225.633C186.393 226.393 186.039 227.591 185.977 229.227H186.07C186.643 228.331 187.549 227.883 188.789 227.883C189.815 227.883 190.622 228.193 191.211 228.812C191.805 229.432 192.102 230.273 192.102 231.336C192.102 232.523 191.776 233.458 191.125 234.141C190.479 234.818 189.604 235.156 188.5 235.156C187.318 235.156 186.38 234.714 185.688 233.828C184.995 232.938 184.648 231.701 184.648 230.117ZM188.484 234.055C189.224 234.055 189.797 233.823 190.203 233.359C190.615 232.891 190.82 232.216 190.82 231.336C190.82 230.581 190.63 229.987 190.25 229.555C189.87 229.122 189.302 228.906 188.547 228.906C188.078 228.906 187.648 229.003 187.258 229.195C186.867 229.388 186.555 229.654 186.32 229.992C186.091 230.331 185.977 230.682 185.977 231.047C185.977 231.583 186.081 232.083 186.289 232.547C186.497 233.01 186.792 233.378 187.172 233.648C187.557 233.919 187.995 234.055 188.484 234.055ZM195.789 235H194.461V223.578H200.828V224.758H195.789V228.938H200.523V230.117H195.789V235Z" fill="#001B36"/>
<path d="M144.664 227.977L144.148 230.633H146.359V231.641H143.961L143.305 235H142.234L142.891 231.641H140.523L139.883 235H138.82L139.445 231.641H137.398V230.633H139.641L140.172 227.977H138.008V226.984H140.344L140.984 223.578H142.07L141.43 226.984H143.812L144.469 223.578H145.516L144.859 226.984H146.922V227.977H144.664ZM140.711 230.633H143.078L143.594 227.977H141.227L140.711 230.633Z" fill="#001B36"/>
<path d="M138.963 190.723H142.996C144.891 190.723 146.261 191.006 147.107 191.572C147.954 192.139 148.377 193.034 148.377 194.258C148.377 195.104 148.139 195.804 147.664 196.357C147.195 196.904 146.508 197.259 145.604 197.422V197.52C147.771 197.891 148.855 199.03 148.855 200.938C148.855 202.214 148.423 203.21 147.557 203.926C146.697 204.642 145.493 205 143.943 205H138.963V190.723ZM140.623 196.836H143.357C144.529 196.836 145.372 196.654 145.887 196.289C146.401 195.918 146.658 195.296 146.658 194.424C146.658 193.623 146.372 193.047 145.799 192.695C145.226 192.337 144.314 192.158 143.064 192.158H140.623V196.836ZM140.623 198.242V203.584H143.602C144.754 203.584 145.62 203.363 146.199 202.92C146.785 202.471 147.078 201.771 147.078 200.82C147.078 199.935 146.779 199.284 146.18 198.867C145.587 198.451 144.682 198.242 143.465 198.242H140.623ZM160.33 205H150.945V203.604L154.705 199.824C155.851 198.665 156.606 197.839 156.971 197.344C157.335 196.849 157.609 196.367 157.791 195.898C157.973 195.43 158.064 194.925 158.064 194.385C158.064 193.623 157.833 193.021 157.371 192.578C156.909 192.129 156.268 191.904 155.447 191.904C154.855 191.904 154.292 192.002 153.758 192.197C153.23 192.393 152.641 192.747 151.99 193.262L151.131 192.158C152.446 191.064 153.878 190.518 155.428 190.518C156.769 190.518 157.82 190.863 158.582 191.553C159.344 192.236 159.725 193.158 159.725 194.316C159.725 195.221 159.471 196.117 158.963 197.002C158.455 197.887 157.505 199.007 156.111 200.361L152.986 203.418V203.496H160.33V205ZM171.854 197.842C171.854 200.309 171.463 202.152 170.682 203.369C169.907 204.587 168.719 205.195 167.117 205.195C165.581 205.195 164.412 204.574 163.611 203.33C162.811 202.08 162.41 200.251 162.41 197.842C162.41 195.355 162.798 193.509 163.572 192.305C164.347 191.1 165.529 190.498 167.117 190.498C168.667 190.498 169.842 191.126 170.643 192.383C171.45 193.639 171.854 195.459 171.854 197.842ZM164.051 197.842C164.051 199.919 164.295 201.432 164.783 202.383C165.271 203.327 166.049 203.799 167.117 203.799C168.198 203.799 168.979 203.32 169.461 202.363C169.949 201.4 170.193 199.893 170.193 197.842C170.193 195.791 169.949 194.29 169.461 193.34C168.979 192.383 168.198 191.904 167.117 191.904C166.049 191.904 165.271 192.376 164.783 193.32C164.295 194.258 164.051 195.765 164.051 197.842ZM183.299 197.842C183.299 200.309 182.908 202.152 182.127 203.369C181.352 204.587 180.164 205.195 178.562 205.195C177.026 205.195 175.857 204.574 175.057 203.33C174.256 202.08 173.855 200.251 173.855 197.842C173.855 195.355 174.243 193.509 175.018 192.305C175.792 191.1 176.974 190.498 178.562 190.498C180.112 190.498 181.287 191.126 182.088 192.383C182.895 193.639 183.299 195.459 183.299 197.842ZM175.496 197.842C175.496 199.919 175.74 201.432 176.229 202.383C176.717 203.327 177.495 203.799 178.562 203.799C179.643 203.799 180.424 203.32 180.906 202.363C181.395 201.4 181.639 199.893 181.639 197.842C181.639 195.791 181.395 194.29 180.906 193.34C180.424 192.383 179.643 191.904 178.562 191.904C177.495 191.904 176.717 192.376 176.229 193.32C175.74 194.258 175.496 195.765 175.496 197.842Z" fill="#001B36"/>
<g filter="url(#filter1_d)">
<path d="M1 276C1 271.582 4.58172 268 9 268H113C117.418 268 121 271.582 121 276V340C121 344.418 117.418 348 113 348H41C18.9086 348 1 330.091 1 308V276Z" fill="black"/>
</g>
<path d="M156.352 325.273C156.352 327.247 156.039 328.721 155.414 329.695C154.794 330.669 153.844 331.156 152.562 331.156C151.333 331.156 150.398 330.659 149.758 329.664C149.117 328.664 148.797 327.201 148.797 325.273C148.797 323.284 149.107 321.807 149.727 320.844C150.346 319.88 151.292 319.398 152.562 319.398C153.802 319.398 154.742 319.901 155.383 320.906C156.029 321.911 156.352 323.367 156.352 325.273ZM150.109 325.273C150.109 326.935 150.305 328.146 150.695 328.906C151.086 329.661 151.708 330.039 152.562 330.039C153.427 330.039 154.052 329.656 154.438 328.891C154.828 328.12 155.023 326.914 155.023 325.273C155.023 323.633 154.828 322.432 154.438 321.672C154.052 320.906 153.427 320.523 152.562 320.523C151.708 320.523 151.086 320.901 150.695 321.656C150.305 322.406 150.109 323.612 150.109 325.273ZM165.508 325.273C165.508 327.247 165.195 328.721 164.57 329.695C163.951 330.669 163 331.156 161.719 331.156C160.49 331.156 159.555 330.659 158.914 329.664C158.273 328.664 157.953 327.201 157.953 325.273C157.953 323.284 158.263 321.807 158.883 320.844C159.503 319.88 160.448 319.398 161.719 319.398C162.958 319.398 163.898 319.901 164.539 320.906C165.185 321.911 165.508 323.367 165.508 325.273ZM159.266 325.273C159.266 326.935 159.461 328.146 159.852 328.906C160.242 329.661 160.865 330.039 161.719 330.039C162.583 330.039 163.208 329.656 163.594 328.891C163.984 328.12 164.18 326.914 164.18 325.273C164.18 323.633 163.984 322.432 163.594 321.672C163.208 320.906 162.583 320.523 161.719 320.523C160.865 320.523 160.242 320.901 159.852 321.656C159.461 322.406 159.266 323.612 159.266 325.273ZM174.664 325.273C174.664 327.247 174.352 328.721 173.727 329.695C173.107 330.669 172.156 331.156 170.875 331.156C169.646 331.156 168.711 330.659 168.07 329.664C167.43 328.664 167.109 327.201 167.109 325.273C167.109 323.284 167.419 321.807 168.039 320.844C168.659 319.88 169.604 319.398 170.875 319.398C172.115 319.398 173.055 319.901 173.695 320.906C174.341 321.911 174.664 323.367 174.664 325.273ZM168.422 325.273C168.422 326.935 168.617 328.146 169.008 328.906C169.398 329.661 170.021 330.039 170.875 330.039C171.74 330.039 172.365 329.656 172.75 328.891C173.141 328.12 173.336 326.914 173.336 325.273C173.336 323.633 173.141 322.432 172.75 321.672C172.365 320.906 171.74 320.523 170.875 320.523C170.021 320.523 169.398 320.901 169.008 321.656C168.617 322.406 168.422 323.612 168.422 325.273ZM183.82 325.273C183.82 327.247 183.508 328.721 182.883 329.695C182.263 330.669 181.312 331.156 180.031 331.156C178.802 331.156 177.867 330.659 177.227 329.664C176.586 328.664 176.266 327.201 176.266 325.273C176.266 323.284 176.576 321.807 177.195 320.844C177.815 319.88 178.76 319.398 180.031 319.398C181.271 319.398 182.211 319.901 182.852 320.906C183.497 321.911 183.82 323.367 183.82 325.273ZM177.578 325.273C177.578 326.935 177.773 328.146 178.164 328.906C178.555 329.661 179.177 330.039 180.031 330.039C180.896 330.039 181.521 329.656 181.906 328.891C182.297 328.12 182.492 326.914 182.492 325.273C182.492 323.633 182.297 322.432 181.906 321.672C181.521 320.906 180.896 320.523 180.031 320.523C179.177 320.523 178.555 320.901 178.164 321.656C177.773 322.406 177.578 323.612 177.578 325.273ZM192.977 325.273C192.977 327.247 192.664 328.721 192.039 329.695C191.419 330.669 190.469 331.156 189.188 331.156C187.958 331.156 187.023 330.659 186.383 329.664C185.742 328.664 185.422 327.201 185.422 325.273C185.422 323.284 185.732 321.807 186.352 320.844C186.971 319.88 187.917 319.398 189.188 319.398C190.427 319.398 191.367 319.901 192.008 320.906C192.654 321.911 192.977 323.367 192.977 325.273ZM186.734 325.273C186.734 326.935 186.93 328.146 187.32 328.906C187.711 329.661 188.333 330.039 189.188 330.039C190.052 330.039 190.677 329.656 191.062 328.891C191.453 328.12 191.648 326.914 191.648 325.273C191.648 323.633 191.453 322.432 191.062 321.672C190.677 320.906 190.052 320.523 189.188 320.523C188.333 320.523 187.711 320.901 187.32 321.656C186.93 322.406 186.734 323.612 186.734 325.273ZM202.133 325.273C202.133 327.247 201.82 328.721 201.195 329.695C200.576 330.669 199.625 331.156 198.344 331.156C197.115 331.156 196.18 330.659 195.539 329.664C194.898 328.664 194.578 327.201 194.578 325.273C194.578 323.284 194.888 321.807 195.508 320.844C196.128 319.88 197.073 319.398 198.344 319.398C199.583 319.398 200.523 319.901 201.164 320.906C201.81 321.911 202.133 323.367 202.133 325.273ZM195.891 325.273C195.891 326.935 196.086 328.146 196.477 328.906C196.867 329.661 197.49 330.039 198.344 330.039C199.208 330.039 199.833 329.656 200.219 328.891C200.609 328.12 200.805 326.914 200.805 325.273C200.805 323.633 200.609 322.432 200.219 321.672C199.833 320.906 199.208 320.523 198.344 320.523C197.49 320.523 196.867 320.901 196.477 321.656C196.086 322.406 195.891 323.612 195.891 325.273Z" fill="#001B36"/>
<path d="M144.664 323.977L144.148 326.633H146.359V327.641H143.961L143.305 331H142.234L142.891 327.641H140.523L139.883 331H138.82L139.445 327.641H137.398V326.633H139.641L140.172 323.977H138.008V322.984H140.344L140.984 319.578H142.07L141.43 322.984H143.812L144.469 319.578H145.516L144.859 322.984H146.922V323.977H144.664ZM140.711 326.633H143.078L143.594 323.977H141.227L140.711 326.633Z" fill="#001B36"/>
<path d="M138.963 286.723H142.996C144.891 286.723 146.261 287.006 147.107 287.572C147.954 288.139 148.377 289.034 148.377 290.258C148.377 291.104 148.139 291.804 147.664 292.357C147.195 292.904 146.508 293.259 145.604 293.422V293.52C147.771 293.891 148.855 295.03 148.855 296.938C148.855 298.214 148.423 299.21 147.557 299.926C146.697 300.642 145.493 301 143.943 301H138.963V286.723ZM140.623 292.836H143.357C144.529 292.836 145.372 292.654 145.887 292.289C146.401 291.918 146.658 291.296 146.658 290.424C146.658 289.623 146.372 289.047 145.799 288.695C145.226 288.337 144.314 288.158 143.064 288.158H140.623V292.836ZM140.623 294.242V299.584H143.602C144.754 299.584 145.62 299.363 146.199 298.92C146.785 298.471 147.078 297.771 147.078 296.82C147.078 295.935 146.779 295.284 146.18 294.867C145.587 294.451 144.682 294.242 143.465 294.242H140.623ZM153.309 301H151.688V285.805H153.309V301ZM163.328 301L163.006 299.477H162.928C162.394 300.147 161.86 300.603 161.326 300.844C160.799 301.078 160.138 301.195 159.344 301.195C158.283 301.195 157.449 300.922 156.844 300.375C156.245 299.828 155.945 299.05 155.945 298.041C155.945 295.88 157.674 294.747 161.131 294.643L162.947 294.584V293.92C162.947 293.08 162.765 292.462 162.4 292.064C162.042 291.661 161.466 291.459 160.672 291.459C159.78 291.459 158.771 291.732 157.645 292.279L157.146 291.039C157.674 290.753 158.25 290.528 158.875 290.365C159.507 290.202 160.138 290.121 160.77 290.121C162.046 290.121 162.99 290.404 163.602 290.971C164.22 291.537 164.529 292.445 164.529 293.695V301H163.328ZM159.666 299.857C160.675 299.857 161.466 299.581 162.039 299.027C162.618 298.474 162.908 297.699 162.908 296.703V295.736L161.287 295.805C159.998 295.85 159.067 296.052 158.494 296.41C157.928 296.762 157.645 297.312 157.645 298.061C157.645 298.646 157.82 299.092 158.172 299.398C158.53 299.704 159.028 299.857 159.666 299.857ZM172.156 301.195C170.607 301.195 169.406 300.72 168.553 299.77C167.706 298.812 167.283 297.462 167.283 295.717C167.283 293.926 167.713 292.543 168.572 291.566C169.438 290.59 170.669 290.102 172.264 290.102C172.778 290.102 173.292 290.157 173.807 290.268C174.321 290.378 174.725 290.508 175.018 290.658L174.52 292.035C174.161 291.892 173.771 291.775 173.348 291.684C172.924 291.586 172.55 291.537 172.225 291.537C170.05 291.537 168.963 292.924 168.963 295.697C168.963 297.012 169.227 298.021 169.754 298.725C170.288 299.428 171.076 299.779 172.117 299.779C173.009 299.779 173.924 299.587 174.861 299.203V300.639C174.145 301.01 173.243 301.195 172.156 301.195ZM179.012 295.521C179.292 295.124 179.718 294.604 180.291 293.959L183.748 290.297H185.672L181.336 294.857L185.975 301H184.012L180.232 295.941L179.012 296.996V301H177.41V285.805H179.012V293.861C179.012 294.219 178.986 294.773 178.934 295.521H179.012Z" fill="#001B36"/>
<g filter="url(#filter2_d)">
<path d="M1 372C1 367.582 4.58172 364 9 364H113C117.418 364 121 367.582 121 372V436C121 440.418 117.418 444 113 444H41C18.9086 444 1 426.091 1 404V372Z" fill="white"/>
<path d="M1.5 372C1.5 367.858 4.85787 364.5 9 364.5H113C117.142 364.5 120.5 367.858 120.5 372V436C120.5 440.142 117.142 443.5 113 443.5H41C19.1847 443.5 1.5 425.815 1.5 404V372Z" stroke="#001B36"/>
</g>
<path d="M150.898 427H149.57V415.578H155.938V416.758H150.898V420.938H155.633V422.117H150.898V427ZM159.164 427H157.836V415.578H164.203V416.758H159.164V420.938H163.898V422.117H159.164V427ZM167.43 427H166.102V415.578H172.469V416.758H167.43V420.938H172.164V422.117H167.43V427ZM175.695 427H174.367V415.578H180.734V416.758H175.695V420.938H180.43V422.117H175.695V427ZM183.961 427H182.633V415.578H189V416.758H183.961V420.938H188.695V422.117H183.961V427ZM192.227 427H190.898V415.578H197.266V416.758H192.227V420.938H196.961V422.117H192.227V427Z" fill="#001B36"/>
<path d="M144.664 419.977L144.148 422.633H146.359V423.641H143.961L143.305 427H142.234L142.891 423.641H140.523L139.883 427H138.82L139.445 423.641H137.398V422.633H139.641L140.172 419.977H138.008V418.984H140.344L140.984 415.578H142.07L141.43 418.984H143.812L144.469 415.578H145.516L144.859 418.984H146.922V419.977H144.664ZM140.711 422.633H143.078L143.594 419.977H141.227L140.711 422.633Z" fill="#001B36"/>
<path d="M151.424 397H149.783L146.902 387.439C146.766 387.016 146.613 386.482 146.443 385.838C146.274 385.193 146.186 384.806 146.18 384.676C146.036 385.535 145.809 386.476 145.496 387.498L142.703 397H141.062L137.264 382.723H139.021L141.277 391.541C141.59 392.778 141.818 393.898 141.961 394.9C142.137 393.709 142.397 392.544 142.742 391.404L145.301 382.723H147.059L149.744 391.482C150.057 392.492 150.32 393.631 150.535 394.9C150.659 393.976 150.893 392.85 151.238 391.521L153.484 382.723H155.242L151.424 397ZM164.559 397V390.076C164.559 389.204 164.36 388.553 163.963 388.123C163.566 387.693 162.944 387.479 162.098 387.479C160.971 387.479 160.148 387.785 159.627 388.396C159.113 389.008 158.855 390.011 158.855 391.404V397H157.234V381.805H158.855V386.404C158.855 386.958 158.829 387.417 158.777 387.781H158.875C159.194 387.267 159.646 386.863 160.232 386.57C160.825 386.271 161.499 386.121 162.254 386.121C163.562 386.121 164.542 386.434 165.193 387.059C165.851 387.677 166.18 388.663 166.18 390.018V397H164.559ZM171.141 397H169.52V386.297H171.141V397ZM169.383 383.396C169.383 383.025 169.474 382.755 169.656 382.586C169.839 382.41 170.066 382.322 170.34 382.322C170.6 382.322 170.825 382.41 171.014 382.586C171.202 382.762 171.297 383.032 171.297 383.396C171.297 383.761 171.202 384.035 171.014 384.217C170.825 384.393 170.6 384.48 170.34 384.48C170.066 384.48 169.839 384.393 169.656 384.217C169.474 384.035 169.383 383.761 169.383 383.396ZM178.035 395.857C178.322 395.857 178.598 395.838 178.865 395.799C179.132 395.753 179.344 395.708 179.5 395.662V396.902C179.324 396.987 179.064 397.055 178.719 397.107C178.38 397.166 178.074 397.195 177.801 397.195C175.73 397.195 174.695 396.105 174.695 393.924V387.557H173.162V386.775L174.695 386.102L175.379 383.816H176.316V386.297H179.422V387.557H176.316V393.855C176.316 394.5 176.469 394.995 176.775 395.34C177.081 395.685 177.501 395.857 178.035 395.857ZM186.17 397.195C184.588 397.195 183.338 396.714 182.42 395.75C181.508 394.786 181.053 393.449 181.053 391.736C181.053 390.011 181.476 388.641 182.322 387.625C183.175 386.609 184.318 386.102 185.75 386.102C187.091 386.102 188.152 386.544 188.934 387.43C189.715 388.309 190.105 389.471 190.105 390.916V391.941H182.732C182.765 393.198 183.081 394.152 183.68 394.803C184.285 395.454 185.135 395.779 186.229 395.779C187.381 395.779 188.52 395.538 189.646 395.057V396.502C189.074 396.749 188.53 396.925 188.016 397.029C187.508 397.14 186.893 397.195 186.17 397.195ZM185.73 387.459C184.871 387.459 184.184 387.739 183.67 388.299C183.162 388.859 182.863 389.633 182.771 390.623H188.367C188.367 389.601 188.139 388.82 187.684 388.279C187.228 387.732 186.577 387.459 185.73 387.459Z" fill="#001B36"/>
<g filter="url(#filter3_d)">
<path d="M1 468C1 463.582 4.58172 460 9 460H113C117.418 460 121 463.582 121 468V532C121 536.418 117.418 540 113 540H41C18.9086 540 1 522.091 1 500V468Z" fill="#FFD274"/>
</g>
<path d="M150.898 523H149.57V511.578H155.938V512.758H150.898V516.938H155.633V518.117H150.898V523ZM159.164 523H157.836V511.578H164.203V512.758H159.164V516.938H163.898V518.117H159.164V523ZM175.219 517.18C175.219 519.065 174.706 520.508 173.68 521.508C172.659 522.503 171.188 523 169.266 523H166.102V511.578H169.602C171.378 511.578 172.758 512.07 173.742 513.055C174.727 514.039 175.219 515.414 175.219 517.18ZM173.812 517.227C173.812 515.737 173.438 514.615 172.688 513.859C171.943 513.104 170.833 512.727 169.359 512.727H167.43V521.852H169.047C170.63 521.852 171.82 521.464 172.617 520.688C173.414 519.906 173.812 518.753 173.812 517.227ZM184.492 523H176.984V521.883L179.992 518.859C180.909 517.932 181.513 517.271 181.805 516.875C182.096 516.479 182.315 516.094 182.461 515.719C182.607 515.344 182.68 514.94 182.68 514.508C182.68 513.898 182.495 513.417 182.125 513.062C181.755 512.703 181.242 512.523 180.586 512.523C180.112 512.523 179.661 512.602 179.234 512.758C178.812 512.914 178.341 513.198 177.82 513.609L177.133 512.727C178.185 511.852 179.331 511.414 180.57 511.414C181.643 511.414 182.484 511.69 183.094 512.242C183.703 512.789 184.008 513.526 184.008 514.453C184.008 515.177 183.805 515.893 183.398 516.602C182.992 517.31 182.232 518.206 181.117 519.289L178.617 521.734V521.797H184.492V523ZM187.586 523L192.32 512.773H186.094V511.578H193.695V512.617L189.023 523H187.586ZM203.344 520.375H201.648V523H200.406V520.375H194.852V519.242L200.273 511.516H201.648V519.195H203.344V520.375ZM200.406 519.195V515.398C200.406 514.654 200.432 513.812 200.484 512.875H200.422C200.172 513.375 199.938 513.789 199.719 514.117L196.148 519.195H200.406Z" fill="#001B36"/>
<path d="M144.664 515.977L144.148 518.633H146.359V519.641H143.961L143.305 523H142.234L142.891 519.641H140.523L139.883 523H138.82L139.445 519.641H137.398V518.633H139.641L140.172 515.977H138.008V514.984H140.344L140.984 511.578H142.07L141.43 514.984H143.812L144.469 511.578H145.516L144.859 514.984H146.922V515.977H144.664ZM140.711 518.633H143.078L143.594 515.977H141.227L140.711 518.633Z" fill="#001B36"/>
<path d="M138.963 478.723H142.996C144.891 478.723 146.261 479.006 147.107 479.572C147.954 480.139 148.377 481.034 148.377 482.258C148.377 483.104 148.139 483.804 147.664 484.357C147.195 484.904 146.508 485.259 145.604 485.422V485.52C147.771 485.891 148.855 487.03 148.855 488.938C148.855 490.214 148.423 491.21 147.557 491.926C146.697 492.642 145.493 493 143.943 493H138.963V478.723ZM140.623 484.836H143.357C144.529 484.836 145.372 484.654 145.887 484.289C146.401 483.918 146.658 483.296 146.658 482.424C146.658 481.623 146.372 481.047 145.799 480.695C145.226 480.337 144.314 480.158 143.064 480.158H140.623V484.836ZM140.623 486.242V491.584H143.602C144.754 491.584 145.62 491.363 146.199 490.92C146.785 490.471 147.078 489.771 147.078 488.82C147.078 487.935 146.779 487.284 146.18 486.867C145.587 486.451 144.682 486.242 143.465 486.242H140.623ZM156.951 493H155.369V482.824C155.369 481.978 155.395 481.177 155.447 480.422C155.311 480.559 155.158 480.702 154.988 480.852C154.819 481.001 154.044 481.636 152.664 482.756L151.805 481.643L155.584 478.723H156.951V493ZM171.854 485.842C171.854 488.309 171.463 490.152 170.682 491.369C169.907 492.587 168.719 493.195 167.117 493.195C165.581 493.195 164.412 492.574 163.611 491.33C162.811 490.08 162.41 488.251 162.41 485.842C162.41 483.355 162.798 481.509 163.572 480.305C164.347 479.1 165.529 478.498 167.117 478.498C168.667 478.498 169.842 479.126 170.643 480.383C171.45 481.639 171.854 483.459 171.854 485.842ZM164.051 485.842C164.051 487.919 164.295 489.432 164.783 490.383C165.271 491.327 166.049 491.799 167.117 491.799C168.198 491.799 168.979 491.32 169.461 490.363C169.949 489.4 170.193 487.893 170.193 485.842C170.193 483.791 169.949 482.29 169.461 481.34C168.979 480.383 168.198 479.904 167.117 479.904C166.049 479.904 165.271 480.376 164.783 481.32C164.295 482.258 164.051 483.765 164.051 485.842ZM183.299 485.842C183.299 488.309 182.908 490.152 182.127 491.369C181.352 492.587 180.164 493.195 178.562 493.195C177.026 493.195 175.857 492.574 175.057 491.33C174.256 490.08 173.855 488.251 173.855 485.842C173.855 483.355 174.243 481.509 175.018 480.305C175.792 479.1 176.974 478.498 178.562 478.498C180.112 478.498 181.287 479.126 182.088 480.383C182.895 481.639 183.299 483.459 183.299 485.842ZM175.496 485.842C175.496 487.919 175.74 489.432 176.229 490.383C176.717 491.327 177.495 491.799 178.562 491.799C179.643 491.799 180.424 491.32 180.906 490.363C181.395 489.4 181.639 487.893 181.639 485.842C181.639 483.791 181.395 482.29 180.906 481.34C180.424 480.383 179.643 479.904 178.562 479.904C177.495 479.904 176.717 480.376 176.229 481.32C175.74 482.258 175.496 483.765 175.496 485.842Z" fill="#001B36"/>
<g filter="url(#filter4_d)">
<path d="M238 180C238 175.582 241.582 172 246 172H350C354.418 172 358 175.582 358 180V244C358 248.418 354.418 252 350 252H278C255.909 252 238 234.091 238 212V180Z" fill="#082D40"/>
</g>
<path d="M387.898 235H386.57V223.578H392.938V224.758H387.898V228.938H392.633V230.117H387.898V235ZM401.203 235H394.836V223.578H401.203V224.758H396.164V228.438H400.898V229.609H396.164V233.812H401.203V235ZM408.633 224.602C407.378 224.602 406.385 225.021 405.656 225.859C404.932 226.693 404.57 227.836 404.57 229.289C404.57 230.784 404.919 231.94 405.617 232.758C406.32 233.57 407.32 233.977 408.617 233.977C409.414 233.977 410.323 233.833 411.344 233.547V234.711C410.552 235.008 409.576 235.156 408.414 235.156C406.732 235.156 405.432 234.646 404.516 233.625C403.604 232.604 403.148 231.154 403.148 229.273C403.148 228.096 403.367 227.065 403.805 226.18C404.247 225.294 404.883 224.612 405.711 224.133C406.544 223.654 407.523 223.414 408.648 223.414C409.846 223.414 410.893 223.633 411.789 224.07L411.227 225.211C410.362 224.805 409.497 224.602 408.633 224.602ZM421.094 232.375H419.398V235H418.156V232.375H412.602V231.242L418.023 223.516H419.398V231.195H421.094V232.375ZM418.156 231.195V227.398C418.156 226.654 418.182 225.812 418.234 224.875H418.172C417.922 225.375 417.688 225.789 417.469 226.117L413.898 231.195H418.156ZM425.773 228.023C426.977 228.023 427.922 228.323 428.609 228.922C429.302 229.516 429.648 230.331 429.648 231.367C429.648 232.549 429.271 233.477 428.516 234.148C427.766 234.82 426.729 235.156 425.406 235.156C424.12 235.156 423.138 234.951 422.461 234.539V233.289C422.826 233.523 423.279 233.708 423.82 233.844C424.362 233.974 424.896 234.039 425.422 234.039C426.339 234.039 427.049 233.823 427.555 233.391C428.065 232.958 428.32 232.333 428.32 231.516C428.32 229.922 427.344 229.125 425.391 229.125C424.896 229.125 424.234 229.201 423.406 229.352L422.734 228.922L423.164 223.578H428.844V224.773H424.273L423.984 228.203C424.583 228.083 425.18 228.023 425.773 228.023ZM435.141 223.414C436.182 223.414 437.008 223.656 437.617 224.141C438.227 224.625 438.531 225.294 438.531 226.148C438.531 226.711 438.357 227.224 438.008 227.688C437.659 228.151 437.102 228.573 436.336 228.953C437.263 229.396 437.922 229.862 438.312 230.352C438.703 230.836 438.898 231.398 438.898 232.039C438.898 232.987 438.568 233.745 437.906 234.312C437.245 234.875 436.339 235.156 435.188 235.156C433.969 235.156 433.031 234.891 432.375 234.359C431.719 233.823 431.391 233.065 431.391 232.086C431.391 230.779 432.188 229.76 433.781 229.031C433.062 228.625 432.547 228.188 432.234 227.719C431.922 227.245 431.766 226.716 431.766 226.133C431.766 225.305 432.07 224.646 432.68 224.156C433.294 223.661 434.115 223.414 435.141 223.414ZM432.672 232.117C432.672 232.742 432.888 233.229 433.32 233.578C433.758 233.927 434.37 234.102 435.156 234.102C435.932 234.102 436.536 233.919 436.969 233.555C437.401 233.19 437.617 232.69 437.617 232.055C437.617 231.549 437.414 231.102 437.008 230.711C436.602 230.315 435.893 229.932 434.883 229.562C434.107 229.896 433.544 230.266 433.195 230.672C432.846 231.073 432.672 231.555 432.672 232.117ZM435.125 224.469C434.474 224.469 433.964 224.625 433.594 224.938C433.224 225.25 433.039 225.667 433.039 226.188C433.039 226.667 433.193 227.078 433.5 227.422C433.807 227.766 434.375 228.109 435.203 228.453C435.948 228.141 436.474 227.805 436.781 227.445C437.094 227.086 437.25 226.667 437.25 226.188C437.25 225.661 437.06 225.245 436.68 224.938C436.305 224.625 435.786 224.469 435.125 224.469Z" fill="#001B36"/>
<path d="M381.664 227.977L381.148 230.633H383.359V231.641H380.961L380.305 235H379.234L379.891 231.641H377.523L376.883 235H375.82L376.445 231.641H374.398V230.633H376.641L377.172 227.977H375.008V226.984H377.344L377.984 223.578H379.07L378.43 226.984H380.812L381.469 223.578H382.516L381.859 226.984H383.922V227.977H381.664ZM377.711 230.633H380.078L380.594 227.977H378.227L377.711 230.633Z" fill="#001B36"/>
<path d="M377.623 199.062V205H375.963V190.723H379.879C381.63 190.723 382.923 191.058 383.756 191.729C384.596 192.399 385.016 193.408 385.016 194.756C385.016 196.644 384.059 197.92 382.145 198.584L386.021 205H384.059L380.602 199.062H377.623ZM377.623 197.637H379.898C381.07 197.637 381.93 197.406 382.477 196.943C383.023 196.475 383.297 195.775 383.297 194.844C383.297 193.9 383.017 193.219 382.457 192.803C381.904 192.386 381.012 192.178 379.781 192.178H377.623V197.637ZM393.346 205H391.764V194.824C391.764 193.978 391.79 193.177 391.842 192.422C391.705 192.559 391.552 192.702 391.383 192.852C391.214 193.001 390.439 193.636 389.059 194.756L388.199 193.643L391.979 190.723H393.346V205ZM408.248 197.842C408.248 200.309 407.857 202.152 407.076 203.369C406.301 204.587 405.113 205.195 403.512 205.195C401.975 205.195 400.807 204.574 400.006 203.33C399.205 202.08 398.805 200.251 398.805 197.842C398.805 195.355 399.192 193.509 399.967 192.305C400.742 191.1 401.923 190.498 403.512 190.498C405.061 190.498 406.236 191.126 407.037 192.383C407.844 193.639 408.248 195.459 408.248 197.842ZM400.445 197.842C400.445 199.919 400.689 201.432 401.178 202.383C401.666 203.327 402.444 203.799 403.512 203.799C404.592 203.799 405.374 203.32 405.855 202.363C406.344 201.4 406.588 199.893 406.588 197.842C406.588 195.791 406.344 194.29 405.855 193.34C405.374 192.383 404.592 191.904 403.512 191.904C402.444 191.904 401.666 192.376 401.178 193.32C400.689 194.258 400.445 195.765 400.445 197.842ZM419.693 197.842C419.693 200.309 419.303 202.152 418.521 203.369C417.747 204.587 416.559 205.195 414.957 205.195C413.421 205.195 412.252 204.574 411.451 203.33C410.65 202.08 410.25 200.251 410.25 197.842C410.25 195.355 410.637 193.509 411.412 192.305C412.187 191.1 413.368 190.498 414.957 190.498C416.507 190.498 417.682 191.126 418.482 192.383C419.29 193.639 419.693 195.459 419.693 197.842ZM411.891 197.842C411.891 199.919 412.135 201.432 412.623 202.383C413.111 203.327 413.889 203.799 414.957 203.799C416.038 203.799 416.819 203.32 417.301 202.363C417.789 201.4 418.033 199.893 418.033 197.842C418.033 195.791 417.789 194.29 417.301 193.34C416.819 192.383 416.038 191.904 414.957 191.904C413.889 191.904 413.111 192.376 412.623 193.32C412.135 194.258 411.891 195.765 411.891 197.842Z" fill="#001B36"/>
<g filter="url(#filter5_d)">
<path d="M238 276C238 271.582 241.582 268 246 268H350C354.418 268 358 271.582 358 276V340C358 344.418 354.418 348 350 348H278C255.909 348 238 330.091 238 308V276Z" fill="#F7F6F6"/>
</g>
<path d="M393.828 328.375H392.133V331H390.891V328.375H385.336V327.242L390.758 319.516H392.133V327.195H393.828V328.375ZM390.891 327.195V323.398C390.891 322.654 390.917 321.812 390.969 320.875H390.906C390.656 321.375 390.422 321.789 390.203 322.117L386.633 327.195H390.891ZM396.383 331L401.117 320.773H394.891V319.578H402.492V320.617L397.82 331H396.383ZM409.773 320.602C408.518 320.602 407.526 321.021 406.797 321.859C406.073 322.693 405.711 323.836 405.711 325.289C405.711 326.784 406.06 327.94 406.758 328.758C407.461 329.57 408.461 329.977 409.758 329.977C410.555 329.977 411.464 329.833 412.484 329.547V330.711C411.693 331.008 410.716 331.156 409.555 331.156C407.872 331.156 406.573 330.646 405.656 329.625C404.745 328.604 404.289 327.154 404.289 325.273C404.289 324.096 404.508 323.065 404.945 322.18C405.388 321.294 406.023 320.612 406.852 320.133C407.685 319.654 408.664 319.414 409.789 319.414C410.987 319.414 412.034 319.633 412.93 320.07L412.367 321.211C411.503 320.805 410.638 320.602 409.773 320.602ZM421.695 331H414.188V329.883L417.195 326.859C418.112 325.932 418.716 325.271 419.008 324.875C419.299 324.479 419.518 324.094 419.664 323.719C419.81 323.344 419.883 322.94 419.883 322.508C419.883 321.898 419.698 321.417 419.328 321.062C418.958 320.703 418.445 320.523 417.789 320.523C417.315 320.523 416.865 320.602 416.438 320.758C416.016 320.914 415.544 321.198 415.023 321.609L414.336 320.727C415.388 319.852 416.534 319.414 417.773 319.414C418.846 319.414 419.688 319.69 420.297 320.242C420.906 320.789 421.211 321.526 421.211 322.453C421.211 323.177 421.008 323.893 420.602 324.602C420.195 325.31 419.435 326.206 418.32 327.289L415.82 329.734V329.797H421.695V331ZM430.852 324.453C430.852 328.922 429.122 331.156 425.664 331.156C425.06 331.156 424.581 331.104 424.227 331V329.883C424.643 330.018 425.117 330.086 425.648 330.086C426.898 330.086 427.841 329.701 428.477 328.93C429.117 328.154 429.466 326.966 429.523 325.367H429.43C429.143 325.799 428.763 326.13 428.289 326.359C427.815 326.583 427.281 326.695 426.688 326.695C425.677 326.695 424.875 326.393 424.281 325.789C423.688 325.185 423.391 324.341 423.391 323.258C423.391 322.07 423.721 321.133 424.383 320.445C425.049 319.758 425.924 319.414 427.008 319.414C427.784 319.414 428.461 319.615 429.039 320.016C429.622 320.411 430.07 320.992 430.383 321.758C430.695 322.518 430.852 323.417 430.852 324.453ZM427.008 320.523C426.263 320.523 425.688 320.763 425.281 321.242C424.875 321.721 424.672 322.388 424.672 323.242C424.672 323.992 424.859 324.583 425.234 325.016C425.609 325.443 426.18 325.656 426.945 325.656C427.419 325.656 427.854 325.56 428.25 325.367C428.651 325.174 428.966 324.911 429.195 324.578C429.424 324.245 429.539 323.896 429.539 323.531C429.539 322.984 429.432 322.479 429.219 322.016C429.005 321.552 428.706 321.188 428.32 320.922C427.94 320.656 427.503 320.523 427.008 320.523ZM432.633 326.117C432.633 323.872 433.068 322.195 433.938 321.086C434.812 319.971 436.104 319.414 437.812 319.414C438.401 319.414 438.865 319.464 439.203 319.562V320.68C438.802 320.549 438.344 320.484 437.828 320.484C436.604 320.484 435.669 320.867 435.023 321.633C434.378 322.393 434.023 323.591 433.961 325.227H434.055C434.628 324.331 435.534 323.883 436.773 323.883C437.799 323.883 438.607 324.193 439.195 324.812C439.789 325.432 440.086 326.273 440.086 327.336C440.086 328.523 439.76 329.458 439.109 330.141C438.464 330.818 437.589 331.156 436.484 331.156C435.302 331.156 434.365 330.714 433.672 329.828C432.979 328.938 432.633 327.701 432.633 326.117ZM436.469 330.055C437.208 330.055 437.781 329.823 438.188 329.359C438.599 328.891 438.805 328.216 438.805 327.336C438.805 326.581 438.615 325.987 438.234 325.555C437.854 325.122 437.286 324.906 436.531 324.906C436.062 324.906 435.633 325.003 435.242 325.195C434.852 325.388 434.539 325.654 434.305 325.992C434.076 326.331 433.961 326.682 433.961 327.047C433.961 327.583 434.065 328.083 434.273 328.547C434.482 329.01 434.776 329.378 435.156 329.648C435.542 329.919 435.979 330.055 436.469 330.055Z" fill="#001B36"/>
<path d="M381.664 323.977L381.148 326.633H383.359V327.641H380.961L380.305 331H379.234L379.891 327.641H377.523L376.883 331H375.82L376.445 327.641H374.398V326.633H376.641L377.172 323.977H375.008V322.984H377.344L377.984 319.578H379.07L378.43 322.984H380.812L381.469 319.578H382.516L381.859 322.984H383.922V323.977H381.664ZM377.711 326.633H380.078L380.594 323.977H378.227L377.711 326.633Z" fill="#001B36"/>
<path d="M382.242 293.52H387.096V300.463C386.34 300.704 385.572 300.886 384.791 301.01C384.01 301.133 383.105 301.195 382.076 301.195C379.915 301.195 378.232 300.554 377.027 299.271C375.823 297.982 375.221 296.179 375.221 293.861C375.221 292.377 375.517 291.078 376.109 289.965C376.708 288.845 377.568 287.992 378.688 287.406C379.807 286.814 381.119 286.518 382.623 286.518C384.146 286.518 385.566 286.798 386.881 287.357L386.236 288.822C384.947 288.275 383.707 288.002 382.516 288.002C380.777 288.002 379.42 288.52 378.443 289.555C377.467 290.59 376.979 292.025 376.979 293.861C376.979 295.788 377.447 297.25 378.385 298.246C379.329 299.242 380.712 299.74 382.535 299.74C383.525 299.74 384.492 299.626 385.436 299.398V295.004H382.242V293.52ZM395.553 301H393.971V290.824C393.971 289.978 393.997 289.177 394.049 288.422C393.912 288.559 393.759 288.702 393.59 288.852C393.421 289.001 392.646 289.636 391.266 290.756L390.406 289.643L394.186 286.723H395.553V301ZM410.455 293.842C410.455 296.309 410.064 298.152 409.283 299.369C408.508 300.587 407.32 301.195 405.719 301.195C404.182 301.195 403.014 300.574 402.213 299.33C401.412 298.08 401.012 296.251 401.012 293.842C401.012 291.355 401.399 289.509 402.174 288.305C402.949 287.1 404.13 286.498 405.719 286.498C407.268 286.498 408.443 287.126 409.244 288.383C410.051 289.639 410.455 291.459 410.455 293.842ZM402.652 293.842C402.652 295.919 402.896 297.432 403.385 298.383C403.873 299.327 404.651 299.799 405.719 299.799C406.799 299.799 407.581 299.32 408.062 298.363C408.551 297.4 408.795 295.893 408.795 293.842C408.795 291.791 408.551 290.29 408.062 289.34C407.581 288.383 406.799 287.904 405.719 287.904C404.651 287.904 403.873 288.376 403.385 289.32C402.896 290.258 402.652 291.765 402.652 293.842ZM421.9 293.842C421.9 296.309 421.51 298.152 420.729 299.369C419.954 300.587 418.766 301.195 417.164 301.195C415.628 301.195 414.459 300.574 413.658 299.33C412.857 298.08 412.457 296.251 412.457 293.842C412.457 291.355 412.844 289.509 413.619 288.305C414.394 287.1 415.576 286.498 417.164 286.498C418.714 286.498 419.889 287.126 420.689 288.383C421.497 289.639 421.9 291.459 421.9 293.842ZM414.098 293.842C414.098 295.919 414.342 297.432 414.83 298.383C415.318 299.327 416.096 299.799 417.164 299.799C418.245 299.799 419.026 299.32 419.508 298.363C419.996 297.4 420.24 295.893 420.24 293.842C420.24 291.791 419.996 290.29 419.508 289.34C419.026 288.383 418.245 287.904 417.164 287.904C416.096 287.904 415.318 288.376 414.83 289.32C414.342 290.258 414.098 291.765 414.098 293.842Z" fill="#001B36"/>
<g filter="url(#filter6_d)">
<path d="M238 372C238 367.582 241.582 364 246 364H350C354.418 364 358 367.582 358 372V436C358 440.418 354.418 444 350 444H278C255.909 444 238 426.091 238 404V372Z" fill="#697580"/>
</g>
<path d="M386.57 415.578H389.797C391.312 415.578 392.409 415.805 393.086 416.258C393.763 416.711 394.102 417.427 394.102 418.406C394.102 419.083 393.911 419.643 393.531 420.086C393.156 420.523 392.607 420.807 391.883 420.938V421.016C393.617 421.312 394.484 422.224 394.484 423.75C394.484 424.771 394.138 425.568 393.445 426.141C392.758 426.714 391.794 427 390.555 427H386.57V415.578ZM387.898 420.469H390.086C391.023 420.469 391.698 420.323 392.109 420.031C392.521 419.734 392.727 419.237 392.727 418.539C392.727 417.898 392.497 417.438 392.039 417.156C391.581 416.87 390.852 416.727 389.852 416.727H387.898V420.469ZM387.898 421.594V425.867H390.281C391.203 425.867 391.896 425.69 392.359 425.336C392.828 424.977 393.062 424.417 393.062 423.656C393.062 422.948 392.823 422.427 392.344 422.094C391.87 421.76 391.146 421.594 390.172 421.594H387.898ZM401.836 416.602C400.581 416.602 399.589 417.021 398.859 417.859C398.135 418.693 397.773 419.836 397.773 421.289C397.773 422.784 398.122 423.94 398.82 424.758C399.523 425.57 400.523 425.977 401.82 425.977C402.617 425.977 403.526 425.833 404.547 425.547V426.711C403.755 427.008 402.779 427.156 401.617 427.156C399.935 427.156 398.635 426.646 397.719 425.625C396.807 424.604 396.352 423.154 396.352 421.273C396.352 420.096 396.57 419.065 397.008 418.18C397.451 417.294 398.086 416.612 398.914 416.133C399.747 415.654 400.727 415.414 401.852 415.414C403.049 415.414 404.096 415.633 404.992 416.07L404.43 417.211C403.565 416.805 402.701 416.602 401.836 416.602ZM416.156 421.18C416.156 423.065 415.643 424.508 414.617 425.508C413.596 426.503 412.125 427 410.203 427H407.039V415.578H410.539C412.315 415.578 413.695 416.07 414.68 417.055C415.664 418.039 416.156 419.414 416.156 421.18ZM414.75 421.227C414.75 419.737 414.375 418.615 413.625 417.859C412.88 417.104 411.771 416.727 410.297 416.727H408.367V425.852H409.984C411.568 425.852 412.758 425.464 413.555 424.688C414.352 423.906 414.75 422.753 414.75 421.227ZM420.039 427H418.711V415.578H425.078V416.758H420.039V420.938H424.773V422.117H420.039V427ZM428.305 427H426.977V415.578H433.344V416.758H428.305V420.938H433.039V422.117H428.305V427ZM444.359 421.18C444.359 423.065 443.846 424.508 442.82 425.508C441.799 426.503 440.328 427 438.406 427H435.242V415.578H438.742C440.518 415.578 441.898 416.07 442.883 417.055C443.867 418.039 444.359 419.414 444.359 421.18ZM442.953 421.227C442.953 419.737 442.578 418.615 441.828 417.859C441.083 417.104 439.974 416.727 438.5 416.727H436.57V425.852H438.188C439.771 425.852 440.961 425.464 441.758 424.688C442.555 423.906 442.953 422.753 442.953 421.227Z" fill="#001B36"/>
<path d="M381.664 419.977L381.148 422.633H383.359V423.641H380.961L380.305 427H379.234L379.891 423.641H377.523L376.883 427H375.82L376.445 423.641H374.398V422.633H376.641L377.172 419.977H375.008V418.984H377.344L377.984 415.578H379.07L378.43 418.984H380.812L381.469 415.578H382.516L381.859 418.984H383.922V419.977H381.664ZM377.711 422.633H380.078L380.594 419.977H378.227L377.711 422.633Z" fill="#001B36"/>
<path d="M387.359 389.725C387.359 392.081 386.718 393.885 385.436 395.135C384.16 396.378 382.32 397 379.918 397H375.963V382.723H380.338C382.558 382.723 384.283 383.338 385.514 384.568C386.744 385.799 387.359 387.518 387.359 389.725ZM385.602 389.783C385.602 387.921 385.133 386.518 384.195 385.574C383.264 384.63 381.878 384.158 380.035 384.158H377.623V395.564H379.645C381.624 395.564 383.111 395.079 384.107 394.109C385.104 393.133 385.602 391.691 385.602 389.783ZM395.572 397H393.99V386.824C393.99 385.978 394.016 385.177 394.068 384.422C393.932 384.559 393.779 384.702 393.609 384.852C393.44 385.001 392.665 385.636 391.285 386.756L390.426 385.643L394.205 382.723H395.572V397ZM410.475 389.842C410.475 392.309 410.084 394.152 409.303 395.369C408.528 396.587 407.34 397.195 405.738 397.195C404.202 397.195 403.033 396.574 402.232 395.33C401.432 394.08 401.031 392.251 401.031 389.842C401.031 387.355 401.419 385.509 402.193 384.305C402.968 383.1 404.15 382.498 405.738 382.498C407.288 382.498 408.463 383.126 409.264 384.383C410.071 385.639 410.475 387.459 410.475 389.842ZM402.672 389.842C402.672 391.919 402.916 393.432 403.404 394.383C403.893 395.327 404.671 395.799 405.738 395.799C406.819 395.799 407.6 395.32 408.082 394.363C408.57 393.4 408.814 391.893 408.814 389.842C408.814 387.791 408.57 386.29 408.082 385.34C407.6 384.383 406.819 383.904 405.738 383.904C404.671 383.904 403.893 384.376 403.404 385.32C402.916 386.258 402.672 387.765 402.672 389.842ZM421.92 389.842C421.92 392.309 421.529 394.152 420.748 395.369C419.973 396.587 418.785 397.195 417.184 397.195C415.647 397.195 414.479 396.574 413.678 395.33C412.877 394.08 412.477 392.251 412.477 389.842C412.477 387.355 412.864 385.509 413.639 384.305C414.413 383.1 415.595 382.498 417.184 382.498C418.733 382.498 419.908 383.126 420.709 384.383C421.516 385.639 421.92 387.459 421.92 389.842ZM414.117 389.842C414.117 391.919 414.361 393.432 414.85 394.383C415.338 395.327 416.116 395.799 417.184 395.799C418.264 395.799 419.046 395.32 419.527 394.363C420.016 393.4 420.26 391.893 420.26 389.842C420.26 387.791 420.016 386.29 419.527 385.34C419.046 384.383 418.264 383.904 417.184 383.904C416.116 383.904 415.338 384.376 414.85 385.32C414.361 386.258 414.117 387.765 414.117 389.842Z" fill="#001B36"/>
<g filter="url(#filter7_d)">
<path d="M238 468C238 463.582 241.582 460 246 460H350C354.418 460 358 463.582 358 468V532C358 536.418 354.418 540 350 540H278C255.909 540 238 522.091 238 500V468Z" fill="#C9D6DF"/>
</g>
<path d="M391.461 512.602C390.206 512.602 389.214 513.021 388.484 513.859C387.76 514.693 387.398 515.836 387.398 517.289C387.398 518.784 387.747 519.94 388.445 520.758C389.148 521.57 390.148 521.977 391.445 521.977C392.242 521.977 393.151 521.833 394.172 521.547V522.711C393.38 523.008 392.404 523.156 391.242 523.156C389.56 523.156 388.26 522.646 387.344 521.625C386.432 520.604 385.977 519.154 385.977 517.273C385.977 516.096 386.195 515.065 386.633 514.18C387.076 513.294 387.711 512.612 388.539 512.133C389.372 511.654 390.352 511.414 391.477 511.414C392.674 511.414 393.721 511.633 394.617 512.07L394.055 513.211C393.19 512.805 392.326 512.602 391.461 512.602ZM403.383 516.453C403.383 520.922 401.654 523.156 398.195 523.156C397.591 523.156 397.112 523.104 396.758 523V521.883C397.174 522.018 397.648 522.086 398.18 522.086C399.43 522.086 400.372 521.701 401.008 520.93C401.648 520.154 401.997 518.966 402.055 517.367H401.961C401.674 517.799 401.294 518.13 400.82 518.359C400.346 518.583 399.812 518.695 399.219 518.695C398.208 518.695 397.406 518.393 396.812 517.789C396.219 517.185 395.922 516.341 395.922 515.258C395.922 514.07 396.253 513.133 396.914 512.445C397.581 511.758 398.456 511.414 399.539 511.414C400.315 511.414 400.992 511.615 401.57 512.016C402.154 512.411 402.602 512.992 402.914 513.758C403.227 514.518 403.383 515.417 403.383 516.453ZM399.539 512.523C398.794 512.523 398.219 512.763 397.812 513.242C397.406 513.721 397.203 514.388 397.203 515.242C397.203 515.992 397.391 516.583 397.766 517.016C398.141 517.443 398.711 517.656 399.477 517.656C399.951 517.656 400.385 517.56 400.781 517.367C401.182 517.174 401.497 516.911 401.727 516.578C401.956 516.245 402.07 515.896 402.07 515.531C402.07 514.984 401.964 514.479 401.75 514.016C401.536 513.552 401.237 513.188 400.852 512.922C400.471 512.656 400.034 512.523 399.539 512.523ZM414.938 517.18C414.938 519.065 414.424 520.508 413.398 521.508C412.378 522.503 410.906 523 408.984 523H405.82V511.578H409.32C411.096 511.578 412.477 512.07 413.461 513.055C414.445 514.039 414.938 515.414 414.938 517.18ZM413.531 517.227C413.531 515.737 413.156 514.615 412.406 513.859C411.661 513.104 410.552 512.727 409.078 512.727H407.148V521.852H408.766C410.349 521.852 411.539 521.464 412.336 520.688C413.133 519.906 413.531 518.753 413.531 517.227ZM416.836 518.117C416.836 515.872 417.271 514.195 418.141 513.086C419.016 511.971 420.307 511.414 422.016 511.414C422.604 511.414 423.068 511.464 423.406 511.562V512.68C423.005 512.549 422.547 512.484 422.031 512.484C420.807 512.484 419.872 512.867 419.227 513.633C418.581 514.393 418.227 515.591 418.164 517.227H418.258C418.831 516.331 419.737 515.883 420.977 515.883C422.003 515.883 422.81 516.193 423.398 516.812C423.992 517.432 424.289 518.273 424.289 519.336C424.289 520.523 423.964 521.458 423.312 522.141C422.667 522.818 421.792 523.156 420.688 523.156C419.505 523.156 418.568 522.714 417.875 521.828C417.182 520.938 416.836 519.701 416.836 518.117ZM420.672 522.055C421.411 522.055 421.984 521.823 422.391 521.359C422.802 520.891 423.008 520.216 423.008 519.336C423.008 518.581 422.818 517.987 422.438 517.555C422.057 517.122 421.49 516.906 420.734 516.906C420.266 516.906 419.836 517.003 419.445 517.195C419.055 517.388 418.742 517.654 418.508 517.992C418.279 518.331 418.164 518.682 418.164 519.047C418.164 519.583 418.268 520.083 418.477 520.547C418.685 521.01 418.979 521.378 419.359 521.648C419.745 521.919 420.182 522.055 420.672 522.055ZM435.766 517.18C435.766 519.065 435.253 520.508 434.227 521.508C433.206 522.503 431.734 523 429.812 523H426.648V511.578H430.148C431.924 511.578 433.305 512.07 434.289 513.055C435.273 514.039 435.766 515.414 435.766 517.18ZM434.359 517.227C434.359 515.737 433.984 514.615 433.234 513.859C432.49 513.104 431.38 512.727 429.906 512.727H427.977V521.852H429.594C431.177 521.852 432.367 521.464 433.164 520.688C433.961 519.906 434.359 518.753 434.359 517.227ZM439.648 523H438.32V511.578H444.688V512.758H439.648V516.938H444.383V518.117H439.648V523Z" fill="#001B36"/>
<path d="M381.664 515.977L381.148 518.633H383.359V519.641H380.961L380.305 523H379.234L379.891 519.641H377.523L376.883 523H375.82L376.445 519.641H374.398V518.633H376.641L377.172 515.977H375.008V514.984H377.344L377.984 511.578H379.07L378.43 514.984H380.812L381.469 511.578H382.516L381.859 514.984H383.922V515.977H381.664ZM377.711 518.633H380.078L380.594 515.977H378.227L377.711 518.633Z" fill="#001B36"/>
<path d="M387.359 485.725C387.359 488.081 386.718 489.885 385.436 491.135C384.16 492.378 382.32 493 379.918 493H375.963V478.723H380.338C382.558 478.723 384.283 479.338 385.514 480.568C386.744 481.799 387.359 483.518 387.359 485.725ZM385.602 485.783C385.602 483.921 385.133 482.518 384.195 481.574C383.264 480.63 381.878 480.158 380.035 480.158H377.623V491.564H379.645C381.624 491.564 383.111 491.079 384.107 490.109C385.104 489.133 385.602 487.691 385.602 485.783ZM398.951 493H389.566V491.604L393.326 487.824C394.472 486.665 395.227 485.839 395.592 485.344C395.956 484.849 396.23 484.367 396.412 483.898C396.594 483.43 396.686 482.925 396.686 482.385C396.686 481.623 396.454 481.021 395.992 480.578C395.53 480.129 394.889 479.904 394.068 479.904C393.476 479.904 392.913 480.002 392.379 480.197C391.852 480.393 391.262 480.747 390.611 481.262L389.752 480.158C391.067 479.064 392.499 478.518 394.049 478.518C395.39 478.518 396.441 478.863 397.203 479.553C397.965 480.236 398.346 481.158 398.346 482.316C398.346 483.221 398.092 484.117 397.584 485.002C397.076 485.887 396.126 487.007 394.732 488.361L391.607 491.418V491.496H398.951V493ZM410.475 485.842C410.475 488.309 410.084 490.152 409.303 491.369C408.528 492.587 407.34 493.195 405.738 493.195C404.202 493.195 403.033 492.574 402.232 491.33C401.432 490.08 401.031 488.251 401.031 485.842C401.031 483.355 401.419 481.509 402.193 480.305C402.968 479.1 404.15 478.498 405.738 478.498C407.288 478.498 408.463 479.126 409.264 480.383C410.071 481.639 410.475 483.459 410.475 485.842ZM402.672 485.842C402.672 487.919 402.916 489.432 403.404 490.383C403.893 491.327 404.671 491.799 405.738 491.799C406.819 491.799 407.6 491.32 408.082 490.363C408.57 489.4 408.814 487.893 408.814 485.842C408.814 483.791 408.57 482.29 408.082 481.34C407.6 480.383 406.819 479.904 405.738 479.904C404.671 479.904 403.893 480.376 403.404 481.32C402.916 482.258 402.672 483.765 402.672 485.842ZM421.92 485.842C421.92 488.309 421.529 490.152 420.748 491.369C419.973 492.587 418.785 493.195 417.184 493.195C415.647 493.195 414.479 492.574 413.678 491.33C412.877 490.08 412.477 488.251 412.477 485.842C412.477 483.355 412.864 481.509 413.639 480.305C414.413 479.1 415.595 478.498 417.184 478.498C418.733 478.498 419.908 479.126 420.709 480.383C421.516 481.639 421.92 483.459 421.92 485.842ZM414.117 485.842C414.117 487.919 414.361 489.432 414.85 490.383C415.338 491.327 416.116 491.799 417.184 491.799C418.264 491.799 419.046 491.32 419.527 490.363C420.016 489.4 420.26 487.893 420.26 485.842C420.26 483.791 420.016 482.29 419.527 481.34C419.046 480.383 418.264 479.904 417.184 479.904C416.116 479.904 415.338 480.376 414.85 481.32C414.361 482.258 414.117 483.765 414.117 485.842Z" fill="#001B36"/>
<defs>
<filter id="filter0_d" x="1" y="172" width="124" height="86" filterUnits="userSpaceOnUse" color-interpolation-filters="sRGB">
<feFlood flood-opacity="0" result="BackgroundImageFix"/>
<feColorMatrix in="SourceAlpha" type="matrix" values="0 0 0 0 0 0 0 0 0 0 0 0 0 0 0 0 0 0 127 0"/>
<feOffset dx="2" dy="4"/>
<feGaussianBlur stdDeviation="1"/>
<feColorMatrix type="matrix" values="0 0 0 0 0 0 0 0 0 0 0 0 0 0 0 0 0 0 0.08 0"/>
<feBlend mode="normal" in2="BackgroundImageFix" result="effect1_dropShadow"/>
<feBlend mode="normal" in="SourceGraphic" in2="effect1_dropShadow" result="shape"/>
</filter>
<filter id="filter1_d" x="1" y="268" width="124" height="86" filterUnits="userSpaceOnUse" color-interpolation-filters="sRGB">
<feFlood flood-opacity="0" result="BackgroundImageFix"/>
<feColorMatrix in="SourceAlpha" type="matrix" values="0 0 0 0 0 0 0 0 0 0 0 0 0 0 0 0 0 0 127 0"/>
<feOffset dx="2" dy="4"/>
<feGaussianBlur stdDeviation="1"/>
<feColorMatrix type="matrix" values="0 0 0 0 0 0 0 0 0 0 0 0 0 0 0 0 0 0 0.08 0"/>
<feBlend mode="normal" in2="BackgroundImageFix" result="effect1_dropShadow"/>
<feBlend mode="normal" in="SourceGraphic" in2="effect1_dropShadow" result="shape"/>
</filter>
<filter id="filter2_d" x="1" y="364" width="124" height="86" filterUnits="userSpaceOnUse" color-interpolation-filters="sRGB">
<feFlood flood-opacity="0" result="BackgroundImageFix"/>
<feColorMatrix in="SourceAlpha" type="matrix" values="0 0 0 0 0 0 0 0 0 0 0 0 0 0 0 0 0 0 127 0"/>
<feOffset dx="2" dy="4"/>
<feGaussianBlur stdDeviation="1"/>
<feColorMatrix type="matrix" values="0 0 0 0 0 0 0 0 0 0 0 0 0 0 0 0 0 0 0.08 0"/>
<feBlend mode="normal" in2="BackgroundImageFix" result="effect1_dropShadow"/>
<feBlend mode="normal" in="SourceGraphic" in2="effect1_dropShadow" result="shape"/>
</filter>
<filter id="filter3_d" x="1" y="460" width="124" height="86" filterUnits="userSpaceOnUse" color-interpolation-filters="sRGB">
<feFlood flood-opacity="0" result="BackgroundImageFix"/>
<feColorMatrix in="SourceAlpha" type="matrix" values="0 0 0 0 0 0 0 0 0 0 0 0 0 0 0 0 0 0 127 0"/>
<feOffset dx="2" dy="4"/>
<feGaussianBlur stdDeviation="1"/>
<feColorMatrix type="matrix" values="0 0 0 0 0 0 0 0 0 0 0 0 0 0 0 0 0 0 0.08 0"/>
<feBlend mode="normal" in2="BackgroundImageFix" result="effect1_dropShadow"/>
<feBlend mode="normal" in="SourceGraphic" in2="effect1_dropShadow" result="shape"/>
</filter>
<filter id="filter4_d" x="238" y="172" width="124" height="86" filterUnits="userSpaceOnUse" color-interpolation-filters="sRGB">
<feFlood flood-opacity="0" result="BackgroundImageFix"/>
<feColorMatrix in="SourceAlpha" type="matrix" values="0 0 0 0 0 0 0 0 0 0 0 0 0 0 0 0 0 0 127 0"/>
<feOffset dx="2" dy="4"/>
<feGaussianBlur stdDeviation="1"/>
<feColorMatrix type="matrix" values="0 0 0 0 0 0 0 0 0 0 0 0 0 0 0 0 0 0 0.08 0"/>
<feBlend mode="normal" in2="BackgroundImageFix" result="effect1_dropShadow"/>
<feBlend mode="normal" in="SourceGraphic" in2="effect1_dropShadow" result="shape"/>
</filter>
<filter id="filter5_d" x="238" y="268" width="124" height="86" filterUnits="userSpaceOnUse" color-interpolation-filters="sRGB">
<feFlood flood-opacity="0" result="BackgroundImageFix"/>
<feColorMatrix in="SourceAlpha" type="matrix" values="0 0 0 0 0 0 0 0 0 0 0 0 0 0 0 0 0 0 127 0"/>
<feOffset dx="2" dy="4"/>
<feGaussianBlur stdDeviation="1"/>
<feColorMatrix type="matrix" values="0 0 0 0 0 0 0 0 0 0 0 0 0 0 0 0 0 0 0.08 0"/>
<feBlend mode="normal" in2="BackgroundImageFix" result="effect1_dropShadow"/>
<feBlend mode="normal" in="SourceGraphic" in2="effect1_dropShadow" result="shape"/>
</filter>
<filter id="filter6_d" x="238" y="364" width="124" height="86" filterUnits="userSpaceOnUse" color-interpolation-filters="sRGB">
<feFlood flood-opacity="0" result="BackgroundImageFix"/>
<feColorMatrix in="SourceAlpha" type="matrix" values="0 0 0 0 0 0 0 0 0 0 0 0 0 0 0 0 0 0 127 0"/>
<feOffset dx="2" dy="4"/>
<feGaussianBlur stdDeviation="1"/>
<feColorMatrix type="matrix" values="0 0 0 0 0 0 0 0 0 0 0 0 0 0 0 0 0 0 0.08 0"/>
<feBlend mode="normal" in2="BackgroundImageFix" result="effect1_dropShadow"/>
<feBlend mode="normal" in="SourceGraphic" in2="effect1_dropShadow" result="shape"/>
</filter>
<filter id="filter7_d" x="238" y="460" width="124" height="86" filterUnits="userSpaceOnUse" color-interpolation-filters="sRGB">
<feFlood flood-opacity="0" result="BackgroundImageFix"/>
<feColorMatrix in="SourceAlpha" type="matrix" values="0 0 0 0 0 0 0 0 0 0 0 0 0 0 0 0 0 0 127 0"/>
<feOffset dx="2" dy="4"/>
<feGaussianBlur stdDeviation="1"/>
<feColorMatrix type="matrix" values="0 0 0 0 0 0 0 0 0 0 0 0 0 0 0 0 0 0 0.08 0"/>
<feBlend mode="normal" in2="BackgroundImageFix" result="effect1_dropShadow"/>
<feBlend mode="normal" in="SourceGraphic" in2="effect1_dropShadow" result="shape"/>
</filter>
</defs>
</svg>
