<svg width="3" height="2" viewBox="0 0 3 2" fill="none" xmlns="http://www.w3.org/2000/svg">
<path d="M0.605469 0.774414C0.59668 0.849609 0.568848 0.907715 0.521973 0.94873C0.475423 0.989421 0.413411 1.00977 0.335938 1.00977C0.251953 1.00977 0.18457 0.979655 0.133789 0.919434C0.0833333 0.859212 0.0581055 0.778646 0.0581055 0.677734V0.609375C0.0581055 0.543294 0.0698242 0.485189 0.0932617 0.435059C0.117025 0.384928 0.150553 0.346517 0.193848 0.319824C0.237142 0.292806 0.287272 0.279297 0.344238 0.279297C0.419759 0.279297 0.480306 0.300456 0.525879 0.342773C0.571452 0.384766 0.597982 0.443034 0.605469 0.517578H0.51123C0.503092 0.460938 0.485352 0.419922 0.458008 0.394531C0.43099 0.369141 0.393066 0.356445 0.344238 0.356445C0.284342 0.356445 0.237305 0.378581 0.203125 0.422852C0.169271 0.467122 0.152344 0.530111 0.152344 0.611816V0.680664C0.152344 0.757812 0.168457 0.819173 0.200684 0.864746C0.23291 0.910319 0.277995 0.933105 0.335938 0.933105C0.388021 0.933105 0.427897 0.921387 0.455566 0.897949C0.483561 0.874186 0.502116 0.833008 0.51123 0.774414H0.605469ZM1.28076 0.66748C1.28076 0.737142 1.26904 0.798014 1.24561 0.850098C1.22217 0.901855 1.18896 0.941406 1.146 0.96875C1.10303 0.996094 1.0529 1.00977 0.995605 1.00977C0.939616 1.00977 0.889974 0.996094 0.84668 0.96875C0.803385 0.941081 0.769694 0.901855 0.745605 0.851074C0.721842 0.799967 0.709635 0.740885 0.708984 0.673828V0.622559C0.708984 0.554199 0.720866 0.493815 0.744629 0.441406C0.768392 0.388997 0.801921 0.348958 0.845215 0.321289C0.888835 0.293294 0.938639 0.279297 0.994629 0.279297C1.0516 0.279297 1.10173 0.293132 1.14502 0.320801C1.18864 0.348145 1.22217 0.388021 1.24561 0.44043C1.26904 0.492513 1.28076 0.553223 1.28076 0.622559V0.66748ZM1.1875 0.621582C1.1875 0.537272 1.17057 0.472656 1.13672 0.427734C1.10286 0.382487 1.0555 0.359863 0.994629 0.359863C0.935384 0.359863 0.888672 0.382487 0.854492 0.427734C0.820638 0.472656 0.803223 0.535156 0.802246 0.615234V0.66748C0.802246 0.749186 0.819336 0.813477 0.853516 0.860352C0.888021 0.906901 0.935384 0.930176 0.995605 0.930176C1.05615 0.930176 1.10303 0.908203 1.13623 0.864258C1.16943 0.819987 1.18652 0.756673 1.1875 0.674316V0.621582ZM1.646 0.875488L1.84912 0.289062H1.95166L1.68799 1H1.60498L1.3418 0.289062H1.44385L1.646 0.875488ZM2.14795 1H2.0542V0.289062H2.14795V1ZM2.31982 1V0.289062H2.52051C2.58236 0.289062 2.63704 0.302734 2.68457 0.330078C2.7321 0.357422 2.76872 0.396322 2.79443 0.446777C2.82048 0.497233 2.83366 0.555176 2.83398 0.620605V0.666016C2.83398 0.733073 2.82096 0.791829 2.79492 0.842285C2.76921 0.892741 2.73226 0.931478 2.68408 0.958496C2.63623 0.985514 2.5804 0.999349 2.5166 1H2.31982ZM2.41357 0.366211V0.92334H2.51221C2.58447 0.92334 2.64062 0.900879 2.68066 0.855957C2.72103 0.811035 2.74121 0.74707 2.74121 0.664062V0.622559C2.74121 0.541829 2.72217 0.479167 2.68408 0.43457C2.64632 0.389648 2.59261 0.366862 2.52295 0.366211H2.41357Z" fill="#FE1111"/>
</svg>
