<svg width="208" height="38" viewBox="0 0 208 38" fill="none" xmlns="http://www.w3.org/2000/svg">
<path d="M80.2148 20.9999C80.2148 20.9999 84.5006 12.4285 92.0006 12.4285C99.5006 12.4285 103.786 20.9999 103.786 20.9999C103.786 20.9999 99.5006 29.5713 92.0006 29.5713C84.5006 29.5713 80.2148 20.9999 80.2148 20.9999Z" stroke="black" stroke-linecap="round" stroke-linejoin="round"/>
<path d="M91.9994 24.2142C93.7746 24.2142 95.2137 22.7751 95.2137 20.9999C95.2137 19.2247 93.7746 17.7856 91.9994 17.7856C90.2242 17.7856 88.7852 19.2247 88.7852 20.9999C88.7852 22.7751 90.2242 24.2142 91.9994 24.2142Z" stroke="black" stroke-linecap="round" stroke-linejoin="round"/>
<path d="M113.248 26V18.752C113.248 18.5493 113.248 18.3307 113.248 18.096C113.259 17.8613 113.269 17.616 113.28 17.36C112.917 17.712 112.501 18.016 112.032 18.272C111.563 18.5173 111.088 18.6933 110.608 18.8L110.288 17.312C110.501 17.28 110.757 17.2053 111.056 17.088C111.365 16.9707 111.68 16.8213 112 16.64C112.32 16.4587 112.613 16.2667 112.88 16.064C113.147 15.8507 113.355 15.6427 113.504 15.44H114.944V26H113.248ZM121.052 26.16C119.782 26.16 118.785 25.7013 118.06 24.784C117.345 23.856 116.988 22.5013 116.988 20.72C116.988 18.9387 117.345 17.5893 118.06 16.672C118.785 15.744 119.782 15.28 121.052 15.28C122.321 15.28 123.318 15.744 124.044 16.672C124.769 17.5893 125.132 18.9387 125.132 20.72C125.132 22.5013 124.769 23.856 124.044 24.784C123.318 25.7013 122.321 26.16 121.052 26.16ZM121.052 24.704C122.609 24.704 123.388 23.376 123.388 20.72C123.388 18.064 122.609 16.736 121.052 16.736C119.505 16.736 118.732 18.064 118.732 20.72C118.732 23.376 119.505 24.704 121.052 24.704ZM128.944 15.44V20.688L133.792 15.44H135.888L131.888 19.76L135.984 26H133.968L130.656 20.912L128.944 22.752V26H127.232V15.44H128.944ZM150.224 15.44L146.304 26H144.304L140.384 15.44H142.208L144.672 22.464L145.312 24.56L145.952 22.48L148.416 15.44H150.224ZM152.361 16.656C151.987 16.656 151.699 16.5653 151.497 16.384C151.305 16.192 151.209 15.9253 151.209 15.584C151.209 15.2427 151.305 14.9813 151.497 14.8C151.699 14.6187 151.987 14.528 152.361 14.528C152.723 14.528 153.001 14.6187 153.193 14.8C153.395 14.9813 153.497 15.2427 153.497 15.584C153.497 15.9253 153.395 16.192 153.193 16.384C153.001 16.5653 152.723 16.656 152.361 16.656ZM153.209 18V26H151.497V18H153.209ZM158.997 26.16C158.197 26.16 157.493 25.9947 156.885 25.664C156.288 25.3333 155.819 24.8587 155.477 24.24C155.136 23.6107 154.965 22.864 154.965 22C154.965 21.136 155.131 20.3947 155.461 19.776C155.803 19.1467 156.267 18.6667 156.853 18.336C157.451 18.0053 158.133 17.84 158.901 17.84C159.68 17.84 160.341 18 160.885 18.32C161.429 18.64 161.845 19.0773 162.133 19.632C162.421 20.1867 162.565 20.816 162.565 21.52C162.565 21.7227 162.56 21.9093 162.549 22.08C162.539 22.2507 162.523 22.3947 162.501 22.512H156.645C156.72 23.2587 156.96 23.8293 157.365 24.224C157.781 24.608 158.315 24.8 158.965 24.8C159.499 24.8 159.931 24.6987 160.261 24.496C160.592 24.2933 160.853 24.0107 161.045 23.648L162.405 24.288C162.128 24.8747 161.685 25.3333 161.077 25.664C160.48 25.9947 159.787 26.16 158.997 26.16ZM158.869 19.2C158.283 19.2 157.797 19.3707 157.413 19.712C157.04 20.0533 156.8 20.5493 156.693 21.2H160.901C160.859 20.56 160.656 20.0693 160.293 19.728C159.931 19.376 159.456 19.2 158.869 19.2ZM174.29 18H176.146L173.458 26H171.586L169.57 20.064L167.666 26H165.794L163.122 18H164.962L166.786 24.32L168.77 18H170.482L172.466 24.32L174.29 18ZM180.291 26.16C179.491 26.16 178.76 26.0053 178.099 25.696C177.438 25.3867 176.915 24.9493 176.531 24.384L177.715 23.36C177.95 23.7973 178.286 24.1493 178.723 24.416C179.171 24.672 179.704 24.8 180.323 24.8C180.814 24.8 181.203 24.7147 181.491 24.544C181.779 24.3733 181.923 24.1333 181.923 23.824C181.923 23.6213 181.854 23.4453 181.715 23.296C181.587 23.136 181.336 23.0133 180.963 22.928L179.283 22.576C178.43 22.4053 177.822 22.128 177.459 21.744C177.096 21.36 176.915 20.88 176.915 20.304C176.915 19.8667 177.043 19.4613 177.299 19.088C177.566 18.7147 177.944 18.416 178.435 18.192C178.926 17.9573 179.518 17.84 180.211 17.84C181 17.84 181.678 17.984 182.243 18.272C182.819 18.5493 183.256 18.9493 183.555 19.472L182.371 20.464C182.158 20.0373 181.854 19.7227 181.459 19.52C181.075 19.3067 180.67 19.2 180.243 19.2C179.72 19.2 179.315 19.296 179.027 19.488C178.75 19.6693 178.611 19.9093 178.611 20.208C178.611 20.4107 178.691 20.5973 178.851 20.768C179.011 20.928 179.299 21.0507 179.715 21.136L181.539 21.52C182.307 21.6693 182.846 21.9253 183.155 22.288C183.475 22.64 183.635 23.072 183.635 23.584C183.635 24.352 183.336 24.976 182.739 25.456C182.142 25.9253 181.326 26.16 180.291 26.16Z" fill="black"/>
<path d="M38.264 15.28C39.1067 15.28 39.8107 15.456 40.376 15.808C40.952 16.16 41.4 16.736 41.72 17.536L40.216 18.256C40.0667 17.7973 39.8267 17.4347 39.496 17.168C39.176 16.9013 38.728 16.768 38.152 16.768C37.5973 16.768 37.128 16.9493 36.744 17.312C36.36 17.664 36.0613 18.144 35.848 18.752C35.6453 19.36 35.544 20.0533 35.544 20.832V21.12L35.608 21.152C35.7253 20.736 35.9333 20.3947 36.232 20.128C36.5413 19.8613 36.888 19.664 37.272 19.536C37.656 19.408 38.0347 19.344 38.408 19.344C39.1013 19.344 39.7093 19.4827 40.232 19.76C40.7653 20.0267 41.176 20.4107 41.464 20.912C41.7627 21.4133 41.912 22.0107 41.912 22.704C41.912 23.76 41.576 24.6027 40.904 25.232C40.232 25.8507 39.3253 26.16 38.184 26.16C37.288 26.16 36.5253 25.936 35.896 25.488C35.2667 25.04 34.7867 24.4107 34.456 23.6C34.1253 22.7893 33.96 21.84 33.96 20.752C33.96 19.5467 34.1467 18.5387 34.52 17.728C34.904 16.9173 35.4213 16.3093 36.072 15.904C36.7227 15.488 37.4533 15.28 38.264 15.28ZM38.152 20.768C37.544 20.768 37.048 20.9493 36.664 21.312C36.28 21.664 36.088 22.128 36.088 22.704C36.088 23.0773 36.1787 23.4133 36.36 23.712C36.5413 24.0107 36.7867 24.2507 37.096 24.432C37.416 24.6027 37.768 24.688 38.152 24.688C38.8133 24.688 39.32 24.5173 39.672 24.176C40.0347 23.824 40.216 23.3333 40.216 22.704C40.216 22.1067 40.0347 21.6373 39.672 21.296C39.32 20.944 38.8133 20.768 38.152 20.768ZM47.3953 26.16C46.1259 26.16 45.1286 25.7013 44.4033 24.784C43.6886 23.856 43.3313 22.5013 43.3313 20.72C43.3313 18.9387 43.6886 17.5893 44.4033 16.672C45.1286 15.744 46.1259 15.28 47.3953 15.28C48.6646 15.28 49.6619 15.744 50.3873 16.672C51.1126 17.5893 51.4753 18.9387 51.4753 20.72C51.4753 22.5013 51.1126 23.856 50.3873 24.784C49.6619 25.7013 48.6646 26.16 47.3953 26.16ZM47.3953 24.704C48.9526 24.704 49.7313 23.376 49.7313 20.72C49.7313 18.064 48.9526 16.736 47.3953 16.736C45.8486 16.736 45.0753 18.064 45.0753 20.72C45.0753 23.376 45.8486 24.704 47.3953 24.704ZM57.0321 26.16C55.7628 26.16 54.7655 25.7013 54.0401 24.784C53.3255 23.856 52.9681 22.5013 52.9681 20.72C52.9681 18.9387 53.3255 17.5893 54.0401 16.672C54.7655 15.744 55.7628 15.28 57.0321 15.28C58.3015 15.28 59.2988 15.744 60.0241 16.672C60.7495 17.5893 61.1121 18.9387 61.1121 20.72C61.1121 22.5013 60.7495 23.856 60.0241 24.784C59.2988 25.7013 58.3015 26.16 57.0321 26.16ZM57.0321 24.704C58.5895 24.704 59.3681 23.376 59.3681 20.72C59.3681 18.064 58.5895 16.736 57.0321 16.736C55.4855 16.736 54.7121 18.064 54.7121 20.72C54.7121 23.376 55.4855 24.704 57.0321 24.704Z" fill="black"/>
<path d="M17.1423 15.7856V11.4999C17.1423 10.6474 16.8037 9.82988 16.2009 9.22709C15.5981 8.62429 14.7805 8.28564 13.928 8.28564L9.6423 17.9285V29.7142H21.728C22.2448 29.7201 22.7463 29.5389 23.1401 29.2042C23.5338 28.8695 23.7934 28.4038 23.8709 27.8928L25.3494 18.2499C25.3961 17.9428 25.3753 17.6292 25.2887 17.3309C25.2021 17.0326 25.0517 16.7567 24.8479 16.5223C24.644 16.2879 24.3917 16.1006 24.1083 15.9734C23.8249 15.8462 23.5172 15.7821 23.2066 15.7856H17.1423ZM9.6423 29.7142H6.42801C5.85969 29.7142 5.31465 29.4885 4.91278 29.0866C4.51092 28.6847 4.28516 28.1397 4.28516 27.5714V20.0714C4.28516 19.503 4.51092 18.958 4.91278 18.5561C5.31465 18.1543 5.85969 17.9285 6.42801 17.9285H9.6423" fill="#3D89FA"/>
<path d="M9.6423 29.7142H6.42801C5.85969 29.7142 5.31465 29.4885 4.91278 29.0866C4.51092 28.6847 4.28516 28.1397 4.28516 27.5714V20.0714C4.28516 19.503 4.51092 18.958 4.91278 18.5561C5.31465 18.1543 5.85969 17.9285 6.42801 17.9285H9.6423M17.1423 15.7856V11.4999C17.1423 10.6474 16.8037 9.82988 16.2009 9.22709C15.5981 8.62429 14.7805 8.28564 13.928 8.28564L9.6423 17.9285V29.7142H21.728C22.2448 29.7201 22.7463 29.5389 23.1401 29.2042C23.5338 28.8695 23.7934 28.4038 23.8709 27.8928L25.3494 18.2499C25.3961 17.9428 25.3753 17.6292 25.2887 17.3309C25.2021 17.0326 25.0517 16.7567 24.8479 16.5223C24.644 16.2879 24.3917 16.1006 24.1083 15.9734C23.8249 15.8462 23.5172 15.7821 23.2066 15.7856H17.1423Z" stroke="white" stroke-linecap="round" stroke-linejoin="round"/>
</svg>
