<svg width="372" height="41" viewBox="0 0 372 41" fill="none" xmlns="http://www.w3.org/2000/svg">
<rect width="359" height="41" rx="3" fill="#F7F6F6"/>
<path d="M78.7017 12.1428H85.3017C87.816 12.1428 89.8588 14.1857 89.8588 16.7V23.3C89.8588 24.5086 89.3787 25.6677 88.5241 26.5224C87.6694 27.377 86.5103 27.8571 85.3017 27.8571H78.7017C76.1874 27.8571 74.1445 25.8143 74.1445 23.3V16.7C74.1445 15.4913 74.6247 14.3322 75.4793 13.4776C76.3339 12.6229 77.493 12.1428 78.7017 12.1428ZM78.5445 13.7143C77.7943 13.7143 77.0749 14.0123 76.5444 14.5427C76.014 15.0732 75.716 15.7926 75.716 16.5428V23.4571C75.716 25.0207 76.981 26.2857 78.5445 26.2857H85.4588C86.209 26.2857 86.9285 25.9877 87.4589 25.4572C87.9894 24.9268 88.2874 24.2073 88.2874 23.4571V16.5428C88.2874 14.9793 87.0224 13.7143 85.4588 13.7143H78.5445ZM86.1267 14.8928C86.3872 14.8928 86.637 14.9963 86.8212 15.1805C87.0053 15.3647 87.1088 15.6145 87.1088 15.875C87.1088 16.1354 87.0053 16.3853 86.8212 16.5694C86.637 16.7536 86.3872 16.8571 86.1267 16.8571C85.8662 16.8571 85.6164 16.7536 85.4322 16.5694C85.248 16.3853 85.1445 16.1354 85.1445 15.875C85.1445 15.6145 85.248 15.3647 85.4322 15.1805C85.6164 14.9963 85.8662 14.8928 86.1267 14.8928ZM82.0017 16.0714C83.0436 16.0714 84.0428 16.4853 84.7796 17.222C85.5163 17.9588 85.9302 18.958 85.9302 20C85.9302 21.0419 85.5163 22.0411 84.7796 22.7779C84.0428 23.5146 83.0436 23.9285 82.0017 23.9285C80.9598 23.9285 79.9605 23.5146 79.2238 22.7779C78.487 22.0411 78.0731 21.0419 78.0731 20C78.0731 18.958 78.487 17.9588 79.2238 17.222C79.9605 16.4853 80.9598 16.0714 82.0017 16.0714ZM82.0017 17.6428C81.3765 17.6428 80.777 17.8912 80.3349 18.3332C79.8929 18.7753 79.6445 19.3748 79.6445 20C79.6445 20.6251 79.8929 21.2247 80.3349 21.6667C80.777 22.1088 81.3765 22.3571 82.0017 22.3571C82.6268 22.3571 83.2264 22.1088 83.6684 21.6667C84.1105 21.2247 84.3588 20.6251 84.3588 20C84.3588 19.3748 84.1105 18.7753 83.6684 18.3332C83.2264 17.8912 82.6268 17.6428 82.0017 17.6428Z" fill="#3D89FA"/>
<path d="M99.256 24H98.296V16.08H99.256V24ZM104.524 17.88C105.204 17.88 105.764 18.076 106.204 18.468C106.644 18.86 106.864 19.424 106.864 20.16V24H105.904V20.496C105.904 19.872 105.768 19.42 105.496 19.14C105.232 18.86 104.876 18.72 104.428 18.72C104.108 18.72 103.808 18.792 103.528 18.936C103.248 19.072 103.016 19.3 102.832 19.62C102.656 19.932 102.568 20.328 102.568 20.808V24H101.608V18H102.448L102.508 18.936C102.708 18.576 102.984 18.312 103.336 18.144C103.688 17.968 104.084 17.88 104.524 17.88ZM111.078 24.12C110.502 24.12 109.982 24.008 109.518 23.784C109.054 23.552 108.714 23.212 108.498 22.764L109.278 22.224C109.414 22.576 109.65 22.84 109.986 23.016C110.322 23.192 110.718 23.28 111.174 23.28C111.646 23.28 112.006 23.196 112.254 23.028C112.502 22.86 112.626 22.648 112.626 22.392C112.626 22.16 112.51 21.976 112.278 21.84C112.046 21.696 111.638 21.572 111.054 21.468C110.478 21.364 110.022 21.24 109.686 21.096C109.35 20.944 109.106 20.756 108.954 20.532C108.802 20.3 108.726 20.016 108.726 19.68C108.726 19.352 108.822 19.052 109.014 18.78C109.206 18.508 109.482 18.292 109.842 18.132C110.202 17.964 110.618 17.88 111.09 17.88C111.73 17.88 112.242 18 112.626 18.24C113.018 18.472 113.298 18.832 113.466 19.32L112.65 19.8C112.522 19.416 112.326 19.14 112.062 18.972C111.806 18.804 111.482 18.72 111.09 18.72C110.698 18.72 110.366 18.808 110.094 18.984C109.822 19.16 109.686 19.364 109.686 19.596C109.686 19.86 109.802 20.064 110.034 20.208C110.274 20.352 110.698 20.476 111.306 20.58C112.138 20.716 112.726 20.92 113.07 21.192C113.414 21.464 113.586 21.848 113.586 22.344C113.586 22.688 113.482 22.996 113.274 23.268C113.074 23.532 112.782 23.74 112.398 23.892C112.022 24.044 111.582 24.12 111.078 24.12ZM119.038 23.58C118.638 23.94 118.122 24.12 117.49 24.12C117.002 24.12 116.602 23.988 116.29 23.724C115.986 23.46 115.83 23.056 115.822 22.512V18.828H114.622V18H115.822V16.56L116.782 16.296V18H119.002V18.828H116.782V22.344C116.782 22.632 116.862 22.852 117.022 23.004C117.19 23.148 117.41 23.22 117.682 23.22C118.066 23.22 118.406 23.072 118.702 22.776L119.038 23.58ZM125.313 23.304C125.473 23.304 125.633 23.284 125.793 23.244L125.733 24C125.509 24.08 125.269 24.12 125.013 24.12C124.701 24.12 124.453 24.052 124.269 23.916C124.093 23.78 123.981 23.552 123.933 23.232C123.749 23.512 123.477 23.732 123.117 23.892C122.765 24.044 122.393 24.12 122.001 24.12C121.409 24.12 120.921 23.984 120.537 23.712C120.153 23.432 119.961 23.032 119.961 22.512C119.961 22.056 120.161 21.664 120.561 21.336C120.961 21 121.541 20.768 122.301 20.64L123.897 20.376V20.04C123.897 19.64 123.773 19.32 123.525 19.08C123.277 18.84 122.933 18.72 122.493 18.72C122.093 18.72 121.745 18.816 121.449 19.008C121.161 19.2 120.937 19.484 120.777 19.86L120.069 19.344C120.229 18.896 120.525 18.54 120.957 18.276C121.397 18.012 121.909 17.88 122.493 17.88C123.205 17.88 123.777 18.052 124.209 18.396C124.641 18.74 124.857 19.248 124.857 19.92V22.872C124.857 23.016 124.893 23.124 124.965 23.196C125.037 23.268 125.153 23.304 125.313 23.304ZM122.049 23.28C122.553 23.28 122.985 23.16 123.345 22.92C123.713 22.68 123.897 22.368 123.897 21.984V21.156L122.553 21.408C122.017 21.504 121.617 21.644 121.353 21.828C121.089 22.004 120.957 22.232 120.957 22.512C120.957 22.76 121.053 22.952 121.245 23.088C121.437 23.216 121.705 23.28 122.049 23.28ZM130.538 23.232C131.106 23.232 131.55 23.36 131.87 23.616C132.19 23.872 132.35 24.22 132.35 24.66C132.35 25.044 132.218 25.38 131.954 25.668C131.69 25.964 131.33 26.188 130.874 26.34C130.426 26.5 129.93 26.58 129.386 26.58C128.474 26.58 127.786 26.432 127.322 26.136C126.858 25.848 126.626 25.468 126.626 24.996C126.626 24.724 126.718 24.484 126.902 24.276C127.094 24.068 127.354 23.92 127.682 23.832C127.434 23.712 127.234 23.56 127.082 23.376C126.938 23.192 126.866 22.976 126.866 22.728C126.866 22.432 126.946 22.188 127.106 21.996C127.266 21.796 127.486 21.648 127.766 21.552C127.478 21.376 127.258 21.148 127.106 20.868C126.962 20.58 126.89 20.26 126.89 19.908C126.89 19.516 126.994 19.168 127.202 18.864C127.41 18.552 127.702 18.312 128.078 18.144C128.454 17.968 128.878 17.88 129.35 17.88C129.798 17.88 130.206 17.96 130.574 18.12C130.798 17.304 131.362 16.896 132.266 16.896L132.482 17.736C131.698 17.736 131.222 17.956 131.054 18.396C131.294 18.58 131.478 18.8 131.606 19.056C131.742 19.312 131.81 19.596 131.81 19.908C131.81 20.3 131.706 20.652 131.498 20.964C131.29 21.268 130.998 21.508 130.622 21.684C130.246 21.852 129.822 21.936 129.35 21.936C128.998 21.936 128.69 21.9 128.426 21.828C128.186 21.884 128.014 21.972 127.91 22.092C127.806 22.212 127.754 22.376 127.754 22.584C127.754 22.792 127.826 22.952 127.97 23.064C128.114 23.176 128.306 23.232 128.546 23.232H130.538ZM129.35 18.66C128.934 18.66 128.586 18.776 128.306 19.008C128.026 19.24 127.886 19.54 127.886 19.908C127.886 20.276 128.026 20.576 128.306 20.808C128.586 21.04 128.934 21.156 129.35 21.156C129.766 21.156 130.114 21.04 130.394 20.808C130.674 20.576 130.814 20.276 130.814 19.908C130.814 19.54 130.674 19.24 130.394 19.008C130.114 18.776 129.766 18.66 129.35 18.66ZM129.494 25.776C130.102 25.776 130.582 25.676 130.934 25.476C131.286 25.284 131.462 25.048 131.462 24.768C131.462 24.536 131.37 24.36 131.186 24.24C131.01 24.12 130.706 24.06 130.274 24.06H128.666C128.298 24.06 128.014 24.124 127.814 24.252C127.614 24.388 127.514 24.572 127.514 24.804C127.514 25.108 127.682 25.344 128.018 25.512C128.354 25.688 128.846 25.776 129.494 25.776ZM136.608 17.88C136.896 17.88 137.116 17.92 137.268 18L137.076 18.936C136.884 18.832 136.632 18.78 136.32 18.78C136.064 18.78 135.812 18.856 135.564 19.008C135.324 19.152 135.124 19.376 134.964 19.68C134.812 19.976 134.736 20.336 134.736 20.76V24H133.776V18H134.556L134.688 18.984C135.024 18.248 135.664 17.88 136.608 17.88ZM143.431 23.304C143.591 23.304 143.751 23.284 143.911 23.244L143.851 24C143.627 24.08 143.387 24.12 143.131 24.12C142.819 24.12 142.571 24.052 142.387 23.916C142.211 23.78 142.099 23.552 142.051 23.232C141.867 23.512 141.595 23.732 141.235 23.892C140.883 24.044 140.511 24.12 140.119 24.12C139.527 24.12 139.039 23.984 138.655 23.712C138.271 23.432 138.079 23.032 138.079 22.512C138.079 22.056 138.279 21.664 138.679 21.336C139.079 21 139.659 20.768 140.419 20.64L142.015 20.376V20.04C142.015 19.64 141.891 19.32 141.643 19.08C141.395 18.84 141.051 18.72 140.611 18.72C140.211 18.72 139.863 18.816 139.567 19.008C139.279 19.2 139.055 19.484 138.895 19.86L138.187 19.344C138.347 18.896 138.643 18.54 139.075 18.276C139.515 18.012 140.027 17.88 140.611 17.88C141.323 17.88 141.895 18.052 142.327 18.396C142.759 18.74 142.975 19.248 142.975 19.92V22.872C142.975 23.016 143.011 23.124 143.083 23.196C143.155 23.268 143.271 23.304 143.431 23.304ZM140.167 23.28C140.671 23.28 141.103 23.16 141.463 22.92C141.831 22.68 142.015 22.368 142.015 21.984V21.156L140.671 21.408C140.135 21.504 139.735 21.644 139.471 21.828C139.207 22.004 139.075 22.232 139.075 22.512C139.075 22.76 139.171 22.952 139.363 23.088C139.555 23.216 139.823 23.28 140.167 23.28ZM152.279 17.88C152.679 17.88 153.051 17.964 153.395 18.132C153.747 18.292 154.031 18.544 154.247 18.888C154.463 19.232 154.571 19.656 154.571 20.16V24H153.611V20.256C153.611 19.736 153.479 19.352 153.215 19.104C152.959 18.848 152.619 18.72 152.195 18.72C151.875 18.72 151.579 18.8 151.307 18.96C151.043 19.112 150.827 19.34 150.659 19.644C150.499 19.94 150.419 20.296 150.419 20.712V24H149.459V20.256C149.459 19.736 149.327 19.352 149.063 19.104C148.807 18.848 148.467 18.72 148.043 18.72C147.755 18.72 147.475 18.796 147.203 18.948C146.931 19.092 146.707 19.32 146.531 19.632C146.355 19.944 146.267 20.332 146.267 20.796V24H145.307V18H146.147L146.207 18.936C146.415 18.584 146.687 18.32 147.023 18.144C147.367 17.968 147.735 17.88 148.127 17.88C148.567 17.88 148.971 17.98 149.339 18.18C149.715 18.38 149.999 18.672 150.191 19.056C150.367 18.672 150.655 18.38 151.055 18.18C151.455 17.98 151.863 17.88 152.279 17.88Z" fill="#3D89FA"/>
<path d="M177.501 12.9287H188.501C188.918 12.9287 189.318 13.0943 189.612 13.389C189.907 13.6837 190.073 14.0834 190.073 14.5001V25.5001C190.073 25.9169 189.907 26.3166 189.612 26.6113C189.318 26.906 188.918 27.0716 188.501 27.0716H177.501C177.084 27.0716 176.685 26.906 176.39 26.6113C176.095 26.3166 175.93 25.9169 175.93 25.5001V14.5001C175.93 14.0834 176.095 13.6837 176.39 13.389C176.685 13.0943 177.084 12.9287 177.501 12.9287ZM187.715 14.5001H185.751C185.022 14.5001 184.322 14.7899 183.807 15.3056C183.291 15.8213 183.001 16.5208 183.001 17.2501V19.2144H181.43V21.5716H183.001V27.0716H185.358V21.5716H187.715V19.2144H185.358V17.643C185.358 17.4346 185.441 17.2348 185.588 17.0874C185.736 16.9401 185.936 16.8573 186.144 16.8573H187.715V14.5001Z" fill="#3D89FA"/>
<path d="M200.256 16.98V19.536H203.832V20.436H200.256V24H199.296V16.08H200.256H204.84V16.98H200.256ZM210.751 23.304C210.911 23.304 211.071 23.284 211.231 23.244L211.171 24C210.947 24.08 210.707 24.12 210.451 24.12C210.139 24.12 209.891 24.052 209.707 23.916C209.531 23.78 209.419 23.552 209.371 23.232C209.187 23.512 208.915 23.732 208.555 23.892C208.203 24.044 207.831 24.12 207.439 24.12C206.847 24.12 206.359 23.984 205.975 23.712C205.591 23.432 205.399 23.032 205.399 22.512C205.399 22.056 205.599 21.664 205.999 21.336C206.399 21 206.979 20.768 207.739 20.64L209.335 20.376V20.04C209.335 19.64 209.211 19.32 208.963 19.08C208.715 18.84 208.371 18.72 207.931 18.72C207.531 18.72 207.183 18.816 206.887 19.008C206.599 19.2 206.375 19.484 206.215 19.86L205.507 19.344C205.667 18.896 205.963 18.54 206.395 18.276C206.835 18.012 207.347 17.88 207.931 17.88C208.643 17.88 209.215 18.052 209.647 18.396C210.079 18.74 210.295 19.248 210.295 19.92V22.872C210.295 23.016 210.331 23.124 210.403 23.196C210.475 23.268 210.591 23.304 210.751 23.304ZM207.487 23.28C207.991 23.28 208.423 23.16 208.783 22.92C209.151 22.68 209.335 22.368 209.335 21.984V21.156L207.991 21.408C207.455 21.504 207.055 21.644 206.791 21.828C206.527 22.004 206.395 22.232 206.395 22.512C206.395 22.76 206.491 22.952 206.683 23.088C206.875 23.216 207.143 23.28 207.487 23.28ZM215.16 17.88C215.76 17.88 216.264 18.02 216.672 18.3C217.088 18.572 217.412 18.964 217.644 19.476L216.732 19.908C216.476 19.116 215.944 18.72 215.136 18.72C214.536 18.72 214.064 18.924 213.72 19.332C213.384 19.732 213.216 20.288 213.216 21C213.216 21.712 213.384 22.272 213.72 22.68C214.064 23.08 214.536 23.28 215.136 23.28C215.6 23.28 215.972 23.176 216.252 22.968C216.54 22.752 216.728 22.444 216.816 22.044L217.704 22.356C217.496 22.916 217.176 23.352 216.744 23.664C216.312 23.968 215.784 24.12 215.16 24.12C214.256 24.12 213.544 23.844 213.024 23.292C212.512 22.74 212.256 21.976 212.256 21C212.256 20.024 212.512 19.26 213.024 18.708C213.544 18.156 214.256 17.88 215.16 17.88ZM224.549 20.688C224.549 20.912 224.533 21.136 224.501 21.36H219.977C220.033 21.968 220.233 22.44 220.577 22.776C220.929 23.112 221.381 23.28 221.933 23.28C222.373 23.28 222.737 23.204 223.025 23.052C223.321 22.9 223.521 22.68 223.625 22.392L224.429 22.812C224.189 23.236 223.869 23.56 223.469 23.784C223.069 24.008 222.557 24.12 221.933 24.12C221.029 24.12 220.317 23.844 219.797 23.292C219.285 22.74 219.029 21.976 219.029 21C219.029 20.024 219.273 19.26 219.761 18.708C220.257 18.156 220.957 17.88 221.861 17.88C222.421 17.88 222.905 18.004 223.313 18.252C223.721 18.5 224.029 18.836 224.237 19.26C224.445 19.684 224.549 20.16 224.549 20.688ZM221.861 18.72C221.333 18.72 220.905 18.876 220.577 19.188C220.257 19.5 220.061 19.94 219.989 20.508H223.625C223.561 19.948 223.377 19.512 223.073 19.2C222.769 18.88 222.365 18.72 221.861 18.72ZM229.326 17.88C230.166 17.88 230.83 18.16 231.318 18.72C231.814 19.272 232.062 20.032 232.062 21C232.062 21.968 231.814 22.732 231.318 23.292C230.83 23.844 230.166 24.12 229.326 24.12C228.862 24.12 228.446 24.016 228.078 23.808C227.718 23.592 227.45 23.308 227.274 22.956L227.214 24H226.374V15.24H227.334V18.936C227.526 18.616 227.794 18.36 228.138 18.168C228.49 17.976 228.886 17.88 229.326 17.88ZM229.218 23.28C229.802 23.28 230.262 23.076 230.598 22.668C230.934 22.252 231.102 21.696 231.102 21C231.102 20.304 230.934 19.752 230.598 19.344C230.262 18.928 229.802 18.72 229.218 18.72C228.642 18.72 228.182 18.92 227.838 19.32C227.502 19.72 227.334 20.256 227.334 20.928V21.072C227.334 21.744 227.502 22.28 227.838 22.68C228.182 23.08 228.642 23.28 229.218 23.28ZM236.464 17.88C237.368 17.88 238.076 18.156 238.588 18.708C239.108 19.26 239.368 20.024 239.368 21C239.368 21.976 239.108 22.74 238.588 23.292C238.076 23.844 237.368 24.12 236.464 24.12C235.56 24.12 234.848 23.844 234.328 23.292C233.816 22.74 233.56 21.976 233.56 21C233.56 20.024 233.816 19.26 234.328 18.708C234.848 18.156 235.56 17.88 236.464 17.88ZM236.464 18.708C235.856 18.708 235.38 18.912 235.036 19.32C234.692 19.728 234.52 20.288 234.52 21C234.52 21.712 234.692 22.272 235.036 22.68C235.38 23.088 235.856 23.292 236.464 23.292C237.072 23.292 237.548 23.088 237.892 22.68C238.236 22.272 238.408 21.712 238.408 21C238.408 20.288 238.236 19.728 237.892 19.32C237.548 18.912 237.072 18.708 236.464 18.708ZM243.765 17.88C244.669 17.88 245.377 18.156 245.889 18.708C246.409 19.26 246.669 20.024 246.669 21C246.669 21.976 246.409 22.74 245.889 23.292C245.377 23.844 244.669 24.12 243.765 24.12C242.861 24.12 242.149 23.844 241.629 23.292C241.117 22.74 240.861 21.976 240.861 21C240.861 20.024 241.117 19.26 241.629 18.708C242.149 18.156 242.861 17.88 243.765 17.88ZM243.765 18.708C243.157 18.708 242.681 18.912 242.337 19.32C241.993 19.728 241.821 20.288 241.821 21C241.821 21.712 241.993 22.272 242.337 22.68C242.681 23.088 243.157 23.292 243.765 23.292C244.373 23.292 244.849 23.088 245.193 22.68C245.537 22.272 245.709 21.712 245.709 21C245.709 20.288 245.537 19.728 245.193 19.32C244.849 18.912 244.373 18.708 243.765 18.708ZM250.766 21.036L249.494 22.308V24H248.534V15.24H249.494V21.108L252.602 18H253.802L251.462 20.34L253.946 24H252.782L250.766 21.036Z" fill="#3D89FA"/>
<path d="M292.582 15.077C291.977 15.3309 291.325 15.4977 290.649 15.5775C291.34 15.1931 291.875 14.5838 292.126 13.8513C291.474 14.2139 290.751 14.4678 289.989 14.6128C289.368 13.9891 288.496 13.6265 287.506 13.6265C285.66 13.6265 284.151 15.019 284.151 16.7379C284.151 16.9845 284.182 17.2238 284.237 17.4487C281.44 17.3181 278.95 16.0779 277.292 14.1994C277.001 14.6564 276.836 15.1931 276.836 15.7588C276.836 16.8394 277.425 17.7968 278.337 18.3408C277.779 18.3408 277.26 18.1957 276.805 17.9781C276.805 17.9781 276.805 17.9781 276.805 17.9999C276.805 19.5084 277.967 20.7704 279.507 21.0533C279.225 21.1258 278.926 21.1621 278.62 21.1621C278.407 21.1621 278.195 21.1403 277.991 21.104C278.415 22.3298 279.649 23.2436 281.134 23.2654C279.987 24.1067 278.533 24.5999 276.946 24.5999C276.679 24.5999 276.412 24.5854 276.145 24.5564C277.637 25.4412 279.413 25.9561 281.315 25.9561C287.506 25.9561 290.908 21.2128 290.908 17.1005C290.908 16.9627 290.908 16.8322 290.9 16.6944C291.56 16.2592 292.126 15.708 292.582 15.077Z" fill="#3D89FA"/>
<path d="M305.864 16.98H303.104V24H302.144V16.98H299.384V16.08H303.104H305.864V16.98ZM315.297 18L313.209 24H312.369H312.249L310.557 19.224L308.961 24H308.121H308.001L305.913 18H306.981L308.493 22.884L310.125 18H311.085L312.717 22.884L314.229 18H315.297ZM317.342 16.848C317.126 16.848 316.95 16.784 316.814 16.656C316.686 16.52 316.622 16.344 316.622 16.128C316.622 15.912 316.686 15.74 316.814 15.612C316.95 15.476 317.126 15.408 317.342 15.408C317.558 15.408 317.73 15.476 317.858 15.612C317.994 15.74 318.062 15.912 318.062 16.128C318.062 16.344 317.994 16.52 317.858 16.656C317.73 16.784 317.558 16.848 317.342 16.848ZM317.822 24H316.862V18H317.822V24ZM323.722 23.58C323.322 23.94 322.806 24.12 322.174 24.12C321.686 24.12 321.286 23.988 320.974 23.724C320.67 23.46 320.514 23.056 320.506 22.512V18.828H319.306V18H320.506V16.56L321.466 16.296V18H323.686V18.828H321.466V22.344C321.466 22.632 321.546 22.852 321.706 23.004C321.874 23.148 322.094 23.22 322.366 23.22C322.75 23.22 323.09 23.072 323.386 22.776L323.722 23.58ZM327.976 23.58C327.576 23.94 327.06 24.12 326.428 24.12C325.94 24.12 325.54 23.988 325.228 23.724C324.924 23.46 324.768 23.056 324.76 22.512V18.828H323.56V18H324.76V16.56L325.72 16.296V18H327.94V18.828H325.72V22.344C325.72 22.632 325.8 22.852 325.96 23.004C326.128 23.148 326.348 23.22 326.62 23.22C327.004 23.22 327.344 23.072 327.64 22.776L327.976 23.58ZM334.479 20.688C334.479 20.912 334.463 21.136 334.431 21.36H329.907C329.963 21.968 330.163 22.44 330.507 22.776C330.859 23.112 331.311 23.28 331.863 23.28C332.303 23.28 332.667 23.204 332.955 23.052C333.251 22.9 333.451 22.68 333.555 22.392L334.359 22.812C334.119 23.236 333.799 23.56 333.399 23.784C332.999 24.008 332.487 24.12 331.863 24.12C330.959 24.12 330.247 23.844 329.727 23.292C329.215 22.74 328.959 21.976 328.959 21C328.959 20.024 329.203 19.26 329.691 18.708C330.187 18.156 330.887 17.88 331.791 17.88C332.351 17.88 332.835 18.004 333.243 18.252C333.651 18.5 333.959 18.836 334.167 19.26C334.375 19.684 334.479 20.16 334.479 20.688ZM331.791 18.72C331.263 18.72 330.835 18.876 330.507 19.188C330.187 19.5 329.991 19.94 329.919 20.508H333.555C333.491 19.948 333.307 19.512 333.003 19.2C332.699 18.88 332.295 18.72 331.791 18.72ZM339.136 17.88C339.424 17.88 339.644 17.92 339.796 18L339.604 18.936C339.412 18.832 339.16 18.78 338.848 18.78C338.592 18.78 338.34 18.856 338.092 19.008C337.852 19.152 337.652 19.376 337.492 19.68C337.34 19.976 337.264 20.336 337.264 20.76V24H336.304V18H337.084L337.216 18.984C337.552 18.248 338.192 17.88 339.136 17.88Z" fill="#3D89FA"/>
<path d="M21.559 13.61C22.579 13.61 23.4743 13.7857 24.245 14.137C25.0157 14.4883 25.673 15.0097 26.217 15.701L24.908 17.214C24.4433 16.6247 23.9333 16.194 23.378 15.922C22.834 15.6387 22.1993 15.497 21.474 15.497C20.7487 15.497 20.2217 15.633 19.893 15.905C19.5643 16.1657 19.4 16.483 19.4 16.857C19.4 17.163 19.5133 17.4237 19.74 17.639C19.978 17.843 20.3917 18.013 20.981 18.149L23.072 18.625C24.1713 18.8743 24.9647 19.2483 25.452 19.747C25.9393 20.2343 26.183 20.869 26.183 21.651C26.183 22.3877 25.9903 23.0223 25.605 23.555C25.2197 24.0763 24.6813 24.4787 23.99 24.762C23.2987 25.034 22.5053 25.17 21.61 25.17C20.4427 25.17 19.417 24.966 18.533 24.558C17.649 24.15 16.952 23.623 16.442 22.977L17.768 21.396C18.1533 21.94 18.6803 22.3933 19.349 22.756C20.029 23.1073 20.7827 23.283 21.61 23.283C22.3013 23.283 22.834 23.1697 23.208 22.943C23.582 22.705 23.769 22.3707 23.769 21.94C23.769 21.6567 23.667 21.4073 23.463 21.192C23.2703 20.9767 22.9077 20.8123 22.375 20.699L20.097 20.189C19.0997 19.9737 18.329 19.6223 17.785 19.135C17.241 18.6477 16.969 17.9847 16.969 17.146C16.969 16.4773 17.1503 15.8767 17.513 15.344C17.8757 14.8113 18.397 14.392 19.077 14.086C19.7683 13.7687 20.5957 13.61 21.559 13.61ZM27.7544 25V12.777H30.0834V17.945C30.3554 17.401 30.7294 16.9987 31.2054 16.738C31.6814 16.466 32.2198 16.33 32.8204 16.33C33.7044 16.33 34.4354 16.5907 35.0134 17.112C35.5914 17.622 35.8804 18.3927 35.8804 19.424V25H33.5514V20.104C33.5514 19.3673 33.4098 18.863 33.1264 18.591C32.8431 18.3077 32.4804 18.166 32.0384 18.166C31.7098 18.166 31.3981 18.2453 31.1034 18.404C30.8088 18.5513 30.5651 18.8007 30.3724 19.152C30.1798 19.492 30.0834 19.9453 30.0834 20.512V25H27.7544ZM42.7148 19.577C42.7148 19.0897 42.5732 18.71 42.2898 18.438C42.0178 18.166 41.6552 18.03 41.2018 18.03C40.7825 18.03 40.4142 18.1377 40.0968 18.353C39.7795 18.5683 39.5472 18.9253 39.3998 19.424L37.4108 18.812C37.6035 18.064 38.0228 17.4633 38.6688 17.01C39.3262 16.5567 40.2045 16.33 41.3038 16.33C42.4145 16.33 43.3098 16.5963 43.9898 17.129C44.6812 17.6503 45.0268 18.4323 45.0268 19.475V22.926C45.0268 23.3567 45.2308 23.572 45.6388 23.572C45.8315 23.572 46.0128 23.5437 46.1828 23.487L46.0468 24.932C45.7522 25.0793 45.3838 25.153 44.9418 25.153C44.4545 25.153 44.0295 25.051 43.6668 24.847C43.3155 24.643 43.0775 24.337 42.9528 23.929C42.6808 24.337 42.2898 24.6487 41.7798 24.864C41.2812 25.068 40.7655 25.17 40.2328 25.17C39.3715 25.17 38.6858 24.9773 38.1758 24.592C37.6772 24.1953 37.4278 23.623 37.4278 22.875C37.4278 22.2403 37.6318 21.7247 38.0398 21.328C38.4478 20.92 39.0315 20.6423 39.7908 20.495L42.7148 19.9V19.577ZM39.7568 22.654C39.7568 22.9373 39.8588 23.1527 40.0628 23.3C40.2782 23.4473 40.5332 23.521 40.8278 23.521C41.1565 23.521 41.4625 23.47 41.7458 23.368C42.0292 23.266 42.2615 23.096 42.4428 22.858C42.6242 22.6087 42.7148 22.28 42.7148 21.872V21.345L40.9298 21.702C40.5445 21.7813 40.2498 21.889 40.0458 22.025C39.8532 22.1497 39.7568 22.3593 39.7568 22.654ZM47.2215 25V16.5H49.2445L49.3975 18.166C49.6129 17.588 49.9359 17.1403 50.3665 16.823C50.8085 16.4943 51.3639 16.33 52.0325 16.33C52.4292 16.33 52.7352 16.3923 52.9505 16.517L52.6785 18.472C52.5652 18.438 52.4235 18.4097 52.2535 18.387C52.0949 18.353 51.8852 18.336 51.6245 18.336C51.2732 18.336 50.9389 18.421 50.6215 18.591C50.3155 18.7497 50.0605 18.999 49.8565 19.339C49.6525 19.6677 49.5505 20.087 49.5505 20.597V25H47.2215ZM57.7614 25.17C56.4241 25.17 55.3531 24.7847 54.5484 24.014C53.7437 23.232 53.3414 22.144 53.3414 20.75C53.3414 19.8207 53.5227 19.0273 53.8854 18.37C54.2481 17.7127 54.7524 17.2083 55.3984 16.857C56.0557 16.5057 56.8037 16.33 57.6424 16.33C58.5037 16.33 59.2347 16.5057 59.8354 16.857C60.4361 17.197 60.8951 17.6673 61.2124 18.268C61.5297 18.8573 61.6884 19.5317 61.6884 20.291C61.6884 20.5177 61.6827 20.733 61.6714 20.937C61.6601 21.141 61.6431 21.3223 61.6204 21.481H55.6194C55.7101 22.1383 55.9367 22.6313 56.2994 22.96C56.6734 23.2773 57.1551 23.436 57.7444 23.436C58.2431 23.436 58.6454 23.3397 58.9514 23.147C59.2574 22.9543 59.4954 22.688 59.6654 22.348L61.5184 23.062C61.2464 23.7307 60.7704 24.252 60.0904 24.626C59.4104 24.9887 58.6341 25.17 57.7614 25.17ZM57.6254 18.047C56.5261 18.047 55.8631 18.6533 55.6364 19.866H59.4614C59.3934 19.2767 59.2007 18.829 58.8834 18.523C58.5774 18.2057 58.1581 18.047 57.6254 18.047ZM64.5781 16.33C65.0315 16.33 65.3885 16.4547 65.6491 16.704C65.9211 16.9533 66.0571 17.2877 66.0571 17.707C66.0571 18.1377 65.9211 18.4777 65.6491 18.727C65.3885 18.965 65.0315 19.084 64.5781 19.084C64.1135 19.084 63.7508 18.965 63.4901 18.727C63.2295 18.4777 63.0991 18.1377 63.0991 17.707C63.0991 17.2877 63.2295 16.9533 63.4901 16.704C63.7508 16.4547 64.1135 16.33 64.5781 16.33ZM64.5781 22.399C65.0315 22.399 65.3885 22.5237 65.6491 22.773C65.9211 23.0223 66.0571 23.3567 66.0571 23.776C66.0571 24.2067 65.9211 24.5467 65.6491 24.796C65.3885 25.034 65.0315 25.153 64.5781 25.153C64.1135 25.153 63.7508 25.034 63.4901 24.796C63.2295 24.5467 63.0991 24.2067 63.0991 23.776C63.0991 23.3567 63.2295 23.0223 63.4901 22.773C63.7508 22.5237 64.1135 22.399 64.5781 22.399Z" fill="#232326"/>
</svg>
