<svg width="17" height="11" viewBox="0 0 17 11" fill="none" xmlns="http://www.w3.org/2000/svg">
<path d="M13.6564 10.2269C13.6564 10.2316 13.6444 10.2362 13.6211 10.2405C13.5978 10.2448 13.5636 10.2487 13.5205 10.2519C13.4774 10.2552 13.4262 10.2578 13.3699 10.2596C13.3136 10.2614 13.2533 10.2623 13.1923 10.2623C13.1314 10.2623 13.0711 10.2614 13.0148 10.2596C12.9585 10.2578 12.9073 10.2552 12.8642 10.2519C12.8211 10.2487 12.7869 10.2448 12.7636 10.2405C12.7403 10.2362 12.7283 10.2316 12.7283 10.2269C12.7283 10.2175 12.7772 10.2085 12.8642 10.2019C12.9512 10.1953 13.0693 10.1915 13.1923 10.1915C13.3154 10.1915 13.4335 10.1953 13.5205 10.2019C13.6075 10.2085 13.6564 10.2175 13.6564 10.2269V10.2269Z" fill="#6D4A3E"/>
<path d="M15.8441 10.0147C15.8441 10.0304 15.7419 10.0454 15.5598 10.0564C15.3777 10.0675 15.1308 10.0737 14.8733 10.0737C14.6158 10.0737 14.3689 10.0675 14.1868 10.0564C14.0048 10.0454 13.9025 10.0304 13.9025 10.0147C13.9025 9.99911 14.0048 9.98412 14.1868 9.97307C14.3689 9.96202 14.6158 9.95581 14.8733 9.95581C15.1308 9.95581 15.3777 9.96202 15.5598 9.97307C15.7419 9.98412 15.8441 9.99911 15.8441 10.0147Z" fill="#635953"/>
<path d="M15.1547 10.2181C15.1547 10.2225 15.144 10.2269 15.1232 10.231C15.1024 10.2351 15.0719 10.2389 15.0334 10.242C14.995 10.2452 14.9494 10.2477 14.8991 10.2494C14.8489 10.2511 14.7951 10.2519 14.7407 10.2519C14.6309 10.2519 14.5256 10.2484 14.448 10.242C14.3704 10.2357 14.3268 10.227 14.3268 10.2181C14.3268 10.2091 14.3704 10.2005 14.448 10.1941C14.5256 10.1877 14.6309 10.1842 14.7407 10.1842C14.7951 10.1842 14.8489 10.185 14.8991 10.1868C14.9494 10.1885 14.995 10.191 15.0334 10.1941C15.0719 10.1972 15.1024 10.201 15.1232 10.2051C15.144 10.2092 15.1547 10.2136 15.1547 10.2181Z" fill="#6D4A3E"/>
<path d="M12.2451 10.3536C12.2451 10.4052 11.7325 10.4479 11.1005 10.4479C10.4685 10.4479 9.95581 10.4066 9.95581 10.3536C9.95581 10.302 10.4685 10.2593 11.1005 10.2593C11.7325 10.2593 12.2451 10.302 12.2451 10.3536Z" fill="#6D4A3E"/>
<path d="M10.7322 10.0839C10.7322 10.1336 9.85105 10.1738 8.76405 10.1738C8.6446 10.1738 8.52764 10.1733 8.41406 10.1724C7.49402 10.1649 6.79585 10.1281 6.79585 10.0839C6.79585 10.0343 7.67704 9.99408 8.76405 9.99408C9.85105 9.99408 10.7322 10.0343 10.7322 10.0839Z" fill="#006E6C"/>
<path d="M6.38481 10.0634C6.38481 10.1017 5.81616 10.1326 5.11639 10.1326C4.41663 10.1326 3.84798 10.1017 3.84798 10.0634C3.84798 10.0251 4.41663 9.99414 5.11639 9.99414C5.81616 9.99414 6.38481 10.0251 6.38481 10.0634Z" fill="#6D4A3E"/>
<mask id="mask0" mask-type="alpha" maskUnits="userSpaceOnUse" x="0" y="0" width="14" height="10">
<path d="M13.8951 1.80321L11.6809 9.28406L8.66825 9.32973L0.0176783 9.46232L0.00589276 8.4193L0 7.7932V6.18448L3.29258 4.75254L6.34355 3.42519L13.216 0.436096L13.8951 1.80321Z" fill="black"/>
</mask>
<g mask="url(#mask0)">
<mask id="mask1" mask-type="alpha" maskUnits="userSpaceOnUse" x="0" y="0" width="14" height="10">
<path d="M13.8951 1.80321L11.6809 9.28406L8.66825 9.32973L0.0176783 9.46232L0.00589276 8.4193L0 7.7932V6.18448L3.29258 4.75254L6.34355 3.42519L13.216 0.436096L13.8951 1.80321Z" fill="black"/>
</mask>
<g mask="url(#mask1)">
<path opacity="0.56" d="M13.8739 1.89521L11.9412 9.7707L8.76286 9.81888L-0.36346 9.95876L-0.375894 8.85838L-0.382111 8.19784V6.50064L3.09155 4.98994L6.31032 3.5896L12.6365 0.620941L13.8739 1.89521Z" fill="#F7D300"/>
</g>
</g>
<mask id="mask2" mask-type="alpha" maskUnits="userSpaceOnUse" x="0" y="2" width="11" height="8">
<path d="M10.5584 5.80289L9.76876 7.27608L8.77583 9.13082L8.66829 9.3297L0.0176907 9.46229L0.00590515 8.41927L1.02978 7.27608L3.2926 4.75251L3.36479 4.67148L5.09432 2.74161L6.34359 3.42517L6.40841 3.46052L9.99858 5.42428L10.5584 5.80289Z" fill="black"/>
</mask>
<g mask="url(#mask2)">
</g>
<mask id="mask3" mask-type="alpha" maskUnits="userSpaceOnUse" x="9" y="6" width="11" height="8">
<path d="M19.9956 10.0604L19.206 11.5336L18.2116 13.3869L18.1055 13.5872L9.45493 13.7184L9.44315 12.6753L10.467 11.5336L12.7298 9.00853L12.802 8.92751L14.5315 6.99908L15.7808 7.68265L15.8456 7.71801L19.4343 9.68178L19.9956 10.0604Z" fill="black"/>
</mask>
<g mask="url(#mask3)">
<path opacity="0.1" d="M13.8952 9.42101L13.4562 9.40185L14.5316 6.99908L14.7231 7.04917L13.8952 9.42101Z" fill="black"/>
</g>
<path d="M7.26728 10.1267C7.25402 10.1267 7.24076 10.1238 7.2275 10.1179C7.18184 10.0958 7.16268 10.0413 7.18478 9.99563L9.01449 6.16092L10.6424 9.96322C10.6615 10.0089 10.6409 10.0634 10.5938 10.0825C10.5466 10.1017 10.4936 10.0811 10.4744 10.0339L9.00565 6.6014L7.34978 10.0737C7.33358 10.1076 7.30116 10.1267 7.26728 10.1267Z" fill="#0A5E77"/>
<path d="M5.056 2.68854H10.2608L11.4983 6.12107H6.24486L5.056 2.68854Z" fill="#FDB803"/>
<path d="M5.05597 2.68854L4.92928 2.85206L6.10638 6.27722L6.24486 6.12107L5.05597 2.68854Z" fill="#EAA306"/>
<path d="M5.78081 2.90665H9.66261L10.6099 5.30205H6.70596L5.78081 2.90665Z" fill="white"/>
<path d="M5.95169 4.95283L6.24927 5.95755L7.37332 5.9384C7.20979 5.38447 6.58074 4.80256 5.95169 4.95283ZM6.1108 5.07952C6.50414 5.01176 7.03743 5.41541 7.15529 5.81317L6.32441 5.79992L6.1108 5.07952Z" fill="#4AAFB4"/>
<path d="M5.9877 5.07986L6.02842 5.06696L6.03198 5.0782L5.99126 5.0911L5.9877 5.07986Z" fill="#0A5E77"/>
<path d="M6.02063 5.19659L6.0403 5.19034L6.04388 5.20157L6.02421 5.20783L6.02063 5.19659Z" fill="#0A5E77"/>
<path d="M6.04625 5.2775L6.06593 5.27124L6.06951 5.28247L6.04983 5.28873L6.04625 5.2775Z" fill="#0A5E77"/>
<path d="M6.08066 5.39117L6.1214 5.37828L6.12496 5.3895L6.08422 5.4024L6.08066 5.39117Z" fill="#0A5E77"/>
<path d="M6.11566 5.50726L6.13535 5.50105L6.13891 5.51226L6.11923 5.51847L6.11566 5.50726Z" fill="#0A5E77"/>
<path d="M6.13933 5.58841L6.15901 5.58217L6.16258 5.59342L6.14289 5.59966L6.13933 5.58841Z" fill="#0A5E77"/>
<path d="M6.17351 5.70221L6.21425 5.68931L6.21781 5.70054L6.17707 5.71344L6.17351 5.70221Z" fill="#0A5E77"/>
<path d="M6.20831 5.81845L6.22797 5.81223L6.23153 5.82344L6.21187 5.82966L6.20831 5.81845Z" fill="#0A5E77"/>
<path d="M6.23221 5.89938L6.25184 5.89317L6.2554 5.90438L6.23576 5.91059L6.23221 5.89938Z" fill="#0A5E77"/>
<path d="M6.35682 5.95011L6.35535 5.90739L6.36713 5.90591L6.36861 5.95011H6.35682Z" fill="#0A5E77"/>
<path d="M6.47465 5.94876L6.47318 5.92667H6.48499V5.94876H6.47465Z" fill="#0A5E77"/>
<path d="M6.55566 5.94876V5.92667H6.56748V5.94729L6.55566 5.94876Z" fill="#0A5E77"/>
<path d="M6.6721 5.94718V5.90298H6.68386V5.94718H6.6721Z" fill="#0A5E77"/>
<path d="M6.78951 5.92337L6.80129 5.92324L6.80153 5.94539L6.78974 5.94552L6.78951 5.92337Z" fill="#0A5E77"/>
<path d="M6.87247 5.94428V5.92218H6.88422V5.94428H6.87247Z" fill="#0A5E77"/>
<path d="M6.98828 5.89828L7.00003 5.89816L7.00051 5.94237L6.98876 5.9425L6.98828 5.89828Z" fill="#0A5E77"/>
<path d="M7.10625 5.91901L7.11804 5.91888L7.11828 5.94091L7.10649 5.94104L7.10625 5.91901Z" fill="#0A5E77"/>
<path d="M7.1888 5.91895L7.20058 5.91882L7.20082 5.94086L7.18904 5.94098L7.1888 5.91895Z" fill="#0A5E77"/>
<path d="M7.86241 6.27722H10.2299V6.48641H7.86241V6.27722Z" fill="#524534"/>
<path d="M8.21303 6.48346H9.87773V6.74863H8.21303V6.48346Z" fill="#71503E"/>
<path d="M5.80735 2.80789H7.1597L7.11404 2.64731H5.76315L5.80735 2.80789Z" fill="#FCDE06"/>
<path d="M6.23161 2.97145H6.87686L6.79878 2.80792H6.16826L6.23161 2.97145Z" fill="#F7D300"/>
<path d="M5.80737 2.71364C5.82064 2.75783 5.82064 2.80055 5.80737 2.80939C5.79558 2.81823 5.77495 2.78877 5.76169 2.74457C5.74842 2.70038 5.74842 2.65765 5.76169 2.64882C5.77495 2.63998 5.79558 2.66944 5.80737 2.71364Z" fill="#FFE969"/>
<path d="M7.15825 2.71365C7.17151 2.75785 7.17151 2.80058 7.15825 2.80795C7.14647 2.81679 7.12585 2.78732 7.11259 2.74312C7.09933 2.69891 7.09933 2.65618 7.11259 2.64882C7.12585 2.63997 7.145 2.66944 7.15825 2.71365Z" fill="#FCDE06"/>
<path d="M7.15829 2.71359H5.8118V2.75042H7.16566C7.16566 2.75042 7.16419 2.7298 7.15829 2.71359Z" fill="#FFE969"/>
<path d="M6.31563 2.93023C6.31563 2.93907 6.30089 2.94496 6.28173 2.94496C6.26405 2.94496 6.24783 2.93759 6.24783 2.93023C6.24783 2.92139 6.26257 2.9155 6.28173 2.9155C6.30089 2.9155 6.31563 2.92286 6.31563 2.93023Z" fill="white"/>
<path d="M6.82241 2.93023C6.82241 2.93907 6.80767 2.94496 6.78852 2.94496C6.77084 2.94496 6.75464 2.93759 6.75464 2.93023C6.75464 2.92139 6.76937 2.9155 6.78852 2.9155C6.80767 2.9155 6.82241 2.92286 6.82241 2.93023Z" fill="white"/>
<path d="M8.19388 2.80789H9.54627L9.5006 2.64731H8.14969L8.19388 2.80789Z" fill="#FCDE06"/>
<path d="M8.61817 2.97145H9.26343L9.18535 2.80792H8.55482L8.61817 2.97145Z" fill="#F7D300"/>
<path d="M8.19391 2.71364C8.20717 2.75783 8.20717 2.80055 8.19391 2.80939C8.18212 2.81823 8.16149 2.78877 8.14822 2.74457C8.13496 2.70038 8.13496 2.65765 8.14822 2.64882C8.16149 2.63998 8.18212 2.66944 8.19391 2.71364Z" fill="#FFE969"/>
<path d="M9.54476 2.71365C9.55802 2.75785 9.55802 2.80058 9.54476 2.80795C9.53299 2.81679 9.51237 2.78732 9.49912 2.74312C9.48587 2.69891 9.48587 2.65618 9.49912 2.64882C9.51237 2.63997 9.53151 2.66944 9.54476 2.71365Z" fill="#FCDE06"/>
<path d="M9.5448 2.71359H8.1983V2.75042H9.55216C9.55216 2.75042 9.55069 2.7298 9.5448 2.71359Z" fill="#FFE969"/>
<path d="M8.70214 2.93023C8.70214 2.93907 8.6874 2.94496 8.66825 2.94496C8.6491 2.94496 8.63437 2.93759 8.63437 2.93023C8.63437 2.92139 8.6491 2.9155 8.66825 2.9155C8.6874 2.9155 8.70214 2.92286 8.70214 2.93023Z" fill="white"/>
<path d="M9.20891 2.93023C9.20891 2.93907 9.19418 2.94496 9.17503 2.94496C9.15735 2.94496 9.14114 2.93759 9.14114 2.93023C9.14114 2.92139 9.15588 2.9155 9.17503 2.9155C9.19418 2.9155 9.20891 2.92286 9.20891 2.93023Z" fill="white"/>
<path d="M10.1385 4.99266H7.21861L6.55714 3.37215L8.15409 3.36331L8.28816 3.61965H7.90512L8.07307 3.94227H9.24426L9.50207 4.47557H9.89247L9.89394 4.47999L10.1385 4.99266ZM7.22745 4.9794H10.1164L9.88363 4.48883H9.49323L9.23542 3.95553H8.06423L7.88302 3.60639H8.26606L8.14525 3.37657L6.5763 3.38541L7.22745 4.9794Z" fill="#0A5E77"/>
<path d="M7.93313 4.71128L7.78728 4.37834H6.98587V4.36508H7.79612L7.94491 4.70539L7.93313 4.71128Z" fill="#0A5E77"/>
<path d="M8.09513 3.95697H7.51619L7.39687 3.68738L7.41012 3.68149L7.52503 3.94372H8.09513V3.95697Z" fill="#0A5E77"/>
<path d="M6.85329 3.60638H7.89483V3.61964H6.85329V3.60638Z" fill="#0A5E77"/>
<path d="M8.57593 4.25632L8.5882 4.25128L8.88925 4.98451L8.87698 4.98954L8.57593 4.25632Z" fill="#0A5E77"/>
<path d="M8.55481 3.36331H9.20891V3.3766H8.55481V3.36331Z" fill="#0A5E77"/>
<path d="M8.58133 3.50027H9.23542V3.51356H8.58133V3.50027Z" fill="#0A5E77"/>
<path d="M8.65941 3.63586H9.3135V3.64912H8.65941V3.63586Z" fill="#0A5E77"/>
<path d="M8.03183 4.47845H8.48115V4.49171H8.03183V4.47845Z" fill="#0A5E77"/>
<path d="M8.08633 4.5993H8.53566V4.61256H8.08633V4.5993Z" fill="#0A5E77"/>
<path d="M8.14526 4.71866H8.59459V4.73192H8.14526V4.71866Z" fill="#0A5E77"/>
<path d="M6.10637 6.2773L6.58368 5.75726H11.7177L11.1712 6.30382L6.10637 6.2773Z" fill="#7B6757"/>
<path d="M6.58366 5.71594H11.3126V5.76603H6.58366V5.71594Z" fill="#524534"/>
<path d="M6.10637 6.23598V6.27723L6.58365 5.76456V5.71594L6.10637 6.23598Z" fill="#71503E"/>
<path d="M4.56689 9.30319H6.23896V10.0309H4.56689V9.30319Z" fill="#EAA306"/>
<path d="M5.79699 9.64937H5.00884C4.96317 9.64937 4.92635 9.61254 4.92635 9.56687C4.92635 9.5212 4.96317 9.48438 5.00884 9.48438H5.79699C5.84265 9.48438 5.87948 9.5212 5.87948 9.56687C5.88096 9.61254 5.84265 9.64937 5.79699 9.64937Z" fill="#0A5E77"/>
<path d="M4.85417 8.5769H6.52621V9.30466H4.85417V8.5769Z" fill="#EAA306"/>
<path d="M4.8306 9.30319H6.50263V10.0309H4.8306V9.30319Z" fill="#FDB803"/>
<path d="M5.11787 8.5769H6.78997V9.30466H5.11787V8.5769Z" fill="#FDB803"/>
<path d="M6.27435 8.92311H5.48617C5.4405 8.92311 5.40367 8.88628 5.40367 8.84062C5.40367 8.79495 5.4405 8.75812 5.48617 8.75812H6.27435C6.32002 8.75812 6.35685 8.79495 6.35685 8.84062C6.35685 8.88481 6.32002 8.92311 6.27435 8.92311Z" fill="#FCDE06"/>
<path d="M6.15649 9.6155H5.36831C5.32264 9.6155 5.28581 9.57867 5.28581 9.533C5.28581 9.48733 5.32264 9.4505 5.36831 9.4505H6.15649C6.20216 9.4505 6.239 9.48733 6.239 9.533C6.239 9.57867 6.20216 9.6155 6.15649 9.6155Z" fill="#FCDE06"/>
<path d="M6.3008 8.89363H5.51262C5.46695 8.89363 5.43011 8.8568 5.43011 8.81114C5.43011 8.76547 5.46695 8.72864 5.51262 8.72864H6.3008C6.34647 8.72864 6.3833 8.76547 6.3833 8.81114C6.38477 8.8568 6.34794 8.89363 6.3008 8.89363Z" fill="#524534"/>
<path d="M6.18295 9.58605H5.39477C5.3491 9.58605 5.31227 9.54922 5.31227 9.50355C5.31227 9.45788 5.3491 9.42105 5.39477 9.42105H6.18295C6.22862 9.42105 6.26545 9.45788 6.26545 9.50355C6.26693 9.54922 6.2301 9.58605 6.18295 9.58605Z" fill="#524534"/>
<path d="M4.95537 7.55557L5.0086 7.54384L5.1158 8.03012L5.06257 8.04186L4.95537 7.55557Z" fill="#FDB803"/>
<path d="M5.16977 7.96283L5.2687 7.67286L5.32726 7.69284L5.22832 7.98281L5.16977 7.96283Z" fill="#4AAFB4"/>
<path d="M5.35548 7.42175L5.38048 7.42338L5.34436 7.97908L5.31936 7.97745L5.35548 7.42175Z" fill="#0A5E77"/>
<path d="M5.47621 7.57791L5.4994 7.58739L5.2886 8.10284L5.26541 8.09336L5.47621 7.57791Z" fill="#0A5E77"/>
<path d="M5.09576 7.41895H5.12965V7.98318H5.09576V7.41895Z" fill="#0A5E77"/>
<path d="M13.9157 9.93226C13.9054 9.93226 13.8936 9.93078 13.8833 9.92636C13.8376 9.90868 13.8155 9.85712 13.8347 9.81145L16.1417 4.04982C16.1594 4.00415 16.2109 3.98205 16.2566 4.0012C16.3023 4.01888 16.3244 4.07044 16.3052 4.11611L13.9982 9.87627C13.9835 9.91163 13.951 9.93226 13.9157 9.93226Z" fill="#0A5E77"/>
<path d="M16.2728 4.97351C16.239 4.97351 16.2066 4.95436 16.1918 4.92047L14.1485 0.341803C14.1279 0.297607 14.1485 0.244573 14.1927 0.225421C14.2369 0.20627 14.2899 0.225421 14.3091 0.269617L16.3539 4.84829C16.3745 4.89248 16.3539 4.94552 16.3097 4.96467C16.2979 4.97056 16.2846 4.97351 16.2728 4.97351Z" fill="#0A5E77"/>
<path d="M14.7466 10.0015H13.0553C12.9994 10.0015 12.9537 9.95582 12.9537 9.89984C12.9537 9.84386 12.9994 9.79819 13.0553 9.79819H14.7481C14.8041 9.79819 14.8497 9.84386 14.8497 9.89984C14.8483 9.95582 14.8026 10.0015 14.7466 10.0015Z" fill="#0A5E77"/>
<path d="M16.2566 4.47405C16.2566 4.4994 16.2516 4.52449 16.2419 4.54791C16.2323 4.57132 16.218 4.5926 16.2001 4.61052C16.1822 4.62844 16.1609 4.64265 16.1375 4.65235C16.1141 4.66205 16.089 4.66704 16.0637 4.66704C16.0383 4.66704 16.0132 4.66205 15.9898 4.65235C15.9664 4.64265 15.9451 4.62844 15.9272 4.61052C15.9093 4.5926 15.8951 4.57132 15.8854 4.54791C15.8757 4.52449 15.8707 4.4994 15.8707 4.47405C15.8707 4.44871 15.8757 4.42362 15.8854 4.4002C15.8951 4.37679 15.9093 4.35551 15.9272 4.33759C15.9451 4.31967 15.9664 4.30546 15.9898 4.29576C16.0132 4.28606 16.0383 4.28107 16.0637 4.28107C16.089 4.28107 16.1141 4.28606 16.1375 4.29576C16.1609 4.30546 16.1822 4.31967 16.2001 4.33759C16.218 4.35551 16.2323 4.37679 16.2419 4.4002C16.2516 4.42362 16.2566 4.44871 16.2566 4.47405V4.47405Z" fill="#0A5E77"/>
<path d="M14.371 0.604007L14.1206 0.855922L13.6167 0.356513L13.8672 0.104599C14.0057 -0.0338802 14.2296 -0.0353535 14.3681 0.103126C14.5095 0.240132 14.5095 0.465528 14.371 0.604007Z" fill="#EAA306"/>
<path d="M4.97498 7.89334H5.44345V8.57543H4.97498V7.89334Z" fill="#0A5E77"/>
<path d="M5.2151 7.31146L5.73072 8.58135L6.74869 8.16738L5.2151 7.31146ZM5.51416 7.6503L6.39513 8.14234L5.81027 8.37952L5.51416 7.6503Z" fill="#4AAFB4"/>
<path d="M5.2774 7.46564L5.33064 7.44403L5.33562 7.45632L5.28239 7.47793L5.2774 7.46564Z" fill="#0A5E77"/>
<path d="M5.32248 7.57486L5.34977 7.5638L5.35475 7.57607L5.32746 7.58713L5.32248 7.57486Z" fill="#0A5E77"/>
<path d="M5.35361 7.64993L5.38092 7.63886L5.38591 7.65114L5.3586 7.66221L5.35361 7.64993Z" fill="#0A5E77"/>
<path d="M5.39561 7.75912L5.44888 7.73752L5.45386 7.74981L5.4006 7.77141L5.39561 7.75912Z" fill="#0A5E77"/>
<path d="M5.44 7.867L5.46729 7.85594L5.47228 7.86821L5.44499 7.87927L5.44 7.867Z" fill="#0A5E77"/>
<path d="M5.4711 7.9436L5.49839 7.93254L5.50338 7.94481L5.47608 7.95587L5.4711 7.9436Z" fill="#0A5E77"/>
<path d="M5.515 8.0509L5.56826 8.02931L5.57325 8.04159L5.51999 8.06318L5.515 8.0509Z" fill="#0A5E77"/>
<path d="M5.55968 8.15985L5.58697 8.14873L5.59195 8.16106L5.56466 8.17218L5.55968 8.15985Z" fill="#0A5E77"/>
<path d="M5.59023 8.23505L5.61752 8.22399L5.6225 8.23625L5.59521 8.24731L5.59023 8.23505Z" fill="#0A5E77"/>
<path d="M5.6346 8.34399L5.6878 8.32237L5.69278 8.33466L5.63958 8.35629L5.6346 8.34399Z" fill="#0A5E77"/>
<path d="M5.67735 8.45187L5.70464 8.44081L5.70963 8.45308L5.68234 8.46414L5.67735 8.45187Z" fill="#0A5E77"/>
<path d="M5.7085 8.52844L5.73579 8.51738L5.74077 8.52965L5.71348 8.54071L5.7085 8.52844Z" fill="#0A5E77"/>
<path d="M5.83188 8.47696L5.84415 8.47197L5.86576 8.52519L5.85348 8.53018L5.83188 8.47696Z" fill="#0A5E77"/>
<path d="M5.95142 8.46005L5.96368 8.45507L5.97474 8.48233L5.96248 8.48731L5.95142 8.46005Z" fill="#0A5E77"/>
<path d="M6.02826 8.42874L6.04055 8.42374L6.05164 8.45112L6.03935 8.45613L6.02826 8.42874Z" fill="#0A5E77"/>
<path d="M6.12427 8.35767L6.13655 8.35268L6.15817 8.40592L6.14589 8.41091L6.12427 8.35767Z" fill="#0A5E77"/>
<path d="M6.24356 8.34045L6.25585 8.33547L6.26693 8.36276L6.25465 8.36774L6.24356 8.34045Z" fill="#0A5E77"/>
<path d="M6.31877 8.30984L6.33107 8.30485L6.34217 8.33219L6.32987 8.33718L6.31877 8.30984Z" fill="#0A5E77"/>
<path d="M5.19864 8.24036L5.21093 8.23537L5.23255 8.28864L5.22026 8.29363L5.19864 8.24036Z" fill="#0A5E77"/>
<path d="M5.31728 8.22256L5.32958 8.21757L5.34068 8.24491L5.32838 8.2499L5.31728 8.22256Z" fill="#0A5E77"/>
<path d="M5.394 8.19128L5.40628 8.18629L5.41737 8.21363L5.40508 8.21862L5.394 8.19128Z" fill="#0A5E77"/>
<path d="M14.3135 0.707164L13.8775 1.93875L13.2101 1.28023L12.5428 0.620246L13.7743 0.166504L14.3135 0.707164Z" fill="#FDB803"/>
<path d="M12.7196 0.795537L13.8583 0.250458L14.0351 0.428714L13.3133 1.38187L12.7196 0.795537Z" fill="#F7D300"/>
<path d="M5.14288 7.89334H5.36975V8.57543H5.14288V7.89334Z" fill="#0B6D84"/>
<path d="M5.57455 8.89364L5.82205 8.69915C5.82205 8.69915 6.43195 8.59453 6.49824 8.52823C6.45257 8.74188 6.35829 8.8406 6.29936 8.89364H5.57455V8.89364Z" fill="#F8F8F8"/>
<path d="M5.6055 8.89361C5.6055 8.89361 6.30673 8.73308 6.46877 8.79052C6.54685 8.8347 6.55716 8.94073 6.55716 8.94073C6.55716 8.94073 6.5719 8.88624 6.0283 8.94073C5.99883 8.85973 5.6055 8.89361 5.6055 8.89361Z" fill="white"/>
<path d="M16.1762 4.45215C16.1822 4.48202 16.1761 4.51307 16.1593 4.53845C16.1424 4.56384 16.1161 4.58148 16.0863 4.5875C16.0564 4.59352 16.0253 4.58742 16 4.57055C15.9746 4.55368 15.9569 4.52742 15.9509 4.49754C15.9449 4.46766 15.951 4.43662 15.9679 4.41123C15.9847 4.38585 16.011 4.36821 16.0409 4.36219C16.0707 4.35617 16.1018 4.36227 16.1272 4.37914C16.1525 4.39601 16.1702 4.42227 16.1762 4.45215V4.45215Z" fill="#4AAFB4"/>
<path d="M13.107 9.32233C13.107 9.32233 12.8595 8.69329 12.8522 8.12907C12.8448 7.56484 12.9258 7.31588 12.9096 7.09785C12.8934 6.88129 13.135 7.88157 13.1939 8.16737C13.2529 8.45316 13.216 9.37537 13.216 9.37537L13.107 9.32233Z" fill="#B2C258"/>
<path d="M13.3043 9.37536C13.3043 9.37536 13.4811 9.02328 13.6962 8.4517C13.9113 7.88159 14.3031 7.81088 14.3031 7.81088C14.3031 7.81088 13.9717 8.10551 13.9142 8.36331C13.8568 8.62111 13.8199 9.57424 13.3043 9.37536Z" fill="#B2C258"/>
<path d="M13.2248 8.63006C13.2248 8.63006 13.1865 7.71815 13.2808 7.28798C13.3751 6.8578 13.6285 5.76321 13.6948 5.73964C13.7611 5.71607 13.5431 7.78297 13.3839 8.29417C13.2248 8.8039 13.2808 9.12653 13.2808 9.12653C13.2808 9.12653 13.1556 8.78622 13.2248 8.63006Z" fill="#D0DB61"/>
<path d="M13.1144 9.26645C13.1144 9.26645 13.0304 9.29445 12.9273 9.12649C12.8241 8.95854 12.7357 8.51066 12.6635 8.44142C12.5913 8.37217 12.942 8.40606 12.9994 8.68598C13.0569 8.96738 13.1144 9.26645 13.1144 9.26645Z" fill="#D0DB61"/>
<path d="M13.2277 9.35039C13.2277 9.35039 13.2189 8.70661 13.3441 8.33241C13.4693 7.95822 13.649 6.2994 13.6417 6.10788C13.6343 5.91637 13.7124 5.67918 13.7477 5.64677C13.7831 5.61436 13.6461 5.88248 13.7198 6.3598C13.7934 6.83712 13.7507 9.10584 13.4104 9.34892C13.0716 9.59347 13.2277 9.35039 13.2277 9.35039Z" fill="#B2C258"/>
<path d="M13.705 9.32239H12.9036H12.8904L13.0008 10.2269H13.1673H13.4413H13.6093L13.7183 9.32239H13.705Z" fill="#71503E"/>
<path d="M13.5975 9.32239H13.1997H13.1924L13.2469 10.2269H13.3308H13.4664H13.5489L13.6048 9.32239H13.5975Z" fill="#7B6757"/>
<path d="M14.5118 7.01721L14.7292 7.00099L14.9688 10.2124L14.7513 10.2286L14.5118 7.01721Z" fill="#F9B403"/>
<path d="M14.5631 7.01352L14.6777 7.00497L14.9173 10.2164L14.8027 10.2249L14.5631 7.01352Z" fill="#FFC715"/>
<path d="M14.5213 7.12857L14.63 7.12039L14.6308 7.13067L14.5221 7.13886L14.5213 7.12857Z" fill="#0A5E77"/>
<path d="M14.5301 7.25717L14.5683 7.2543L14.5691 7.26458L14.5309 7.26745L14.5301 7.25717Z" fill="#0A5E77"/>
<path d="M14.5405 7.37936L14.5786 7.37649L14.5794 7.38677L14.5412 7.38964L14.5405 7.37936Z" fill="#0A5E77"/>
<path d="M14.5494 7.50314L14.5876 7.50026L14.5883 7.51056L14.5502 7.51345L14.5494 7.50314Z" fill="#0A5E77"/>
<path d="M14.558 7.62531L14.5961 7.62244L14.5969 7.6327L14.5587 7.63557L14.558 7.62531Z" fill="#0A5E77"/>
<path d="M14.5685 7.77243L14.6772 7.76426L14.678 7.77453L14.5693 7.7827L14.5685 7.77243Z" fill="#0A5E77"/>
<path d="M14.5788 7.90094L14.6169 7.89805L14.6177 7.90838L14.5795 7.91126L14.5788 7.90094Z" fill="#0A5E77"/>
<path d="M14.5875 8.02328L14.6257 8.02042L14.6264 8.03067L14.5883 8.03354L14.5875 8.02328Z" fill="#0A5E77"/>
<path d="M14.5961 8.14517L14.6343 8.14229L14.6351 8.15263L14.5969 8.15551L14.5961 8.14517Z" fill="#0A5E77"/>
<path d="M14.6066 8.26895L14.6448 8.26607L14.6455 8.27638L14.6074 8.27926L14.6066 8.26895Z" fill="#0A5E77"/>
<path d="M14.6172 8.41483L14.726 8.40664L14.7267 8.41691L14.618 8.42509L14.6172 8.41483Z" fill="#0A5E77"/>
<path d="M14.6273 8.54312L14.6655 8.54023L14.6662 8.55056L14.6281 8.55345L14.6273 8.54312Z" fill="#0A5E77"/>
<path d="M14.6362 8.6669L14.6743 8.66403L14.6751 8.67431L14.6369 8.67718L14.6362 8.6669Z" fill="#0A5E77"/>
<path d="M14.6448 8.78912L14.6831 8.78624L14.6839 8.79656L14.6456 8.79945L14.6448 8.78912Z" fill="#0A5E77"/>
<path d="M14.6534 8.91138L14.6916 8.90852L14.6924 8.91876L14.6542 8.92162L14.6534 8.91138Z" fill="#0A5E77"/>
<path d="M14.6657 9.05844L14.7744 9.05027L14.7751 9.06054L14.6665 9.06871L14.6657 9.05844Z" fill="#0A5E77"/>
<path d="M14.6746 9.18719L14.7128 9.18432L14.7136 9.19458L14.6754 9.19745L14.6746 9.18719Z" fill="#0A5E77"/>
<path d="M14.6834 9.31094L14.7216 9.30806L14.7223 9.31834L14.6842 9.32122L14.6834 9.31094Z" fill="#0A5E77"/>
<path d="M14.6936 9.43295L14.7317 9.43007L14.7325 9.44037L14.6944 9.44325L14.6936 9.43295Z" fill="#0A5E77"/>
<path d="M14.7021 9.55505L14.7403 9.55219L14.7411 9.56248L14.7029 9.56534L14.7021 9.55505Z" fill="#0A5E77"/>
<path d="M14.7129 9.70233L14.8216 9.69415L14.8223 9.70443L14.7137 9.71262L14.7129 9.70233Z" fill="#0A5E77"/>
<path d="M14.7231 9.83075L14.7613 9.82788L14.7621 9.83815L14.7239 9.84103L14.7231 9.83075Z" fill="#0A5E77"/>
<path d="M14.732 9.95312L14.7702 9.95025L14.771 9.96051L14.7328 9.96338L14.732 9.95312Z" fill="#0A5E77"/>
<path d="M14.7408 10.0769L14.7789 10.074L14.7797 10.0843L14.7415 10.0872L14.7408 10.0769Z" fill="#0A5E77"/>
<path d="M14.7494 10.1989L14.7876 10.196L14.7883 10.2063L14.7502 10.2091L14.7494 10.1989Z" fill="#0A5E77"/>
<path d="M11.6146 3.07758C11.6146 3.07758 11.6352 3.465 11.6735 3.5416C11.6956 3.58579 11.1461 3.54897 11.1461 3.54897L11.1005 3.27644L11.289 3.34273L11.6146 3.07758Z" fill="#905531"/>
<path d="M12.0242 3.79349C12.0242 3.79349 12.4264 4.32531 12.3601 4.93963C12.2938 5.55542 11.703 5.60698 11.703 5.60698L11.5866 5.26962L11.759 4.4299L12.0242 3.79349Z" fill="#9868F7"/>
<path d="M11.6102 5.63056C11.6102 5.63056 11.8341 5.62025 11.9829 5.5186C12.1302 5.41547 11.6102 5.08253 11.6102 5.08253C11.6102 5.08253 11.5572 4.92342 11.5203 5.20039C11.4835 5.47882 11.4835 5.44494 11.4835 5.44494L11.6102 5.63056Z" fill="#905531"/>
<path d="M12.1332 5.47298L11.5881 4.96323V5.05604L12.0124 5.55253L12.1332 5.47298Z" fill="#E8EBED"/>
<path d="M10.7587 5.84269C10.7587 5.84269 11.1108 8.81411 10.8648 10.1724C10.9045 10.2122 11.0519 10.1886 11.0519 10.1886C11.0519 10.1886 11.622 8.61817 11.2257 8.09961C11.3612 7.55306 11.5115 6.81352 11.5233 6.33473C11.5336 5.85595 11.1108 5.4302 10.7587 5.84269Z" fill="#781A1D"/>
<path d="M11.7605 5.73816C11.7605 5.73816 11.9785 6.16391 11.8356 6.63975C11.7914 6.94323 11.952 7.0493 11.8857 8.07463C12.1789 8.27941 12.1303 9.55666 12.1303 10.1887C12.0625 10.1887 11.9903 10.2034 11.9903 10.2034C11.9903 10.2034 11.4541 7.5325 11.3347 7.20545C11.2139 6.87841 11.0975 5.85749 11.2345 5.79709C11.3716 5.73816 11.7605 5.73816 11.7605 5.73816Z" fill="#781A1D"/>
<path d="M11.8386 3.6167C11.8386 3.6167 12.3085 3.92607 12.1494 4.40339C11.9903 4.88072 11.8194 5.05897 11.7723 5.27701C11.7266 5.49505 11.7723 5.77348 11.7723 5.77348C11.7723 5.77348 11.5159 6.03277 10.7602 5.84715C10.6674 5.27848 10.8058 4.62585 10.7999 4.23839C10.7941 3.84946 10.7042 3.82 10.9311 3.6933C11.1241 3.58429 11.5086 3.45759 11.8386 3.6167Z" fill="#5938FF"/>
<path d="M11.0504 10.19C11.0504 10.19 11.0975 10.3064 11.0843 10.3241C11.071 10.3418 10.573 10.3241 10.573 10.3241C10.573 10.3241 10.5774 10.1988 10.6216 10.1974C10.6658 10.1959 10.8633 10.1738 10.8633 10.1738L11.0504 10.19Z" fill="#121233"/>
<path d="M12.1391 10.19C12.1391 10.19 12.1862 10.3064 12.173 10.3241C12.1597 10.3418 11.6618 10.3241 11.6618 10.3241C11.6618 10.3241 11.6662 10.1988 11.7104 10.1974C11.7546 10.1959 11.952 10.1738 11.952 10.1738L12.1391 10.19Z" fill="#121233"/>
<path d="M11.7605 5.67624C11.7605 5.67624 11.3156 5.89129 10.7424 5.70128C10.7424 5.79555 10.7587 5.87214 10.7587 5.87214C10.7587 5.87214 11.5675 6.07099 11.7723 5.77345C11.7605 5.67624 11.7605 5.67624 11.7605 5.67624Z" fill="#1F2B27"/>
<path d="M11.2109 4.48148C11.1078 4.86157 10.8751 5.14 10.7881 5.25786C10.5097 5.63353 9.65234 5.09581 9.52859 5.04866C9.41811 5.00741 9.51534 4.95585 9.51534 4.95585C9.51534 4.95585 10.0486 4.91313 10.2887 4.96322C10.5082 4.93817 10.3271 3.73603 11.0253 3.77581C11.3671 3.79496 11.2537 4.32679 11.2109 4.48148Z" fill="#9868F7"/>
<path d="M11.6632 3.43402C11.6632 3.43402 11.6971 3.56513 11.7177 3.57102C11.7384 3.57692 11.4275 3.72865 11.0578 3.63142L11.1285 3.51799C11.1285 3.51799 11.5807 3.51799 11.6632 3.43402Z" fill="#E8EBED"/>
<path d="M11.6235 3.2808C11.6235 3.2808 11.5115 2.95375 11.597 2.72689C11.6809 2.50002 11.8445 2.33797 11.6972 2.23338C11.5484 2.12878 10.9075 2.04186 10.8442 2.15088C10.7808 2.25989 10.6453 2.49707 10.6644 2.57368C10.6836 2.65028 10.688 2.78729 10.6688 2.84769C10.6497 2.90809 10.741 3.03625 10.7734 3.13937C10.8058 3.24249 10.8589 3.35446 10.8589 3.44726C10.8589 3.54007 10.9311 3.57101 10.9311 3.57101C10.9311 3.57101 11.0858 3.50472 11.2287 3.4399C11.3716 3.37803 11.6235 3.2808 11.6235 3.2808Z" fill="#905531"/>
<path d="M11.6445 3.21085C11.6445 3.21085 11.4231 3.25871 11.267 3.21599C11.2199 3.20273 11.1816 3.03184 11.1521 2.95671C11.2007 2.93167 11.267 2.81529 11.2199 2.71217C11.1742 2.61052 11.0018 2.68418 10.9812 2.71217C10.9606 2.74016 10.8955 2.4102 10.8955 2.4102C10.8955 2.4102 10.7714 2.32097 10.767 2.25615C10.764 2.19133 10.8745 2.10116 10.9644 2.08937C11.0542 2.07759 11.6927 1.99326 11.7237 2.1833C11.7737 2.20245 11.8695 2.25401 11.8415 2.33798C11.8135 2.42342 11.5163 3.05175 11.6445 3.21085Z" fill="#09091A"/>
<path d="M10.8073 2.53684C10.8073 2.53684 10.6762 2.53242 10.6703 2.52064C10.6644 2.50885 10.635 2.42342 10.6718 2.4028C10.7086 2.38217 10.7867 2.46172 10.8073 2.46319C10.8279 2.46466 10.8073 2.53684 10.8073 2.53684Z" fill="black"/>
<path d="M10.8426 2.72098C10.8426 2.72098 10.744 2.61344 10.6688 2.64143C10.6453 2.65027 10.6792 2.83148 10.6792 2.82853C10.6792 2.82558 10.8721 2.81527 10.8426 2.72098Z" fill="white"/>
<path d="M10.6629 2.6665C10.6629 2.6665 10.7249 2.67682 10.7308 2.7549C10.7352 2.83299 10.6762 2.81973 10.6762 2.81973C10.6762 2.81973 10.657 2.66798 10.6629 2.6665Z" fill="#121233"/>
<path d="M11.0018 2.8374C11.0018 2.8374 11.2654 3.31619 11.1933 3.45761C11.1211 3.59757 10.9119 3.61819 10.8839 3.59315C10.8559 3.5681 10.7366 3.09963 10.7189 3.05101C10.7469 3.03628 10.9649 2.90959 10.9649 2.83888C10.9826 2.84035 11.0018 2.8374 11.0018 2.8374Z" fill="#04040B"/>
<path d="M11.1476 2.89926L11.1358 2.8919C11.1712 2.83445 11.18 2.79026 11.1638 2.76228C11.1417 2.72398 11.0784 2.72545 11.0784 2.72545V2.71219C11.0813 2.71219 11.1491 2.71072 11.1756 2.75638C11.1947 2.78879 11.1844 2.8374 11.1476 2.89926Z" fill="#EA9F75"/>
<path d="M11.7457 6.66626C11.7457 6.66626 11.5837 6.72077 11.5086 6.72814C11.5086 6.72814 11.4836 6.88283 11.4497 7.03163C11.4158 7.17896 11.6515 6.73256 11.7457 6.66626Z" fill="#781A1D"/>
<path d="M10.8353 2.71806C10.8323 2.71511 10.7778 2.62821 10.6703 2.64736L10.6674 2.6341C10.7822 2.61348 10.8456 2.70922 10.8456 2.71069L10.8353 2.71806Z" fill="#121233"/>
<path d="M11.3893 7.37782L11.376 7.37487C11.4143 7.20988 11.4408 7.04635 11.46 6.92703C11.4806 6.80033 11.4909 6.73846 11.5027 6.72225L11.5042 6.72078H11.5071C11.5852 6.70015 11.7457 6.65891 11.7457 6.65891L11.7486 6.67216C11.7486 6.67216 11.5911 6.71341 11.513 6.73256C11.5027 6.75024 11.4894 6.82979 11.4732 6.92997C11.4541 7.0493 11.4276 7.21282 11.3893 7.37782Z" fill="#4D0047"/>
<path d="M11.0195 6.45708C10.9222 6.42319 10.8338 6.17275 10.8308 6.16244L10.8426 6.15802C10.8441 6.16097 10.9325 6.41288 11.0239 6.44529L11.0195 6.45708Z" fill="#4D0047"/>
<path d="M11.8282 8.11877L11.8209 8.10699L11.8651 8.07903L11.7634 8.06873L11.7648 8.05548L11.871 8.06578C11.8754 8.06578 11.8798 8.0702 11.8813 8.07461C11.8828 8.07903 11.8798 8.08492 11.8754 8.08786L11.8282 8.11877Z" fill="#4D0047"/>
<path d="M11.2169 8.10987C11.1801 8.09956 11.1226 8.09514 11.1226 8.09514L11.1241 8.08188C11.127 8.08188 11.183 8.08777 11.2214 8.09808L11.2169 8.10987Z" fill="#4D0047"/>
<path d="M11.7177 4.9588L11.6986 5.02215C11.6927 5.04277 11.6853 5.0634 11.6794 5.0855C11.6677 5.12674 11.6559 5.16947 11.6456 5.21219C11.6397 5.23281 11.6352 5.25491 11.6308 5.27554C11.6264 5.29763 11.622 5.31826 11.619 5.34036C11.6176 5.35067 11.6146 5.36246 11.6146 5.37277C11.6132 5.38308 11.6117 5.39486 11.6117 5.40518C11.6117 5.41549 11.6102 5.42728 11.6102 5.43759C11.6102 5.4479 11.6102 5.45969 11.6102 5.47C11.6028 5.42728 11.6043 5.38161 11.6102 5.33888C11.6146 5.29469 11.6235 5.25197 11.6338 5.20924C11.6441 5.16652 11.6573 5.1238 11.6706 5.08255C11.6839 5.03983 11.7001 4.99858 11.7177 4.9588Z" fill="#0A5E77"/>
<path d="M11.7178 3.57108C11.6957 3.58875 11.6706 3.60349 11.6441 3.61527C11.6308 3.62116 11.6176 3.62558 11.6043 3.63148C11.5911 3.6359 11.5778 3.64032 11.5631 3.64474C11.5086 3.65947 11.4511 3.66683 11.3936 3.66978C11.3362 3.67273 11.2802 3.66978 11.2228 3.66389C11.1948 3.65947 11.1668 3.65505 11.1388 3.65063C11.1108 3.64474 11.0828 3.63884 11.0563 3.63148C11.0843 3.63442 11.1123 3.63884 11.1403 3.64326C11.1683 3.64621 11.1962 3.64916 11.2242 3.6521C11.2802 3.65505 11.3362 3.65947 11.3936 3.65505C11.4496 3.65357 11.5056 3.64621 11.5601 3.63295C11.5734 3.63 11.5866 3.62558 11.6014 3.62264C11.6146 3.61822 11.6279 3.6138 11.6411 3.60938C11.6677 3.59907 11.6942 3.58728 11.7178 3.57108Z" fill="#0A5E77"/>
<path d="M12.1405 3.98944C12.1553 4.02332 12.167 4.05868 12.1744 4.09551C12.1788 4.11319 12.1803 4.13234 12.1833 4.15002C12.1847 4.16917 12.1877 4.18685 12.1877 4.206C12.1906 4.28113 12.1818 4.35479 12.1641 4.42698C12.1464 4.49916 12.1155 4.5684 12.0816 4.6347C12.0625 4.66711 12.0433 4.69952 12.0242 4.73045L11.9947 4.7776L11.9667 4.82621C11.893 4.95438 11.8341 5.09139 11.7973 5.23428C11.7605 5.37718 11.7502 5.52745 11.7619 5.67477C11.7546 5.60111 11.7516 5.52598 11.7546 5.45232C11.759 5.37866 11.7693 5.30352 11.787 5.23134C11.8047 5.15915 11.8282 5.08844 11.8577 5.0192C11.8857 4.94996 11.9196 4.88367 11.9564 4.81885L11.9844 4.77023L12.0138 4.72309C12.0345 4.69215 12.0521 4.65974 12.0713 4.6288C12.1052 4.56398 12.1361 4.49622 12.1553 4.42403C12.1744 4.35332 12.1847 4.27966 12.1833 4.20453C12.1833 4.18538 12.1818 4.1677 12.1803 4.14855C12.1774 4.13087 12.1759 4.11172 12.1729 4.09404C12.1641 4.06015 12.1553 4.02332 12.1405 3.98944Z" fill="#0A5E77"/>
<path d="M10.4375 5.38894C10.3816 5.38599 10.3226 5.37568 10.2637 5.36095C9.94403 5.28287 9.60225 5.07663 9.5286 5.05011C9.41811 5.00886 9.51534 4.9573 9.51534 4.9573C9.51534 4.9573 9.97497 4.92048 10.2328 4.95583C10.2534 4.95878 10.2711 4.96172 10.2888 4.96467C10.3005 4.9632 10.3109 4.95878 10.3212 4.95141L10.4375 5.38894Z" fill="#905531"/>
<path d="M10.4375 5.39043H10.2667L10.2638 5.36097L10.2328 4.95437L10.2299 4.90723H10.3109L10.3212 4.94995L10.4375 5.38896V5.39043Z" fill="#E8EBED"/>
<path d="M10.8161 3.13501C10.8161 3.13501 10.9149 3.1026 10.9266 3.06577C10.9384 3.02895 10.8898 3.22929 10.8456 3.22045C10.8456 3.20425 10.85 3.15711 10.8161 3.13501Z" fill="white"/>
<path d="M9.33561 4.90723L9.24869 4.96321L9.259 4.97941L9.35476 4.92343L9.33561 4.90723Z" fill="#FDB803"/>
<path d="M9.55509 4.95437C9.55509 4.95437 9.53741 4.89545 9.43872 4.84388C9.33855 4.79232 9.32087 4.92933 9.34297 4.98384C9.36506 5.03834 9.50206 5.03687 9.50206 5.03687C9.50206 5.03687 9.51826 4.95437 9.55509 4.95437Z" fill="#905531"/>
<path d="M9.40631 4.86007C9.40631 4.86007 9.41515 4.88364 9.42694 4.88364C9.43872 4.88364 9.61992 4.76726 9.61992 4.76726L9.59783 4.73779L9.40631 4.86007Z" fill="#FDB803"/>
<path d="M9.54331 4.95292C9.54331 4.95292 9.54921 4.89987 9.53742 4.8866C9.52564 4.87334 9.47115 4.86008 9.47115 4.86008L9.54331 4.95292Z" fill="#905531"/>
<path d="M11.6013 1.92141C11.6471 1.92277 11.6928 1.91526 11.7358 1.90024C11.6996 1.8702 11.658 1.84698 11.6136 1.83264C11.6559 1.81489 11.6948 1.79031 11.7283 1.7589C11.6832 1.74593 11.6361 1.74115 11.589 1.74661C11.6204 1.71384 11.666 1.72403 11.6838 1.68169C11.6838 1.68169 11.589 1.6401 11.5248 1.68106C11.5412 1.63532 11.5912 1.61699 11.5891 1.56851C11.5891 1.56851 11.4784 1.5807 11.4381 1.64829C11.434 1.59776 11.419 1.5486 11.3951 1.50354C11.3705 1.54382 11.3548 1.58821 11.3473 1.63464C11.3234 1.59572 11.3074 1.5879 11.2712 1.55991C11.2651 1.60634 11.2531 1.62644 11.2654 1.67219C11.2278 1.64556 11.0996 1.69028 11.0552 1.67936C11.0681 1.72442 11.1759 1.70291 11.2053 1.73978C11.1602 1.73091 11.1138 1.73023 11.0687 1.73774C11.0988 1.77392 11.1363 1.80328 11.178 1.82513C11.1329 1.83469 11.0611 1.90224 11.0229 1.9275C11.0652 1.94798 11.1404 1.91116 11.1869 1.91458C11.15 1.94189 11.1179 1.97535 11.0933 2.01358C11.1404 2.01563 11.1869 2.0088 11.2312 1.99242C11.208 2.03202 11.193 2.07572 11.1855 2.12078C11.2292 2.10371 11.2695 2.07845 11.3036 2.04567C11.2988 2.09142 11.3016 2.13785 11.3132 2.18223C11.3466 2.14877 11.3726 2.10986 11.391 2.06616C11.4047 2.10986 11.4265 2.15082 11.4545 2.18701C11.4716 2.14331 11.4798 2.09688 11.4791 2.04977C11.5091 2.08459 11.5453 2.11327 11.5856 2.13444C11.5836 2.08732 11.5726 2.04158 11.5528 1.99856C11.5945 2.01768 11.6634 2.09381 11.7092 2.09722C11.6894 2.05421 11.6361 1.95281 11.6013 1.92141Z" fill="#09091A"/>
<path d="M11.6584 1.98503C11.7041 1.9864 11.7499 1.97889 11.7929 1.96387C11.7567 1.93383 11.7151 1.91061 11.6707 1.89627C11.713 1.87852 11.7519 1.85394 11.7854 1.82253C11.7403 1.80956 11.6932 1.80478 11.6461 1.81024C11.6775 1.77747 11.7034 1.73855 11.7212 1.69622C11.7212 1.69622 11.6461 1.70373 11.5819 1.7447C11.5983 1.69895 11.6998 1.64624 11.6977 1.59777C11.6977 1.59777 11.5355 1.64433 11.4952 1.71192C11.4911 1.6614 11.535 1.5042 11.5111 1.45914C11.4865 1.49942 11.4119 1.65184 11.4044 1.69827C11.3805 1.65935 11.3473 1.681 11.3111 1.65301C11.305 1.69943 11.3102 1.69007 11.3225 1.73582C11.2849 1.70919 11.2745 1.7269 11.2301 1.71598C11.2431 1.76104 11.233 1.76654 11.2624 1.80341C11.2173 1.79454 11.1709 1.79386 11.1258 1.80137C11.1559 1.83755 11.1934 1.86691 11.2351 1.88876C11.19 1.89832 11.1477 1.91676 11.1094 1.94202C11.1518 1.9625 11.1975 1.97479 11.2439 1.97821C11.2071 2.00552 11.175 2.03897 11.1504 2.07721C11.1975 2.07926 11.2439 2.07243 11.2883 2.05604C11.2651 2.09564 11.2501 2.13934 11.2426 2.1844C11.2863 2.16734 11.3265 2.14207 11.3607 2.1093C11.3559 2.15505 11.3586 2.20147 11.3702 2.24585C11.4037 2.2124 11.4296 2.17348 11.4481 2.12978C11.4617 2.17348 11.4836 2.21445 11.5116 2.25063C11.5287 2.20694 11.5368 2.16051 11.5362 2.1134C11.5662 2.14822 11.6024 2.17689 11.6427 2.19806C11.6406 2.15095 11.6297 2.1052 11.6099 2.06219C11.6516 2.08131 11.6959 2.05676 11.7417 2.06018C11.7219 2.01716 11.6932 2.01644 11.6584 1.98503Z" fill="#09091A"/>
<path d="M11.5194 3.24923C11.5488 3.27278 11.5325 3.34072 11.5682 3.35211C11.5593 3.3144 11.5936 3.22823 11.5714 3.19681C11.6081 3.20607 11.6028 3.31322 11.6404 3.30908C11.6287 3.29352 11.623 3.21334 11.623 3.21334C11.623 3.21334 11.6145 3.13772 11.5978 3.12794C11.6347 3.12189 11.6316 3.23111 11.6643 3.212C11.6643 3.212 11.6505 3.05774 11.5879 3.05297C11.6214 3.03093 11.6792 3.20447 11.7018 3.17151C11.7018 3.17151 11.607 2.96383 11.547 2.98844C11.5693 2.95311 11.5838 2.91327 11.5903 2.87174C11.5542 2.88612 11.5219 2.9076 11.4939 2.93448C11.4974 2.897 11.4944 2.85884 11.4844 2.82247C11.4574 2.85003 11.4359 2.88244 11.4213 2.91867C11.4098 2.88253 11.3913 2.84897 11.3675 2.8198C11.3537 2.85592 11.3472 2.89464 11.3483 2.93348C11.323 2.90532 11.2927 2.88188 11.2593 2.86452C11.2612 2.90325 11.2714 2.94119 11.288 2.97621C11.2536 2.9602 11.2165 2.95139 11.1788 2.94911C11.1966 2.98357 11.2207 3.01432 11.2496 3.03955C11.2118 3.0393 11.3179 2.98637 11.2828 2.9994C11.3128 3.02407 11.2029 3.10166 11.2403 3.11283C11.2054 3.12743 11.2201 3.19762 11.1928 3.2236C11.2301 3.23399 11.2229 3.18846 11.2616 3.18376C11.2358 3.21154 11.2583 3.28975 11.244 3.32474C11.2826 3.31926 11.2753 3.2602 11.3091 3.24052C11.2965 3.27608 11.2906 3.3139 11.2911 3.35161C11.324 3.33126 11.3524 3.30472 11.3753 3.27333C11.3778 3.31115 11.3875 3.34797 11.4035 3.38186C11.4255 3.34979 11.441 3.31423 11.4492 3.27608C11.4672 3.3093 11.4904 3.33937 11.5188 3.36427C11.5271 3.32612 11.5268 3.28717 11.5194 3.24923Z" fill="#09091A"/>
<path d="M10.9679 2.72548C10.9723 2.74619 11.2135 2.54395 11.2318 2.79545L11.3636 2.53805C11.1819 2.48234 11.1095 2.46809 11.0896 2.46215L10.952 2.42717C10.9323 2.4213 10.8818 2.3844 10.8862 2.40486L10.9679 2.72548Z" fill="#3B1903"/>
</svg>
