<svg xmlns="http://www.w3.org/2000/svg" xmlns:xlink="http://www.w3.org/1999/xlink" xmlns:sketch="http://www.bohemiancoding.com/sketch/ns" viewBox="0 0 30 37.5" version="1.1" x="0px" y="0px"><title>gesture_087-swipe_up-finger-arrow-hand-touch</title><desc>Created with Sketch.</desc><g stroke="none" stroke-width="1" fill="none" fill-rule="evenodd" sketch:type="MSPage"><g sketch:type="MSArtboardGroup" transform="translate(-225.000000, -450.000000)" fill="#000000"><path d="M226.5,457.414214 L225.792893,456.707107 L228.5,454 L231.207107,456.707107 L230.5,457.414214 L229,455.914214 L229,466 L228,466 L228,455.914214 L226.5,457.414214 Z M233.918919,458.643081 L234.388302,457.58783 L235.536277,457.46721 L240.404524,464.168351 L241.21384,463.580348 L240.02115,461.940011 L240.490728,460.883825 L241.638508,460.764139 L242.831575,462.404995 L243.640891,461.816992 L242.858061,460.628633 L243.32764,459.572447 L244.475419,459.452761 L245.258626,460.641639 L246.067942,460.053636 L245.479396,459.243572 L245.948779,458.18832 L247.096754,458.067701 L250.669769,462.985456 L252.186368,468.474983 L253.709124,470.570877 L254.518141,469.983091 L253.101971,468.0339 L251.58515,462.543572 L247.574276,457.023651 L245.279003,457.265823 L244.808878,458.321515 L242.657564,458.650167 L242.18873,459.707715 L239.820653,459.961545 L239.351637,461.019225 L236.014235,456.424426 L233.718526,456.665333 L232.779082,458.774902 L237.36477,465.08739 L235.80799,469.750303 L238.646569,473.657271 L245.59701,476.464672 L246.551042,475.771528 L239.287012,472.837463 L236.919492,469.578852 L238.087072,466.081684 L240.916814,469.97649 L241.725744,469.388768 L233.918919,458.643081 Z" sketch:type="MSShapeGroup"/></g></g><text x="0" y="45" fill="#000000" font-size="5px" font-weight="bold" font-family="'Helvetica Neue', Helvetica, Arial-Unicode, Arial, Sans-serif">Created by Pham Thi Dieu Linh</text><text x="0" y="50" fill="#000000" font-size="5px" font-weight="bold" font-family="'Helvetica Neue', Helvetica, Arial-Unicode, Arial, Sans-serif">from the Noun Project</text></svg>