<svg xmlns="http://www.w3.org/2000/svg" xmlns:xlink="http://www.w3.org/1999/xlink" version="1.1" x="0px" y="0px" viewBox="0 0 100 125" enable-background="new 0 0 100 100" xml:space="preserve"><g><path d="M13.944,46.297c-0.039,0-0.079-0.002-0.12-0.007c-2.089-0.251-3.981-1.171-5.473-2.662   c-1.76-1.759-2.729-4.099-2.729-6.587s0.969-4.828,2.729-6.587c1.759-1.76,4.099-2.729,6.587-2.729s4.828,0.969,6.587,2.729   c0.683,0.683,1.252,1.46,1.691,2.31c0.253,0.49,0.062,1.094-0.43,1.348c-0.491,0.251-1.095,0.06-1.348-0.43   c-0.345-0.666-0.791-1.276-1.328-1.813c-2.852-2.852-7.494-2.852-10.346,0c-1.382,1.382-2.143,3.219-2.143,5.173   s0.761,3.791,2.143,5.173c1.171,1.171,2.657,1.894,4.297,2.09c0.548,0.066,0.939,0.563,0.874,1.112   C14.874,45.924,14.443,46.297,13.944,46.297z"/><path d="M13.131,29.052c-0.553,0-1-0.447-1-1V8.13c0-0.553,0.447-1,1-1s1,0.447,1,1v19.922   C14.131,28.605,13.684,29.052,13.131,29.052z"/><path d="M13.131,67.235c-0.553,0-1-0.447-1-1V46.23c0-0.553,0.447-1,1-1s1,0.447,1,1v20.005   C14.131,66.788,13.684,67.235,13.131,67.235z"/><path d="M8.73,13.2c-0.256,0-0.512-0.098-0.707-0.293c-0.391-0.391-0.391-1.023,0-1.414l4.401-4.402   c0.375-0.375,1.039-0.375,1.414,0l4.402,4.402c0.391,0.391,0.391,1.023,0,1.414s-1.023,0.391-1.414,0l-3.695-3.695l-3.694,3.695   C9.242,13.102,8.986,13.2,8.73,13.2z"/><path d="M13.131,68.758c-0.256,0-0.512-0.098-0.707-0.293l-4.401-4.401c-0.391-0.391-0.391-1.023,0-1.414   c0.391-0.391,1.023-0.391,1.414,0l3.694,3.694l3.695-3.694c0.391-0.391,1.023-0.391,1.414,0s0.391,1.023,0,1.414l-4.402,4.401   C13.643,68.661,13.387,68.758,13.131,68.758z"/><path d="M93.123,77.333c-0.14,0.14-0.261,0.246-0.339,0.311L78.749,91.68c-0.012,0.014-0.055,0.059-0.113,0.117   c-1.367,1.367-2.919,1.757-4.15,1.044c-0.429-0.247-4.772-4.685-5.517-4.884c-11.951-1.451-31.321-8.905-32.14-9.222   c-0.053-0.021-14.617-7.563-14.617-7.563c-1.373-0.722-0.752-2.18-0.393-2.539c5.613-5.613,11.464-6.254,17.877-1.952   c1.435,0.15,2.965,0.291,4.304,0.395c-6.054-5.098-20.234-16.445-29.699-23.939c-1.744-1.454-4.813-4.701-1.64-8.394   c1.543-1.796,4.38-1.623,7.15,0.227l22.417,14.783c0.221-0.859,0.431-1.59,1.582-2.924c1.197-1.387,2.883-1.743,4.349-1.371   c0.215-0.555,0.588-1.163,1.204-1.78c1.939-1.939,4.765-2.207,6.874-0.651l0.949,0.689c0.267-0.888,0.744-1.711,1.369-2.336   c1.946-1.946,4.829-1.999,7.174-0.13c7.646,6.091,16.311,15.947,22.613,25.721c0.259,0.399,4.673,5.016,5.332,5.804   C94.783,74.1,94.567,75.889,93.123,77.333z M91.218,74.709c0.048-0.048-5.149-5.389-5.55-6.012   c-6.036-9.359-14.641-19.155-21.922-24.956c-0.511-0.407-1.818-1.231-2.941-0.108c-0.61,0.61-0.926,1.925-0.415,2.437   c0.588,0.588,0.624,1.527,0.085,2.158c-0.549,0.632-1.474,0.743-2.146,0.254l-3.973-2.886c-0.859-0.633-1.825-0.758-2.743,0.334   c-0.687,0.817-0.244,1.448-0.08,1.577l0.254,0.182c0.703,0.506,0.87,1.481,0.379,2.194c-0.498,0.714-1.464,0.901-2.186,0.425   c-0.15-0.099-0.292-0.202-0.424-0.307l-1.791-1.292c-0.273-0.174-1.138-0.141-1.94,0.768c-0.946,1.072-0.778,1.972-0.398,2.527   c0.429,0.627,0.355,1.472-0.179,2.015c-0.577,0.546-1.376,0.632-2.011,0.213L18.052,37.623c-1.376-0.919-2.542-1.39-3.286-0.418   c-1.175,1.536,0.537,2.622,1.544,3.462C48.777,66.375,49.371,67.583,49.566,67.98c0.3,0.611,0.169,1.399-0.313,1.881   c-0.569,0.569-0.944,0.944-10.293-0.057c-0.266-0.029-0.519-0.124-0.739-0.276c-4.655-3.24-8.492-3.314-12.503-0.125l12.34,6.394   c1.381,0.528,20.117,7.643,31.332,9.006c1.578,0.19,6.15,5.588,6.323,5.416C75.899,90.033,91.218,74.709,91.218,74.709z"/><path d="M47.146,55.413c-0.533,0.533-1.385,0.626-2.028,0.183l-1.905-1.314c-0.723-0.499-0.906-1.49-0.406-2.214   c0.5-0.722,1.49-0.906,2.214-0.406l1.905,1.314c0.723,0.499,0.906,1.49,0.406,2.214C47.276,55.272,47.214,55.346,47.146,55.413z"/><path d="M54.274,51.827c-0.549,0.549-1.432,0.627-2.073,0.151l-3.057-2.271c-0.705-0.525-0.852-1.522-0.328-2.227   c0.519-0.7,1.521-0.851,2.227-0.328l3.057,2.271c0.705,0.525,0.852,1.522,0.328,2.227C54.38,51.713,54.329,51.772,54.274,51.827z"/><path d="M60.794,50.279l-2.969-2.165c-0.711-0.517-0.867-1.513-0.349-2.223c0.522-0.717,1.514-0.866,2.223-0.349l2.969,2.165   c0.711,0.517,1.05,1.21,0.408,2.117C62.484,50.663,61.435,50.747,60.794,50.279z"/></g><text x="0" y="115" fill="#000000" font-size="5px" font-weight="bold" font-family="'Helvetica Neue', Helvetica, Arial-Unicode, Arial, Sans-serif">Created by H Alberto Gongora</text><text x="0" y="120" fill="#000000" font-size="5px" font-weight="bold" font-family="'Helvetica Neue', Helvetica, Arial-Unicode, Arial, Sans-serif">from the Noun Project</text></svg>