<svg xmlns="http://www.w3.org/2000/svg" data-name="Layer 1" viewBox="0 0 100 125" x="0px" y="0px"><title>Artboard 59</title><path d="M77.8,36.31a10,10,0,0,1-5.41,2.58c.22.45.45.91.64,1.38A25,25,0,1,1,61.11,27.61a10,10,0,0,1,2.59-5.41A30.95,30.95,0,1,0,78.56,37.93C78.33,37.38,78.07,36.84,77.8,36.31Z"/><circle cx="38.5" cy="46.5" r="3.5"/><circle cx="61.5" cy="46.5" r="3.5"/><path d="M50,67a8,8,0,0,0,8-8,7.92,7.92,0,0,0-1.11-4H43.11A7.92,7.92,0,0,0,42,59,8,8,0,0,0,50,67Z"/><circle cx="71" cy="29" r="4"/><text x="0" y="115" fill="#000000" font-size="5px" font-weight="bold" font-family="'Helvetica Neue', Helvetica, Arial-Unicode, Arial, Sans-serif">Created by Gregor Cresnar</text><text x="0" y="120" fill="#000000" font-size="5px" font-weight="bold" font-family="'Helvetica Neue', Helvetica, Arial-Unicode, Arial, Sans-serif">from the Noun Project</text></svg>