<svg xmlns="http://www.w3.org/2000/svg" xmlns:xlink="http://www.w3.org/1999/xlink" version="1.1" x="0px" y="0px" viewBox="0 0 100 125" enable-background="new 0 0 100 100" xml:space="preserve"><g><path d="M27.695,7.205c0.828,0,1.5,0.671,1.5,1.5v24.253c0,0.829-0.672,1.5-1.5,1.5s-1.5-0.671-1.5-1.5V8.705   C26.195,7.877,26.867,7.205,27.695,7.205z"/><path d="M27.693,7.122c0.536,0,1.031,0.286,1.299,0.75l4.503,7.799c0.414,0.717,0.169,1.635-0.549,2.049   c-0.717,0.414-1.635,0.17-2.049-0.549l-3.204-5.549l-3.204,5.549c-0.414,0.718-1.332,0.963-2.049,0.549   c-0.718-0.414-0.963-1.332-0.549-2.049l4.503-7.799C26.662,7.408,27.157,7.122,27.693,7.122z"/><path d="M42.95,28.899c-0.405,0-0.81-0.164-1.105-0.486c-2.297-2.503-3.562-5.754-3.562-9.154c0-7.468,6.075-13.543,13.543-13.543   s13.543,6.076,13.543,13.543c0,3.103-1.075,6.134-3.028,8.537c-0.522,0.642-1.466,0.741-2.11,0.218   c-0.643-0.522-0.74-1.467-0.218-2.11c1.52-1.869,2.356-4.229,2.356-6.645c0-5.813-4.729-10.543-10.543-10.543   s-10.543,4.73-10.543,10.543c0,2.646,0.984,5.177,2.772,7.125c0.56,0.61,0.52,1.56-0.092,2.12   C43.676,28.769,43.312,28.899,42.95,28.899z"/><path d="M72.447,94.284c-0.835,0-19.581-0.016-19.658-0.016c-1.804,0-3.083-0.757-3.421-2.026   c-0.118-0.444-0.119-1.085-0.111-2.379c0.009-1.231,0.029-4.114-0.353-4.745c-5.868-7.98-12.035-30.227-12.044-30.297   c-2.055-17.267-1.094-17.395,0.362-17.587c5.428-0.727,9.033,6.387,9.242,13.031c0.08,0.251,0.161,0.505,0.243,0.761   c0.254-8.387,0.526-22.952,0.688-33.595c0.315-5.666,2.944-6.504,4.483-6.504c2.405,0,4.388,2.186,4.614,5.086l0.589,24.799   c0.612-0.275,1.289-0.427,1.999-0.427c1.74,0,3.382,0.898,4.358,2.184c0.746-0.542,1.664-0.857,2.667-0.857   c2.775,0,5.21,2.203,5.21,4.715v0.627c0.624-0.239,1.325-0.37,2.076-0.37c2.646,0,4.641,1.932,4.853,4.698   c0.203,2.653,0.067,22.606-2.113,32.705c-0.099,0.457-0.237,6.6-0.323,7.578C75.663,93.281,74.376,94.284,72.447,94.284z    M72.99,91.377c0.077-0.91,0.226-7.2,0.373-7.886c2.083-9.649,2.249-29.398,2.058-31.892c-0.1-1.305-0.859-2.085-2.032-2.085   c-1.031,0-2.076,0.485-2.076,1.412c0,0.781-0.633,1.415-1.415,1.415c-0.781,0-1.415-0.633-1.415-1.415v-4.499   c0-0.872-1.04-1.886-2.38-1.886c-1.138,0-1.752,0.972-1.752,1.886c0,0.781-0.633,1.415-1.415,1.415s-1.415-0.633-1.415-1.415   v-1.301c0-0.817-1.208-1.911-2.443-1.911c-1.081,0-1.791,0.777-1.935,1.544c-0.133,0.711-0.778,1.209-1.505,1.15   c-0.722-0.058-1.283-0.653-1.3-1.376l-0.673-28.376c-0.112-1.805-1.02-2.4-1.789-2.4c-1.304,0-1.662,1.995-1.656,3.775   c0.053,14.672-0.665,39.574-1.113,40.888c-0.195,0.573-0.758,0.984-1.364,0.984c-1.176,0-1.357,0-4.038-8.476   c-0.041-0.129-0.063-0.262-0.065-0.397c-0.097-4.676-2.272-9.873-5.128-10.463C38.446,42.426,39,48.84,39.657,54.379   c0.451,1.611,5.814,21.922,11.535,29.075c1.202,1.503,0.887,7.554,0.903,7.895C52.243,91.395,72.899,91.412,72.99,91.377z"/><path d="M55.763,47.904c-0.781,0-1.415-0.633-1.415-1.415V44.5c0-0.781,0.633-1.415,1.415-1.415c0.781,0,1.415,0.633,1.415,1.415   v1.989C57.178,47.271,56.544,47.904,55.763,47.904z"/><path d="M62.938,50.343c-0.781,0-1.415-0.633-1.415-1.415v-2.5c0-0.781,0.633-1.415,1.415-1.415s1.415,0.633,1.415,1.415v2.5   C64.352,49.709,63.719,50.343,62.938,50.343z"/><path d="M69.9,54.983c-0.781,0-1.415-0.633-1.415-1.415v-2.643c0-0.781,0.633-1.415,1.415-1.415c0.781,0,1.415,0.633,1.415,1.415   v2.643C71.314,54.35,70.681,54.983,69.9,54.983z"/></g><text x="0" y="115" fill="#000000" font-size="5px" font-weight="bold" font-family="'Helvetica Neue', Helvetica, Arial-Unicode, Arial, Sans-serif">Created by H Alberto Gongora</text><text x="0" y="120" fill="#000000" font-size="5px" font-weight="bold" font-family="'Helvetica Neue', Helvetica, Arial-Unicode, Arial, Sans-serif">from the Noun Project</text></svg>