<svg xmlns="http://www.w3.org/2000/svg" xmlns:xlink="http://www.w3.org/1999/xlink" version="1.1" x="0px" y="0px" viewBox="0 0 90 112.5" style="enable-background:new 0 0 90 90;" xml:space="preserve"><path d="M58.4140625,46.109375h-26.828125c-0.5527344,0-1,0.4477539-1,1c0,7.9482422,6.4658203,14.4145508,14.4140625,14.4145508  s14.4140625-6.4663086,14.4140625-14.4145508C59.4140625,46.5571289,58.9667969,46.109375,58.4140625,46.109375z M45,59.5239258  c-6.5087891,0-11.8632813-5.0351563-12.3740234-11.4145508h24.7480469C56.8632813,54.4887695,51.5087891,59.5239258,45,59.5239258z"/><path d="M45,18.9262695c-14.3769531,0-26.0742188,11.6967773-26.0742188,26.0737305S30.6230469,71.0737305,45,71.0737305  S71.0742188,59.3769531,71.0742188,45S59.3769531,18.9262695,45,18.9262695z M45,69.0737305  c-13.2744141,0-24.0742188-10.7993164-24.0742188-24.0737305S31.7255859,20.9262695,45,20.9262695  S69.0742188,31.7255859,69.0742188,45S58.2744141,69.0737305,45,69.0737305z"/><path d="M31.3222656,36.230957l2.7958984-3.1313477c1.0380859-1.1635742,2.8154297-1.1616211,3.8525391,0l2.796875,3.1313477  c0.1982422,0.2211914,0.4716797,0.3339844,0.7460938,0.3339844c0.2373047,0,0.4755859-0.0839844,0.6660156-0.2543945  c0.4121094-0.3676758,0.4472656-1,0.0800781-1.4116211l-2.796875-3.1313477  c-0.9033203-1.0117188-2.1171875-1.5688477-3.4189453-1.5688477c-1.3007813,0-2.5146484,0.5571289-3.4179688,1.5688477  l-2.7958984,3.1313477c-0.3681641,0.4121094-0.3320313,1.0439453,0.0800781,1.4121094  C30.3203125,36.6772461,30.9550781,36.6435547,31.3222656,36.230957z"/><path d="M57.3740234,31.7675781c-0.9033203-1.0117188-2.1171875-1.5688477-3.4179688-1.5688477  c-1.3017578,0-2.515625,0.5571289-3.4189453,1.5688477l-2.796875,3.1313477  c-0.3671875,0.4116211-0.3320313,1.0439453,0.0800781,1.4116211c0.4101563,0.3676758,1.0429688,0.3330078,1.4121094-0.0795898  l2.796875-3.1313477c1.0371094-1.1606445,2.8154297-1.1625977,3.8525391,0l2.7958984,3.1313477  c0.1972656,0.2211914,0.4716797,0.3339844,0.7460938,0.3339844c0.2373047,0,0.4755859-0.0839844,0.6660156-0.2539063  c0.4121094-0.3681641,0.4482422-1,0.0800781-1.4121094L57.3740234,31.7675781z"/><text x="0" y="105" fill="#000000" font-size="5px" font-weight="bold" font-family="'Helvetica Neue', Helvetica, Arial-Unicode, Arial, Sans-serif">Created by iconcheese</text><text x="0" y="110" fill="#000000" font-size="5px" font-weight="bold" font-family="'Helvetica Neue', Helvetica, Arial-Unicode, Arial, Sans-serif">from the Noun Project</text></svg>