<svg width="447" height="609" viewBox="0 0 447 609" fill="none" xmlns="http://www.w3.org/2000/svg">
<path d="M10.6914 10.4023C8.80859 10.4023 7.32031 11.0312 6.22656 12.2891C5.14062 13.5391 4.59766 15.2539 4.59766 17.4336C4.59766 19.6758 5.12109 21.4102 6.16797 22.6367C7.22266 23.8555 8.72266 24.4648 10.668 24.4648C11.8633 24.4648 13.2266 24.25 14.7578 23.8203V25.5664C13.5703 26.0117 12.1055 26.2344 10.3633 26.2344C7.83984 26.2344 5.89062 25.4688 4.51562 23.9375C3.14844 22.4062 2.46484 20.2305 2.46484 17.4102C2.46484 15.6445 2.79297 14.0977 3.44922 12.7695C4.11328 11.4414 5.06641 10.418 6.30859 9.69922C7.55859 8.98047 9.02734 8.62109 10.7148 8.62109C12.5117 8.62109 14.082 8.94922 15.4258 9.60547L14.582 11.3164C13.2852 10.707 11.9883 10.4023 10.6914 10.4023ZM29.2891 19.5664C29.2891 21.6602 28.7617 23.2969 27.707 24.4766C26.6523 25.6484 25.1953 26.2344 23.3359 26.2344C22.1875 26.2344 21.168 25.9648 20.2773 25.4258C19.3867 24.8867 18.6992 24.1133 18.2148 23.1055C17.7305 22.0977 17.4883 20.918 17.4883 19.5664C17.4883 17.4727 18.0117 15.8438 19.0586 14.6797C20.1055 13.5078 21.5586 12.9219 23.418 12.9219C25.2148 12.9219 26.6406 13.5195 27.6953 14.7148C28.7578 15.9102 29.2891 17.5273 29.2891 19.5664ZM19.5039 19.5664C19.5039 21.207 19.832 22.457 20.4883 23.3164C21.1445 24.1758 22.1094 24.6055 23.3828 24.6055C24.6562 24.6055 25.6211 24.1797 26.2773 23.3281C26.9414 22.4688 27.2734 21.2148 27.2734 19.5664C27.2734 17.9336 26.9414 16.6953 26.2773 15.8516C25.6211 15 24.6484 14.5742 23.3594 14.5742C22.0859 14.5742 21.125 14.9922 20.4766 15.8281C19.8281 16.6641 19.5039 17.9102 19.5039 19.5664ZM34.6562 26H32.7109V7.76562H34.6562V26ZM49.8672 19.5664C49.8672 21.6602 49.3398 23.2969 48.2852 24.4766C47.2305 25.6484 45.7734 26.2344 43.9141 26.2344C42.7656 26.2344 41.7461 25.9648 40.8555 25.4258C39.9648 24.8867 39.2773 24.1133 38.793 23.1055C38.3086 22.0977 38.0664 20.918 38.0664 19.5664C38.0664 17.4727 38.5898 15.8438 39.6367 14.6797C40.6836 13.5078 42.1367 12.9219 43.9961 12.9219C45.793 12.9219 47.2188 13.5195 48.2734 14.7148C49.3359 15.9102 49.8672 17.5273 49.8672 19.5664ZM40.082 19.5664C40.082 21.207 40.4102 22.457 41.0664 23.3164C41.7227 24.1758 42.6875 24.6055 43.9609 24.6055C45.2344 24.6055 46.1992 24.1797 46.8555 23.3281C47.5195 22.4688 47.8516 21.2148 47.8516 19.5664C47.8516 17.9336 47.5195 16.6953 46.8555 15.8516C46.1992 15 45.2266 14.5742 43.9375 14.5742C42.6641 14.5742 41.7031 14.9922 41.0547 15.8281C40.4062 16.6641 40.082 17.9102 40.082 19.5664ZM59.1484 12.9219C59.7188 12.9219 60.2305 12.9688 60.6836 13.0625L60.4141 14.8672C59.8828 14.75 59.4141 14.6914 59.0078 14.6914C57.9688 14.6914 57.0781 15.1133 56.3359 15.957C55.6016 16.8008 55.2344 17.8516 55.2344 19.1094V26H53.2891V13.1562H54.8945L55.1172 15.5352H55.2109C55.6875 14.6992 56.2617 14.0547 56.9336 13.6016C57.6055 13.1484 58.3438 12.9219 59.1484 12.9219Z" fill="#001B36"/>
<path d="M1 49H241" stroke="#C9D6DF" stroke-width="2" stroke-linecap="round"/>
<path d="M14.2188 167.859C14.2188 169.594 13.625 170.93 12.4375 171.867C11.2578 172.797 9.56641 173.262 7.36328 173.262H5.34766V180H3.35547V162.867H7.79688C12.0781 162.867 14.2188 164.531 14.2188 167.859ZM5.34766 171.551H7.14062C8.90625 171.551 10.1836 171.266 10.9727 170.695C11.7617 170.125 12.1562 169.211 12.1562 167.953C12.1562 166.82 11.7852 165.977 11.043 165.422C10.3008 164.867 9.14453 164.59 7.57422 164.59H5.34766V171.551ZM23.3828 166.922C23.9531 166.922 24.4648 166.969 24.918 167.062L24.6484 168.867C24.1172 168.75 23.6484 168.691 23.2422 168.691C22.2031 168.691 21.3125 169.113 20.5703 169.957C19.8359 170.801 19.4688 171.852 19.4688 173.109V180H17.5234V167.156H19.1289L19.3516 169.535H19.4453C19.9219 168.699 20.4961 168.055 21.168 167.602C21.8398 167.148 22.5781 166.922 23.3828 166.922ZM29.2656 180H27.3203V167.156H29.2656V180ZM27.1562 163.676C27.1562 163.23 27.2656 162.906 27.4844 162.703C27.7031 162.492 27.9766 162.387 28.3047 162.387C28.6172 162.387 28.8867 162.492 29.1133 162.703C29.3398 162.914 29.4531 163.238 29.4531 163.676C29.4531 164.113 29.3398 164.441 29.1133 164.66C28.8867 164.871 28.6172 164.977 28.3047 164.977C27.9766 164.977 27.7031 164.871 27.4844 164.66C27.2656 164.441 27.1562 164.113 27.1562 163.676ZM49.7617 180V171.645C49.7617 170.621 49.543 169.855 49.1055 169.348C48.668 168.832 47.9883 168.574 47.0664 168.574C45.8555 168.574 44.9609 168.922 44.3828 169.617C43.8047 170.312 43.5156 171.383 43.5156 172.828V180H41.5703V171.645C41.5703 170.621 41.3516 169.855 40.9141 169.348C40.4766 168.832 39.793 168.574 38.8633 168.574C37.6445 168.574 36.75 168.941 36.1797 169.676C35.6172 170.402 35.3359 171.598 35.3359 173.262V180H33.3906V167.156H34.9727L35.2891 168.914H35.3828C35.75 168.289 36.2656 167.801 36.9297 167.449C37.6016 167.098 38.3516 166.922 39.1797 166.922C41.1875 166.922 42.5 167.648 43.1172 169.102H43.2109C43.5938 168.43 44.1484 167.898 44.875 167.508C45.6016 167.117 46.4297 166.922 47.3594 166.922C48.8125 166.922 49.8984 167.297 50.6172 168.047C51.3438 168.789 51.707 169.98 51.707 171.621V180H49.7617ZM63.625 180L63.2383 178.172H63.1445C62.5039 178.977 61.8633 179.523 61.2227 179.812C60.5898 180.094 59.7969 180.234 58.8438 180.234C57.5703 180.234 56.5703 179.906 55.8438 179.25C55.125 178.594 54.7656 177.66 54.7656 176.449C54.7656 173.855 56.8398 172.496 60.9883 172.371L63.168 172.301V171.504C63.168 170.496 62.9492 169.754 62.5117 169.277C62.082 168.793 61.3906 168.551 60.4375 168.551C59.3672 168.551 58.1562 168.879 56.8047 169.535L56.207 168.047C56.8398 167.703 57.5312 167.434 58.2812 167.238C59.0391 167.043 59.7969 166.945 60.5547 166.945C62.0859 166.945 63.2188 167.285 63.9531 167.965C64.6953 168.645 65.0664 169.734 65.0664 171.234V180H63.625ZM59.2305 178.629C60.4414 178.629 61.3906 178.297 62.0781 177.633C62.7734 176.969 63.1211 176.039 63.1211 174.844V173.684L61.1758 173.766C59.6289 173.82 58.5117 174.062 57.8242 174.492C57.1445 174.914 56.8047 175.574 56.8047 176.473C56.8047 177.176 57.0156 177.711 57.4375 178.078C57.8672 178.445 58.4648 178.629 59.2305 178.629ZM74.9453 166.922C75.5156 166.922 76.0273 166.969 76.4805 167.062L76.2109 168.867C75.6797 168.75 75.2109 168.691 74.8047 168.691C73.7656 168.691 72.875 169.113 72.1328 169.957C71.3984 170.801 71.0312 171.852 71.0312 173.109V180H69.0859V167.156H70.6914L70.9141 169.535H71.0078C71.4844 168.699 72.0586 168.055 72.7305 167.602C73.4023 167.148 74.1406 166.922 74.9453 166.922ZM76.8438 167.156H78.9297L81.7422 174.48C82.3594 176.152 82.7422 177.359 82.8906 178.102H82.9844C83.0859 177.703 83.2969 177.023 83.6172 176.062C83.9453 175.094 85.0078 172.125 86.8047 167.156H88.8906L83.3711 181.781C82.8242 183.227 82.1836 184.25 81.4492 184.852C80.7227 185.461 79.8281 185.766 78.7656 185.766C78.1719 185.766 77.5859 185.699 77.0078 185.566V184.008C77.4375 184.102 77.918 184.148 78.4492 184.148C79.7852 184.148 80.7383 183.398 81.3086 181.898L82.0234 180.07L76.8438 167.156Z" fill="#001B36"/>
<path d="M250.023 175.441C250.023 176.949 249.477 178.125 248.383 178.969C247.289 179.812 245.805 180.234 243.93 180.234C241.898 180.234 240.336 179.973 239.242 179.449V177.527C239.945 177.824 240.711 178.059 241.539 178.23C242.367 178.402 243.188 178.488 244 178.488C245.328 178.488 246.328 178.238 247 177.738C247.672 177.23 248.008 176.527 248.008 175.629C248.008 175.035 247.887 174.551 247.645 174.176C247.41 173.793 247.012 173.441 246.449 173.121C245.895 172.801 245.047 172.438 243.906 172.031C242.312 171.461 241.172 170.785 240.484 170.004C239.805 169.223 239.465 168.203 239.465 166.945C239.465 165.625 239.961 164.574 240.953 163.793C241.945 163.012 243.258 162.621 244.891 162.621C246.594 162.621 248.16 162.934 249.59 163.559L248.969 165.293C247.555 164.699 246.18 164.402 244.844 164.402C243.789 164.402 242.965 164.629 242.371 165.082C241.777 165.535 241.48 166.164 241.48 166.969C241.48 167.562 241.59 168.051 241.809 168.434C242.027 168.809 242.395 169.156 242.91 169.477C243.434 169.789 244.23 170.137 245.301 170.52C247.098 171.16 248.332 171.848 249.004 172.582C249.684 173.316 250.023 174.27 250.023 175.441ZM258.66 180.234C256.762 180.234 255.262 179.656 254.16 178.5C253.066 177.344 252.52 175.738 252.52 173.684C252.52 171.613 253.027 169.969 254.043 168.75C255.066 167.531 256.438 166.922 258.156 166.922C259.766 166.922 261.039 167.453 261.977 168.516C262.914 169.57 263.383 170.965 263.383 172.699V173.93H254.535C254.574 175.438 254.953 176.582 255.672 177.363C256.398 178.145 257.418 178.535 258.73 178.535C260.113 178.535 261.48 178.246 262.832 177.668V179.402C262.145 179.699 261.492 179.91 260.875 180.035C260.266 180.168 259.527 180.234 258.66 180.234ZM258.133 168.551C257.102 168.551 256.277 168.887 255.66 169.559C255.051 170.23 254.691 171.16 254.582 172.348H261.297C261.297 171.121 261.023 170.184 260.477 169.535C259.93 168.879 259.148 168.551 258.133 168.551ZM271.844 180.234C269.984 180.234 268.543 179.664 267.52 178.523C266.504 177.375 265.996 175.754 265.996 173.66C265.996 171.512 266.512 169.852 267.543 168.68C268.582 167.508 270.059 166.922 271.973 166.922C272.59 166.922 273.207 166.988 273.824 167.121C274.441 167.254 274.926 167.41 275.277 167.59L274.68 169.242C274.25 169.07 273.781 168.93 273.273 168.82C272.766 168.703 272.316 168.645 271.926 168.645C269.316 168.645 268.012 170.309 268.012 173.637C268.012 175.215 268.328 176.426 268.961 177.27C269.602 178.113 270.547 178.535 271.797 178.535C272.867 178.535 273.965 178.305 275.09 177.844V179.566C274.23 180.012 273.148 180.234 271.844 180.234ZM289.234 173.566C289.234 175.66 288.707 177.297 287.652 178.477C286.598 179.648 285.141 180.234 283.281 180.234C282.133 180.234 281.113 179.965 280.223 179.426C279.332 178.887 278.645 178.113 278.16 177.105C277.676 176.098 277.434 174.918 277.434 173.566C277.434 171.473 277.957 169.844 279.004 168.68C280.051 167.508 281.504 166.922 283.363 166.922C285.16 166.922 286.586 167.52 287.641 168.715C288.703 169.91 289.234 171.527 289.234 173.566ZM279.449 173.566C279.449 175.207 279.777 176.457 280.434 177.316C281.09 178.176 282.055 178.605 283.328 178.605C284.602 178.605 285.566 178.18 286.223 177.328C286.887 176.469 287.219 175.215 287.219 173.566C287.219 171.934 286.887 170.695 286.223 169.852C285.566 169 284.594 168.574 283.305 168.574C282.031 168.574 281.07 168.992 280.422 169.828C279.773 170.664 279.449 171.91 279.449 173.566ZM301.445 180V171.691C301.445 170.645 301.207 169.863 300.73 169.348C300.254 168.832 299.508 168.574 298.492 168.574C297.148 168.574 296.164 168.938 295.539 169.664C294.914 170.391 294.602 171.59 294.602 173.262V180H292.656V167.156H294.238L294.555 168.914H294.648C295.047 168.281 295.605 167.793 296.324 167.449C297.043 167.098 297.844 166.922 298.727 166.922C300.273 166.922 301.438 167.297 302.219 168.047C303 168.789 303.391 169.98 303.391 171.621V180H301.445ZM316.141 178.277H316.035C315.137 179.582 313.793 180.234 312.004 180.234C310.324 180.234 309.016 179.66 308.078 178.512C307.148 177.363 306.684 175.73 306.684 173.613C306.684 171.496 307.152 169.852 308.09 168.68C309.027 167.508 310.332 166.922 312.004 166.922C313.746 166.922 315.082 167.555 316.012 168.82H316.164L316.082 167.895L316.035 166.992V161.766H317.98V180H316.398L316.141 178.277ZM312.25 178.605C313.578 178.605 314.539 178.246 315.133 177.527C315.734 176.801 316.035 175.633 316.035 174.023V173.613C316.035 171.793 315.73 170.496 315.121 169.723C314.52 168.941 313.555 168.551 312.227 168.551C311.086 168.551 310.211 168.996 309.602 169.887C309 170.77 308.699 172.02 308.699 173.637C308.699 175.277 309 176.516 309.602 177.352C310.203 178.188 311.086 178.605 312.25 178.605ZM330.016 180L329.629 178.172H329.535C328.895 178.977 328.254 179.523 327.613 179.812C326.98 180.094 326.188 180.234 325.234 180.234C323.961 180.234 322.961 179.906 322.234 179.25C321.516 178.594 321.156 177.66 321.156 176.449C321.156 173.855 323.23 172.496 327.379 172.371L329.559 172.301V171.504C329.559 170.496 329.34 169.754 328.902 169.277C328.473 168.793 327.781 168.551 326.828 168.551C325.758 168.551 324.547 168.879 323.195 169.535L322.598 168.047C323.23 167.703 323.922 167.434 324.672 167.238C325.43 167.043 326.188 166.945 326.945 166.945C328.477 166.945 329.609 167.285 330.344 167.965C331.086 168.645 331.457 169.734 331.457 171.234V180H330.016ZM325.621 178.629C326.832 178.629 327.781 178.297 328.469 177.633C329.164 176.969 329.512 176.039 329.512 174.844V173.684L327.566 173.766C326.02 173.82 324.902 174.062 324.215 174.492C323.535 174.914 323.195 175.574 323.195 176.473C323.195 177.176 323.406 177.711 323.828 178.078C324.258 178.445 324.855 178.629 325.621 178.629ZM341.336 166.922C341.906 166.922 342.418 166.969 342.871 167.062L342.602 168.867C342.07 168.75 341.602 168.691 341.195 168.691C340.156 168.691 339.266 169.113 338.523 169.957C337.789 170.801 337.422 171.852 337.422 173.109V180H335.477V167.156H337.082L337.305 169.535H337.398C337.875 168.699 338.449 168.055 339.121 167.602C339.793 167.148 340.531 166.922 341.336 166.922ZM343.234 167.156H345.32L348.133 174.48C348.75 176.152 349.133 177.359 349.281 178.102H349.375C349.477 177.703 349.688 177.023 350.008 176.062C350.336 175.094 351.398 172.125 353.195 167.156H355.281L349.762 181.781C349.215 183.227 348.574 184.25 347.84 184.852C347.113 185.461 346.219 185.766 345.156 185.766C344.562 185.766 343.977 185.699 343.398 185.566V184.008C343.828 184.102 344.309 184.148 344.84 184.148C346.176 184.148 347.129 183.398 347.699 181.898L348.414 180.07L343.234 167.156Z" fill="#001B36"/>
<g filter="url(#filter0_d)">
<path d="M1 243C1 238.582 4.58172 235 9 235H113C117.418 235 121 238.582 121 243V307C121 311.418 117.418 315 113 315H41C18.9086 315 1 297.091 1 275V243Z" fill="#055F6F"/>
</g>
<path d="M156.352 292.273C156.352 294.247 156.039 295.721 155.414 296.695C154.794 297.669 153.844 298.156 152.562 298.156C151.333 298.156 150.398 297.659 149.758 296.664C149.117 295.664 148.797 294.201 148.797 292.273C148.797 290.284 149.107 288.807 149.727 287.844C150.346 286.88 151.292 286.398 152.562 286.398C153.802 286.398 154.742 286.901 155.383 287.906C156.029 288.911 156.352 290.367 156.352 292.273ZM150.109 292.273C150.109 293.935 150.305 295.146 150.695 295.906C151.086 296.661 151.708 297.039 152.562 297.039C153.427 297.039 154.052 296.656 154.438 295.891C154.828 295.12 155.023 293.914 155.023 292.273C155.023 290.633 154.828 289.432 154.438 288.672C154.052 287.906 153.427 287.523 152.562 287.523C151.708 287.523 151.086 287.901 150.695 288.656C150.305 289.406 150.109 290.612 150.109 292.273ZM161.508 291.023C162.711 291.023 163.656 291.323 164.344 291.922C165.036 292.516 165.383 293.331 165.383 294.367C165.383 295.549 165.005 296.477 164.25 297.148C163.5 297.82 162.464 298.156 161.141 298.156C159.854 298.156 158.872 297.951 158.195 297.539V296.289C158.56 296.523 159.013 296.708 159.555 296.844C160.096 296.974 160.63 297.039 161.156 297.039C162.073 297.039 162.784 296.823 163.289 296.391C163.799 295.958 164.055 295.333 164.055 294.516C164.055 292.922 163.078 292.125 161.125 292.125C160.63 292.125 159.969 292.201 159.141 292.352L158.469 291.922L158.898 286.578H164.578V287.773H160.008L159.719 291.203C160.318 291.083 160.914 291.023 161.508 291.023ZM170.664 291.023C171.867 291.023 172.812 291.323 173.5 291.922C174.193 292.516 174.539 293.331 174.539 294.367C174.539 295.549 174.161 296.477 173.406 297.148C172.656 297.82 171.62 298.156 170.297 298.156C169.01 298.156 168.029 297.951 167.352 297.539V296.289C167.716 296.523 168.169 296.708 168.711 296.844C169.253 296.974 169.786 297.039 170.312 297.039C171.229 297.039 171.94 296.823 172.445 296.391C172.956 295.958 173.211 295.333 173.211 294.516C173.211 292.922 172.234 292.125 170.281 292.125C169.786 292.125 169.125 292.201 168.297 292.352L167.625 291.922L168.055 286.578H173.734V287.773H169.164L168.875 291.203C169.474 291.083 170.07 291.023 170.664 291.023ZM178.367 298H177.039V286.578H183.406V287.758H178.367V291.938H183.102V293.117H178.367V298ZM184.648 293.117C184.648 290.872 185.083 289.195 185.953 288.086C186.828 286.971 188.12 286.414 189.828 286.414C190.417 286.414 190.88 286.464 191.219 286.562V287.68C190.818 287.549 190.359 287.484 189.844 287.484C188.62 287.484 187.685 287.867 187.039 288.633C186.393 289.393 186.039 290.591 185.977 292.227H186.07C186.643 291.331 187.549 290.883 188.789 290.883C189.815 290.883 190.622 291.193 191.211 291.812C191.805 292.432 192.102 293.273 192.102 294.336C192.102 295.523 191.776 296.458 191.125 297.141C190.479 297.818 189.604 298.156 188.5 298.156C187.318 298.156 186.38 297.714 185.688 296.828C184.995 295.938 184.648 294.701 184.648 293.117ZM188.484 297.055C189.224 297.055 189.797 296.823 190.203 296.359C190.615 295.891 190.82 295.216 190.82 294.336C190.82 293.581 190.63 292.987 190.25 292.555C189.87 292.122 189.302 291.906 188.547 291.906C188.078 291.906 187.648 292.003 187.258 292.195C186.867 292.388 186.555 292.654 186.32 292.992C186.091 293.331 185.977 293.682 185.977 294.047C185.977 294.583 186.081 295.083 186.289 295.547C186.497 296.01 186.792 296.378 187.172 296.648C187.557 296.919 187.995 297.055 188.484 297.055ZM195.789 298H194.461V286.578H200.828V287.758H195.789V291.938H200.523V293.117H195.789V298Z" fill="#001B36"/>
<path d="M144.664 290.977L144.148 293.633H146.359V294.641H143.961L143.305 298H142.234L142.891 294.641H140.523L139.883 298H138.82L139.445 294.641H137.398V293.633H139.641L140.172 290.977H138.008V289.984H140.344L140.984 286.578H142.07L141.43 289.984H143.812L144.469 286.578H145.516L144.859 289.984H146.922V290.977H144.664ZM140.711 293.633H143.078L143.594 290.977H141.227L140.711 293.633Z" fill="#001B36"/>
<path d="M138.963 253.723H142.996C144.891 253.723 146.261 254.006 147.107 254.572C147.954 255.139 148.377 256.034 148.377 257.258C148.377 258.104 148.139 258.804 147.664 259.357C147.195 259.904 146.508 260.259 145.604 260.422V260.52C147.771 260.891 148.855 262.03 148.855 263.938C148.855 265.214 148.423 266.21 147.557 266.926C146.697 267.642 145.493 268 143.943 268H138.963V253.723ZM140.623 259.836H143.357C144.529 259.836 145.372 259.654 145.887 259.289C146.401 258.918 146.658 258.296 146.658 257.424C146.658 256.623 146.372 256.047 145.799 255.695C145.226 255.337 144.314 255.158 143.064 255.158H140.623V259.836ZM140.623 261.242V266.584H143.602C144.754 266.584 145.62 266.363 146.199 265.92C146.785 265.471 147.078 264.771 147.078 263.82C147.078 262.935 146.779 262.284 146.18 261.867C145.587 261.451 144.682 261.242 143.465 261.242H140.623ZM160.33 268H150.945V266.604L154.705 262.824C155.851 261.665 156.606 260.839 156.971 260.344C157.335 259.849 157.609 259.367 157.791 258.898C157.973 258.43 158.064 257.925 158.064 257.385C158.064 256.623 157.833 256.021 157.371 255.578C156.909 255.129 156.268 254.904 155.447 254.904C154.855 254.904 154.292 255.002 153.758 255.197C153.23 255.393 152.641 255.747 151.99 256.262L151.131 255.158C152.446 254.064 153.878 253.518 155.428 253.518C156.769 253.518 157.82 253.863 158.582 254.553C159.344 255.236 159.725 256.158 159.725 257.316C159.725 258.221 159.471 259.117 158.963 260.002C158.455 260.887 157.505 262.007 156.111 263.361L152.986 266.418V266.496H160.33V268ZM171.854 260.842C171.854 263.309 171.463 265.152 170.682 266.369C169.907 267.587 168.719 268.195 167.117 268.195C165.581 268.195 164.412 267.574 163.611 266.33C162.811 265.08 162.41 263.251 162.41 260.842C162.41 258.355 162.798 256.509 163.572 255.305C164.347 254.1 165.529 253.498 167.117 253.498C168.667 253.498 169.842 254.126 170.643 255.383C171.45 256.639 171.854 258.459 171.854 260.842ZM164.051 260.842C164.051 262.919 164.295 264.432 164.783 265.383C165.271 266.327 166.049 266.799 167.117 266.799C168.198 266.799 168.979 266.32 169.461 265.363C169.949 264.4 170.193 262.893 170.193 260.842C170.193 258.791 169.949 257.29 169.461 256.34C168.979 255.383 168.198 254.904 167.117 254.904C166.049 254.904 165.271 255.376 164.783 256.32C164.295 257.258 164.051 258.765 164.051 260.842ZM183.299 260.842C183.299 263.309 182.908 265.152 182.127 266.369C181.352 267.587 180.164 268.195 178.562 268.195C177.026 268.195 175.857 267.574 175.057 266.33C174.256 265.08 173.855 263.251 173.855 260.842C173.855 258.355 174.243 256.509 175.018 255.305C175.792 254.1 176.974 253.498 178.562 253.498C180.112 253.498 181.287 254.126 182.088 255.383C182.895 256.639 183.299 258.459 183.299 260.842ZM175.496 260.842C175.496 262.919 175.74 264.432 176.229 265.383C176.717 266.327 177.495 266.799 178.562 266.799C179.643 266.799 180.424 266.32 180.906 265.363C181.395 264.4 181.639 262.893 181.639 260.842C181.639 258.791 181.395 257.29 180.906 256.34C180.424 255.383 179.643 254.904 178.562 254.904C177.495 254.904 176.717 255.376 176.229 256.32C175.74 257.258 175.496 258.765 175.496 260.842Z" fill="#001B36"/>
<g filter="url(#filter1_d)">
<path d="M1 339C1 334.582 4.58172 331 9 331H113C117.418 331 121 334.582 121 339V403C121 407.418 117.418 411 113 411H41C18.9086 411 1 393.091 1 371V339Z" fill="black"/>
</g>
<path d="M156.352 388.273C156.352 390.247 156.039 391.721 155.414 392.695C154.794 393.669 153.844 394.156 152.562 394.156C151.333 394.156 150.398 393.659 149.758 392.664C149.117 391.664 148.797 390.201 148.797 388.273C148.797 386.284 149.107 384.807 149.727 383.844C150.346 382.88 151.292 382.398 152.562 382.398C153.802 382.398 154.742 382.901 155.383 383.906C156.029 384.911 156.352 386.367 156.352 388.273ZM150.109 388.273C150.109 389.935 150.305 391.146 150.695 391.906C151.086 392.661 151.708 393.039 152.562 393.039C153.427 393.039 154.052 392.656 154.438 391.891C154.828 391.12 155.023 389.914 155.023 388.273C155.023 386.633 154.828 385.432 154.438 384.672C154.052 383.906 153.427 383.523 152.562 383.523C151.708 383.523 151.086 383.901 150.695 384.656C150.305 385.406 150.109 386.612 150.109 388.273ZM165.508 388.273C165.508 390.247 165.195 391.721 164.57 392.695C163.951 393.669 163 394.156 161.719 394.156C160.49 394.156 159.555 393.659 158.914 392.664C158.273 391.664 157.953 390.201 157.953 388.273C157.953 386.284 158.263 384.807 158.883 383.844C159.503 382.88 160.448 382.398 161.719 382.398C162.958 382.398 163.898 382.901 164.539 383.906C165.185 384.911 165.508 386.367 165.508 388.273ZM159.266 388.273C159.266 389.935 159.461 391.146 159.852 391.906C160.242 392.661 160.865 393.039 161.719 393.039C162.583 393.039 163.208 392.656 163.594 391.891C163.984 391.12 164.18 389.914 164.18 388.273C164.18 386.633 163.984 385.432 163.594 384.672C163.208 383.906 162.583 383.523 161.719 383.523C160.865 383.523 160.242 383.901 159.852 384.656C159.461 385.406 159.266 386.612 159.266 388.273ZM174.664 388.273C174.664 390.247 174.352 391.721 173.727 392.695C173.107 393.669 172.156 394.156 170.875 394.156C169.646 394.156 168.711 393.659 168.07 392.664C167.43 391.664 167.109 390.201 167.109 388.273C167.109 386.284 167.419 384.807 168.039 383.844C168.659 382.88 169.604 382.398 170.875 382.398C172.115 382.398 173.055 382.901 173.695 383.906C174.341 384.911 174.664 386.367 174.664 388.273ZM168.422 388.273C168.422 389.935 168.617 391.146 169.008 391.906C169.398 392.661 170.021 393.039 170.875 393.039C171.74 393.039 172.365 392.656 172.75 391.891C173.141 391.12 173.336 389.914 173.336 388.273C173.336 386.633 173.141 385.432 172.75 384.672C172.365 383.906 171.74 383.523 170.875 383.523C170.021 383.523 169.398 383.901 169.008 384.656C168.617 385.406 168.422 386.612 168.422 388.273ZM183.82 388.273C183.82 390.247 183.508 391.721 182.883 392.695C182.263 393.669 181.312 394.156 180.031 394.156C178.802 394.156 177.867 393.659 177.227 392.664C176.586 391.664 176.266 390.201 176.266 388.273C176.266 386.284 176.576 384.807 177.195 383.844C177.815 382.88 178.76 382.398 180.031 382.398C181.271 382.398 182.211 382.901 182.852 383.906C183.497 384.911 183.82 386.367 183.82 388.273ZM177.578 388.273C177.578 389.935 177.773 391.146 178.164 391.906C178.555 392.661 179.177 393.039 180.031 393.039C180.896 393.039 181.521 392.656 181.906 391.891C182.297 391.12 182.492 389.914 182.492 388.273C182.492 386.633 182.297 385.432 181.906 384.672C181.521 383.906 180.896 383.523 180.031 383.523C179.177 383.523 178.555 383.901 178.164 384.656C177.773 385.406 177.578 386.612 177.578 388.273ZM192.977 388.273C192.977 390.247 192.664 391.721 192.039 392.695C191.419 393.669 190.469 394.156 189.188 394.156C187.958 394.156 187.023 393.659 186.383 392.664C185.742 391.664 185.422 390.201 185.422 388.273C185.422 386.284 185.732 384.807 186.352 383.844C186.971 382.88 187.917 382.398 189.188 382.398C190.427 382.398 191.367 382.901 192.008 383.906C192.654 384.911 192.977 386.367 192.977 388.273ZM186.734 388.273C186.734 389.935 186.93 391.146 187.32 391.906C187.711 392.661 188.333 393.039 189.188 393.039C190.052 393.039 190.677 392.656 191.062 391.891C191.453 391.12 191.648 389.914 191.648 388.273C191.648 386.633 191.453 385.432 191.062 384.672C190.677 383.906 190.052 383.523 189.188 383.523C188.333 383.523 187.711 383.901 187.32 384.656C186.93 385.406 186.734 386.612 186.734 388.273ZM202.133 388.273C202.133 390.247 201.82 391.721 201.195 392.695C200.576 393.669 199.625 394.156 198.344 394.156C197.115 394.156 196.18 393.659 195.539 392.664C194.898 391.664 194.578 390.201 194.578 388.273C194.578 386.284 194.888 384.807 195.508 383.844C196.128 382.88 197.073 382.398 198.344 382.398C199.583 382.398 200.523 382.901 201.164 383.906C201.81 384.911 202.133 386.367 202.133 388.273ZM195.891 388.273C195.891 389.935 196.086 391.146 196.477 391.906C196.867 392.661 197.49 393.039 198.344 393.039C199.208 393.039 199.833 392.656 200.219 391.891C200.609 391.12 200.805 389.914 200.805 388.273C200.805 386.633 200.609 385.432 200.219 384.672C199.833 383.906 199.208 383.523 198.344 383.523C197.49 383.523 196.867 383.901 196.477 384.656C196.086 385.406 195.891 386.612 195.891 388.273Z" fill="#001B36"/>
<path d="M144.664 386.977L144.148 389.633H146.359V390.641H143.961L143.305 394H142.234L142.891 390.641H140.523L139.883 394H138.82L139.445 390.641H137.398V389.633H139.641L140.172 386.977H138.008V385.984H140.344L140.984 382.578H142.07L141.43 385.984H143.812L144.469 382.578H145.516L144.859 385.984H146.922V386.977H144.664ZM140.711 389.633H143.078L143.594 386.977H141.227L140.711 389.633Z" fill="#001B36"/>
<path d="M138.963 349.723H142.996C144.891 349.723 146.261 350.006 147.107 350.572C147.954 351.139 148.377 352.034 148.377 353.258C148.377 354.104 148.139 354.804 147.664 355.357C147.195 355.904 146.508 356.259 145.604 356.422V356.52C147.771 356.891 148.855 358.03 148.855 359.938C148.855 361.214 148.423 362.21 147.557 362.926C146.697 363.642 145.493 364 143.943 364H138.963V349.723ZM140.623 355.836H143.357C144.529 355.836 145.372 355.654 145.887 355.289C146.401 354.918 146.658 354.296 146.658 353.424C146.658 352.623 146.372 352.047 145.799 351.695C145.226 351.337 144.314 351.158 143.064 351.158H140.623V355.836ZM140.623 357.242V362.584H143.602C144.754 362.584 145.62 362.363 146.199 361.92C146.785 361.471 147.078 360.771 147.078 359.82C147.078 358.935 146.779 358.284 146.18 357.867C145.587 357.451 144.682 357.242 143.465 357.242H140.623ZM153.309 364H151.688V348.805H153.309V364ZM163.328 364L163.006 362.477H162.928C162.394 363.147 161.86 363.603 161.326 363.844C160.799 364.078 160.138 364.195 159.344 364.195C158.283 364.195 157.449 363.922 156.844 363.375C156.245 362.828 155.945 362.05 155.945 361.041C155.945 358.88 157.674 357.747 161.131 357.643L162.947 357.584V356.92C162.947 356.08 162.765 355.462 162.4 355.064C162.042 354.661 161.466 354.459 160.672 354.459C159.78 354.459 158.771 354.732 157.645 355.279L157.146 354.039C157.674 353.753 158.25 353.528 158.875 353.365C159.507 353.202 160.138 353.121 160.77 353.121C162.046 353.121 162.99 353.404 163.602 353.971C164.22 354.537 164.529 355.445 164.529 356.695V364H163.328ZM159.666 362.857C160.675 362.857 161.466 362.581 162.039 362.027C162.618 361.474 162.908 360.699 162.908 359.703V358.736L161.287 358.805C159.998 358.85 159.067 359.052 158.494 359.41C157.928 359.762 157.645 360.312 157.645 361.061C157.645 361.646 157.82 362.092 158.172 362.398C158.53 362.704 159.028 362.857 159.666 362.857ZM172.156 364.195C170.607 364.195 169.406 363.72 168.553 362.77C167.706 361.812 167.283 360.462 167.283 358.717C167.283 356.926 167.713 355.543 168.572 354.566C169.438 353.59 170.669 353.102 172.264 353.102C172.778 353.102 173.292 353.157 173.807 353.268C174.321 353.378 174.725 353.508 175.018 353.658L174.52 355.035C174.161 354.892 173.771 354.775 173.348 354.684C172.924 354.586 172.55 354.537 172.225 354.537C170.05 354.537 168.963 355.924 168.963 358.697C168.963 360.012 169.227 361.021 169.754 361.725C170.288 362.428 171.076 362.779 172.117 362.779C173.009 362.779 173.924 362.587 174.861 362.203V363.639C174.145 364.01 173.243 364.195 172.156 364.195ZM179.012 358.521C179.292 358.124 179.718 357.604 180.291 356.959L183.748 353.297H185.672L181.336 357.857L185.975 364H184.012L180.232 358.941L179.012 359.996V364H177.41V348.805H179.012V356.861C179.012 357.219 178.986 357.773 178.934 358.521H179.012Z" fill="#001B36"/>
<g filter="url(#filter2_d)">
<path d="M1 435C1 430.582 4.58172 427 9 427H113C117.418 427 121 430.582 121 435V499C121 503.418 117.418 507 113 507H41C18.9086 507 1 489.091 1 467V435Z" fill="white"/>
<path d="M1.5 435C1.5 430.858 4.85787 427.5 9 427.5H113C117.142 427.5 120.5 430.858 120.5 435V499C120.5 503.142 117.142 506.5 113 506.5H41C19.1847 506.5 1.5 488.815 1.5 467V435Z" stroke="#001B36"/>
</g>
<path d="M150.898 490H149.57V478.578H155.938V479.758H150.898V483.938H155.633V485.117H150.898V490ZM159.164 490H157.836V478.578H164.203V479.758H159.164V483.938H163.898V485.117H159.164V490ZM167.43 490H166.102V478.578H172.469V479.758H167.43V483.938H172.164V485.117H167.43V490ZM175.695 490H174.367V478.578H180.734V479.758H175.695V483.938H180.43V485.117H175.695V490ZM183.961 490H182.633V478.578H189V479.758H183.961V483.938H188.695V485.117H183.961V490ZM192.227 490H190.898V478.578H197.266V479.758H192.227V483.938H196.961V485.117H192.227V490Z" fill="#001B36"/>
<path d="M144.664 482.977L144.148 485.633H146.359V486.641H143.961L143.305 490H142.234L142.891 486.641H140.523L139.883 490H138.82L139.445 486.641H137.398V485.633H139.641L140.172 482.977H138.008V481.984H140.344L140.984 478.578H142.07L141.43 481.984H143.812L144.469 478.578H145.516L144.859 481.984H146.922V482.977H144.664ZM140.711 485.633H143.078L143.594 482.977H141.227L140.711 485.633Z" fill="#001B36"/>
<path d="M151.424 460H149.783L146.902 450.439C146.766 450.016 146.613 449.482 146.443 448.838C146.274 448.193 146.186 447.806 146.18 447.676C146.036 448.535 145.809 449.476 145.496 450.498L142.703 460H141.062L137.264 445.723H139.021L141.277 454.541C141.59 455.778 141.818 456.898 141.961 457.9C142.137 456.709 142.397 455.544 142.742 454.404L145.301 445.723H147.059L149.744 454.482C150.057 455.492 150.32 456.631 150.535 457.9C150.659 456.976 150.893 455.85 151.238 454.521L153.484 445.723H155.242L151.424 460ZM164.559 460V453.076C164.559 452.204 164.36 451.553 163.963 451.123C163.566 450.693 162.944 450.479 162.098 450.479C160.971 450.479 160.148 450.785 159.627 451.396C159.113 452.008 158.855 453.011 158.855 454.404V460H157.234V444.805H158.855V449.404C158.855 449.958 158.829 450.417 158.777 450.781H158.875C159.194 450.267 159.646 449.863 160.232 449.57C160.825 449.271 161.499 449.121 162.254 449.121C163.562 449.121 164.542 449.434 165.193 450.059C165.851 450.677 166.18 451.663 166.18 453.018V460H164.559ZM171.141 460H169.52V449.297H171.141V460ZM169.383 446.396C169.383 446.025 169.474 445.755 169.656 445.586C169.839 445.41 170.066 445.322 170.34 445.322C170.6 445.322 170.825 445.41 171.014 445.586C171.202 445.762 171.297 446.032 171.297 446.396C171.297 446.761 171.202 447.035 171.014 447.217C170.825 447.393 170.6 447.48 170.34 447.48C170.066 447.48 169.839 447.393 169.656 447.217C169.474 447.035 169.383 446.761 169.383 446.396ZM178.035 458.857C178.322 458.857 178.598 458.838 178.865 458.799C179.132 458.753 179.344 458.708 179.5 458.662V459.902C179.324 459.987 179.064 460.055 178.719 460.107C178.38 460.166 178.074 460.195 177.801 460.195C175.73 460.195 174.695 459.105 174.695 456.924V450.557H173.162V449.775L174.695 449.102L175.379 446.816H176.316V449.297H179.422V450.557H176.316V456.855C176.316 457.5 176.469 457.995 176.775 458.34C177.081 458.685 177.501 458.857 178.035 458.857ZM186.17 460.195C184.588 460.195 183.338 459.714 182.42 458.75C181.508 457.786 181.053 456.449 181.053 454.736C181.053 453.011 181.476 451.641 182.322 450.625C183.175 449.609 184.318 449.102 185.75 449.102C187.091 449.102 188.152 449.544 188.934 450.43C189.715 451.309 190.105 452.471 190.105 453.916V454.941H182.732C182.765 456.198 183.081 457.152 183.68 457.803C184.285 458.454 185.135 458.779 186.229 458.779C187.381 458.779 188.52 458.538 189.646 458.057V459.502C189.074 459.749 188.53 459.925 188.016 460.029C187.508 460.14 186.893 460.195 186.17 460.195ZM185.73 450.459C184.871 450.459 184.184 450.739 183.67 451.299C183.162 451.859 182.863 452.633 182.771 453.623H188.367C188.367 452.601 188.139 451.82 187.684 451.279C187.228 450.732 186.577 450.459 185.73 450.459Z" fill="#001B36"/>
<g filter="url(#filter3_d)">
<path d="M1 531C1 526.582 4.58172 523 9 523H113C117.418 523 121 526.582 121 531V595C121 599.418 117.418 603 113 603H41C18.9086 603 1 585.091 1 563V531Z" fill="#FFD274"/>
</g>
<path d="M150.898 586H149.57V574.578H155.938V575.758H150.898V579.938H155.633V581.117H150.898V586ZM159.164 586H157.836V574.578H164.203V575.758H159.164V579.938H163.898V581.117H159.164V586ZM175.219 580.18C175.219 582.065 174.706 583.508 173.68 584.508C172.659 585.503 171.188 586 169.266 586H166.102V574.578H169.602C171.378 574.578 172.758 575.07 173.742 576.055C174.727 577.039 175.219 578.414 175.219 580.18ZM173.812 580.227C173.812 578.737 173.438 577.615 172.688 576.859C171.943 576.104 170.833 575.727 169.359 575.727H167.43V584.852H169.047C170.63 584.852 171.82 584.464 172.617 583.688C173.414 582.906 173.812 581.753 173.812 580.227ZM184.492 586H176.984V584.883L179.992 581.859C180.909 580.932 181.513 580.271 181.805 579.875C182.096 579.479 182.315 579.094 182.461 578.719C182.607 578.344 182.68 577.94 182.68 577.508C182.68 576.898 182.495 576.417 182.125 576.062C181.755 575.703 181.242 575.523 180.586 575.523C180.112 575.523 179.661 575.602 179.234 575.758C178.812 575.914 178.341 576.198 177.82 576.609L177.133 575.727C178.185 574.852 179.331 574.414 180.57 574.414C181.643 574.414 182.484 574.69 183.094 575.242C183.703 575.789 184.008 576.526 184.008 577.453C184.008 578.177 183.805 578.893 183.398 579.602C182.992 580.31 182.232 581.206 181.117 582.289L178.617 584.734V584.797H184.492V586ZM187.586 586L192.32 575.773H186.094V574.578H193.695V575.617L189.023 586H187.586ZM203.344 583.375H201.648V586H200.406V583.375H194.852V582.242L200.273 574.516H201.648V582.195H203.344V583.375ZM200.406 582.195V578.398C200.406 577.654 200.432 576.812 200.484 575.875H200.422C200.172 576.375 199.938 576.789 199.719 577.117L196.148 582.195H200.406Z" fill="#001B36"/>
<path d="M144.664 578.977L144.148 581.633H146.359V582.641H143.961L143.305 586H142.234L142.891 582.641H140.523L139.883 586H138.82L139.445 582.641H137.398V581.633H139.641L140.172 578.977H138.008V577.984H140.344L140.984 574.578H142.07L141.43 577.984H143.812L144.469 574.578H145.516L144.859 577.984H146.922V578.977H144.664ZM140.711 581.633H143.078L143.594 578.977H141.227L140.711 581.633Z" fill="#001B36"/>
<path d="M138.963 541.723H142.996C144.891 541.723 146.261 542.006 147.107 542.572C147.954 543.139 148.377 544.034 148.377 545.258C148.377 546.104 148.139 546.804 147.664 547.357C147.195 547.904 146.508 548.259 145.604 548.422V548.52C147.771 548.891 148.855 550.03 148.855 551.938C148.855 553.214 148.423 554.21 147.557 554.926C146.697 555.642 145.493 556 143.943 556H138.963V541.723ZM140.623 547.836H143.357C144.529 547.836 145.372 547.654 145.887 547.289C146.401 546.918 146.658 546.296 146.658 545.424C146.658 544.623 146.372 544.047 145.799 543.695C145.226 543.337 144.314 543.158 143.064 543.158H140.623V547.836ZM140.623 549.242V554.584H143.602C144.754 554.584 145.62 554.363 146.199 553.92C146.785 553.471 147.078 552.771 147.078 551.82C147.078 550.935 146.779 550.284 146.18 549.867C145.587 549.451 144.682 549.242 143.465 549.242H140.623ZM156.951 556H155.369V545.824C155.369 544.978 155.395 544.177 155.447 543.422C155.311 543.559 155.158 543.702 154.988 543.852C154.819 544.001 154.044 544.636 152.664 545.756L151.805 544.643L155.584 541.723H156.951V556ZM171.854 548.842C171.854 551.309 171.463 553.152 170.682 554.369C169.907 555.587 168.719 556.195 167.117 556.195C165.581 556.195 164.412 555.574 163.611 554.33C162.811 553.08 162.41 551.251 162.41 548.842C162.41 546.355 162.798 544.509 163.572 543.305C164.347 542.1 165.529 541.498 167.117 541.498C168.667 541.498 169.842 542.126 170.643 543.383C171.45 544.639 171.854 546.459 171.854 548.842ZM164.051 548.842C164.051 550.919 164.295 552.432 164.783 553.383C165.271 554.327 166.049 554.799 167.117 554.799C168.198 554.799 168.979 554.32 169.461 553.363C169.949 552.4 170.193 550.893 170.193 548.842C170.193 546.791 169.949 545.29 169.461 544.34C168.979 543.383 168.198 542.904 167.117 542.904C166.049 542.904 165.271 543.376 164.783 544.32C164.295 545.258 164.051 546.765 164.051 548.842ZM183.299 548.842C183.299 551.309 182.908 553.152 182.127 554.369C181.352 555.587 180.164 556.195 178.562 556.195C177.026 556.195 175.857 555.574 175.057 554.33C174.256 553.08 173.855 551.251 173.855 548.842C173.855 546.355 174.243 544.509 175.018 543.305C175.792 542.1 176.974 541.498 178.562 541.498C180.112 541.498 181.287 542.126 182.088 543.383C182.895 544.639 183.299 546.459 183.299 548.842ZM175.496 548.842C175.496 550.919 175.74 552.432 176.229 553.383C176.717 554.327 177.495 554.799 178.562 554.799C179.643 554.799 180.424 554.32 180.906 553.363C181.395 552.4 181.639 550.893 181.639 548.842C181.639 546.791 181.395 545.29 180.906 544.34C180.424 543.383 179.643 542.904 178.562 542.904C177.495 542.904 176.717 543.376 176.229 544.32C175.74 545.258 175.496 546.765 175.496 548.842Z" fill="#001B36"/>
<g filter="url(#filter4_d)">
<path d="M238 243C238 238.582 241.582 235 246 235H350C354.418 235 358 238.582 358 243V307C358 311.418 354.418 315 350 315H278C255.909 315 238 297.091 238 275V243Z" fill="#082D40"/>
</g>
<path d="M387.898 298H386.57V286.578H392.938V287.758H387.898V291.938H392.633V293.117H387.898V298ZM401.203 298H394.836V286.578H401.203V287.758H396.164V291.438H400.898V292.609H396.164V296.812H401.203V298ZM408.633 287.602C407.378 287.602 406.385 288.021 405.656 288.859C404.932 289.693 404.57 290.836 404.57 292.289C404.57 293.784 404.919 294.94 405.617 295.758C406.32 296.57 407.32 296.977 408.617 296.977C409.414 296.977 410.323 296.833 411.344 296.547V297.711C410.552 298.008 409.576 298.156 408.414 298.156C406.732 298.156 405.432 297.646 404.516 296.625C403.604 295.604 403.148 294.154 403.148 292.273C403.148 291.096 403.367 290.065 403.805 289.18C404.247 288.294 404.883 287.612 405.711 287.133C406.544 286.654 407.523 286.414 408.648 286.414C409.846 286.414 410.893 286.633 411.789 287.07L411.227 288.211C410.362 287.805 409.497 287.602 408.633 287.602ZM421.094 295.375H419.398V298H418.156V295.375H412.602V294.242L418.023 286.516H419.398V294.195H421.094V295.375ZM418.156 294.195V290.398C418.156 289.654 418.182 288.812 418.234 287.875H418.172C417.922 288.375 417.688 288.789 417.469 289.117L413.898 294.195H418.156ZM425.773 291.023C426.977 291.023 427.922 291.323 428.609 291.922C429.302 292.516 429.648 293.331 429.648 294.367C429.648 295.549 429.271 296.477 428.516 297.148C427.766 297.82 426.729 298.156 425.406 298.156C424.12 298.156 423.138 297.951 422.461 297.539V296.289C422.826 296.523 423.279 296.708 423.82 296.844C424.362 296.974 424.896 297.039 425.422 297.039C426.339 297.039 427.049 296.823 427.555 296.391C428.065 295.958 428.32 295.333 428.32 294.516C428.32 292.922 427.344 292.125 425.391 292.125C424.896 292.125 424.234 292.201 423.406 292.352L422.734 291.922L423.164 286.578H428.844V287.773H424.273L423.984 291.203C424.583 291.083 425.18 291.023 425.773 291.023ZM435.141 286.414C436.182 286.414 437.008 286.656 437.617 287.141C438.227 287.625 438.531 288.294 438.531 289.148C438.531 289.711 438.357 290.224 438.008 290.688C437.659 291.151 437.102 291.573 436.336 291.953C437.263 292.396 437.922 292.862 438.312 293.352C438.703 293.836 438.898 294.398 438.898 295.039C438.898 295.987 438.568 296.745 437.906 297.312C437.245 297.875 436.339 298.156 435.188 298.156C433.969 298.156 433.031 297.891 432.375 297.359C431.719 296.823 431.391 296.065 431.391 295.086C431.391 293.779 432.188 292.76 433.781 292.031C433.062 291.625 432.547 291.188 432.234 290.719C431.922 290.245 431.766 289.716 431.766 289.133C431.766 288.305 432.07 287.646 432.68 287.156C433.294 286.661 434.115 286.414 435.141 286.414ZM432.672 295.117C432.672 295.742 432.888 296.229 433.32 296.578C433.758 296.927 434.37 297.102 435.156 297.102C435.932 297.102 436.536 296.919 436.969 296.555C437.401 296.19 437.617 295.69 437.617 295.055C437.617 294.549 437.414 294.102 437.008 293.711C436.602 293.315 435.893 292.932 434.883 292.562C434.107 292.896 433.544 293.266 433.195 293.672C432.846 294.073 432.672 294.555 432.672 295.117ZM435.125 287.469C434.474 287.469 433.964 287.625 433.594 287.938C433.224 288.25 433.039 288.667 433.039 289.188C433.039 289.667 433.193 290.078 433.5 290.422C433.807 290.766 434.375 291.109 435.203 291.453C435.948 291.141 436.474 290.805 436.781 290.445C437.094 290.086 437.25 289.667 437.25 289.188C437.25 288.661 437.06 288.245 436.68 287.938C436.305 287.625 435.786 287.469 435.125 287.469Z" fill="#001B36"/>
<path d="M381.664 290.977L381.148 293.633H383.359V294.641H380.961L380.305 298H379.234L379.891 294.641H377.523L376.883 298H375.82L376.445 294.641H374.398V293.633H376.641L377.172 290.977H375.008V289.984H377.344L377.984 286.578H379.07L378.43 289.984H380.812L381.469 286.578H382.516L381.859 289.984H383.922V290.977H381.664ZM377.711 293.633H380.078L380.594 290.977H378.227L377.711 293.633Z" fill="#001B36"/>
<path d="M377.623 262.062V268H375.963V253.723H379.879C381.63 253.723 382.923 254.058 383.756 254.729C384.596 255.399 385.016 256.408 385.016 257.756C385.016 259.644 384.059 260.92 382.145 261.584L386.021 268H384.059L380.602 262.062H377.623ZM377.623 260.637H379.898C381.07 260.637 381.93 260.406 382.477 259.943C383.023 259.475 383.297 258.775 383.297 257.844C383.297 256.9 383.017 256.219 382.457 255.803C381.904 255.386 381.012 255.178 379.781 255.178H377.623V260.637ZM393.346 268H391.764V257.824C391.764 256.978 391.79 256.177 391.842 255.422C391.705 255.559 391.552 255.702 391.383 255.852C391.214 256.001 390.439 256.636 389.059 257.756L388.199 256.643L391.979 253.723H393.346V268ZM408.248 260.842C408.248 263.309 407.857 265.152 407.076 266.369C406.301 267.587 405.113 268.195 403.512 268.195C401.975 268.195 400.807 267.574 400.006 266.33C399.205 265.08 398.805 263.251 398.805 260.842C398.805 258.355 399.192 256.509 399.967 255.305C400.742 254.1 401.923 253.498 403.512 253.498C405.061 253.498 406.236 254.126 407.037 255.383C407.844 256.639 408.248 258.459 408.248 260.842ZM400.445 260.842C400.445 262.919 400.689 264.432 401.178 265.383C401.666 266.327 402.444 266.799 403.512 266.799C404.592 266.799 405.374 266.32 405.855 265.363C406.344 264.4 406.588 262.893 406.588 260.842C406.588 258.791 406.344 257.29 405.855 256.34C405.374 255.383 404.592 254.904 403.512 254.904C402.444 254.904 401.666 255.376 401.178 256.32C400.689 257.258 400.445 258.765 400.445 260.842ZM419.693 260.842C419.693 263.309 419.303 265.152 418.521 266.369C417.747 267.587 416.559 268.195 414.957 268.195C413.421 268.195 412.252 267.574 411.451 266.33C410.65 265.08 410.25 263.251 410.25 260.842C410.25 258.355 410.637 256.509 411.412 255.305C412.187 254.1 413.368 253.498 414.957 253.498C416.507 253.498 417.682 254.126 418.482 255.383C419.29 256.639 419.693 258.459 419.693 260.842ZM411.891 260.842C411.891 262.919 412.135 264.432 412.623 265.383C413.111 266.327 413.889 266.799 414.957 266.799C416.038 266.799 416.819 266.32 417.301 265.363C417.789 264.4 418.033 262.893 418.033 260.842C418.033 258.791 417.789 257.29 417.301 256.34C416.819 255.383 416.038 254.904 414.957 254.904C413.889 254.904 413.111 255.376 412.623 256.32C412.135 257.258 411.891 258.765 411.891 260.842Z" fill="#001B36"/>
<g filter="url(#filter5_d)">
<path d="M238 339C238 334.582 241.582 331 246 331H350C354.418 331 358 334.582 358 339V403C358 407.418 354.418 411 350 411H278C255.909 411 238 393.091 238 371V339Z" fill="#F7F6F6"/>
</g>
<path d="M393.828 391.375H392.133V394H390.891V391.375H385.336V390.242L390.758 382.516H392.133V390.195H393.828V391.375ZM390.891 390.195V386.398C390.891 385.654 390.917 384.812 390.969 383.875H390.906C390.656 384.375 390.422 384.789 390.203 385.117L386.633 390.195H390.891ZM396.383 394L401.117 383.773H394.891V382.578H402.492V383.617L397.82 394H396.383ZM409.773 383.602C408.518 383.602 407.526 384.021 406.797 384.859C406.073 385.693 405.711 386.836 405.711 388.289C405.711 389.784 406.06 390.94 406.758 391.758C407.461 392.57 408.461 392.977 409.758 392.977C410.555 392.977 411.464 392.833 412.484 392.547V393.711C411.693 394.008 410.716 394.156 409.555 394.156C407.872 394.156 406.573 393.646 405.656 392.625C404.745 391.604 404.289 390.154 404.289 388.273C404.289 387.096 404.508 386.065 404.945 385.18C405.388 384.294 406.023 383.612 406.852 383.133C407.685 382.654 408.664 382.414 409.789 382.414C410.987 382.414 412.034 382.633 412.93 383.07L412.367 384.211C411.503 383.805 410.638 383.602 409.773 383.602ZM421.695 394H414.188V392.883L417.195 389.859C418.112 388.932 418.716 388.271 419.008 387.875C419.299 387.479 419.518 387.094 419.664 386.719C419.81 386.344 419.883 385.94 419.883 385.508C419.883 384.898 419.698 384.417 419.328 384.062C418.958 383.703 418.445 383.523 417.789 383.523C417.315 383.523 416.865 383.602 416.438 383.758C416.016 383.914 415.544 384.198 415.023 384.609L414.336 383.727C415.388 382.852 416.534 382.414 417.773 382.414C418.846 382.414 419.688 382.69 420.297 383.242C420.906 383.789 421.211 384.526 421.211 385.453C421.211 386.177 421.008 386.893 420.602 387.602C420.195 388.31 419.435 389.206 418.32 390.289L415.82 392.734V392.797H421.695V394ZM430.852 387.453C430.852 391.922 429.122 394.156 425.664 394.156C425.06 394.156 424.581 394.104 424.227 394V392.883C424.643 393.018 425.117 393.086 425.648 393.086C426.898 393.086 427.841 392.701 428.477 391.93C429.117 391.154 429.466 389.966 429.523 388.367H429.43C429.143 388.799 428.763 389.13 428.289 389.359C427.815 389.583 427.281 389.695 426.688 389.695C425.677 389.695 424.875 389.393 424.281 388.789C423.688 388.185 423.391 387.341 423.391 386.258C423.391 385.07 423.721 384.133 424.383 383.445C425.049 382.758 425.924 382.414 427.008 382.414C427.784 382.414 428.461 382.615 429.039 383.016C429.622 383.411 430.07 383.992 430.383 384.758C430.695 385.518 430.852 386.417 430.852 387.453ZM427.008 383.523C426.263 383.523 425.688 383.763 425.281 384.242C424.875 384.721 424.672 385.388 424.672 386.242C424.672 386.992 424.859 387.583 425.234 388.016C425.609 388.443 426.18 388.656 426.945 388.656C427.419 388.656 427.854 388.56 428.25 388.367C428.651 388.174 428.966 387.911 429.195 387.578C429.424 387.245 429.539 386.896 429.539 386.531C429.539 385.984 429.432 385.479 429.219 385.016C429.005 384.552 428.706 384.188 428.32 383.922C427.94 383.656 427.503 383.523 427.008 383.523ZM432.633 389.117C432.633 386.872 433.068 385.195 433.938 384.086C434.812 382.971 436.104 382.414 437.812 382.414C438.401 382.414 438.865 382.464 439.203 382.562V383.68C438.802 383.549 438.344 383.484 437.828 383.484C436.604 383.484 435.669 383.867 435.023 384.633C434.378 385.393 434.023 386.591 433.961 388.227H434.055C434.628 387.331 435.534 386.883 436.773 386.883C437.799 386.883 438.607 387.193 439.195 387.812C439.789 388.432 440.086 389.273 440.086 390.336C440.086 391.523 439.76 392.458 439.109 393.141C438.464 393.818 437.589 394.156 436.484 394.156C435.302 394.156 434.365 393.714 433.672 392.828C432.979 391.938 432.633 390.701 432.633 389.117ZM436.469 393.055C437.208 393.055 437.781 392.823 438.188 392.359C438.599 391.891 438.805 391.216 438.805 390.336C438.805 389.581 438.615 388.987 438.234 388.555C437.854 388.122 437.286 387.906 436.531 387.906C436.062 387.906 435.633 388.003 435.242 388.195C434.852 388.388 434.539 388.654 434.305 388.992C434.076 389.331 433.961 389.682 433.961 390.047C433.961 390.583 434.065 391.083 434.273 391.547C434.482 392.01 434.776 392.378 435.156 392.648C435.542 392.919 435.979 393.055 436.469 393.055Z" fill="#001B36"/>
<path d="M381.664 386.977L381.148 389.633H383.359V390.641H380.961L380.305 394H379.234L379.891 390.641H377.523L376.883 394H375.82L376.445 390.641H374.398V389.633H376.641L377.172 386.977H375.008V385.984H377.344L377.984 382.578H379.07L378.43 385.984H380.812L381.469 382.578H382.516L381.859 385.984H383.922V386.977H381.664ZM377.711 389.633H380.078L380.594 386.977H378.227L377.711 389.633Z" fill="#001B36"/>
<path d="M382.242 356.52H387.096V363.463C386.34 363.704 385.572 363.886 384.791 364.01C384.01 364.133 383.105 364.195 382.076 364.195C379.915 364.195 378.232 363.554 377.027 362.271C375.823 360.982 375.221 359.179 375.221 356.861C375.221 355.377 375.517 354.078 376.109 352.965C376.708 351.845 377.568 350.992 378.688 350.406C379.807 349.814 381.119 349.518 382.623 349.518C384.146 349.518 385.566 349.798 386.881 350.357L386.236 351.822C384.947 351.275 383.707 351.002 382.516 351.002C380.777 351.002 379.42 351.52 378.443 352.555C377.467 353.59 376.979 355.025 376.979 356.861C376.979 358.788 377.447 360.25 378.385 361.246C379.329 362.242 380.712 362.74 382.535 362.74C383.525 362.74 384.492 362.626 385.436 362.398V358.004H382.242V356.52ZM395.553 364H393.971V353.824C393.971 352.978 393.997 352.177 394.049 351.422C393.912 351.559 393.759 351.702 393.59 351.852C393.421 352.001 392.646 352.636 391.266 353.756L390.406 352.643L394.186 349.723H395.553V364ZM410.455 356.842C410.455 359.309 410.064 361.152 409.283 362.369C408.508 363.587 407.32 364.195 405.719 364.195C404.182 364.195 403.014 363.574 402.213 362.33C401.412 361.08 401.012 359.251 401.012 356.842C401.012 354.355 401.399 352.509 402.174 351.305C402.949 350.1 404.13 349.498 405.719 349.498C407.268 349.498 408.443 350.126 409.244 351.383C410.051 352.639 410.455 354.459 410.455 356.842ZM402.652 356.842C402.652 358.919 402.896 360.432 403.385 361.383C403.873 362.327 404.651 362.799 405.719 362.799C406.799 362.799 407.581 362.32 408.062 361.363C408.551 360.4 408.795 358.893 408.795 356.842C408.795 354.791 408.551 353.29 408.062 352.34C407.581 351.383 406.799 350.904 405.719 350.904C404.651 350.904 403.873 351.376 403.385 352.32C402.896 353.258 402.652 354.765 402.652 356.842ZM421.9 356.842C421.9 359.309 421.51 361.152 420.729 362.369C419.954 363.587 418.766 364.195 417.164 364.195C415.628 364.195 414.459 363.574 413.658 362.33C412.857 361.08 412.457 359.251 412.457 356.842C412.457 354.355 412.844 352.509 413.619 351.305C414.394 350.1 415.576 349.498 417.164 349.498C418.714 349.498 419.889 350.126 420.689 351.383C421.497 352.639 421.9 354.459 421.9 356.842ZM414.098 356.842C414.098 358.919 414.342 360.432 414.83 361.383C415.318 362.327 416.096 362.799 417.164 362.799C418.245 362.799 419.026 362.32 419.508 361.363C419.996 360.4 420.24 358.893 420.24 356.842C420.24 354.791 419.996 353.29 419.508 352.34C419.026 351.383 418.245 350.904 417.164 350.904C416.096 350.904 415.318 351.376 414.83 352.32C414.342 353.258 414.098 354.765 414.098 356.842Z" fill="#001B36"/>
<g filter="url(#filter6_d)">
<path d="M238 435C238 430.582 241.582 427 246 427H350C354.418 427 358 430.582 358 435V499C358 503.418 354.418 507 350 507H278C255.909 507 238 489.091 238 467V435Z" fill="#697580"/>
</g>
<path d="M386.57 478.578H389.797C391.312 478.578 392.409 478.805 393.086 479.258C393.763 479.711 394.102 480.427 394.102 481.406C394.102 482.083 393.911 482.643 393.531 483.086C393.156 483.523 392.607 483.807 391.883 483.938V484.016C393.617 484.312 394.484 485.224 394.484 486.75C394.484 487.771 394.138 488.568 393.445 489.141C392.758 489.714 391.794 490 390.555 490H386.57V478.578ZM387.898 483.469H390.086C391.023 483.469 391.698 483.323 392.109 483.031C392.521 482.734 392.727 482.237 392.727 481.539C392.727 480.898 392.497 480.438 392.039 480.156C391.581 479.87 390.852 479.727 389.852 479.727H387.898V483.469ZM387.898 484.594V488.867H390.281C391.203 488.867 391.896 488.69 392.359 488.336C392.828 487.977 393.062 487.417 393.062 486.656C393.062 485.948 392.823 485.427 392.344 485.094C391.87 484.76 391.146 484.594 390.172 484.594H387.898ZM401.836 479.602C400.581 479.602 399.589 480.021 398.859 480.859C398.135 481.693 397.773 482.836 397.773 484.289C397.773 485.784 398.122 486.94 398.82 487.758C399.523 488.57 400.523 488.977 401.82 488.977C402.617 488.977 403.526 488.833 404.547 488.547V489.711C403.755 490.008 402.779 490.156 401.617 490.156C399.935 490.156 398.635 489.646 397.719 488.625C396.807 487.604 396.352 486.154 396.352 484.273C396.352 483.096 396.57 482.065 397.008 481.18C397.451 480.294 398.086 479.612 398.914 479.133C399.747 478.654 400.727 478.414 401.852 478.414C403.049 478.414 404.096 478.633 404.992 479.07L404.43 480.211C403.565 479.805 402.701 479.602 401.836 479.602ZM416.156 484.18C416.156 486.065 415.643 487.508 414.617 488.508C413.596 489.503 412.125 490 410.203 490H407.039V478.578H410.539C412.315 478.578 413.695 479.07 414.68 480.055C415.664 481.039 416.156 482.414 416.156 484.18ZM414.75 484.227C414.75 482.737 414.375 481.615 413.625 480.859C412.88 480.104 411.771 479.727 410.297 479.727H408.367V488.852H409.984C411.568 488.852 412.758 488.464 413.555 487.688C414.352 486.906 414.75 485.753 414.75 484.227ZM420.039 490H418.711V478.578H425.078V479.758H420.039V483.938H424.773V485.117H420.039V490ZM428.305 490H426.977V478.578H433.344V479.758H428.305V483.938H433.039V485.117H428.305V490ZM444.359 484.18C444.359 486.065 443.846 487.508 442.82 488.508C441.799 489.503 440.328 490 438.406 490H435.242V478.578H438.742C440.518 478.578 441.898 479.07 442.883 480.055C443.867 481.039 444.359 482.414 444.359 484.18ZM442.953 484.227C442.953 482.737 442.578 481.615 441.828 480.859C441.083 480.104 439.974 479.727 438.5 479.727H436.57V488.852H438.188C439.771 488.852 440.961 488.464 441.758 487.688C442.555 486.906 442.953 485.753 442.953 484.227Z" fill="#001B36"/>
<path d="M381.664 482.977L381.148 485.633H383.359V486.641H380.961L380.305 490H379.234L379.891 486.641H377.523L376.883 490H375.82L376.445 486.641H374.398V485.633H376.641L377.172 482.977H375.008V481.984H377.344L377.984 478.578H379.07L378.43 481.984H380.812L381.469 478.578H382.516L381.859 481.984H383.922V482.977H381.664ZM377.711 485.633H380.078L380.594 482.977H378.227L377.711 485.633Z" fill="#001B36"/>
<path d="M387.359 452.725C387.359 455.081 386.718 456.885 385.436 458.135C384.16 459.378 382.32 460 379.918 460H375.963V445.723H380.338C382.558 445.723 384.283 446.338 385.514 447.568C386.744 448.799 387.359 450.518 387.359 452.725ZM385.602 452.783C385.602 450.921 385.133 449.518 384.195 448.574C383.264 447.63 381.878 447.158 380.035 447.158H377.623V458.564H379.645C381.624 458.564 383.111 458.079 384.107 457.109C385.104 456.133 385.602 454.691 385.602 452.783ZM395.572 460H393.99V449.824C393.99 448.978 394.016 448.177 394.068 447.422C393.932 447.559 393.779 447.702 393.609 447.852C393.44 448.001 392.665 448.636 391.285 449.756L390.426 448.643L394.205 445.723H395.572V460ZM410.475 452.842C410.475 455.309 410.084 457.152 409.303 458.369C408.528 459.587 407.34 460.195 405.738 460.195C404.202 460.195 403.033 459.574 402.232 458.33C401.432 457.08 401.031 455.251 401.031 452.842C401.031 450.355 401.419 448.509 402.193 447.305C402.968 446.1 404.15 445.498 405.738 445.498C407.288 445.498 408.463 446.126 409.264 447.383C410.071 448.639 410.475 450.459 410.475 452.842ZM402.672 452.842C402.672 454.919 402.916 456.432 403.404 457.383C403.893 458.327 404.671 458.799 405.738 458.799C406.819 458.799 407.6 458.32 408.082 457.363C408.57 456.4 408.814 454.893 408.814 452.842C408.814 450.791 408.57 449.29 408.082 448.34C407.6 447.383 406.819 446.904 405.738 446.904C404.671 446.904 403.893 447.376 403.404 448.32C402.916 449.258 402.672 450.765 402.672 452.842ZM421.92 452.842C421.92 455.309 421.529 457.152 420.748 458.369C419.973 459.587 418.785 460.195 417.184 460.195C415.647 460.195 414.479 459.574 413.678 458.33C412.877 457.08 412.477 455.251 412.477 452.842C412.477 450.355 412.864 448.509 413.639 447.305C414.413 446.1 415.595 445.498 417.184 445.498C418.733 445.498 419.908 446.126 420.709 447.383C421.516 448.639 421.92 450.459 421.92 452.842ZM414.117 452.842C414.117 454.919 414.361 456.432 414.85 457.383C415.338 458.327 416.116 458.799 417.184 458.799C418.264 458.799 419.046 458.32 419.527 457.363C420.016 456.4 420.26 454.893 420.26 452.842C420.26 450.791 420.016 449.29 419.527 448.34C419.046 447.383 418.264 446.904 417.184 446.904C416.116 446.904 415.338 447.376 414.85 448.32C414.361 449.258 414.117 450.765 414.117 452.842Z" fill="#001B36"/>
<g filter="url(#filter7_d)">
<path d="M238 531C238 526.582 241.582 523 246 523H350C354.418 523 358 526.582 358 531V595C358 599.418 354.418 603 350 603H278C255.909 603 238 585.091 238 563V531Z" fill="#C9D6DF"/>
</g>
<path d="M391.461 575.602C390.206 575.602 389.214 576.021 388.484 576.859C387.76 577.693 387.398 578.836 387.398 580.289C387.398 581.784 387.747 582.94 388.445 583.758C389.148 584.57 390.148 584.977 391.445 584.977C392.242 584.977 393.151 584.833 394.172 584.547V585.711C393.38 586.008 392.404 586.156 391.242 586.156C389.56 586.156 388.26 585.646 387.344 584.625C386.432 583.604 385.977 582.154 385.977 580.273C385.977 579.096 386.195 578.065 386.633 577.18C387.076 576.294 387.711 575.612 388.539 575.133C389.372 574.654 390.352 574.414 391.477 574.414C392.674 574.414 393.721 574.633 394.617 575.07L394.055 576.211C393.19 575.805 392.326 575.602 391.461 575.602ZM403.383 579.453C403.383 583.922 401.654 586.156 398.195 586.156C397.591 586.156 397.112 586.104 396.758 586V584.883C397.174 585.018 397.648 585.086 398.18 585.086C399.43 585.086 400.372 584.701 401.008 583.93C401.648 583.154 401.997 581.966 402.055 580.367H401.961C401.674 580.799 401.294 581.13 400.82 581.359C400.346 581.583 399.812 581.695 399.219 581.695C398.208 581.695 397.406 581.393 396.812 580.789C396.219 580.185 395.922 579.341 395.922 578.258C395.922 577.07 396.253 576.133 396.914 575.445C397.581 574.758 398.456 574.414 399.539 574.414C400.315 574.414 400.992 574.615 401.57 575.016C402.154 575.411 402.602 575.992 402.914 576.758C403.227 577.518 403.383 578.417 403.383 579.453ZM399.539 575.523C398.794 575.523 398.219 575.763 397.812 576.242C397.406 576.721 397.203 577.388 397.203 578.242C397.203 578.992 397.391 579.583 397.766 580.016C398.141 580.443 398.711 580.656 399.477 580.656C399.951 580.656 400.385 580.56 400.781 580.367C401.182 580.174 401.497 579.911 401.727 579.578C401.956 579.245 402.07 578.896 402.07 578.531C402.07 577.984 401.964 577.479 401.75 577.016C401.536 576.552 401.237 576.188 400.852 575.922C400.471 575.656 400.034 575.523 399.539 575.523ZM414.938 580.18C414.938 582.065 414.424 583.508 413.398 584.508C412.378 585.503 410.906 586 408.984 586H405.82V574.578H409.32C411.096 574.578 412.477 575.07 413.461 576.055C414.445 577.039 414.938 578.414 414.938 580.18ZM413.531 580.227C413.531 578.737 413.156 577.615 412.406 576.859C411.661 576.104 410.552 575.727 409.078 575.727H407.148V584.852H408.766C410.349 584.852 411.539 584.464 412.336 583.688C413.133 582.906 413.531 581.753 413.531 580.227ZM416.836 581.117C416.836 578.872 417.271 577.195 418.141 576.086C419.016 574.971 420.307 574.414 422.016 574.414C422.604 574.414 423.068 574.464 423.406 574.562V575.68C423.005 575.549 422.547 575.484 422.031 575.484C420.807 575.484 419.872 575.867 419.227 576.633C418.581 577.393 418.227 578.591 418.164 580.227H418.258C418.831 579.331 419.737 578.883 420.977 578.883C422.003 578.883 422.81 579.193 423.398 579.812C423.992 580.432 424.289 581.273 424.289 582.336C424.289 583.523 423.964 584.458 423.312 585.141C422.667 585.818 421.792 586.156 420.688 586.156C419.505 586.156 418.568 585.714 417.875 584.828C417.182 583.938 416.836 582.701 416.836 581.117ZM420.672 585.055C421.411 585.055 421.984 584.823 422.391 584.359C422.802 583.891 423.008 583.216 423.008 582.336C423.008 581.581 422.818 580.987 422.438 580.555C422.057 580.122 421.49 579.906 420.734 579.906C420.266 579.906 419.836 580.003 419.445 580.195C419.055 580.388 418.742 580.654 418.508 580.992C418.279 581.331 418.164 581.682 418.164 582.047C418.164 582.583 418.268 583.083 418.477 583.547C418.685 584.01 418.979 584.378 419.359 584.648C419.745 584.919 420.182 585.055 420.672 585.055ZM435.766 580.18C435.766 582.065 435.253 583.508 434.227 584.508C433.206 585.503 431.734 586 429.812 586H426.648V574.578H430.148C431.924 574.578 433.305 575.07 434.289 576.055C435.273 577.039 435.766 578.414 435.766 580.18ZM434.359 580.227C434.359 578.737 433.984 577.615 433.234 576.859C432.49 576.104 431.38 575.727 429.906 575.727H427.977V584.852H429.594C431.177 584.852 432.367 584.464 433.164 583.688C433.961 582.906 434.359 581.753 434.359 580.227ZM439.648 586H438.32V574.578H444.688V575.758H439.648V579.938H444.383V581.117H439.648V586Z" fill="#001B36"/>
<path d="M381.664 578.977L381.148 581.633H383.359V582.641H380.961L380.305 586H379.234L379.891 582.641H377.523L376.883 586H375.82L376.445 582.641H374.398V581.633H376.641L377.172 578.977H375.008V577.984H377.344L377.984 574.578H379.07L378.43 577.984H380.812L381.469 574.578H382.516L381.859 577.984H383.922V578.977H381.664ZM377.711 581.633H380.078L380.594 578.977H378.227L377.711 581.633Z" fill="#001B36"/>
<path d="M387.359 548.725C387.359 551.081 386.718 552.885 385.436 554.135C384.16 555.378 382.32 556 379.918 556H375.963V541.723H380.338C382.558 541.723 384.283 542.338 385.514 543.568C386.744 544.799 387.359 546.518 387.359 548.725ZM385.602 548.783C385.602 546.921 385.133 545.518 384.195 544.574C383.264 543.63 381.878 543.158 380.035 543.158H377.623V554.564H379.645C381.624 554.564 383.111 554.079 384.107 553.109C385.104 552.133 385.602 550.691 385.602 548.783ZM398.951 556H389.566V554.604L393.326 550.824C394.472 549.665 395.227 548.839 395.592 548.344C395.956 547.849 396.23 547.367 396.412 546.898C396.594 546.43 396.686 545.925 396.686 545.385C396.686 544.623 396.454 544.021 395.992 543.578C395.53 543.129 394.889 542.904 394.068 542.904C393.476 542.904 392.913 543.002 392.379 543.197C391.852 543.393 391.262 543.747 390.611 544.262L389.752 543.158C391.067 542.064 392.499 541.518 394.049 541.518C395.39 541.518 396.441 541.863 397.203 542.553C397.965 543.236 398.346 544.158 398.346 545.316C398.346 546.221 398.092 547.117 397.584 548.002C397.076 548.887 396.126 550.007 394.732 551.361L391.607 554.418V554.496H398.951V556ZM410.475 548.842C410.475 551.309 410.084 553.152 409.303 554.369C408.528 555.587 407.34 556.195 405.738 556.195C404.202 556.195 403.033 555.574 402.232 554.33C401.432 553.08 401.031 551.251 401.031 548.842C401.031 546.355 401.419 544.509 402.193 543.305C402.968 542.1 404.15 541.498 405.738 541.498C407.288 541.498 408.463 542.126 409.264 543.383C410.071 544.639 410.475 546.459 410.475 548.842ZM402.672 548.842C402.672 550.919 402.916 552.432 403.404 553.383C403.893 554.327 404.671 554.799 405.738 554.799C406.819 554.799 407.6 554.32 408.082 553.363C408.57 552.4 408.814 550.893 408.814 548.842C408.814 546.791 408.57 545.29 408.082 544.34C407.6 543.383 406.819 542.904 405.738 542.904C404.671 542.904 403.893 543.376 403.404 544.32C402.916 545.258 402.672 546.765 402.672 548.842ZM421.92 548.842C421.92 551.309 421.529 553.152 420.748 554.369C419.973 555.587 418.785 556.195 417.184 556.195C415.647 556.195 414.479 555.574 413.678 554.33C412.877 553.08 412.477 551.251 412.477 548.842C412.477 546.355 412.864 544.509 413.639 543.305C414.413 542.1 415.595 541.498 417.184 541.498C418.733 541.498 419.908 542.126 420.709 543.383C421.516 544.639 421.92 546.459 421.92 548.842ZM414.117 548.842C414.117 550.919 414.361 552.432 414.85 553.383C415.338 554.327 416.116 554.799 417.184 554.799C418.264 554.799 419.046 554.32 419.527 553.363C420.016 552.4 420.26 550.893 420.26 548.842C420.26 546.791 420.016 545.29 419.527 544.34C419.046 543.383 418.264 542.904 417.184 542.904C416.116 542.904 415.338 543.376 414.85 544.32C414.361 545.258 414.117 546.765 414.117 548.842Z" fill="#001B36"/>
<defs>
<filter id="filter0_d" x="1" y="235" width="124" height="86" filterUnits="userSpaceOnUse" color-interpolation-filters="sRGB">
<feFlood flood-opacity="0" result="BackgroundImageFix"/>
<feColorMatrix in="SourceAlpha" type="matrix" values="0 0 0 0 0 0 0 0 0 0 0 0 0 0 0 0 0 0 127 0"/>
<feOffset dx="2" dy="4"/>
<feGaussianBlur stdDeviation="1"/>
<feColorMatrix type="matrix" values="0 0 0 0 0 0 0 0 0 0 0 0 0 0 0 0 0 0 0.08 0"/>
<feBlend mode="normal" in2="BackgroundImageFix" result="effect1_dropShadow"/>
<feBlend mode="normal" in="SourceGraphic" in2="effect1_dropShadow" result="shape"/>
</filter>
<filter id="filter1_d" x="1" y="331" width="124" height="86" filterUnits="userSpaceOnUse" color-interpolation-filters="sRGB">
<feFlood flood-opacity="0" result="BackgroundImageFix"/>
<feColorMatrix in="SourceAlpha" type="matrix" values="0 0 0 0 0 0 0 0 0 0 0 0 0 0 0 0 0 0 127 0"/>
<feOffset dx="2" dy="4"/>
<feGaussianBlur stdDeviation="1"/>
<feColorMatrix type="matrix" values="0 0 0 0 0 0 0 0 0 0 0 0 0 0 0 0 0 0 0.08 0"/>
<feBlend mode="normal" in2="BackgroundImageFix" result="effect1_dropShadow"/>
<feBlend mode="normal" in="SourceGraphic" in2="effect1_dropShadow" result="shape"/>
</filter>
<filter id="filter2_d" x="1" y="427" width="124" height="86" filterUnits="userSpaceOnUse" color-interpolation-filters="sRGB">
<feFlood flood-opacity="0" result="BackgroundImageFix"/>
<feColorMatrix in="SourceAlpha" type="matrix" values="0 0 0 0 0 0 0 0 0 0 0 0 0 0 0 0 0 0 127 0"/>
<feOffset dx="2" dy="4"/>
<feGaussianBlur stdDeviation="1"/>
<feColorMatrix type="matrix" values="0 0 0 0 0 0 0 0 0 0 0 0 0 0 0 0 0 0 0.08 0"/>
<feBlend mode="normal" in2="BackgroundImageFix" result="effect1_dropShadow"/>
<feBlend mode="normal" in="SourceGraphic" in2="effect1_dropShadow" result="shape"/>
</filter>
<filter id="filter3_d" x="1" y="523" width="124" height="86" filterUnits="userSpaceOnUse" color-interpolation-filters="sRGB">
<feFlood flood-opacity="0" result="BackgroundImageFix"/>
<feColorMatrix in="SourceAlpha" type="matrix" values="0 0 0 0 0 0 0 0 0 0 0 0 0 0 0 0 0 0 127 0"/>
<feOffset dx="2" dy="4"/>
<feGaussianBlur stdDeviation="1"/>
<feColorMatrix type="matrix" values="0 0 0 0 0 0 0 0 0 0 0 0 0 0 0 0 0 0 0.08 0"/>
<feBlend mode="normal" in2="BackgroundImageFix" result="effect1_dropShadow"/>
<feBlend mode="normal" in="SourceGraphic" in2="effect1_dropShadow" result="shape"/>
</filter>
<filter id="filter4_d" x="238" y="235" width="124" height="86" filterUnits="userSpaceOnUse" color-interpolation-filters="sRGB">
<feFlood flood-opacity="0" result="BackgroundImageFix"/>
<feColorMatrix in="SourceAlpha" type="matrix" values="0 0 0 0 0 0 0 0 0 0 0 0 0 0 0 0 0 0 127 0"/>
<feOffset dx="2" dy="4"/>
<feGaussianBlur stdDeviation="1"/>
<feColorMatrix type="matrix" values="0 0 0 0 0 0 0 0 0 0 0 0 0 0 0 0 0 0 0.08 0"/>
<feBlend mode="normal" in2="BackgroundImageFix" result="effect1_dropShadow"/>
<feBlend mode="normal" in="SourceGraphic" in2="effect1_dropShadow" result="shape"/>
</filter>
<filter id="filter5_d" x="238" y="331" width="124" height="86" filterUnits="userSpaceOnUse" color-interpolation-filters="sRGB">
<feFlood flood-opacity="0" result="BackgroundImageFix"/>
<feColorMatrix in="SourceAlpha" type="matrix" values="0 0 0 0 0 0 0 0 0 0 0 0 0 0 0 0 0 0 127 0"/>
<feOffset dx="2" dy="4"/>
<feGaussianBlur stdDeviation="1"/>
<feColorMatrix type="matrix" values="0 0 0 0 0 0 0 0 0 0 0 0 0 0 0 0 0 0 0.08 0"/>
<feBlend mode="normal" in2="BackgroundImageFix" result="effect1_dropShadow"/>
<feBlend mode="normal" in="SourceGraphic" in2="effect1_dropShadow" result="shape"/>
</filter>
<filter id="filter6_d" x="238" y="427" width="124" height="86" filterUnits="userSpaceOnUse" color-interpolation-filters="sRGB">
<feFlood flood-opacity="0" result="BackgroundImageFix"/>
<feColorMatrix in="SourceAlpha" type="matrix" values="0 0 0 0 0 0 0 0 0 0 0 0 0 0 0 0 0 0 127 0"/>
<feOffset dx="2" dy="4"/>
<feGaussianBlur stdDeviation="1"/>
<feColorMatrix type="matrix" values="0 0 0 0 0 0 0 0 0 0 0 0 0 0 0 0 0 0 0.08 0"/>
<feBlend mode="normal" in2="BackgroundImageFix" result="effect1_dropShadow"/>
<feBlend mode="normal" in="SourceGraphic" in2="effect1_dropShadow" result="shape"/>
</filter>
<filter id="filter7_d" x="238" y="523" width="124" height="86" filterUnits="userSpaceOnUse" color-interpolation-filters="sRGB">
<feFlood flood-opacity="0" result="BackgroundImageFix"/>
<feColorMatrix in="SourceAlpha" type="matrix" values="0 0 0 0 0 0 0 0 0 0 0 0 0 0 0 0 0 0 127 0"/>
<feOffset dx="2" dy="4"/>
<feGaussianBlur stdDeviation="1"/>
<feColorMatrix type="matrix" values="0 0 0 0 0 0 0 0 0 0 0 0 0 0 0 0 0 0 0.08 0"/>
<feBlend mode="normal" in2="BackgroundImageFix" result="effect1_dropShadow"/>
<feBlend mode="normal" in="SourceGraphic" in2="effect1_dropShadow" result="shape"/>
</filter>
</defs>
</svg>
