<svg width="454" height="806" viewBox="0 0 454 806" fill="none" xmlns="http://www.w3.org/2000/svg">
<path d="M12.3477 26H10.3555V8.86719H19.9062V10.6367H12.3477V16.9062H19.4492V18.6758H12.3477V26ZM33.5469 19.5664C33.5469 21.6602 33.0195 23.2969 31.9648 24.4766C30.9102 25.6484 29.4531 26.2344 27.5938 26.2344C26.4453 26.2344 25.4258 25.9648 24.5352 25.4258C23.6445 24.8867 22.957 24.1133 22.4727 23.1055C21.9883 22.0977 21.7461 20.918 21.7461 19.5664C21.7461 17.4727 22.2695 15.8438 23.3164 14.6797C24.3633 13.5078 25.8164 12.9219 27.6758 12.9219C29.4727 12.9219 30.8984 13.5195 31.9531 14.7148C33.0156 15.9102 33.5469 17.5273 33.5469 19.5664ZM23.7617 19.5664C23.7617 21.207 24.0898 22.457 24.7461 23.3164C25.4023 24.1758 26.3672 24.6055 27.6406 24.6055C28.9141 24.6055 29.8789 24.1797 30.5352 23.3281C31.1992 22.4688 31.5312 21.2148 31.5312 19.5664C31.5312 17.9336 31.1992 16.6953 30.5352 15.8516C29.8789 15 28.9062 14.5742 27.6172 14.5742C26.3438 14.5742 25.3828 14.9922 24.7344 15.8281C24.0859 16.6641 23.7617 17.9102 23.7617 19.5664ZM45.7578 26V17.6914C45.7578 16.6445 45.5195 15.8633 45.043 15.3477C44.5664 14.832 43.8203 14.5742 42.8047 14.5742C41.4609 14.5742 40.4766 14.9375 39.8516 15.6641C39.2266 16.3906 38.9141 17.5898 38.9141 19.2617V26H36.9688V13.1562H38.5508L38.8672 14.9141H38.9609C39.3594 14.2812 39.918 13.793 40.6367 13.4492C41.3555 13.0977 42.1562 12.9219 43.0391 12.9219C44.5859 12.9219 45.75 13.2969 46.5312 14.0469C47.3125 14.7891 47.7031 15.9805 47.7031 17.6211V26H45.7578ZM55.8594 24.6289C56.2031 24.6289 56.5352 24.6055 56.8555 24.5586C57.1758 24.5039 57.4297 24.4492 57.6172 24.3945V25.8828C57.4062 25.9844 57.0938 26.0664 56.6797 26.1289C56.2734 26.1992 55.9062 26.2344 55.5781 26.2344C53.0938 26.2344 51.8516 24.9258 51.8516 22.3086V14.668H50.0117V13.7305L51.8516 12.9219L52.6719 10.1797H53.7969V13.1562H57.5234V14.668H53.7969V22.2266C53.7969 23 53.9805 23.5938 54.3477 24.0078C54.7148 24.4219 55.2188 24.6289 55.8594 24.6289ZM72.2188 14.668H68.9492V26H67.0039V14.668H64.707V13.7891L67.0039 13.0859V12.3711C67.0039 9.21484 68.3828 7.63672 71.1406 7.63672C71.8203 7.63672 72.6172 7.77344 73.5312 8.04688L73.0273 9.60547C72.2773 9.36328 71.6367 9.24219 71.1055 9.24219C70.3711 9.24219 69.8281 9.48828 69.4766 9.98047C69.125 10.4648 68.9492 11.2461 68.9492 12.3242V13.1562H72.2188V14.668ZM82.4609 26L82.0742 24.1719H81.9805C81.3398 24.9766 80.6992 25.5234 80.0586 25.8125C79.4258 26.0938 78.6328 26.2344 77.6797 26.2344C76.4062 26.2344 75.4062 25.9062 74.6797 25.25C73.9609 24.5938 73.6016 23.6602 73.6016 22.4492C73.6016 19.8555 75.6758 18.4961 79.8242 18.3711L82.0039 18.3008V17.5039C82.0039 16.4961 81.7852 15.7539 81.3477 15.2773C80.918 14.793 80.2266 14.5508 79.2734 14.5508C78.2031 14.5508 76.9922 14.8789 75.6406 15.5352L75.043 14.0469C75.6758 13.7031 76.3672 13.4336 77.1172 13.2383C77.875 13.043 78.6328 12.9453 79.3906 12.9453C80.9219 12.9453 82.0547 13.2852 82.7891 13.9648C83.5312 14.6445 83.9023 15.7344 83.9023 17.2344V26H82.4609ZM78.0664 24.6289C79.2773 24.6289 80.2266 24.2969 80.9141 23.6328C81.6094 22.9688 81.957 22.0391 81.957 20.8438V19.6836L80.0117 19.7656C78.4648 19.8203 77.3477 20.0625 76.6602 20.4922C75.9805 20.9141 75.6406 21.5742 75.6406 22.4727C75.6406 23.1758 75.8516 23.7109 76.2734 24.0781C76.7031 24.4453 77.3008 24.6289 78.0664 24.6289ZM104.293 26V17.6445C104.293 16.6211 104.074 15.8555 103.637 15.3477C103.199 14.832 102.52 14.5742 101.598 14.5742C100.387 14.5742 99.4922 14.9219 98.9141 15.6172C98.3359 16.3125 98.0469 17.3828 98.0469 18.8281V26H96.1016V17.6445C96.1016 16.6211 95.8828 15.8555 95.4453 15.3477C95.0078 14.832 94.3242 14.5742 93.3945 14.5742C92.1758 14.5742 91.2812 14.9414 90.7109 15.6758C90.1484 16.4023 89.8672 17.5977 89.8672 19.2617V26H87.9219V13.1562H89.5039L89.8203 14.9141H89.9141C90.2812 14.2891 90.7969 13.8008 91.4609 13.4492C92.1328 13.0977 92.8828 12.9219 93.7109 12.9219C95.7188 12.9219 97.0312 13.6484 97.6484 15.1016H97.7422C98.125 14.4297 98.6797 13.8984 99.4062 13.5078C100.133 13.1172 100.961 12.9219 101.891 12.9219C103.344 12.9219 104.43 13.2969 105.148 14.0469C105.875 14.7891 106.238 15.9805 106.238 17.6211V26H104.293ZM112.203 26H110.258V13.1562H112.203V26ZM110.094 9.67578C110.094 9.23047 110.203 8.90625 110.422 8.70312C110.641 8.49219 110.914 8.38672 111.242 8.38672C111.555 8.38672 111.824 8.49219 112.051 8.70312C112.277 8.91406 112.391 9.23828 112.391 9.67578C112.391 10.1133 112.277 10.4414 112.051 10.6602C111.824 10.8711 111.555 10.9766 111.242 10.9766C110.914 10.9766 110.641 10.8711 110.422 10.6602C110.203 10.4414 110.094 10.1133 110.094 9.67578ZM118.273 26H116.328V7.76562H118.273V26ZM124.344 26H122.398V13.1562H124.344V26ZM122.234 9.67578C122.234 9.23047 122.344 8.90625 122.562 8.70312C122.781 8.49219 123.055 8.38672 123.383 8.38672C123.695 8.38672 123.965 8.49219 124.191 8.70312C124.418 8.91406 124.531 9.23828 124.531 9.67578C124.531 10.1133 124.418 10.4414 124.191 10.6602C123.965 10.8711 123.695 10.9766 123.383 10.9766C123.055 10.9766 122.781 10.8711 122.562 10.6602C122.344 10.4414 122.234 10.1133 122.234 9.67578ZM133.895 26.2344C131.996 26.2344 130.496 25.6562 129.395 24.5C128.301 23.3438 127.754 21.7383 127.754 19.6836C127.754 17.6133 128.262 15.9688 129.277 14.75C130.301 13.5312 131.672 12.9219 133.391 12.9219C135 12.9219 136.273 13.4531 137.211 14.5156C138.148 15.5703 138.617 16.9648 138.617 18.6992V19.9297H129.77C129.809 21.4375 130.188 22.582 130.906 23.3633C131.633 24.1445 132.652 24.5352 133.965 24.5352C135.348 24.5352 136.715 24.2461 138.066 23.668V25.4023C137.379 25.6992 136.727 25.9102 136.109 26.0352C135.5 26.168 134.762 26.2344 133.895 26.2344ZM133.367 14.5508C132.336 14.5508 131.512 14.8867 130.895 15.5586C130.285 16.2305 129.926 17.1602 129.816 18.3477H136.531C136.531 17.1211 136.258 16.1836 135.711 15.5352C135.164 14.8789 134.383 14.5508 133.367 14.5508ZM150.23 22.4961C150.23 23.6914 149.785 24.6133 148.895 25.2617C148.004 25.9102 146.754 26.2344 145.145 26.2344C143.441 26.2344 142.113 25.9648 141.16 25.4258V23.6211C141.777 23.9336 142.438 24.1797 143.141 24.3594C143.852 24.5391 144.535 24.6289 145.191 24.6289C146.207 24.6289 146.988 24.4688 147.535 24.1484C148.082 23.8203 148.355 23.3242 148.355 22.6602C148.355 22.1602 148.137 21.7344 147.699 21.3828C147.27 21.0234 146.426 20.6016 145.168 20.1172C143.973 19.6719 143.121 19.2852 142.613 18.957C142.113 18.6211 141.738 18.2422 141.488 17.8203C141.246 17.3984 141.125 16.8945 141.125 16.3086C141.125 15.2617 141.551 14.4375 142.402 13.8359C143.254 13.2266 144.422 12.9219 145.906 12.9219C147.289 12.9219 148.641 13.2031 149.961 13.7656L149.27 15.3477C147.98 14.8164 146.812 14.5508 145.766 14.5508C144.844 14.5508 144.148 14.6953 143.68 14.9844C143.211 15.2734 142.977 15.6719 142.977 16.1797C142.977 16.5234 143.062 16.8164 143.234 17.0586C143.414 17.3008 143.699 17.5312 144.09 17.75C144.48 17.9688 145.23 18.2852 146.34 18.6992C147.863 19.2539 148.891 19.8125 149.422 20.375C149.961 20.9375 150.23 21.6445 150.23 22.4961Z" fill="#001B36"/>
<path d="M274.376 249C274.088 249 273.836 248.892 273.62 248.676C273.404 248.46 273.296 248.208 273.296 247.92L273.404 247.326L287.066 212.28C287.354 211.56 287.876 211.2 288.632 211.2H290.468C291.224 211.2 291.746 211.56 292.034 212.28L305.696 247.326L305.804 247.92C305.804 248.208 305.696 248.46 305.48 248.676C305.264 248.892 305.012 249 304.724 249H303.644C303.32 249 303.05 248.91 302.834 248.73C302.654 248.55 302.528 248.37 302.456 248.19L299.108 239.55H279.992L276.644 248.19C276.572 248.37 276.428 248.55 276.212 248.73C276.032 248.91 275.78 249 275.456 249H274.376ZM297.812 236.31L289.55 215.034L281.288 236.31H297.812ZM319.055 249.54C317.327 249.54 315.725 249.18 314.249 248.46C312.773 247.74 311.585 246.768 310.685 245.544C309.821 244.32 309.389 242.97 309.389 241.494C309.389 239.118 310.343 237.174 312.251 235.662C314.195 234.15 316.805 233.178 320.081 232.746L328.613 231.558V229.668C328.613 227.688 328.001 226.176 326.777 225.132C325.589 224.052 323.753 223.512 321.269 223.512C319.433 223.512 317.921 223.872 316.733 224.592C315.581 225.312 314.843 226.176 314.519 227.184C314.375 227.616 314.195 227.922 313.979 228.102C313.799 228.246 313.547 228.318 313.223 228.318H312.467C312.143 228.318 311.855 228.21 311.603 227.994C311.387 227.742 311.279 227.454 311.279 227.13C311.279 226.338 311.639 225.42 312.359 224.376C313.079 223.296 314.195 222.36 315.707 221.568C317.219 220.776 319.073 220.38 321.269 220.38C325.121 220.38 327.857 221.298 329.477 223.134C331.097 224.97 331.907 227.202 331.907 229.83V247.812C331.907 248.172 331.799 248.46 331.583 248.676C331.367 248.892 331.079 249 330.719 249H329.801C329.441 249 329.153 248.892 328.937 248.676C328.721 248.46 328.613 248.172 328.613 247.812V245.274C327.821 246.462 326.651 247.47 325.103 248.298C323.591 249.126 321.575 249.54 319.055 249.54ZM319.595 246.408C322.223 246.408 324.383 245.544 326.075 243.816C327.767 242.088 328.613 239.604 328.613 236.364V234.528L321.647 235.5C318.695 235.896 316.463 236.58 314.951 237.552C313.439 238.524 312.683 239.748 312.683 241.224C312.683 242.88 313.367 244.158 314.735 245.058C316.139 245.958 317.759 246.408 319.595 246.408Z" fill="#001B36"/>
<path d="M351.963 224V209.723H353.623V222.496H359.922V224H351.963ZM363.73 224H362.109V213.297H363.73V224ZM361.973 210.396C361.973 210.025 362.064 209.755 362.246 209.586C362.428 209.41 362.656 209.322 362.93 209.322C363.19 209.322 363.415 209.41 363.604 209.586C363.792 209.762 363.887 210.032 363.887 210.396C363.887 210.761 363.792 211.035 363.604 211.217C363.415 211.393 363.19 211.48 362.93 211.48C362.656 211.48 362.428 211.393 362.246 211.217C362.064 211.035 361.973 210.761 361.973 210.396ZM375.928 213.297V214.322L373.945 214.557C374.128 214.785 374.29 215.084 374.434 215.455C374.577 215.82 374.648 216.233 374.648 216.695C374.648 217.743 374.29 218.58 373.574 219.205C372.858 219.83 371.875 220.143 370.625 220.143C370.306 220.143 370.007 220.117 369.727 220.064C369.036 220.429 368.691 220.888 368.691 221.441C368.691 221.734 368.812 221.952 369.053 222.096C369.294 222.232 369.707 222.301 370.293 222.301H372.188C373.346 222.301 374.235 222.545 374.854 223.033C375.479 223.521 375.791 224.231 375.791 225.162C375.791 226.347 375.316 227.249 374.365 227.867C373.415 228.492 372.028 228.805 370.205 228.805C368.805 228.805 367.725 228.544 366.963 228.023C366.208 227.503 365.83 226.767 365.83 225.816C365.83 225.165 366.038 224.602 366.455 224.127C366.872 223.652 367.458 223.329 368.213 223.16C367.939 223.036 367.708 222.844 367.52 222.584C367.337 222.324 367.246 222.021 367.246 221.676C367.246 221.285 367.35 220.943 367.559 220.65C367.767 220.357 368.096 220.074 368.545 219.801C367.992 219.573 367.539 219.186 367.188 218.639C366.842 218.092 366.67 217.467 366.67 216.764C366.67 215.592 367.021 214.69 367.725 214.059C368.428 213.421 369.424 213.102 370.713 213.102C371.273 213.102 371.777 213.167 372.227 213.297H375.928ZM367.393 225.797C367.393 226.376 367.637 226.816 368.125 227.115C368.613 227.415 369.313 227.564 370.225 227.564C371.585 227.564 372.591 227.359 373.242 226.949C373.9 226.546 374.229 225.995 374.229 225.299C374.229 224.719 374.049 224.316 373.691 224.088C373.333 223.867 372.66 223.756 371.67 223.756H369.727C368.991 223.756 368.418 223.932 368.008 224.283C367.598 224.635 367.393 225.139 367.393 225.797ZM368.271 216.725C368.271 217.473 368.483 218.04 368.906 218.424C369.329 218.808 369.919 219 370.674 219C372.256 219 373.047 218.232 373.047 216.695C373.047 215.087 372.246 214.283 370.645 214.283C369.883 214.283 369.297 214.488 368.887 214.898C368.477 215.309 368.271 215.917 368.271 216.725ZM385.449 224V217.076C385.449 216.204 385.251 215.553 384.854 215.123C384.456 214.693 383.835 214.479 382.988 214.479C381.862 214.479 381.038 214.785 380.518 215.396C380.003 216.008 379.746 217.011 379.746 218.404V224H378.125V208.805H379.746V213.404C379.746 213.958 379.72 214.417 379.668 214.781H379.766C380.085 214.267 380.537 213.863 381.123 213.57C381.715 213.271 382.389 213.121 383.145 213.121C384.453 213.121 385.433 213.434 386.084 214.059C386.742 214.677 387.07 215.663 387.07 217.018V224H385.449ZM393.867 222.857C394.154 222.857 394.43 222.838 394.697 222.799C394.964 222.753 395.176 222.708 395.332 222.662V223.902C395.156 223.987 394.896 224.055 394.551 224.107C394.212 224.166 393.906 224.195 393.633 224.195C391.562 224.195 390.527 223.105 390.527 220.924V214.557H388.994V213.775L390.527 213.102L391.211 210.816H392.148V213.297H395.254V214.557H392.148V220.855C392.148 221.5 392.301 221.995 392.607 222.34C392.913 222.685 393.333 222.857 393.867 222.857Z" fill="#001B36"/>
<path d="M357.859 245.266C357.859 245.995 357.654 246.591 357.242 247.055C356.836 247.518 356.258 247.828 355.508 247.984V248.047C356.424 248.161 357.104 248.453 357.547 248.922C357.99 249.391 358.211 250.005 358.211 250.766C358.211 251.854 357.833 252.693 357.078 253.281C356.323 253.865 355.25 254.156 353.859 254.156C353.255 254.156 352.701 254.109 352.195 254.016C351.695 253.927 351.208 253.768 350.734 253.539V252.305C351.229 252.549 351.755 252.737 352.312 252.867C352.875 252.992 353.406 253.055 353.906 253.055C355.88 253.055 356.867 252.281 356.867 250.734C356.867 249.349 355.779 248.656 353.602 248.656H352.477V247.539H353.617C354.508 247.539 355.214 247.344 355.734 246.953C356.255 246.557 356.516 246.01 356.516 245.312C356.516 244.755 356.323 244.318 355.938 244C355.557 243.682 355.039 243.523 354.383 243.523C353.883 243.523 353.411 243.591 352.969 243.727C352.526 243.862 352.021 244.112 351.453 244.477L350.797 243.602C351.266 243.232 351.805 242.943 352.414 242.734C353.029 242.521 353.674 242.414 354.352 242.414C355.461 242.414 356.323 242.669 356.938 243.18C357.552 243.685 357.859 244.38 357.859 245.266ZM367.508 248.273C367.508 250.247 367.195 251.721 366.57 252.695C365.951 253.669 365 254.156 363.719 254.156C362.49 254.156 361.555 253.659 360.914 252.664C360.273 251.664 359.953 250.201 359.953 248.273C359.953 246.284 360.263 244.807 360.883 243.844C361.503 242.88 362.448 242.398 363.719 242.398C364.958 242.398 365.898 242.901 366.539 243.906C367.185 244.911 367.508 246.367 367.508 248.273ZM361.266 248.273C361.266 249.935 361.461 251.146 361.852 251.906C362.242 252.661 362.865 253.039 363.719 253.039C364.583 253.039 365.208 252.656 365.594 251.891C365.984 251.12 366.18 249.914 366.18 248.273C366.18 246.633 365.984 245.432 365.594 244.672C365.208 243.906 364.583 243.523 363.719 243.523C362.865 243.523 362.242 243.901 361.852 244.656C361.461 245.406 361.266 246.612 361.266 248.273ZM376.664 248.273C376.664 250.247 376.352 251.721 375.727 252.695C375.107 253.669 374.156 254.156 372.875 254.156C371.646 254.156 370.711 253.659 370.07 252.664C369.43 251.664 369.109 250.201 369.109 248.273C369.109 246.284 369.419 244.807 370.039 243.844C370.659 242.88 371.604 242.398 372.875 242.398C374.115 242.398 375.055 242.901 375.695 243.906C376.341 244.911 376.664 246.367 376.664 248.273ZM370.422 248.273C370.422 249.935 370.617 251.146 371.008 251.906C371.398 252.661 372.021 253.039 372.875 253.039C373.74 253.039 374.365 252.656 374.75 251.891C375.141 251.12 375.336 249.914 375.336 248.273C375.336 246.633 375.141 245.432 374.75 244.672C374.365 243.906 373.74 243.523 372.875 243.523C372.021 243.523 371.398 243.901 371.008 244.656C370.617 245.406 370.422 246.612 370.422 248.273Z" fill="#001B36"/>
<path d="M273.89 349C273.602 349 273.332 348.892 273.08 348.676C272.864 348.46 272.756 348.19 272.756 347.866L272.864 347.38L285.878 312.55C286.13 311.65 286.76 311.2 287.768 311.2H293.654C294.59 311.2 295.22 311.65 295.544 312.55L308.558 347.38C308.594 347.488 308.612 347.65 308.612 347.866C308.612 348.19 308.504 348.46 308.288 348.676C308.072 348.892 307.82 349 307.532 349H302.834C302.366 349 302.006 348.892 301.754 348.676C301.502 348.46 301.34 348.226 301.268 347.974L298.73 341.386H282.692L280.154 347.974C279.866 348.658 279.344 349 278.588 349H273.89ZM296.84 335.176L290.684 318.49L284.582 335.176H296.84ZM321.159 349.54C319.323 349.54 317.631 349.18 316.083 348.46C314.571 347.704 313.365 346.696 312.465 345.436C311.601 344.176 311.169 342.79 311.169 341.278C311.169 338.83 312.159 336.85 314.139 335.338C316.119 333.826 318.837 332.8 322.293 332.26L329.691 331.18V330.046C329.691 328.462 329.295 327.274 328.503 326.482C327.711 325.69 326.433 325.294 324.669 325.294C323.481 325.294 322.509 325.528 321.753 325.996C321.033 326.428 320.457 326.86 320.025 327.292C319.593 327.76 319.305 328.066 319.161 328.21C319.017 328.642 318.747 328.858 318.351 328.858H314.193C313.869 328.858 313.581 328.75 313.329 328.534C313.113 328.318 313.005 328.03 313.005 327.67C313.041 326.77 313.473 325.744 314.301 324.592C315.165 323.44 316.479 322.45 318.243 321.622C320.007 320.794 322.167 320.38 324.723 320.38C328.971 320.38 332.067 321.334 334.011 323.242C335.955 325.15 336.927 327.652 336.927 330.748V347.704C336.927 348.064 336.801 348.37 336.549 348.622C336.333 348.874 336.027 349 335.631 349H331.257C330.897 349 330.591 348.874 330.339 348.622C330.087 348.37 329.961 348.064 329.961 347.704V345.598C329.169 346.75 328.035 347.704 326.559 348.46C325.119 349.18 323.319 349.54 321.159 349.54ZM322.995 344.41C324.975 344.41 326.595 343.762 327.855 342.466C329.115 341.17 329.745 339.28 329.745 336.796V335.662L324.345 336.526C322.257 336.85 320.673 337.372 319.593 338.092C318.549 338.812 318.027 339.694 318.027 340.738C318.027 341.89 318.513 342.79 319.485 343.438C320.457 344.086 321.627 344.41 322.995 344.41Z" fill="#001B36"/>
<path d="M358.281 324L353.438 311.344H353.359C353.451 312.346 353.496 313.538 353.496 314.918V324H351.963V309.723H354.463L358.984 321.5H359.062L363.623 309.723H366.104V324H364.443V314.801C364.443 313.746 364.489 312.6 364.58 311.363H364.502L359.619 324H358.281ZM374.307 324.195C372.725 324.195 371.475 323.714 370.557 322.75C369.645 321.786 369.189 320.449 369.189 318.736C369.189 317.011 369.613 315.641 370.459 314.625C371.312 313.609 372.454 313.102 373.887 313.102C375.228 313.102 376.289 313.544 377.07 314.43C377.852 315.309 378.242 316.471 378.242 317.916V318.941H370.869C370.902 320.198 371.217 321.152 371.816 321.803C372.422 322.454 373.271 322.779 374.365 322.779C375.518 322.779 376.657 322.538 377.783 322.057V323.502C377.21 323.749 376.667 323.925 376.152 324.029C375.645 324.14 375.029 324.195 374.307 324.195ZM373.867 314.459C373.008 314.459 372.321 314.739 371.807 315.299C371.299 315.859 370.999 316.633 370.908 317.623H376.504C376.504 316.601 376.276 315.82 375.82 315.279C375.365 314.732 374.714 314.459 373.867 314.459ZM388.301 322.564H388.213C387.464 323.652 386.344 324.195 384.854 324.195C383.454 324.195 382.363 323.717 381.582 322.76C380.807 321.803 380.42 320.442 380.42 318.678C380.42 316.913 380.811 315.543 381.592 314.566C382.373 313.59 383.46 313.102 384.854 313.102C386.305 313.102 387.419 313.629 388.193 314.684H388.32L388.252 313.912L388.213 313.16V308.805H389.834V324H388.516L388.301 322.564ZM385.059 322.838C386.165 322.838 386.966 322.538 387.461 321.939C387.962 321.334 388.213 320.361 388.213 319.02V318.678C388.213 317.161 387.959 316.08 387.451 315.436C386.95 314.785 386.146 314.459 385.039 314.459C384.089 314.459 383.359 314.83 382.852 315.572C382.35 316.308 382.1 317.35 382.1 318.697C382.1 320.064 382.35 321.096 382.852 321.793C383.353 322.49 384.089 322.838 385.059 322.838ZM394.902 324H393.281V313.297H394.902V324ZM393.145 310.396C393.145 310.025 393.236 309.755 393.418 309.586C393.6 309.41 393.828 309.322 394.102 309.322C394.362 309.322 394.587 309.41 394.775 309.586C394.964 309.762 395.059 310.032 395.059 310.396C395.059 310.761 394.964 311.035 394.775 311.217C394.587 311.393 394.362 311.48 394.102 311.48C393.828 311.48 393.6 311.393 393.418 311.217C393.236 311.035 393.145 310.761 393.145 310.396ZM399.863 313.297V320.24C399.863 321.113 400.062 321.764 400.459 322.193C400.856 322.623 401.478 322.838 402.324 322.838C403.444 322.838 404.261 322.532 404.775 321.92C405.296 321.308 405.557 320.309 405.557 318.922V313.297H407.178V324H405.84L405.605 322.564H405.518C405.186 323.092 404.723 323.495 404.131 323.775C403.545 324.055 402.874 324.195 402.119 324.195C400.817 324.195 399.84 323.886 399.189 323.268C398.545 322.649 398.223 321.66 398.223 320.299V313.297H399.863ZM424.268 324V317.037C424.268 316.184 424.085 315.546 423.721 315.123C423.356 314.693 422.79 314.479 422.021 314.479C421.012 314.479 420.267 314.768 419.785 315.348C419.303 315.927 419.062 316.819 419.062 318.023V324H417.441V317.037C417.441 316.184 417.259 315.546 416.895 315.123C416.53 314.693 415.96 314.479 415.186 314.479C414.17 314.479 413.424 314.785 412.949 315.396C412.48 316.002 412.246 316.998 412.246 318.385V324H410.625V313.297H411.943L412.207 314.762H412.285C412.591 314.241 413.021 313.834 413.574 313.541C414.134 313.248 414.759 313.102 415.449 313.102C417.122 313.102 418.216 313.707 418.73 314.918H418.809C419.128 314.358 419.59 313.915 420.195 313.59C420.801 313.264 421.491 313.102 422.266 313.102C423.477 313.102 424.382 313.414 424.98 314.039C425.586 314.658 425.889 315.65 425.889 317.018V324H424.268Z" fill="#001B36"/>
<path d="M354.352 347.023C355.555 347.023 356.5 347.323 357.188 347.922C357.88 348.516 358.227 349.331 358.227 350.367C358.227 351.549 357.849 352.477 357.094 353.148C356.344 353.82 355.307 354.156 353.984 354.156C352.698 354.156 351.716 353.951 351.039 353.539V352.289C351.404 352.523 351.857 352.708 352.398 352.844C352.94 352.974 353.474 353.039 354 353.039C354.917 353.039 355.628 352.823 356.133 352.391C356.643 351.958 356.898 351.333 356.898 350.516C356.898 348.922 355.922 348.125 353.969 348.125C353.474 348.125 352.812 348.201 351.984 348.352L351.312 347.922L351.742 342.578H357.422V343.773H352.852L352.562 347.203C353.161 347.083 353.758 347.023 354.352 347.023ZM367.508 348.273C367.508 350.247 367.195 351.721 366.57 352.695C365.951 353.669 365 354.156 363.719 354.156C362.49 354.156 361.555 353.659 360.914 352.664C360.273 351.664 359.953 350.201 359.953 348.273C359.953 346.284 360.263 344.807 360.883 343.844C361.503 342.88 362.448 342.398 363.719 342.398C364.958 342.398 365.898 342.901 366.539 343.906C367.185 344.911 367.508 346.367 367.508 348.273ZM361.266 348.273C361.266 349.935 361.461 351.146 361.852 351.906C362.242 352.661 362.865 353.039 363.719 353.039C364.583 353.039 365.208 352.656 365.594 351.891C365.984 351.12 366.18 349.914 366.18 348.273C366.18 346.633 365.984 345.432 365.594 344.672C365.208 343.906 364.583 343.523 363.719 343.523C362.865 343.523 362.242 343.901 361.852 344.656C361.461 345.406 361.266 346.612 361.266 348.273ZM376.664 348.273C376.664 350.247 376.352 351.721 375.727 352.695C375.107 353.669 374.156 354.156 372.875 354.156C371.646 354.156 370.711 353.659 370.07 352.664C369.43 351.664 369.109 350.201 369.109 348.273C369.109 346.284 369.419 344.807 370.039 343.844C370.659 342.88 371.604 342.398 372.875 342.398C374.115 342.398 375.055 342.901 375.695 343.906C376.341 344.911 376.664 346.367 376.664 348.273ZM370.422 348.273C370.422 349.935 370.617 351.146 371.008 351.906C371.398 352.661 372.021 353.039 372.875 353.039C373.74 353.039 374.365 352.656 374.75 351.891C375.141 351.12 375.336 349.914 375.336 348.273C375.336 346.633 375.141 345.432 374.75 344.672C374.365 343.906 373.74 343.523 372.875 343.523C372.021 343.523 371.398 343.901 371.008 344.656C370.617 345.406 370.422 346.612 370.422 348.273Z" fill="#001B36"/>
<g filter="url(#filter0_d)">
<rect x="8" y="100" width="240" height="330" rx="8" fill="white"/>
<rect x="9" y="101" width="238" height="328" rx="7" stroke="#F0F5F9" stroke-width="2"/>
</g>
<path d="M103.606 349C103.473 349 103.36 348.96 103.266 348.88C103.186 348.787 103.146 348.673 103.146 348.54V335.48C103.146 335.333 103.186 335.22 103.266 335.14C103.36 335.047 103.473 335 103.606 335H108.486C110.02 335 111.22 335.36 112.086 336.08C112.953 336.8 113.386 337.84 113.386 339.2C113.386 340.213 113.133 341.047 112.626 341.7C112.133 342.353 111.433 342.807 110.526 343.06L113.606 348.38C113.646 348.46 113.666 348.533 113.666 348.6C113.666 348.707 113.62 348.8 113.526 348.88C113.446 348.96 113.353 349 113.246 349H112.286C112.086 349 111.926 348.953 111.806 348.86C111.7 348.767 111.6 348.633 111.506 348.46L108.606 343.38H105.106V348.54C105.106 348.673 105.06 348.787 104.966 348.88C104.873 348.96 104.76 349 104.626 349H103.606ZM108.406 341.68C110.393 341.68 111.386 340.847 111.386 339.18C111.386 337.513 110.393 336.68 108.406 336.68H105.106V341.68H108.406ZM119.872 349.2C118.605 349.2 117.625 348.793 116.932 347.98C116.238 347.153 115.892 346.06 115.892 344.7V339.06C115.892 338.927 115.932 338.82 116.012 338.74C116.105 338.647 116.218 338.6 116.352 338.6H117.352C117.485 338.6 117.592 338.647 117.672 338.74C117.765 338.82 117.812 338.927 117.812 339.06V344.6C117.812 346.587 118.678 347.58 120.412 347.58C121.252 347.58 121.918 347.32 122.412 346.8C122.905 346.267 123.152 345.533 123.152 344.6V339.06C123.152 338.927 123.192 338.82 123.272 338.74C123.365 338.647 123.478 338.6 123.612 338.6H124.612C124.745 338.6 124.852 338.647 124.932 338.74C125.012 338.82 125.052 338.927 125.052 339.06V348.54C125.052 348.673 125.012 348.787 124.932 348.88C124.852 348.96 124.745 349 124.612 349H123.672C123.538 349 123.425 348.96 123.332 348.88C123.252 348.787 123.212 348.673 123.212 348.54V347.66C122.838 348.167 122.385 348.553 121.852 348.82C121.318 349.073 120.658 349.2 119.872 349.2ZM133.163 349.2C131.723 349.2 130.63 348.7 129.883 347.7V348.54C129.883 348.673 129.836 348.787 129.743 348.88C129.663 348.96 129.556 349 129.423 349H128.503C128.37 349 128.256 348.96 128.163 348.88C128.083 348.787 128.043 348.673 128.043 348.54V335.26C128.043 335.127 128.083 335.02 128.163 334.94C128.256 334.847 128.37 334.8 128.503 334.8H129.483C129.616 334.8 129.723 334.847 129.803 334.94C129.883 335.02 129.923 335.127 129.923 335.26V339.86C130.71 338.887 131.79 338.4 133.163 338.4C134.55 338.4 135.596 338.86 136.303 339.78C137.01 340.687 137.39 341.827 137.443 343.2C137.456 343.347 137.463 343.547 137.463 343.8C137.463 344.053 137.456 344.253 137.443 344.4C137.39 345.787 137.01 346.933 136.303 347.84C135.596 348.747 134.55 349.2 133.163 349.2ZM132.743 347.58C133.69 347.58 134.376 347.287 134.803 346.7C135.243 346.113 135.483 345.34 135.523 344.38C135.536 344.247 135.543 344.053 135.543 343.8C135.543 341.28 134.61 340.02 132.743 340.02C131.85 340.02 131.163 340.313 130.683 340.9C130.203 341.487 129.95 342.173 129.923 342.96L129.903 343.74L129.923 344.5C129.963 345.34 130.21 346.067 130.663 346.68C131.13 347.28 131.823 347.58 132.743 347.58ZM140.218 336.66C140.084 336.66 139.971 336.62 139.878 336.54C139.798 336.447 139.757 336.333 139.757 336.2V335.12C139.757 334.987 139.798 334.873 139.878 334.78C139.971 334.687 140.084 334.64 140.218 334.64H141.478C141.611 334.64 141.724 334.687 141.818 334.78C141.911 334.873 141.958 334.987 141.958 335.12V336.2C141.958 336.333 141.911 336.447 141.818 336.54C141.724 336.62 141.611 336.66 141.478 336.66H140.218ZM140.378 349C140.244 349 140.131 348.96 140.038 348.88C139.958 348.787 139.918 348.673 139.918 348.54V339.06C139.918 338.927 139.958 338.82 140.038 338.74C140.131 338.647 140.244 338.6 140.378 338.6H141.338C141.471 338.6 141.578 338.647 141.658 338.74C141.751 338.82 141.798 338.927 141.798 339.06V348.54C141.798 348.673 141.751 348.787 141.658 348.88C141.578 348.96 141.471 349 141.338 349H140.378ZM145.241 349C145.108 349 144.995 348.96 144.901 348.88C144.821 348.787 144.781 348.673 144.781 348.54V335.26C144.781 335.127 144.821 335.02 144.901 334.94C144.995 334.847 145.108 334.8 145.241 334.8H146.181C146.315 334.8 146.421 334.847 146.501 334.94C146.595 335.02 146.641 335.127 146.641 335.26V342.22L150.581 338.94C150.621 338.913 150.688 338.86 150.781 338.78C150.875 338.713 150.961 338.667 151.041 338.64C151.135 338.613 151.248 338.6 151.381 338.6H152.441C152.561 338.6 152.661 338.64 152.741 338.72C152.821 338.8 152.861 338.9 152.861 339.02C152.861 339.167 152.781 339.293 152.621 339.4L148.001 343.24L153.121 348.22C153.281 348.353 153.361 348.473 153.361 348.58C153.361 348.7 153.321 348.8 153.241 348.88C153.161 348.96 153.061 349 152.941 349H151.901C151.701 349 151.555 348.98 151.461 348.94C151.381 348.9 151.261 348.807 151.101 348.66L146.641 344.4V348.54C146.641 348.673 146.595 348.787 146.501 348.88C146.421 348.96 146.315 349 146.181 349H145.241Z" fill="#001B36"/>
<path d="M58.9284 283C58.283 283 57.7184 282.758 57.2344 282.274C56.7504 281.79 56.5084 281.225 56.5084 280.58C56.5084 279.935 56.5487 279.491 56.6294 279.249L86.6374 200.962C87.2827 199.187 88.5734 198.3 90.5094 198.3H98.7374C100.673 198.3 101.964 199.187 102.609 200.962L132.496 279.249L132.738 280.58C132.738 281.225 132.496 281.79 132.012 282.274C131.528 282.758 130.964 283 130.318 283H124.147C123.26 283 122.574 282.798 122.09 282.395C121.606 281.911 121.284 281.427 121.122 280.943L114.467 263.761H74.7794L68.1244 280.943C67.963 281.427 67.6 281.911 67.0354 282.395C66.5514 282.798 65.906 283 65.0994 283H58.9284ZM110.958 253.355L94.6234 210.4L78.2884 253.355H110.958ZM161.648 284.21C157.695 284.21 154.025 283.403 150.637 281.79C147.249 280.177 144.547 277.999 142.53 275.256C140.594 272.433 139.626 269.327 139.626 265.939C139.626 260.615 141.804 256.259 146.16 252.871C150.597 249.402 156.566 247.144 164.068 246.095L182.097 243.554V240.045C182.097 231.817 177.378 227.703 167.94 227.703C164.391 227.703 161.487 228.469 159.228 230.002C156.969 231.454 155.275 233.188 154.146 235.205C153.904 235.931 153.581 236.455 153.178 236.778C152.855 237.101 152.371 237.262 151.726 237.262H146.523C145.797 237.262 145.152 237.02 144.587 236.536C144.103 235.971 143.861 235.326 143.861 234.6C143.942 232.664 144.829 230.486 146.523 228.066C148.298 225.565 151 223.428 154.63 221.653C158.26 219.798 162.737 218.87 168.061 218.87C177.096 218.87 183.589 221.008 187.542 225.283C191.495 229.478 193.471 234.721 193.471 241.013V280.217C193.471 281.024 193.189 281.709 192.624 282.274C192.14 282.758 191.495 283 190.688 283H185.122C184.315 283 183.63 282.758 183.065 282.274C182.581 281.709 182.339 281.024 182.339 280.217V275.014C180.564 277.595 177.983 279.773 174.595 281.548C171.207 283.323 166.891 284.21 161.648 284.21ZM164.189 275.135C169.432 275.135 173.708 273.441 177.015 270.053C180.403 266.584 182.097 261.623 182.097 255.17V251.782L168.061 253.839C162.334 254.646 158.018 256.017 155.114 257.953C152.21 259.808 150.758 262.188 150.758 265.092C150.758 268.319 152.089 270.819 154.751 272.594C157.413 274.288 160.559 275.135 164.189 275.135Z" fill="#001B36"/>
<path d="M8 49H88" stroke="#C9D6DF" stroke-width="2" stroke-linecap="round"/>
<g filter="url(#filter1_d)">
<rect x="8" y="464" width="240" height="330" rx="8" fill="white"/>
<rect x="9" y="465" width="238" height="328" rx="7" stroke="#F0F5F9" stroke-width="2"/>
</g>
<path d="M80.9794 707L77.0794 693.8H78.7394L81.9994 705.54L85.0994 693.8H86.9194L90.0194 705.58L93.2794 693.8H94.8594L90.9794 707H88.9994L86.6594 698.44L85.9794 695.46H85.9594L85.2794 698.44L82.9594 707H80.9794ZM100.895 696.8C101.841 696.8 102.675 697.007 103.395 697.42C104.128 697.833 104.701 698.433 105.115 699.22C105.528 699.993 105.735 700.92 105.735 702C105.735 703.08 105.528 704.013 105.115 704.8C104.701 705.573 104.128 706.167 103.395 706.58C102.675 706.993 101.841 707.2 100.895 707.2C99.9612 707.2 99.1279 706.993 98.3945 706.58C97.6612 706.167 97.0879 705.573 96.6745 704.8C96.2612 704.013 96.0545 703.08 96.0545 702C96.0545 700.92 96.2612 699.993 96.6745 699.22C97.0879 698.433 97.6612 697.833 98.3945 697.42C99.1279 697.007 99.9612 696.8 100.895 696.8ZM100.895 698.18C99.8812 698.18 99.0879 698.52 98.5145 699.2C97.9412 699.88 97.6545 700.813 97.6545 702C97.6545 703.187 97.9412 704.12 98.5145 704.8C99.0879 705.48 99.8812 705.82 100.895 705.82C101.908 705.82 102.701 705.48 103.275 704.8C103.848 704.12 104.135 703.187 104.135 702C104.135 700.813 103.848 699.88 103.275 699.2C102.701 698.52 101.908 698.18 100.895 698.18ZM108.747 707V697H110.047L110.267 698.64C110.827 697.413 111.893 696.8 113.467 696.8C113.64 696.8 113.827 696.813 114.027 696.84C114.24 696.867 114.42 696.92 114.567 697L114.287 698.46C114.14 698.407 113.98 698.367 113.807 698.34C113.633 698.313 113.387 698.3 113.067 698.3C112.653 698.3 112.233 698.42 111.807 698.66C111.393 698.9 111.047 699.267 110.767 699.76C110.487 700.24 110.347 700.853 110.347 701.6V707H108.747ZM125.691 697L121.791 700.9L125.931 707H123.991L120.631 702.06L118.511 704.18V707H116.911V692.4H118.511V702.18L123.671 697H125.691ZM139.166 693.6C140.326 693.6 141.326 693.84 142.166 694.32C143.006 694.787 143.706 695.48 144.266 696.4L142.926 697.44C142.432 696.587 141.872 695.987 141.246 695.64C140.632 695.28 139.886 695.1 139.006 695.1C137.939 695.1 137.159 695.313 136.666 695.74C136.172 696.167 135.926 696.687 135.926 697.3C135.926 697.767 136.072 698.18 136.366 698.54C136.659 698.887 137.246 699.16 138.126 699.36L140.986 700C142.252 700.28 143.132 700.707 143.626 701.28C144.132 701.84 144.386 702.54 144.386 703.38C144.386 704.127 144.172 704.793 143.746 705.38C143.332 705.953 142.746 706.4 141.986 706.72C141.226 707.04 140.332 707.2 139.306 707.2C137.879 707.2 136.699 706.92 135.766 706.36C134.832 705.787 134.119 705.093 133.626 704.28L135.026 703.14C135.412 703.9 135.959 704.52 136.666 705C137.386 705.467 138.299 705.7 139.406 705.7C140.432 705.7 141.239 705.513 141.826 705.14C142.426 704.767 142.726 704.227 142.726 703.52C142.726 703.093 142.586 702.713 142.306 702.38C142.026 702.033 141.499 701.773 140.726 701.6L137.626 700.9C136.399 700.633 135.526 700.2 135.006 699.6C134.499 699 134.246 698.307 134.246 697.52C134.246 696.813 134.439 696.167 134.826 695.58C135.226 694.98 135.792 694.5 136.526 694.14C137.272 693.78 138.152 693.6 139.166 693.6ZM153.083 700.54C153.083 699.793 152.883 699.22 152.483 698.82C152.083 698.407 151.516 698.2 150.783 698.2C150.089 698.2 149.503 698.353 149.023 698.66C148.543 698.953 148.189 699.433 147.963 700.1L146.663 699.3C146.929 698.553 147.423 697.953 148.143 697.5C148.863 697.033 149.756 696.8 150.823 696.8C151.543 696.8 152.196 696.927 152.783 697.18C153.369 697.42 153.829 697.793 154.163 698.3C154.509 698.793 154.683 699.433 154.683 700.22V705.06C154.683 705.54 154.936 705.78 155.443 705.78C155.696 705.78 155.943 705.747 156.183 705.68L156.103 706.94C155.836 707.073 155.489 707.14 155.063 707.14C154.569 707.14 154.143 707.02 153.783 706.78C153.436 706.54 153.209 706.173 153.103 705.68C152.756 706.2 152.283 706.587 151.683 706.84C151.083 707.08 150.489 707.2 149.903 707.2C149.316 707.2 148.769 707.1 148.263 706.9C147.756 706.7 147.349 706.4 147.043 706C146.749 705.587 146.603 705.08 146.603 704.48C146.603 703.733 146.849 703.12 147.343 702.64C147.849 702.147 148.549 701.813 149.443 701.64L153.083 700.92V700.54ZM148.243 704.4C148.243 704.813 148.403 705.153 148.723 705.42C149.056 705.673 149.523 705.8 150.123 705.8C150.643 705.8 151.123 705.713 151.563 705.54C152.016 705.353 152.383 705.08 152.663 704.72C152.943 704.347 153.083 703.873 153.083 703.3V702.24L150.183 702.84C149.529 702.973 149.043 703.16 148.723 703.4C148.403 703.64 148.243 703.973 148.243 704.4ZM158.571 707V697H159.971L160.071 698.56C160.418 697.933 160.891 697.487 161.491 697.22C162.091 696.94 162.738 696.8 163.431 696.8C164.151 696.8 164.804 696.94 165.391 697.22C165.978 697.487 166.444 697.9 166.791 698.46C167.151 699.02 167.331 699.733 167.331 700.6V707H165.731V701.16C165.731 700.053 165.491 699.287 165.011 698.86C164.544 698.42 163.964 698.2 163.271 698.2C162.791 698.2 162.311 698.313 161.831 698.54C161.351 698.767 160.951 699.133 160.631 699.64C160.324 700.147 160.171 700.827 160.171 701.68V707H158.571ZM174.554 707.2C173.58 707.2 172.68 706.993 171.854 706.58C171.04 706.167 170.414 705.58 169.974 704.82L171.334 703.84C171.627 704.453 172.054 704.933 172.614 705.28C173.187 705.627 173.874 705.8 174.674 705.8C175.38 705.8 175.934 705.667 176.334 705.4C176.734 705.12 176.934 704.76 176.934 704.32C176.934 704.04 176.84 703.787 176.654 703.56C176.48 703.32 176.14 703.147 175.634 703.04L173.234 702.54C172.26 702.34 171.56 702.007 171.134 701.54C170.72 701.073 170.514 700.493 170.514 699.8C170.514 699.253 170.667 698.753 170.974 698.3C171.294 697.847 171.74 697.487 172.314 697.22C172.9 696.94 173.587 696.8 174.374 696.8C175.36 696.8 176.194 696.993 176.874 697.38C177.554 697.767 178.06 698.313 178.394 699.02L177.054 699.9C176.827 699.313 176.46 698.887 175.954 698.62C175.447 698.34 174.92 698.2 174.374 698.2C173.654 698.2 173.094 698.347 172.694 698.64C172.294 698.933 172.094 699.3 172.094 699.74C172.094 700.033 172.194 700.307 172.394 700.56C172.594 700.8 172.967 700.973 173.514 701.08L176.014 701.6C176.947 701.787 177.6 702.093 177.974 702.52C178.347 702.947 178.534 703.467 178.534 704.08C178.534 705.027 178.167 705.787 177.434 706.36C176.7 706.92 175.74 707.2 174.554 707.2Z" fill="#001B36"/>
<path d="M57.439 653L88.536 573.14H100.031L131.007 653H120.722L112.252 630.857H76.073L67.603 653H57.439ZM90.472 593.105L79.582 621.782H108.743L97.974 593.468L94.223 582.336H93.981L90.472 593.105ZM180.757 613.917C180.757 609.4 179.547 605.931 177.127 603.511C174.707 601.01 171.279 599.76 166.842 599.76C162.647 599.76 159.098 600.688 156.194 602.543C153.29 604.318 151.152 607.222 149.781 611.255L141.916 606.415C143.529 601.898 146.514 598.268 150.87 595.525C155.226 592.702 160.631 591.29 167.084 591.29C171.44 591.29 175.393 592.056 178.942 593.589C182.491 595.041 185.274 597.3 187.291 600.365C189.388 603.35 190.437 607.222 190.437 611.981V641.263C190.437 644.167 191.97 645.619 195.035 645.619C196.568 645.619 198.06 645.417 199.512 645.014L199.028 652.637C197.415 653.444 195.317 653.847 192.736 653.847C189.751 653.847 187.17 653.121 184.992 651.669C182.895 650.217 181.523 647.999 180.878 645.014C178.781 648.16 175.917 650.499 172.287 652.032C168.657 653.484 165.067 654.21 161.518 654.21C157.969 654.21 154.661 653.605 151.596 652.395C148.531 651.185 146.07 649.37 144.215 646.95C142.44 644.449 141.553 641.384 141.553 637.754C141.553 633.237 143.045 629.526 146.03 626.622C149.095 623.637 153.33 621.621 158.735 620.572L180.757 616.216V613.917ZM151.475 637.27C151.475 639.771 152.443 641.828 154.379 643.441C156.396 644.974 159.219 645.74 162.849 645.74C165.995 645.74 168.899 645.216 171.561 644.167C174.304 643.038 176.522 641.384 178.216 639.206C179.91 636.947 180.757 634.084 180.757 630.615V624.202L163.212 627.832C159.259 628.639 156.315 629.768 154.379 631.22C152.443 632.672 151.475 634.689 151.475 637.27Z" fill="#001B36"/>
<path d="M273.404 563L287.282 527.36H292.412L306.236 563H301.646L297.866 553.118H281.72L277.94 563H273.404ZM288.146 536.27L283.286 549.068H296.3L291.494 536.432L289.82 531.464H289.712L288.146 536.27ZM328.438 545.558C328.438 543.542 327.898 541.994 326.818 540.914C325.738 539.798 324.208 539.24 322.228 539.24C320.356 539.24 318.772 539.654 317.476 540.482C316.18 541.274 315.226 542.57 314.614 544.37L311.104 542.21C311.824 540.194 313.156 538.574 315.1 537.35C317.044 536.09 319.456 535.46 322.336 535.46C324.28 535.46 326.044 535.802 327.628 536.486C329.212 537.134 330.454 538.142 331.354 539.51C332.29 540.842 332.758 542.57 332.758 544.694V557.762C332.758 559.058 333.442 559.706 334.81 559.706C335.494 559.706 336.16 559.616 336.808 559.436L336.592 562.838C335.872 563.198 334.936 563.378 333.784 563.378C332.452 563.378 331.3 563.054 330.328 562.406C329.392 561.758 328.78 560.768 328.492 559.436C327.556 560.84 326.278 561.884 324.658 562.568C323.038 563.216 321.436 563.54 319.852 563.54C318.268 563.54 316.792 563.27 315.424 562.73C314.056 562.19 312.958 561.38 312.13 560.3C311.338 559.184 310.942 557.816 310.942 556.196C310.942 554.18 311.608 552.524 312.94 551.228C314.308 549.896 316.198 548.996 318.61 548.528L328.438 546.584V545.558ZM315.37 555.98C315.37 557.096 315.802 558.014 316.666 558.734C317.566 559.418 318.826 559.76 320.446 559.76C321.85 559.76 323.146 559.526 324.334 559.058C325.558 558.554 326.548 557.816 327.304 556.844C328.06 555.836 328.438 554.558 328.438 553.01V550.148L320.608 551.768C318.844 552.128 317.53 552.632 316.666 553.28C315.802 553.928 315.37 554.828 315.37 555.98Z" fill="#001B36"/>
<path d="M366.623 532.062V538H364.963V523.723H368.879C370.63 523.723 371.923 524.058 372.756 524.729C373.596 525.399 374.016 526.408 374.016 527.756C374.016 529.644 373.059 530.92 371.145 531.584L375.021 538H373.059L369.602 532.062H366.623ZM366.623 530.637H368.898C370.07 530.637 370.93 530.406 371.477 529.943C372.023 529.475 372.297 528.775 372.297 527.844C372.297 526.9 372.017 526.219 371.457 525.803C370.904 525.386 370.012 525.178 368.781 525.178H366.623V530.637ZM381.604 538.195C380.021 538.195 378.771 537.714 377.854 536.75C376.942 535.786 376.486 534.449 376.486 532.736C376.486 531.011 376.91 529.641 377.756 528.625C378.609 527.609 379.751 527.102 381.184 527.102C382.525 527.102 383.586 527.544 384.367 528.43C385.148 529.309 385.539 530.471 385.539 531.916V532.941H378.166C378.199 534.198 378.514 535.152 379.113 535.803C379.719 536.454 380.568 536.779 381.662 536.779C382.814 536.779 383.954 536.538 385.08 536.057V537.502C384.507 537.749 383.964 537.925 383.449 538.029C382.941 538.14 382.326 538.195 381.604 538.195ZM381.164 528.459C380.305 528.459 379.618 528.739 379.104 529.299C378.596 529.859 378.296 530.633 378.205 531.623H383.801C383.801 530.601 383.573 529.82 383.117 529.279C382.661 528.732 382.01 528.459 381.164 528.459ZM397.072 527.297V528.322L395.09 528.557C395.272 528.785 395.435 529.084 395.578 529.455C395.721 529.82 395.793 530.233 395.793 530.695C395.793 531.743 395.435 532.58 394.719 533.205C394.003 533.83 393.02 534.143 391.77 534.143C391.451 534.143 391.151 534.117 390.871 534.064C390.181 534.429 389.836 534.888 389.836 535.441C389.836 535.734 389.956 535.952 390.197 536.096C390.438 536.232 390.852 536.301 391.438 536.301H393.332C394.491 536.301 395.38 536.545 395.998 537.033C396.623 537.521 396.936 538.231 396.936 539.162C396.936 540.347 396.46 541.249 395.51 541.867C394.559 542.492 393.173 542.805 391.35 542.805C389.95 542.805 388.869 542.544 388.107 542.023C387.352 541.503 386.975 540.767 386.975 539.816C386.975 539.165 387.183 538.602 387.6 538.127C388.016 537.652 388.602 537.329 389.357 537.16C389.084 537.036 388.853 536.844 388.664 536.584C388.482 536.324 388.391 536.021 388.391 535.676C388.391 535.285 388.495 534.943 388.703 534.65C388.911 534.357 389.24 534.074 389.689 533.801C389.136 533.573 388.684 533.186 388.332 532.639C387.987 532.092 387.814 531.467 387.814 530.764C387.814 529.592 388.166 528.69 388.869 528.059C389.572 527.421 390.568 527.102 391.857 527.102C392.417 527.102 392.922 527.167 393.371 527.297H397.072ZM388.537 539.797C388.537 540.376 388.781 540.816 389.27 541.115C389.758 541.415 390.458 541.564 391.369 541.564C392.73 541.564 393.736 541.359 394.387 540.949C395.044 540.546 395.373 539.995 395.373 539.299C395.373 538.719 395.194 538.316 394.836 538.088C394.478 537.867 393.804 537.756 392.814 537.756H390.871C390.135 537.756 389.562 537.932 389.152 538.283C388.742 538.635 388.537 539.139 388.537 539.797ZM389.416 530.725C389.416 531.473 389.628 532.04 390.051 532.424C390.474 532.808 391.063 533 391.818 533C393.4 533 394.191 532.232 394.191 530.695C394.191 529.087 393.391 528.283 391.789 528.283C391.027 528.283 390.441 528.488 390.031 528.898C389.621 529.309 389.416 529.917 389.416 530.725ZM400.793 527.297V534.24C400.793 535.113 400.992 535.764 401.389 536.193C401.786 536.623 402.408 536.838 403.254 536.838C404.374 536.838 405.191 536.532 405.705 535.92C406.226 535.308 406.486 534.309 406.486 532.922V527.297H408.107V538H406.77L406.535 536.564H406.447C406.115 537.092 405.653 537.495 405.061 537.775C404.475 538.055 403.804 538.195 403.049 538.195C401.747 538.195 400.77 537.886 400.119 537.268C399.475 536.649 399.152 535.66 399.152 534.299V527.297H400.793ZM413.176 538H411.555V522.805H413.176V538ZM423.195 538L422.873 536.477H422.795C422.261 537.147 421.727 537.603 421.193 537.844C420.666 538.078 420.005 538.195 419.211 538.195C418.15 538.195 417.316 537.922 416.711 537.375C416.112 536.828 415.812 536.05 415.812 535.041C415.812 532.88 417.541 531.747 420.998 531.643L422.814 531.584V530.92C422.814 530.08 422.632 529.462 422.268 529.064C421.91 528.661 421.333 528.459 420.539 528.459C419.647 528.459 418.638 528.732 417.512 529.279L417.014 528.039C417.541 527.753 418.117 527.528 418.742 527.365C419.374 527.202 420.005 527.121 420.637 527.121C421.913 527.121 422.857 527.404 423.469 527.971C424.087 528.537 424.396 529.445 424.396 530.695V538H423.195ZM419.533 536.857C420.542 536.857 421.333 536.581 421.906 536.027C422.486 535.474 422.775 534.699 422.775 533.703V532.736L421.154 532.805C419.865 532.85 418.934 533.052 418.361 533.41C417.795 533.762 417.512 534.312 417.512 535.061C417.512 535.646 417.688 536.092 418.039 536.398C418.397 536.704 418.895 536.857 419.533 536.857ZM432.629 527.102C433.104 527.102 433.531 527.141 433.908 527.219L433.684 528.723C433.241 528.625 432.85 528.576 432.512 528.576C431.646 528.576 430.904 528.928 430.285 529.631C429.673 530.334 429.367 531.21 429.367 532.258V538H427.746V527.297H429.084L429.27 529.279H429.348C429.745 528.583 430.223 528.046 430.783 527.668C431.343 527.29 431.958 527.102 432.629 527.102Z" fill="#001B36"/>
<path d="M371.828 565.375H370.133V568H368.891V565.375H363.336V564.242L368.758 556.516H370.133V564.195H371.828V565.375ZM368.891 564.195V560.398C368.891 559.654 368.917 558.812 368.969 557.875H368.906C368.656 558.375 368.422 558.789 368.203 559.117L364.633 564.195H368.891ZM380.508 562.273C380.508 564.247 380.195 565.721 379.57 566.695C378.951 567.669 378 568.156 376.719 568.156C375.49 568.156 374.555 567.659 373.914 566.664C373.273 565.664 372.953 564.201 372.953 562.273C372.953 560.284 373.263 558.807 373.883 557.844C374.503 556.88 375.448 556.398 376.719 556.398C377.958 556.398 378.898 556.901 379.539 557.906C380.185 558.911 380.508 560.367 380.508 562.273ZM374.266 562.273C374.266 563.935 374.461 565.146 374.852 565.906C375.242 566.661 375.865 567.039 376.719 567.039C377.583 567.039 378.208 566.656 378.594 565.891C378.984 565.12 379.18 563.914 379.18 562.273C379.18 560.633 378.984 559.432 378.594 558.672C378.208 557.906 377.583 557.523 376.719 557.523C375.865 557.523 375.242 557.901 374.852 558.656C374.461 559.406 374.266 560.612 374.266 562.273ZM389.664 562.273C389.664 564.247 389.352 565.721 388.727 566.695C388.107 567.669 387.156 568.156 385.875 568.156C384.646 568.156 383.711 567.659 383.07 566.664C382.43 565.664 382.109 564.201 382.109 562.273C382.109 560.284 382.419 558.807 383.039 557.844C383.659 556.88 384.604 556.398 385.875 556.398C387.115 556.398 388.055 556.901 388.695 557.906C389.341 558.911 389.664 560.367 389.664 562.273ZM383.422 562.273C383.422 563.935 383.617 565.146 384.008 565.906C384.398 566.661 385.021 567.039 385.875 567.039C386.74 567.039 387.365 566.656 387.75 565.891C388.141 565.12 388.336 563.914 388.336 562.273C388.336 560.633 388.141 559.432 387.75 558.672C387.365 557.906 386.74 557.523 385.875 557.523C385.021 557.523 384.398 557.901 384.008 558.656C383.617 559.406 383.422 560.612 383.422 562.273Z" fill="#001B36"/>
<path d="M272.216 731L284.744 695.36H295.868L308.342 731H298.784L296.354 722.954H284.042L281.558 731H272.216ZM288.686 708.05L285.986 716.636H294.41L291.818 708.104L290.252 702.488H290.144L288.686 708.05ZM326.905 713.882C326.905 712.622 326.545 711.632 325.825 710.912C325.141 710.156 324.205 709.778 323.017 709.778C321.829 709.778 320.803 710.084 319.939 710.696C319.111 711.272 318.535 712.316 318.211 713.828L310.435 711.992C310.939 709.4 312.271 707.33 314.431 705.782C316.591 704.234 319.633 703.46 323.557 703.46C327.517 703.46 330.577 704.342 332.737 706.106C334.933 707.834 336.031 710.372 336.031 713.72V723.602C336.031 725.006 336.661 725.708 337.921 725.708C338.569 725.708 339.091 725.636 339.487 725.492L338.947 730.73C337.867 731.234 336.553 731.486 335.005 731.486C333.313 731.486 331.855 731.162 330.631 730.514C329.407 729.83 328.579 728.804 328.147 727.436C327.391 728.84 326.185 729.884 324.529 730.568C322.909 731.216 321.181 731.54 319.345 731.54C316.573 731.54 314.359 730.91 312.703 729.65C311.083 728.354 310.273 726.5 310.273 724.088C310.273 722.144 310.849 720.542 312.001 719.282C313.189 717.986 315.043 717.086 317.563 716.582L326.905 714.638V713.882ZM319.345 723.224C319.345 724.016 319.633 724.61 320.209 725.006C320.785 725.402 321.469 725.6 322.261 725.6C323.485 725.6 324.565 725.24 325.501 724.52C326.437 723.764 326.905 722.594 326.905 721.01V719.498L322.531 720.416C321.451 720.632 320.641 720.956 320.101 721.388C319.597 721.784 319.345 722.396 319.345 723.224Z" fill="#001B36"/>
<path d="M364.963 691.723H368.996C370.891 691.723 372.261 692.006 373.107 692.572C373.954 693.139 374.377 694.034 374.377 695.258C374.377 696.104 374.139 696.804 373.664 697.357C373.195 697.904 372.508 698.259 371.604 698.422V698.52C373.771 698.891 374.855 700.03 374.855 701.938C374.855 703.214 374.423 704.21 373.557 704.926C372.697 705.642 371.493 706 369.943 706H364.963V691.723ZM366.623 697.836H369.357C370.529 697.836 371.372 697.654 371.887 697.289C372.401 696.918 372.658 696.296 372.658 695.424C372.658 694.623 372.372 694.047 371.799 693.695C371.226 693.337 370.314 693.158 369.064 693.158H366.623V697.836ZM366.623 699.242V704.584H369.602C370.754 704.584 371.62 704.363 372.199 703.92C372.785 703.471 373.078 702.771 373.078 701.82C373.078 700.935 372.779 700.284 372.18 699.867C371.587 699.451 370.682 699.242 369.465 699.242H366.623ZM386.926 700.639C386.926 702.383 386.486 703.747 385.607 704.73C384.729 705.707 383.514 706.195 381.965 706.195C381.008 706.195 380.158 705.971 379.416 705.521C378.674 705.072 378.101 704.428 377.697 703.588C377.294 702.748 377.092 701.765 377.092 700.639C377.092 698.894 377.528 697.536 378.4 696.566C379.273 695.59 380.484 695.102 382.033 695.102C383.531 695.102 384.719 695.6 385.598 696.596C386.483 697.592 386.926 698.939 386.926 700.639ZM378.771 700.639C378.771 702.006 379.045 703.048 379.592 703.764C380.139 704.48 380.943 704.838 382.004 704.838C383.065 704.838 383.869 704.483 384.416 703.773C384.969 703.057 385.246 702.012 385.246 700.639C385.246 699.278 384.969 698.246 384.416 697.543C383.869 696.833 383.059 696.479 381.984 696.479C380.923 696.479 380.122 696.827 379.582 697.523C379.042 698.22 378.771 699.258 378.771 700.639ZM391.398 706H389.777V690.805H391.398V706ZM402.121 704.564H402.033C401.285 705.652 400.165 706.195 398.674 706.195C397.274 706.195 396.184 705.717 395.402 704.76C394.628 703.803 394.24 702.442 394.24 700.678C394.24 698.913 394.631 697.543 395.412 696.566C396.193 695.59 397.281 695.102 398.674 695.102C400.126 695.102 401.239 695.629 402.014 696.684H402.141L402.072 695.912L402.033 695.16V690.805H403.654V706H402.336L402.121 704.564ZM398.879 704.838C399.986 704.838 400.786 704.538 401.281 703.939C401.783 703.334 402.033 702.361 402.033 701.02V700.678C402.033 699.161 401.779 698.08 401.271 697.436C400.77 696.785 399.966 696.459 398.859 696.459C397.909 696.459 397.18 696.83 396.672 697.572C396.171 698.308 395.92 699.35 395.92 700.697C395.92 702.064 396.171 703.096 396.672 703.793C397.173 704.49 397.909 704.838 398.879 704.838Z" fill="#001B36"/>
<path d="M365.227 736L369.961 725.773H363.734V724.578H371.336V725.617L366.664 736H365.227ZM380.508 730.273C380.508 732.247 380.195 733.721 379.57 734.695C378.951 735.669 378 736.156 376.719 736.156C375.49 736.156 374.555 735.659 373.914 734.664C373.273 733.664 372.953 732.201 372.953 730.273C372.953 728.284 373.263 726.807 373.883 725.844C374.503 724.88 375.448 724.398 376.719 724.398C377.958 724.398 378.898 724.901 379.539 725.906C380.185 726.911 380.508 728.367 380.508 730.273ZM374.266 730.273C374.266 731.935 374.461 733.146 374.852 733.906C375.242 734.661 375.865 735.039 376.719 735.039C377.583 735.039 378.208 734.656 378.594 733.891C378.984 733.12 379.18 731.914 379.18 730.273C379.18 728.633 378.984 727.432 378.594 726.672C378.208 725.906 377.583 725.523 376.719 725.523C375.865 725.523 375.242 725.901 374.852 726.656C374.461 727.406 374.266 728.612 374.266 730.273ZM389.664 730.273C389.664 732.247 389.352 733.721 388.727 734.695C388.107 735.669 387.156 736.156 385.875 736.156C384.646 736.156 383.711 735.659 383.07 734.664C382.43 733.664 382.109 732.201 382.109 730.273C382.109 728.284 382.419 726.807 383.039 725.844C383.659 724.88 384.604 724.398 385.875 724.398C387.115 724.398 388.055 724.901 388.695 725.906C389.341 726.911 389.664 728.367 389.664 730.273ZM383.422 730.273C383.422 731.935 383.617 733.146 384.008 733.906C384.398 734.661 385.021 735.039 385.875 735.039C386.74 735.039 387.365 734.656 387.75 733.891C388.141 733.12 388.336 731.914 388.336 730.273C388.336 728.633 388.141 727.432 387.75 726.672C387.365 725.906 386.74 725.523 385.875 725.523C385.021 725.523 384.398 725.901 384.008 726.656C383.617 727.406 383.422 728.612 383.422 730.273Z" fill="#001B36"/>
<path d="M272.216 647L284.744 611.36H295.868L308.342 647H298.784L296.354 638.954H284.042L281.558 647H272.216ZM288.686 624.05L285.986 632.636H294.41L291.818 624.104L290.252 618.488H290.144L288.686 624.05ZM326.905 629.882C326.905 628.622 326.545 627.632 325.825 626.912C325.141 626.156 324.205 625.778 323.017 625.778C321.829 625.778 320.803 626.084 319.939 626.696C319.111 627.272 318.535 628.316 318.211 629.828L310.435 627.992C310.939 625.4 312.271 623.33 314.431 621.782C316.591 620.234 319.633 619.46 323.557 619.46C327.517 619.46 330.577 620.342 332.737 622.106C334.933 623.834 336.031 626.372 336.031 629.72V639.602C336.031 641.006 336.661 641.708 337.921 641.708C338.569 641.708 339.091 641.636 339.487 641.492L338.947 646.73C337.867 647.234 336.553 647.486 335.005 647.486C333.313 647.486 331.855 647.162 330.631 646.514C329.407 645.83 328.579 644.804 328.147 643.436C327.391 644.84 326.185 645.884 324.529 646.568C322.909 647.216 321.181 647.54 319.345 647.54C316.573 647.54 314.359 646.91 312.703 645.65C311.083 644.354 310.273 642.5 310.273 640.088C310.273 638.144 310.849 636.542 312.001 635.282C313.189 633.986 315.043 633.086 317.563 632.582L326.905 630.638V629.882ZM319.345 639.224C319.345 640.016 319.633 640.61 320.209 641.006C320.785 641.402 321.469 641.6 322.261 641.6C323.485 641.6 324.565 641.24 325.501 640.52C326.437 639.764 326.905 638.594 326.905 637.01V635.498L322.531 636.416C321.451 636.632 320.641 636.956 320.101 637.388C319.597 637.784 319.345 638.396 319.345 639.224Z" fill="#001B36"/>
<path d="M373.02 618.201C373.02 619.458 372.564 620.438 371.652 621.141C370.741 621.844 369.504 622.195 367.941 622.195C366.249 622.195 364.947 621.977 364.035 621.541V619.939C364.621 620.187 365.259 620.382 365.949 620.525C366.639 620.669 367.323 620.74 368 620.74C369.107 620.74 369.94 620.532 370.5 620.115C371.06 619.692 371.34 619.106 371.34 618.357C371.34 617.863 371.239 617.459 371.037 617.146C370.842 616.827 370.51 616.535 370.041 616.268C369.579 616.001 368.872 615.698 367.922 615.359C366.594 614.884 365.643 614.321 365.07 613.67C364.504 613.019 364.221 612.169 364.221 611.121C364.221 610.021 364.634 609.145 365.461 608.494C366.288 607.843 367.382 607.518 368.742 607.518C370.161 607.518 371.467 607.778 372.658 608.299L372.141 609.744C370.962 609.249 369.816 609.002 368.703 609.002C367.824 609.002 367.137 609.191 366.643 609.568C366.148 609.946 365.9 610.47 365.9 611.141C365.9 611.635 365.992 612.042 366.174 612.361C366.356 612.674 366.662 612.964 367.092 613.23C367.528 613.491 368.192 613.781 369.084 614.1C370.581 614.633 371.61 615.206 372.17 615.818C372.736 616.43 373.02 617.225 373.02 618.201ZM380.217 622.195C378.635 622.195 377.385 621.714 376.467 620.75C375.555 619.786 375.1 618.449 375.1 616.736C375.1 615.011 375.523 613.641 376.369 612.625C377.222 611.609 378.365 611.102 379.797 611.102C381.138 611.102 382.199 611.544 382.98 612.43C383.762 613.309 384.152 614.471 384.152 615.916V616.941H376.779C376.812 618.198 377.128 619.152 377.727 619.803C378.332 620.454 379.182 620.779 380.275 620.779C381.428 620.779 382.567 620.538 383.693 620.057V621.502C383.12 621.749 382.577 621.925 382.062 622.029C381.555 622.14 380.939 622.195 380.217 622.195ZM379.777 612.459C378.918 612.459 378.231 612.739 377.717 613.299C377.209 613.859 376.91 614.633 376.818 615.623H382.414C382.414 614.601 382.186 613.82 381.73 613.279C381.275 612.732 380.624 612.459 379.777 612.459ZM400.568 622V615.037C400.568 614.184 400.386 613.546 400.021 613.123C399.657 612.693 399.09 612.479 398.322 612.479C397.313 612.479 396.568 612.768 396.086 613.348C395.604 613.927 395.363 614.819 395.363 616.023V622H393.742V615.037C393.742 614.184 393.56 613.546 393.195 613.123C392.831 612.693 392.261 612.479 391.486 612.479C390.471 612.479 389.725 612.785 389.25 613.396C388.781 614.002 388.547 614.998 388.547 616.385V622H386.926V611.297H388.244L388.508 612.762H388.586C388.892 612.241 389.322 611.834 389.875 611.541C390.435 611.248 391.06 611.102 391.75 611.102C393.423 611.102 394.517 611.707 395.031 612.918H395.109C395.428 612.358 395.891 611.915 396.496 611.59C397.102 611.264 397.792 611.102 398.566 611.102C399.777 611.102 400.682 611.414 401.281 612.039C401.887 612.658 402.189 613.65 402.189 615.018V622H400.568ZM407.16 622H405.539V611.297H407.16V622ZM405.402 608.396C405.402 608.025 405.493 607.755 405.676 607.586C405.858 607.41 406.086 607.322 406.359 607.322C406.62 607.322 406.844 607.41 407.033 607.586C407.222 607.762 407.316 608.032 407.316 608.396C407.316 608.761 407.222 609.035 407.033 609.217C406.844 609.393 406.62 609.48 406.359 609.48C406.086 609.48 405.858 609.393 405.676 609.217C405.493 609.035 405.402 608.761 405.402 608.396ZM410.842 607.723H414.875C416.77 607.723 418.14 608.006 418.986 608.572C419.833 609.139 420.256 610.034 420.256 611.258C420.256 612.104 420.018 612.804 419.543 613.357C419.074 613.904 418.387 614.259 417.482 614.422V614.52C419.65 614.891 420.734 616.03 420.734 617.938C420.734 619.214 420.301 620.21 419.436 620.926C418.576 621.642 417.372 622 415.822 622H410.842V607.723ZM412.502 613.836H415.236C416.408 613.836 417.251 613.654 417.766 613.289C418.28 612.918 418.537 612.296 418.537 611.424C418.537 610.623 418.251 610.047 417.678 609.695C417.105 609.337 416.193 609.158 414.943 609.158H412.502V613.836ZM412.502 615.242V620.584H415.48C416.633 620.584 417.499 620.363 418.078 619.92C418.664 619.471 418.957 618.771 418.957 617.82C418.957 616.935 418.658 616.284 418.059 615.867C417.466 615.451 416.561 615.242 415.344 615.242H412.502ZM432.805 616.639C432.805 618.383 432.365 619.747 431.486 620.73C430.607 621.707 429.393 622.195 427.844 622.195C426.887 622.195 426.037 621.971 425.295 621.521C424.553 621.072 423.98 620.428 423.576 619.588C423.173 618.748 422.971 617.765 422.971 616.639C422.971 614.894 423.407 613.536 424.279 612.566C425.152 611.59 426.363 611.102 427.912 611.102C429.41 611.102 430.598 611.6 431.477 612.596C432.362 613.592 432.805 614.939 432.805 616.639ZM424.65 616.639C424.65 618.006 424.924 619.048 425.471 619.764C426.018 620.48 426.822 620.838 427.883 620.838C428.944 620.838 429.748 620.483 430.295 619.773C430.848 619.057 431.125 618.012 431.125 616.639C431.125 615.278 430.848 614.246 430.295 613.543C429.748 612.833 428.938 612.479 427.863 612.479C426.802 612.479 426.001 612.827 425.461 613.523C424.921 614.22 424.65 615.258 424.65 616.639ZM437.277 622H435.656V606.805H437.277V622ZM448 620.564H447.912C447.163 621.652 446.044 622.195 444.553 622.195C443.153 622.195 442.062 621.717 441.281 620.76C440.507 619.803 440.119 618.442 440.119 616.678C440.119 614.913 440.51 613.543 441.291 612.566C442.072 611.59 443.16 611.102 444.553 611.102C446.005 611.102 447.118 611.629 447.893 612.684H448.02L447.951 611.912L447.912 611.16V606.805H449.533V622H448.215L448 620.564ZM444.758 620.838C445.865 620.838 446.665 620.538 447.16 619.939C447.661 619.334 447.912 618.361 447.912 617.02V616.678C447.912 615.161 447.658 614.08 447.15 613.436C446.649 612.785 445.845 612.459 444.738 612.459C443.788 612.459 443.059 612.83 442.551 613.572C442.049 614.308 441.799 615.35 441.799 616.697C441.799 618.064 442.049 619.096 442.551 619.793C443.052 620.49 443.788 620.838 444.758 620.838Z" fill="#001B36"/>
<path d="M363.914 647.117C363.914 644.872 364.349 643.195 365.219 642.086C366.094 640.971 367.385 640.414 369.094 640.414C369.682 640.414 370.146 640.464 370.484 640.562V641.68C370.083 641.549 369.625 641.484 369.109 641.484C367.885 641.484 366.951 641.867 366.305 642.633C365.659 643.393 365.305 644.591 365.242 646.227H365.336C365.909 645.331 366.815 644.883 368.055 644.883C369.081 644.883 369.888 645.193 370.477 645.812C371.07 646.432 371.367 647.273 371.367 648.336C371.367 649.523 371.042 650.458 370.391 651.141C369.745 651.818 368.87 652.156 367.766 652.156C366.583 652.156 365.646 651.714 364.953 650.828C364.26 649.938 363.914 648.701 363.914 647.117ZM367.75 651.055C368.49 651.055 369.062 650.823 369.469 650.359C369.88 649.891 370.086 649.216 370.086 648.336C370.086 647.581 369.896 646.987 369.516 646.555C369.135 646.122 368.568 645.906 367.812 645.906C367.344 645.906 366.914 646.003 366.523 646.195C366.133 646.388 365.82 646.654 365.586 646.992C365.357 647.331 365.242 647.682 365.242 648.047C365.242 648.583 365.346 649.083 365.555 649.547C365.763 650.01 366.057 650.378 366.438 650.648C366.823 650.919 367.26 651.055 367.75 651.055ZM380.508 646.273C380.508 648.247 380.195 649.721 379.57 650.695C378.951 651.669 378 652.156 376.719 652.156C375.49 652.156 374.555 651.659 373.914 650.664C373.273 649.664 372.953 648.201 372.953 646.273C372.953 644.284 373.263 642.807 373.883 641.844C374.503 640.88 375.448 640.398 376.719 640.398C377.958 640.398 378.898 640.901 379.539 641.906C380.185 642.911 380.508 644.367 380.508 646.273ZM374.266 646.273C374.266 647.935 374.461 649.146 374.852 649.906C375.242 650.661 375.865 651.039 376.719 651.039C377.583 651.039 378.208 650.656 378.594 649.891C378.984 649.12 379.18 647.914 379.18 646.273C379.18 644.633 378.984 643.432 378.594 642.672C378.208 641.906 377.583 641.523 376.719 641.523C375.865 641.523 375.242 641.901 374.852 642.656C374.461 643.406 374.266 644.612 374.266 646.273ZM389.664 646.273C389.664 648.247 389.352 649.721 388.727 650.695C388.107 651.669 387.156 652.156 385.875 652.156C384.646 652.156 383.711 651.659 383.07 650.664C382.43 649.664 382.109 648.201 382.109 646.273C382.109 644.284 382.419 642.807 383.039 641.844C383.659 640.88 384.604 640.398 385.875 640.398C387.115 640.398 388.055 640.901 388.695 641.906C389.341 642.911 389.664 644.367 389.664 646.273ZM383.422 646.273C383.422 647.935 383.617 649.146 384.008 649.906C384.398 650.661 385.021 651.039 385.875 651.039C386.74 651.039 387.365 650.656 387.75 649.891C388.141 649.12 388.336 647.914 388.336 646.273C388.336 644.633 388.141 643.432 387.75 642.672C387.365 641.906 386.74 641.523 385.875 641.523C385.021 641.523 384.398 641.901 384.008 642.656C383.617 643.406 383.422 644.612 383.422 646.273Z" fill="#001B36"/>
<defs>
<filter id="filter0_d" x="0" y="96" width="256" height="346" filterUnits="userSpaceOnUse" color-interpolation-filters="sRGB">
<feFlood flood-opacity="0" result="BackgroundImageFix"/>
<feColorMatrix in="SourceAlpha" type="matrix" values="0 0 0 0 0 0 0 0 0 0 0 0 0 0 0 0 0 0 127 0"/>
<feOffset dy="4"/>
<feGaussianBlur stdDeviation="4"/>
<feColorMatrix type="matrix" values="0 0 0 0 0 0 0 0 0 0 0 0 0 0 0 0 0 0 0.08 0"/>
<feBlend mode="normal" in2="BackgroundImageFix" result="effect1_dropShadow"/>
<feBlend mode="normal" in="SourceGraphic" in2="effect1_dropShadow" result="shape"/>
</filter>
<filter id="filter1_d" x="0" y="460" width="256" height="346" filterUnits="userSpaceOnUse" color-interpolation-filters="sRGB">
<feFlood flood-opacity="0" result="BackgroundImageFix"/>
<feColorMatrix in="SourceAlpha" type="matrix" values="0 0 0 0 0 0 0 0 0 0 0 0 0 0 0 0 0 0 127 0"/>
<feOffset dy="4"/>
<feGaussianBlur stdDeviation="4"/>
<feColorMatrix type="matrix" values="0 0 0 0 0 0 0 0 0 0 0 0 0 0 0 0 0 0 0.08 0"/>
<feBlend mode="normal" in2="BackgroundImageFix" result="effect1_dropShadow"/>
<feBlend mode="normal" in="SourceGraphic" in2="effect1_dropShadow" result="shape"/>
</filter>
</defs>
</svg>
