<svg width="446" height="603" viewBox="0 0 446 603" fill="none" xmlns="http://www.w3.org/2000/svg">
<path d="M82.3555 8.86719H87.1953C89.4688 8.86719 91.1133 9.20703 92.1289 9.88672C93.1445 10.5664 93.6523 11.6406 93.6523 13.1094C93.6523 14.125 93.3672 14.9648 92.7969 15.6289C92.2344 16.2852 91.4102 16.7109 90.3242 16.9062V17.0234C92.9258 17.4688 94.2266 18.8359 94.2266 21.125C94.2266 22.6562 93.707 23.8516 92.668 24.7109C91.6367 25.5703 90.1914 26 88.332 26H82.3555V8.86719ZM84.3477 16.2031H87.6289C89.0352 16.2031 90.0469 15.9844 90.6641 15.5469C91.2812 15.1016 91.5898 14.3555 91.5898 13.3086C91.5898 12.3477 91.2461 11.6562 90.5586 11.2344C89.8711 10.8047 88.7773 10.5898 87.2773 10.5898H84.3477V16.2031ZM84.3477 17.8906V24.3008H87.9219C89.3047 24.3008 90.3438 24.0352 91.0391 23.5039C91.7422 22.9648 92.0938 22.125 92.0938 20.9844C92.0938 19.9219 91.7344 19.1406 91.0156 18.6406C90.3047 18.1406 89.2188 17.8906 87.7578 17.8906H84.3477ZM99.4531 13.1562V21.4883C99.4531 22.5352 99.6914 23.3164 100.168 23.832C100.645 24.3477 101.391 24.6055 102.406 24.6055C103.75 24.6055 104.73 24.2383 105.348 23.5039C105.973 22.7695 106.285 21.5703 106.285 19.9062V13.1562H108.23V26H106.625L106.344 24.2773H106.238C105.84 24.9102 105.285 25.3945 104.574 25.7305C103.871 26.0664 103.066 26.2344 102.16 26.2344C100.598 26.2344 99.4258 25.8633 98.6445 25.1211C97.8711 24.3789 97.4844 23.1914 97.4844 21.5586V13.1562H99.4531ZM116.516 24.6289C116.859 24.6289 117.191 24.6055 117.512 24.5586C117.832 24.5039 118.086 24.4492 118.273 24.3945V25.8828C118.062 25.9844 117.75 26.0664 117.336 26.1289C116.93 26.1992 116.562 26.2344 116.234 26.2344C113.75 26.2344 112.508 24.9258 112.508 22.3086V14.668H110.668V13.7305L112.508 12.9219L113.328 10.1797H114.453V13.1562H118.18V14.668H114.453V22.2266C114.453 23 114.637 23.5938 115.004 24.0078C115.371 24.4219 115.875 24.6289 116.516 24.6289ZM125 24.6289C125.344 24.6289 125.676 24.6055 125.996 24.5586C126.316 24.5039 126.57 24.4492 126.758 24.3945V25.8828C126.547 25.9844 126.234 26.0664 125.82 26.1289C125.414 26.1992 125.047 26.2344 124.719 26.2344C122.234 26.2344 120.992 24.9258 120.992 22.3086V14.668H119.152V13.7305L120.992 12.9219L121.812 10.1797H122.938V13.1562H126.664V14.668H122.938V22.2266C122.938 23 123.121 23.5938 123.488 24.0078C123.855 24.4219 124.359 24.6289 125 24.6289ZM140.422 19.5664C140.422 21.6602 139.895 23.2969 138.84 24.4766C137.785 25.6484 136.328 26.2344 134.469 26.2344C133.32 26.2344 132.301 25.9648 131.41 25.4258C130.52 24.8867 129.832 24.1133 129.348 23.1055C128.863 22.0977 128.621 20.918 128.621 19.5664C128.621 17.4727 129.145 15.8438 130.191 14.6797C131.238 13.5078 132.691 12.9219 134.551 12.9219C136.348 12.9219 137.773 13.5195 138.828 14.7148C139.891 15.9102 140.422 17.5273 140.422 19.5664ZM130.637 19.5664C130.637 21.207 130.965 22.457 131.621 23.3164C132.277 24.1758 133.242 24.6055 134.516 24.6055C135.789 24.6055 136.754 24.1797 137.41 23.3281C138.074 22.4688 138.406 21.2148 138.406 19.5664C138.406 17.9336 138.074 16.6953 137.41 15.8516C136.754 15 135.781 14.5742 134.492 14.5742C133.219 14.5742 132.258 14.9922 131.609 15.8281C130.961 16.6641 130.637 17.9102 130.637 19.5664ZM152.633 26V17.6914C152.633 16.6445 152.395 15.8633 151.918 15.3477C151.441 14.832 150.695 14.5742 149.68 14.5742C148.336 14.5742 147.352 14.9375 146.727 15.6641C146.102 16.3906 145.789 17.5898 145.789 19.2617V26H143.844V13.1562H145.426L145.742 14.9141H145.836C146.234 14.2812 146.793 13.793 147.512 13.4492C148.23 13.0977 149.031 12.9219 149.914 12.9219C151.461 12.9219 152.625 13.2969 153.406 14.0469C154.188 14.7891 154.578 15.9805 154.578 17.6211V26H152.633ZM174.781 21.4414C174.781 22.9492 174.234 24.125 173.141 24.9688C172.047 25.8125 170.562 26.2344 168.688 26.2344C166.656 26.2344 165.094 25.9727 164 25.4492V23.5273C164.703 23.8242 165.469 24.0586 166.297 24.2305C167.125 24.4023 167.945 24.4883 168.758 24.4883C170.086 24.4883 171.086 24.2383 171.758 23.7383C172.43 23.2305 172.766 22.5273 172.766 21.6289C172.766 21.0352 172.645 20.5508 172.402 20.1758C172.168 19.793 171.77 19.4414 171.207 19.1211C170.652 18.8008 169.805 18.4375 168.664 18.0312C167.07 17.4609 165.93 16.7852 165.242 16.0039C164.562 15.2227 164.223 14.2031 164.223 12.9453C164.223 11.625 164.719 10.5742 165.711 9.79297C166.703 9.01172 168.016 8.62109 169.648 8.62109C171.352 8.62109 172.918 8.93359 174.348 9.55859L173.727 11.293C172.312 10.6992 170.938 10.4023 169.602 10.4023C168.547 10.4023 167.723 10.6289 167.129 11.082C166.535 11.5352 166.238 12.1641 166.238 12.9688C166.238 13.5625 166.348 14.0508 166.566 14.4336C166.785 14.8086 167.152 15.1562 167.668 15.4766C168.191 15.7891 168.988 16.1367 170.059 16.5195C171.855 17.1602 173.09 17.8477 173.762 18.582C174.441 19.3164 174.781 20.2695 174.781 21.4414ZM182.141 24.6289C182.484 24.6289 182.816 24.6055 183.137 24.5586C183.457 24.5039 183.711 24.4492 183.898 24.3945V25.8828C183.688 25.9844 183.375 26.0664 182.961 26.1289C182.555 26.1992 182.188 26.2344 181.859 26.2344C179.375 26.2344 178.133 24.9258 178.133 22.3086V14.668H176.293V13.7305L178.133 12.9219L178.953 10.1797H180.078V13.1562H183.805V14.668H180.078V22.2266C180.078 23 180.262 23.5938 180.629 24.0078C180.996 24.4219 181.5 24.6289 182.141 24.6289ZM194.375 26L193.988 24.1719H193.895C193.254 24.9766 192.613 25.5234 191.973 25.8125C191.34 26.0938 190.547 26.2344 189.594 26.2344C188.32 26.2344 187.32 25.9062 186.594 25.25C185.875 24.5938 185.516 23.6602 185.516 22.4492C185.516 19.8555 187.59 18.4961 191.738 18.3711L193.918 18.3008V17.5039C193.918 16.4961 193.699 15.7539 193.262 15.2773C192.832 14.793 192.141 14.5508 191.188 14.5508C190.117 14.5508 188.906 14.8789 187.555 15.5352L186.957 14.0469C187.59 13.7031 188.281 13.4336 189.031 13.2383C189.789 13.043 190.547 12.9453 191.305 12.9453C192.836 12.9453 193.969 13.2852 194.703 13.9648C195.445 14.6445 195.816 15.7344 195.816 17.2344V26H194.375ZM189.98 24.6289C191.191 24.6289 192.141 24.2969 192.828 23.6328C193.523 22.9688 193.871 22.0391 193.871 20.8438V19.6836L191.926 19.7656C190.379 19.8203 189.262 20.0625 188.574 20.4922C187.895 20.9141 187.555 21.5742 187.555 22.4727C187.555 23.1758 187.766 23.7109 188.188 24.0781C188.617 24.4453 189.215 24.6289 189.98 24.6289ZM203.984 24.6289C204.328 24.6289 204.66 24.6055 204.98 24.5586C205.301 24.5039 205.555 24.4492 205.742 24.3945V25.8828C205.531 25.9844 205.219 26.0664 204.805 26.1289C204.398 26.1992 204.031 26.2344 203.703 26.2344C201.219 26.2344 199.977 24.9258 199.977 22.3086V14.668H198.137V13.7305L199.977 12.9219L200.797 10.1797H201.922V13.1562H205.648V14.668H201.922V22.2266C201.922 23 202.105 23.5938 202.473 24.0078C202.84 24.4219 203.344 24.6289 203.984 24.6289ZM213.746 26.2344C211.848 26.2344 210.348 25.6562 209.246 24.5C208.152 23.3438 207.605 21.7383 207.605 19.6836C207.605 17.6133 208.113 15.9688 209.129 14.75C210.152 13.5312 211.523 12.9219 213.242 12.9219C214.852 12.9219 216.125 13.4531 217.062 14.5156C218 15.5703 218.469 16.9648 218.469 18.6992V19.9297H209.621C209.66 21.4375 210.039 22.582 210.758 23.3633C211.484 24.1445 212.504 24.5352 213.816 24.5352C215.199 24.5352 216.566 24.2461 217.918 23.668V25.4023C217.23 25.6992 216.578 25.9102 215.961 26.0352C215.352 26.168 214.613 26.2344 213.746 26.2344ZM213.219 14.5508C212.188 14.5508 211.363 14.8867 210.746 15.5586C210.137 16.2305 209.777 17.1602 209.668 18.3477H216.383C216.383 17.1211 216.109 16.1836 215.562 15.5352C215.016 14.8789 214.234 14.5508 213.219 14.5508ZM230.082 22.4961C230.082 23.6914 229.637 24.6133 228.746 25.2617C227.855 25.9102 226.605 26.2344 224.996 26.2344C223.293 26.2344 221.965 25.9648 221.012 25.4258V23.6211C221.629 23.9336 222.289 24.1797 222.992 24.3594C223.703 24.5391 224.387 24.6289 225.043 24.6289C226.059 24.6289 226.84 24.4688 227.387 24.1484C227.934 23.8203 228.207 23.3242 228.207 22.6602C228.207 22.1602 227.988 21.7344 227.551 21.3828C227.121 21.0234 226.277 20.6016 225.02 20.1172C223.824 19.6719 222.973 19.2852 222.465 18.957C221.965 18.6211 221.59 18.2422 221.34 17.8203C221.098 17.3984 220.977 16.8945 220.977 16.3086C220.977 15.2617 221.402 14.4375 222.254 13.8359C223.105 13.2266 224.273 12.9219 225.758 12.9219C227.141 12.9219 228.492 13.2031 229.812 13.7656L229.121 15.3477C227.832 14.8164 226.664 14.5508 225.617 14.5508C224.695 14.5508 224 14.6953 223.531 14.9844C223.062 15.2734 222.828 15.6719 222.828 16.1797C222.828 16.5234 222.914 16.8164 223.086 17.0586C223.266 17.3008 223.551 17.5312 223.941 17.75C224.332 17.9688 225.082 18.2852 226.191 18.6992C227.715 19.2539 228.742 19.8125 229.273 20.375C229.812 20.9375 230.082 21.6445 230.082 22.4961Z" fill="#001B36"/>
<path d="M80 49H320" stroke="#C9D6DF" stroke-width="2" stroke-linecap="round"/>
<path d="M96.0312 171.27C96.0312 174.098 95.2617 176.262 93.7227 177.762C92.1914 179.254 89.9844 180 87.1016 180H82.3555V162.867H87.6055C90.2695 162.867 92.3398 163.605 93.8164 165.082C95.293 166.559 96.0312 168.621 96.0312 171.27ZM93.9219 171.34C93.9219 169.105 93.3594 167.422 92.2344 166.289C91.1172 165.156 89.4531 164.59 87.2422 164.59H84.3477V178.277H86.7734C89.1484 178.277 90.9336 177.695 92.1289 176.531C93.3242 175.359 93.9219 173.629 93.9219 171.34ZM104.996 180.234C103.098 180.234 101.598 179.656 100.496 178.5C99.4023 177.344 98.8555 175.738 98.8555 173.684C98.8555 171.613 99.3633 169.969 100.379 168.75C101.402 167.531 102.773 166.922 104.492 166.922C106.102 166.922 107.375 167.453 108.312 168.516C109.25 169.57 109.719 170.965 109.719 172.699V173.93H100.871C100.91 175.438 101.289 176.582 102.008 177.363C102.734 178.145 103.754 178.535 105.066 178.535C106.449 178.535 107.816 178.246 109.168 177.668V179.402C108.48 179.699 107.828 179.91 107.211 180.035C106.602 180.168 105.863 180.234 104.996 180.234ZM104.469 168.551C103.438 168.551 102.613 168.887 101.996 169.559C101.387 170.23 101.027 171.16 100.918 172.348H107.633C107.633 171.121 107.359 170.184 106.812 169.535C106.266 168.879 105.484 168.551 104.469 168.551ZM118.836 168.668H115.566V180H113.621V168.668H111.324V167.789L113.621 167.086V166.371C113.621 163.215 115 161.637 117.758 161.637C118.438 161.637 119.234 161.773 120.148 162.047L119.645 163.605C118.895 163.363 118.254 163.242 117.723 163.242C116.988 163.242 116.445 163.488 116.094 163.98C115.742 164.465 115.566 165.246 115.566 166.324V167.156H118.836V168.668ZM129.078 180L128.691 178.172H128.598C127.957 178.977 127.316 179.523 126.676 179.812C126.043 180.094 125.25 180.234 124.297 180.234C123.023 180.234 122.023 179.906 121.297 179.25C120.578 178.594 120.219 177.66 120.219 176.449C120.219 173.855 122.293 172.496 126.441 172.371L128.621 172.301V171.504C128.621 170.496 128.402 169.754 127.965 169.277C127.535 168.793 126.844 168.551 125.891 168.551C124.82 168.551 123.609 168.879 122.258 169.535L121.66 168.047C122.293 167.703 122.984 167.434 123.734 167.238C124.492 167.043 125.25 166.945 126.008 166.945C127.539 166.945 128.672 167.285 129.406 167.965C130.148 168.645 130.52 169.734 130.52 171.234V180H129.078ZM124.684 178.629C125.895 178.629 126.844 178.297 127.531 177.633C128.227 176.969 128.574 176.039 128.574 174.844V173.684L126.629 173.766C125.082 173.82 123.965 174.062 123.277 174.492C122.598 174.914 122.258 175.574 122.258 176.473C122.258 177.176 122.469 177.711 122.891 178.078C123.32 178.445 123.918 178.629 124.684 178.629ZM136.367 167.156V175.488C136.367 176.535 136.605 177.316 137.082 177.832C137.559 178.348 138.305 178.605 139.32 178.605C140.664 178.605 141.645 178.238 142.262 177.504C142.887 176.77 143.199 175.57 143.199 173.906V167.156H145.145V180H143.539L143.258 178.277H143.152C142.754 178.91 142.199 179.395 141.488 179.73C140.785 180.066 139.98 180.234 139.074 180.234C137.512 180.234 136.34 179.863 135.559 179.121C134.785 178.379 134.398 177.191 134.398 175.559V167.156H136.367ZM151.227 180H149.281V161.766H151.227V180ZM159.5 178.629C159.844 178.629 160.176 178.605 160.496 178.559C160.816 178.504 161.07 178.449 161.258 178.395V179.883C161.047 179.984 160.734 180.066 160.32 180.129C159.914 180.199 159.547 180.234 159.219 180.234C156.734 180.234 155.492 178.926 155.492 176.309V168.668H153.652V167.73L155.492 166.922L156.312 164.18H157.438V167.156H161.164V168.668H157.438V176.227C157.438 177 157.621 177.594 157.988 178.008C158.355 178.422 158.859 178.629 159.5 178.629Z" fill="#001B36"/>
<rect x="80" y="231" width="287" height="60" rx="3" fill="#082D40"/>
<path d="M197.546 255.12V267H194.108L190.418 260.574L189.518 258.81H189.5L189.572 261.006V267H186.836V255.12H190.274L193.964 261.546L194.864 263.31H194.882L194.81 261.114V255.12H197.546ZM205.096 254.94C206.296 254.94 207.328 255.186 208.192 255.678C209.068 256.158 209.74 256.854 210.208 257.766C210.676 258.678 210.91 259.776 210.91 261.06C210.91 262.344 210.676 263.442 210.208 264.354C209.74 265.266 209.068 265.968 208.192 266.46C207.328 266.94 206.296 267.18 205.096 267.18C203.884 267.18 202.84 266.94 201.964 266.46C201.1 265.968 200.434 265.266 199.966 264.354C199.498 263.442 199.264 262.344 199.264 261.06C199.264 259.776 199.498 258.678 199.966 257.766C200.434 256.854 201.1 256.158 201.964 255.678C202.84 255.186 203.884 254.94 205.096 254.94ZM205.096 257.37C204.232 257.37 203.572 257.682 203.116 258.306C202.66 258.918 202.432 259.836 202.432 261.06C202.432 262.284 202.66 263.208 203.116 263.832C203.572 264.444 204.232 264.75 205.096 264.75C205.948 264.75 206.602 264.444 207.058 263.832C207.514 263.208 207.742 262.284 207.742 261.06C207.742 259.836 207.514 258.918 207.058 258.306C206.602 257.682 205.948 257.37 205.096 257.37ZM218.299 255.12C219.715 255.12 220.813 255.45 221.593 256.11C222.385 256.77 222.781 257.658 222.781 258.774C222.781 259.662 222.571 260.394 222.151 260.97C221.743 261.534 221.155 261.948 220.387 262.212L223.483 267H220.063L217.525 262.662H215.671V267H212.629V255.12H218.299ZM217.867 260.466C218.467 260.466 218.917 260.346 219.217 260.106C219.517 259.866 219.667 259.482 219.667 258.954C219.667 257.958 219.067 257.46 217.867 257.46H215.671V260.466H217.867ZM238.381 255.12V267H235.645V261.546L235.735 257.892H235.699L232.765 267H230.263L227.329 257.892H227.293L227.383 261.546V267H224.629V255.12H229.039L230.911 261.168L231.577 263.688H231.613L232.297 261.186L234.151 255.12H238.381ZM239.36 267L243.536 255.12H247.244L251.402 267H248.216L247.406 264.318H243.302L242.474 267H239.36ZM244.85 259.35L243.95 262.212H246.758L245.894 259.368L245.372 257.496H245.336L244.85 259.35ZM255.47 264.606H261.428V267H252.374V255.12H255.47V264.606Z" fill="#FFD274"/>
<g filter="url(#filter0_d)">
<rect x="81" y="331" width="285" height="58" rx="2" fill="#082D40" stroke="#FFD274" stroke-width="2"/>
<path d="M197.751 354.12V358.818H202.287V354.12H205.383V366H202.287V361.212H197.751V366H194.655V354.12H197.751ZM212.933 353.94C214.133 353.94 215.165 354.186 216.029 354.678C216.905 355.158 217.577 355.854 218.045 356.766C218.513 357.678 218.747 358.776 218.747 360.06C218.747 361.344 218.513 362.442 218.045 363.354C217.577 364.266 216.905 364.968 216.029 365.46C215.165 365.94 214.133 366.18 212.933 366.18C211.721 366.18 210.677 365.94 209.801 365.46C208.937 364.968 208.271 364.266 207.803 363.354C207.335 362.442 207.101 361.344 207.101 360.06C207.101 358.776 207.335 357.678 207.803 356.766C208.271 355.854 208.937 355.158 209.801 354.678C210.677 354.186 211.721 353.94 212.933 353.94ZM212.933 356.37C212.069 356.37 211.409 356.682 210.953 357.306C210.497 357.918 210.269 358.836 210.269 360.06C210.269 361.284 210.497 362.208 210.953 362.832C211.409 363.444 212.069 363.75 212.933 363.75C213.785 363.75 214.439 363.444 214.895 362.832C215.351 362.208 215.579 361.284 215.579 360.06C215.579 358.836 215.351 357.918 214.895 357.306C214.439 356.682 213.785 356.37 212.933 356.37ZM231.022 354.12L226.81 366H223.174L218.944 354.12H222.202L224.38 361.302L225.028 363.642L225.658 361.338L227.872 354.12H231.022ZM232.027 366V354.12H241.279V356.514H235.123V358.926H240.019V361.176H235.123V363.606H241.513V366H232.027ZM248.642 354.12C250.058 354.12 251.156 354.45 251.936 355.11C252.728 355.77 253.124 356.658 253.124 357.774C253.124 358.662 252.914 359.394 252.494 359.97C252.086 360.534 251.498 360.948 250.73 361.212L253.826 366H250.406L247.868 361.662H246.014V366H242.972V354.12H248.642ZM248.21 359.466C248.81 359.466 249.26 359.346 249.56 359.106C249.86 358.866 250.01 358.482 250.01 357.954C250.01 356.958 249.41 356.46 248.21 356.46H246.014V359.466H248.21Z" fill="#FFD274"/>
</g>
<g filter="url(#filter1_d)">
<rect x="80" y="429" width="287" height="60" rx="3" fill="#FFD274"/>
<path d="M190.069 453.12C191.509 453.12 192.631 453.468 193.435 454.164C194.251 454.848 194.659 455.82 194.659 457.08C194.659 458.34 194.251 459.318 193.435 460.014C192.631 460.698 191.509 461.04 190.069 461.04H187.711V465H184.615V453.12H190.069ZM189.583 458.718C190.891 458.718 191.545 458.172 191.545 457.08C191.545 455.988 190.891 455.442 189.583 455.442H187.711V458.718H189.583ZM201.899 453.12C203.315 453.12 204.413 453.45 205.193 454.11C205.985 454.77 206.381 455.658 206.381 456.774C206.381 457.662 206.171 458.394 205.751 458.97C205.343 459.534 204.755 459.948 203.987 460.212L207.083 465H203.663L201.125 460.662H199.271V465H196.229V453.12H201.899ZM201.467 458.466C202.067 458.466 202.517 458.346 202.817 458.106C203.117 457.866 203.267 457.482 203.267 456.954C203.267 455.958 202.667 455.46 201.467 455.46H199.271V458.466H201.467ZM208.229 465V453.12H217.481V455.514H211.325V457.926H216.221V460.176H211.325V462.606H217.715V465H208.229ZM223.818 452.94C224.922 452.94 225.894 453.114 226.734 453.462C227.586 453.798 228.324 454.296 228.948 454.956L227.454 456.954C226.938 456.414 226.38 456.012 225.78 455.748C225.192 455.472 224.52 455.334 223.764 455.334C223.104 455.334 222.63 455.442 222.342 455.658C222.054 455.874 221.91 456.138 221.91 456.45C221.91 456.702 222.024 456.918 222.252 457.098C222.492 457.266 222.876 457.41 223.404 457.53L225.402 457.98C226.59 458.256 227.46 458.658 228.012 459.186C228.564 459.714 228.84 460.416 228.84 461.292C228.84 462.132 228.624 462.846 228.192 463.434C227.76 464.01 227.166 464.448 226.41 464.748C225.654 465.036 224.79 465.18 223.818 465.18C222.618 465.18 221.52 464.988 220.524 464.604C219.528 464.208 218.736 463.692 218.148 463.056L219.642 460.986C220.086 461.502 220.686 461.934 221.442 462.282C222.198 462.618 222.978 462.786 223.782 462.786C225.03 462.786 225.654 462.42 225.654 461.688C225.654 461.436 225.558 461.226 225.366 461.058C225.186 460.878 224.85 460.728 224.358 460.608L222.162 460.122C221.49 459.978 220.89 459.774 220.362 459.51C219.846 459.246 219.438 458.898 219.138 458.466C218.838 458.022 218.688 457.47 218.688 456.81C218.688 456.066 218.892 455.406 219.3 454.83C219.708 454.242 220.296 453.78 221.064 453.444C221.832 453.108 222.75 452.94 223.818 452.94ZM235.01 452.94C236.114 452.94 237.086 453.114 237.926 453.462C238.778 453.798 239.516 454.296 240.14 454.956L238.646 456.954C238.13 456.414 237.572 456.012 236.972 455.748C236.384 455.472 235.712 455.334 234.956 455.334C234.296 455.334 233.822 455.442 233.534 455.658C233.246 455.874 233.102 456.138 233.102 456.45C233.102 456.702 233.216 456.918 233.444 457.098C233.684 457.266 234.068 457.41 234.596 457.53L236.594 457.98C237.782 458.256 238.652 458.658 239.204 459.186C239.756 459.714 240.032 460.416 240.032 461.292C240.032 462.132 239.816 462.846 239.384 463.434C238.952 464.01 238.358 464.448 237.602 464.748C236.846 465.036 235.982 465.18 235.01 465.18C233.81 465.18 232.712 464.988 231.716 464.604C230.72 464.208 229.928 463.692 229.34 463.056L230.834 460.986C231.278 461.502 231.878 461.934 232.634 462.282C233.39 462.618 234.17 462.786 234.974 462.786C236.222 462.786 236.846 462.42 236.846 461.688C236.846 461.436 236.75 461.226 236.558 461.058C236.378 460.878 236.042 460.728 235.55 460.608L233.354 460.122C232.682 459.978 232.082 459.774 231.554 459.51C231.038 459.246 230.63 458.898 230.33 458.466C230.03 458.022 229.88 457.47 229.88 456.81C229.88 456.066 230.084 455.406 230.492 454.83C230.9 454.242 231.488 453.78 232.256 453.444C233.024 453.108 233.942 452.94 235.01 452.94ZM241.557 465V453.12H250.809V455.514H244.653V457.926H249.549V460.176H244.653V462.606H251.043V465H241.557ZM257.543 453.12C259.403 453.12 260.825 453.636 261.809 454.668C262.805 455.7 263.303 457.164 263.303 459.06C263.303 460.956 262.805 462.42 261.809 463.452C260.825 464.484 259.403 465 257.543 465H252.503V453.12H257.543ZM257.237 462.66C258.245 462.66 258.977 462.36 259.433 461.76C259.901 461.148 260.135 460.248 260.135 459.06C260.135 457.872 259.901 456.978 259.433 456.378C258.977 455.766 258.245 455.46 257.237 455.46H255.599V462.66H257.237Z" fill="#082D40"/>
</g>
<g filter="url(#filter2_d)">
<rect x="80" y="528" width="287" height="60" rx="3" fill="#C9D6DF"/>
<path d="M190.069 552.12C191.509 552.12 192.631 552.468 193.435 553.164C194.251 553.848 194.659 554.82 194.659 556.08C194.659 557.34 194.251 558.318 193.435 559.014C192.631 559.698 191.509 560.04 190.069 560.04H187.711V564H184.615V552.12H190.069ZM189.583 557.718C190.891 557.718 191.545 557.172 191.545 556.08C191.545 554.988 190.891 554.442 189.583 554.442H187.711V557.718H189.583ZM201.899 552.12C203.315 552.12 204.413 552.45 205.193 553.11C205.985 553.77 206.381 554.658 206.381 555.774C206.381 556.662 206.171 557.394 205.751 557.97C205.343 558.534 204.755 558.948 203.987 559.212L207.083 564H203.663L201.125 559.662H199.271V564H196.229V552.12H201.899ZM201.467 557.466C202.067 557.466 202.517 557.346 202.817 557.106C203.117 556.866 203.267 556.482 203.267 555.954C203.267 554.958 202.667 554.46 201.467 554.46H199.271V557.466H201.467ZM208.229 564V552.12H217.481V554.514H211.325V556.926H216.221V559.176H211.325V561.606H217.715V564H208.229ZM223.818 551.94C224.922 551.94 225.894 552.114 226.734 552.462C227.586 552.798 228.324 553.296 228.948 553.956L227.454 555.954C226.938 555.414 226.38 555.012 225.78 554.748C225.192 554.472 224.52 554.334 223.764 554.334C223.104 554.334 222.63 554.442 222.342 554.658C222.054 554.874 221.91 555.138 221.91 555.45C221.91 555.702 222.024 555.918 222.252 556.098C222.492 556.266 222.876 556.41 223.404 556.53L225.402 556.98C226.59 557.256 227.46 557.658 228.012 558.186C228.564 558.714 228.84 559.416 228.84 560.292C228.84 561.132 228.624 561.846 228.192 562.434C227.76 563.01 227.166 563.448 226.41 563.748C225.654 564.036 224.79 564.18 223.818 564.18C222.618 564.18 221.52 563.988 220.524 563.604C219.528 563.208 218.736 562.692 218.148 562.056L219.642 559.986C220.086 560.502 220.686 560.934 221.442 561.282C222.198 561.618 222.978 561.786 223.782 561.786C225.03 561.786 225.654 561.42 225.654 560.688C225.654 560.436 225.558 560.226 225.366 560.058C225.186 559.878 224.85 559.728 224.358 559.608L222.162 559.122C221.49 558.978 220.89 558.774 220.362 558.51C219.846 558.246 219.438 557.898 219.138 557.466C218.838 557.022 218.688 556.47 218.688 555.81C218.688 555.066 218.892 554.406 219.3 553.83C219.708 553.242 220.296 552.78 221.064 552.444C221.832 552.108 222.75 551.94 223.818 551.94ZM235.01 551.94C236.114 551.94 237.086 552.114 237.926 552.462C238.778 552.798 239.516 553.296 240.14 553.956L238.646 555.954C238.13 555.414 237.572 555.012 236.972 554.748C236.384 554.472 235.712 554.334 234.956 554.334C234.296 554.334 233.822 554.442 233.534 554.658C233.246 554.874 233.102 555.138 233.102 555.45C233.102 555.702 233.216 555.918 233.444 556.098C233.684 556.266 234.068 556.41 234.596 556.53L236.594 556.98C237.782 557.256 238.652 557.658 239.204 558.186C239.756 558.714 240.032 559.416 240.032 560.292C240.032 561.132 239.816 561.846 239.384 562.434C238.952 563.01 238.358 563.448 237.602 563.748C236.846 564.036 235.982 564.18 235.01 564.18C233.81 564.18 232.712 563.988 231.716 563.604C230.72 563.208 229.928 562.692 229.34 562.056L230.834 559.986C231.278 560.502 231.878 560.934 232.634 561.282C233.39 561.618 234.17 561.786 234.974 561.786C236.222 561.786 236.846 561.42 236.846 560.688C236.846 560.436 236.75 560.226 236.558 560.058C236.378 559.878 236.042 559.728 235.55 559.608L233.354 559.122C232.682 558.978 232.082 558.774 231.554 558.51C231.038 558.246 230.63 557.898 230.33 557.466C230.03 557.022 229.88 556.47 229.88 555.81C229.88 555.066 230.084 554.406 230.492 553.83C230.9 553.242 231.488 552.78 232.256 552.444C233.024 552.108 233.942 551.94 235.01 551.94ZM241.557 564V552.12H250.809V554.514H244.653V556.926H249.549V559.176H244.653V561.606H251.043V564H241.557ZM257.543 552.12C259.403 552.12 260.825 552.636 261.809 553.668C262.805 554.7 263.303 556.164 263.303 558.06C263.303 559.956 262.805 561.42 261.809 562.452C260.825 563.484 259.403 564 257.543 564H252.503V552.12H257.543ZM257.237 561.66C258.245 561.66 258.977 561.36 259.433 560.76C259.901 560.148 260.135 559.248 260.135 558.06C260.135 556.872 259.901 555.978 259.433 555.378C258.977 554.766 258.245 554.46 257.237 554.46H255.599V561.66H257.237Z" fill="#082D40" fill-opacity="0.2"/>
</g>
<defs>
<filter id="filter0_d" x="76" y="330" width="295" height="68" filterUnits="userSpaceOnUse" color-interpolation-filters="sRGB">
<feFlood flood-opacity="0" result="BackgroundImageFix"/>
<feColorMatrix in="SourceAlpha" type="matrix" values="0 0 0 0 0 0 0 0 0 0 0 0 0 0 0 0 0 0 127 0"/>
<feOffset dy="4"/>
<feGaussianBlur stdDeviation="2"/>
<feColorMatrix type="matrix" values="0 0 0 0 0 0 0 0 0 0 0 0 0 0 0 0 0 0 0.25 0"/>
<feBlend mode="normal" in2="BackgroundImageFix" result="effect1_dropShadow"/>
<feBlend mode="normal" in="SourceGraphic" in2="effect1_dropShadow" result="shape"/>
</filter>
<filter id="filter1_d" x="76" y="429" width="295" height="68" filterUnits="userSpaceOnUse" color-interpolation-filters="sRGB">
<feFlood flood-opacity="0" result="BackgroundImageFix"/>
<feColorMatrix in="SourceAlpha" type="matrix" values="0 0 0 0 0 0 0 0 0 0 0 0 0 0 0 0 0 0 127 0"/>
<feOffset dy="4"/>
<feGaussianBlur stdDeviation="2"/>
<feColorMatrix type="matrix" values="0 0 0 0 0 0 0 0 0 0 0 0 0 0 0 0 0 0 0.25 0"/>
<feBlend mode="normal" in2="BackgroundImageFix" result="effect1_dropShadow"/>
<feBlend mode="normal" in="SourceGraphic" in2="effect1_dropShadow" result="shape"/>
</filter>
<filter id="filter2_d" x="76" y="528" width="295" height="68" filterUnits="userSpaceOnUse" color-interpolation-filters="sRGB">
<feFlood flood-opacity="0" result="BackgroundImageFix"/>
<feColorMatrix in="SourceAlpha" type="matrix" values="0 0 0 0 0 0 0 0 0 0 0 0 0 0 0 0 0 0 127 0"/>
<feOffset dy="4"/>
<feGaussianBlur stdDeviation="2"/>
<feColorMatrix type="matrix" values="0 0 0 0 0 0 0 0 0 0 0 0 0 0 0 0 0 0 0.25 0"/>
<feBlend mode="normal" in2="BackgroundImageFix" result="effect1_dropShadow"/>
<feBlend mode="normal" in="SourceGraphic" in2="effect1_dropShadow" result="shape"/>
</filter>
</defs>
</svg>
