<svg width="446" height="603" viewBox="0 0 446 603" fill="none" xmlns="http://www.w3.org/2000/svg">
<path d="M82.3555 8.86719H87.1953C89.4688 8.86719 91.1133 9.20703 92.1289 9.88672C93.1445 10.5664 93.6523 11.6406 93.6523 13.1094C93.6523 14.125 93.3672 14.9648 92.7969 15.6289C92.2344 16.2852 91.4102 16.7109 90.3242 16.9062V17.0234C92.9258 17.4688 94.2266 18.8359 94.2266 21.125C94.2266 22.6562 93.707 23.8516 92.668 24.7109C91.6367 25.5703 90.1914 26 88.332 26H82.3555V8.86719ZM84.3477 16.2031H87.6289C89.0352 16.2031 90.0469 15.9844 90.6641 15.5469C91.2812 15.1016 91.5898 14.3555 91.5898 13.3086C91.5898 12.3477 91.2461 11.6562 90.5586 11.2344C89.8711 10.8047 88.7773 10.5898 87.2773 10.5898H84.3477V16.2031ZM84.3477 17.8906V24.3008H87.9219C89.3047 24.3008 90.3438 24.0352 91.0391 23.5039C91.7422 22.9648 92.0938 22.125 92.0938 20.9844C92.0938 19.9219 91.7344 19.1406 91.0156 18.6406C90.3047 18.1406 89.2188 17.8906 87.7578 17.8906H84.3477ZM99.4531 13.1562V21.4883C99.4531 22.5352 99.6914 23.3164 100.168 23.832C100.645 24.3477 101.391 24.6055 102.406 24.6055C103.75 24.6055 104.73 24.2383 105.348 23.5039C105.973 22.7695 106.285 21.5703 106.285 19.9062V13.1562H108.23V26H106.625L106.344 24.2773H106.238C105.84 24.9102 105.285 25.3945 104.574 25.7305C103.871 26.0664 103.066 26.2344 102.16 26.2344C100.598 26.2344 99.4258 25.8633 98.6445 25.1211C97.8711 24.3789 97.4844 23.1914 97.4844 21.5586V13.1562H99.4531ZM116.516 24.6289C116.859 24.6289 117.191 24.6055 117.512 24.5586C117.832 24.5039 118.086 24.4492 118.273 24.3945V25.8828C118.062 25.9844 117.75 26.0664 117.336 26.1289C116.93 26.1992 116.562 26.2344 116.234 26.2344C113.75 26.2344 112.508 24.9258 112.508 22.3086V14.668H110.668V13.7305L112.508 12.9219L113.328 10.1797H114.453V13.1562H118.18V14.668H114.453V22.2266C114.453 23 114.637 23.5938 115.004 24.0078C115.371 24.4219 115.875 24.6289 116.516 24.6289ZM125 24.6289C125.344 24.6289 125.676 24.6055 125.996 24.5586C126.316 24.5039 126.57 24.4492 126.758 24.3945V25.8828C126.547 25.9844 126.234 26.0664 125.82 26.1289C125.414 26.1992 125.047 26.2344 124.719 26.2344C122.234 26.2344 120.992 24.9258 120.992 22.3086V14.668H119.152V13.7305L120.992 12.9219L121.812 10.1797H122.938V13.1562H126.664V14.668H122.938V22.2266C122.938 23 123.121 23.5938 123.488 24.0078C123.855 24.4219 124.359 24.6289 125 24.6289ZM140.422 19.5664C140.422 21.6602 139.895 23.2969 138.84 24.4766C137.785 25.6484 136.328 26.2344 134.469 26.2344C133.32 26.2344 132.301 25.9648 131.41 25.4258C130.52 24.8867 129.832 24.1133 129.348 23.1055C128.863 22.0977 128.621 20.918 128.621 19.5664C128.621 17.4727 129.145 15.8438 130.191 14.6797C131.238 13.5078 132.691 12.9219 134.551 12.9219C136.348 12.9219 137.773 13.5195 138.828 14.7148C139.891 15.9102 140.422 17.5273 140.422 19.5664ZM130.637 19.5664C130.637 21.207 130.965 22.457 131.621 23.3164C132.277 24.1758 133.242 24.6055 134.516 24.6055C135.789 24.6055 136.754 24.1797 137.41 23.3281C138.074 22.4688 138.406 21.2148 138.406 19.5664C138.406 17.9336 138.074 16.6953 137.41 15.8516C136.754 15 135.781 14.5742 134.492 14.5742C133.219 14.5742 132.258 14.9922 131.609 15.8281C130.961 16.6641 130.637 17.9102 130.637 19.5664ZM152.633 26V17.6914C152.633 16.6445 152.395 15.8633 151.918 15.3477C151.441 14.832 150.695 14.5742 149.68 14.5742C148.336 14.5742 147.352 14.9375 146.727 15.6641C146.102 16.3906 145.789 17.5898 145.789 19.2617V26H143.844V13.1562H145.426L145.742 14.9141H145.836C146.234 14.2812 146.793 13.793 147.512 13.4492C148.23 13.0977 149.031 12.9219 149.914 12.9219C151.461 12.9219 152.625 13.2969 153.406 14.0469C154.188 14.7891 154.578 15.9805 154.578 17.6211V26H152.633ZM174.781 21.4414C174.781 22.9492 174.234 24.125 173.141 24.9688C172.047 25.8125 170.562 26.2344 168.688 26.2344C166.656 26.2344 165.094 25.9727 164 25.4492V23.5273C164.703 23.8242 165.469 24.0586 166.297 24.2305C167.125 24.4023 167.945 24.4883 168.758 24.4883C170.086 24.4883 171.086 24.2383 171.758 23.7383C172.43 23.2305 172.766 22.5273 172.766 21.6289C172.766 21.0352 172.645 20.5508 172.402 20.1758C172.168 19.793 171.77 19.4414 171.207 19.1211C170.652 18.8008 169.805 18.4375 168.664 18.0312C167.07 17.4609 165.93 16.7852 165.242 16.0039C164.562 15.2227 164.223 14.2031 164.223 12.9453C164.223 11.625 164.719 10.5742 165.711 9.79297C166.703 9.01172 168.016 8.62109 169.648 8.62109C171.352 8.62109 172.918 8.93359 174.348 9.55859L173.727 11.293C172.312 10.6992 170.938 10.4023 169.602 10.4023C168.547 10.4023 167.723 10.6289 167.129 11.082C166.535 11.5352 166.238 12.1641 166.238 12.9688C166.238 13.5625 166.348 14.0508 166.566 14.4336C166.785 14.8086 167.152 15.1562 167.668 15.4766C168.191 15.7891 168.988 16.1367 170.059 16.5195C171.855 17.1602 173.09 17.8477 173.762 18.582C174.441 19.3164 174.781 20.2695 174.781 21.4414ZM182.141 24.6289C182.484 24.6289 182.816 24.6055 183.137 24.5586C183.457 24.5039 183.711 24.4492 183.898 24.3945V25.8828C183.688 25.9844 183.375 26.0664 182.961 26.1289C182.555 26.1992 182.188 26.2344 181.859 26.2344C179.375 26.2344 178.133 24.9258 178.133 22.3086V14.668H176.293V13.7305L178.133 12.9219L178.953 10.1797H180.078V13.1562H183.805V14.668H180.078V22.2266C180.078 23 180.262 23.5938 180.629 24.0078C180.996 24.4219 181.5 24.6289 182.141 24.6289ZM194.375 26L193.988 24.1719H193.895C193.254 24.9766 192.613 25.5234 191.973 25.8125C191.34 26.0938 190.547 26.2344 189.594 26.2344C188.32 26.2344 187.32 25.9062 186.594 25.25C185.875 24.5938 185.516 23.6602 185.516 22.4492C185.516 19.8555 187.59 18.4961 191.738 18.3711L193.918 18.3008V17.5039C193.918 16.4961 193.699 15.7539 193.262 15.2773C192.832 14.793 192.141 14.5508 191.188 14.5508C190.117 14.5508 188.906 14.8789 187.555 15.5352L186.957 14.0469C187.59 13.7031 188.281 13.4336 189.031 13.2383C189.789 13.043 190.547 12.9453 191.305 12.9453C192.836 12.9453 193.969 13.2852 194.703 13.9648C195.445 14.6445 195.816 15.7344 195.816 17.2344V26H194.375ZM189.98 24.6289C191.191 24.6289 192.141 24.2969 192.828 23.6328C193.523 22.9688 193.871 22.0391 193.871 20.8438V19.6836L191.926 19.7656C190.379 19.8203 189.262 20.0625 188.574 20.4922C187.895 20.9141 187.555 21.5742 187.555 22.4727C187.555 23.1758 187.766 23.7109 188.188 24.0781C188.617 24.4453 189.215 24.6289 189.98 24.6289ZM203.984 24.6289C204.328 24.6289 204.66 24.6055 204.98 24.5586C205.301 24.5039 205.555 24.4492 205.742 24.3945V25.8828C205.531 25.9844 205.219 26.0664 204.805 26.1289C204.398 26.1992 204.031 26.2344 203.703 26.2344C201.219 26.2344 199.977 24.9258 199.977 22.3086V14.668H198.137V13.7305L199.977 12.9219L200.797 10.1797H201.922V13.1562H205.648V14.668H201.922V22.2266C201.922 23 202.105 23.5938 202.473 24.0078C202.84 24.4219 203.344 24.6289 203.984 24.6289ZM213.746 26.2344C211.848 26.2344 210.348 25.6562 209.246 24.5C208.152 23.3438 207.605 21.7383 207.605 19.6836C207.605 17.6133 208.113 15.9688 209.129 14.75C210.152 13.5312 211.523 12.9219 213.242 12.9219C214.852 12.9219 216.125 13.4531 217.062 14.5156C218 15.5703 218.469 16.9648 218.469 18.6992V19.9297H209.621C209.66 21.4375 210.039 22.582 210.758 23.3633C211.484 24.1445 212.504 24.5352 213.816 24.5352C215.199 24.5352 216.566 24.2461 217.918 23.668V25.4023C217.23 25.6992 216.578 25.9102 215.961 26.0352C215.352 26.168 214.613 26.2344 213.746 26.2344ZM213.219 14.5508C212.188 14.5508 211.363 14.8867 210.746 15.5586C210.137 16.2305 209.777 17.1602 209.668 18.3477H216.383C216.383 17.1211 216.109 16.1836 215.562 15.5352C215.016 14.8789 214.234 14.5508 213.219 14.5508ZM230.082 22.4961C230.082 23.6914 229.637 24.6133 228.746 25.2617C227.855 25.9102 226.605 26.2344 224.996 26.2344C223.293 26.2344 221.965 25.9648 221.012 25.4258V23.6211C221.629 23.9336 222.289 24.1797 222.992 24.3594C223.703 24.5391 224.387 24.6289 225.043 24.6289C226.059 24.6289 226.84 24.4688 227.387 24.1484C227.934 23.8203 228.207 23.3242 228.207 22.6602C228.207 22.1602 227.988 21.7344 227.551 21.3828C227.121 21.0234 226.277 20.6016 225.02 20.1172C223.824 19.6719 222.973 19.2852 222.465 18.957C221.965 18.6211 221.59 18.2422 221.34 17.8203C221.098 17.3984 220.977 16.8945 220.977 16.3086C220.977 15.2617 221.402 14.4375 222.254 13.8359C223.105 13.2266 224.273 12.9219 225.758 12.9219C227.141 12.9219 228.492 13.2031 229.812 13.7656L229.121 15.3477C227.832 14.8164 226.664 14.5508 225.617 14.5508C224.695 14.5508 224 14.6953 223.531 14.9844C223.062 15.2734 222.828 15.6719 222.828 16.1797C222.828 16.5234 222.914 16.8164 223.086 17.0586C223.266 17.3008 223.551 17.5312 223.941 17.75C224.332 17.9688 225.082 18.2852 226.191 18.6992C227.715 19.2539 228.742 19.8125 229.273 20.375C229.812 20.9375 230.082 21.6445 230.082 22.4961Z" fill="#001B36"/>
<path d="M80 49H320" stroke="#C9D6DF" stroke-width="2" stroke-linecap="round"/>
<path d="M96.0312 108.27C96.0312 111.098 95.2617 113.262 93.7227 114.762C92.1914 116.254 89.9844 117 87.1016 117H82.3555V99.8672H87.6055C90.2695 99.8672 92.3398 100.605 93.8164 102.082C95.293 103.559 96.0312 105.621 96.0312 108.27ZM93.9219 108.34C93.9219 106.105 93.3594 104.422 92.2344 103.289C91.1172 102.156 89.4531 101.59 87.2422 101.59H84.3477V115.277H86.7734C89.1484 115.277 90.9336 114.695 92.1289 113.531C93.3242 112.359 93.9219 110.629 93.9219 108.34ZM104.996 117.234C103.098 117.234 101.598 116.656 100.496 115.5C99.4023 114.344 98.8555 112.738 98.8555 110.684C98.8555 108.613 99.3633 106.969 100.379 105.75C101.402 104.531 102.773 103.922 104.492 103.922C106.102 103.922 107.375 104.453 108.312 105.516C109.25 106.57 109.719 107.965 109.719 109.699V110.93H100.871C100.91 112.438 101.289 113.582 102.008 114.363C102.734 115.145 103.754 115.535 105.066 115.535C106.449 115.535 107.816 115.246 109.168 114.668V116.402C108.48 116.699 107.828 116.91 107.211 117.035C106.602 117.168 105.863 117.234 104.996 117.234ZM104.469 105.551C103.438 105.551 102.613 105.887 101.996 106.559C101.387 107.23 101.027 108.16 100.918 109.348H107.633C107.633 108.121 107.359 107.184 106.812 106.535C106.266 105.879 105.484 105.551 104.469 105.551ZM118.836 105.668H115.566V117H113.621V105.668H111.324V104.789L113.621 104.086V103.371C113.621 100.215 115 98.6367 117.758 98.6367C118.438 98.6367 119.234 98.7734 120.148 99.0469L119.645 100.605C118.895 100.363 118.254 100.242 117.723 100.242C116.988 100.242 116.445 100.488 116.094 100.98C115.742 101.465 115.566 102.246 115.566 103.324V104.156H118.836V105.668ZM129.078 117L128.691 115.172H128.598C127.957 115.977 127.316 116.523 126.676 116.812C126.043 117.094 125.25 117.234 124.297 117.234C123.023 117.234 122.023 116.906 121.297 116.25C120.578 115.594 120.219 114.66 120.219 113.449C120.219 110.855 122.293 109.496 126.441 109.371L128.621 109.301V108.504C128.621 107.496 128.402 106.754 127.965 106.277C127.535 105.793 126.844 105.551 125.891 105.551C124.82 105.551 123.609 105.879 122.258 106.535L121.66 105.047C122.293 104.703 122.984 104.434 123.734 104.238C124.492 104.043 125.25 103.945 126.008 103.945C127.539 103.945 128.672 104.285 129.406 104.965C130.148 105.645 130.52 106.734 130.52 108.234V117H129.078ZM124.684 115.629C125.895 115.629 126.844 115.297 127.531 114.633C128.227 113.969 128.574 113.039 128.574 111.844V110.684L126.629 110.766C125.082 110.82 123.965 111.062 123.277 111.492C122.598 111.914 122.258 112.574 122.258 113.473C122.258 114.176 122.469 114.711 122.891 115.078C123.32 115.445 123.918 115.629 124.684 115.629ZM136.367 104.156V112.488C136.367 113.535 136.605 114.316 137.082 114.832C137.559 115.348 138.305 115.605 139.32 115.605C140.664 115.605 141.645 115.238 142.262 114.504C142.887 113.77 143.199 112.57 143.199 110.906V104.156H145.145V117H143.539L143.258 115.277H143.152C142.754 115.91 142.199 116.395 141.488 116.73C140.785 117.066 139.98 117.234 139.074 117.234C137.512 117.234 136.34 116.863 135.559 116.121C134.785 115.379 134.398 114.191 134.398 112.559V104.156H136.367ZM151.227 117H149.281V98.7656H151.227V117ZM159.5 115.629C159.844 115.629 160.176 115.605 160.496 115.559C160.816 115.504 161.07 115.449 161.258 115.395V116.883C161.047 116.984 160.734 117.066 160.32 117.129C159.914 117.199 159.547 117.234 159.219 117.234C156.734 117.234 155.492 115.926 155.492 113.309V105.668H153.652V104.73L155.492 103.922L156.312 101.18H157.438V104.156H161.164V105.668H157.438V113.227C157.438 114 157.621 114.594 157.988 115.008C158.355 115.422 158.859 115.629 159.5 115.629Z" fill="#001B36"/>
<rect x="80" y="167" width="287" height="60" rx="3" fill="#082D40"/>
<path d="M197.546 191.12V203H194.108L190.418 196.574L189.518 194.81H189.5L189.572 197.006V203H186.836V191.12H190.274L193.964 197.546L194.864 199.31H194.882L194.81 197.114V191.12H197.546ZM205.096 190.94C206.296 190.94 207.328 191.186 208.192 191.678C209.068 192.158 209.74 192.854 210.208 193.766C210.676 194.678 210.91 195.776 210.91 197.06C210.91 198.344 210.676 199.442 210.208 200.354C209.74 201.266 209.068 201.968 208.192 202.46C207.328 202.94 206.296 203.18 205.096 203.18C203.884 203.18 202.84 202.94 201.964 202.46C201.1 201.968 200.434 201.266 199.966 200.354C199.498 199.442 199.264 198.344 199.264 197.06C199.264 195.776 199.498 194.678 199.966 193.766C200.434 192.854 201.1 192.158 201.964 191.678C202.84 191.186 203.884 190.94 205.096 190.94ZM205.096 193.37C204.232 193.37 203.572 193.682 203.116 194.306C202.66 194.918 202.432 195.836 202.432 197.06C202.432 198.284 202.66 199.208 203.116 199.832C203.572 200.444 204.232 200.75 205.096 200.75C205.948 200.75 206.602 200.444 207.058 199.832C207.514 199.208 207.742 198.284 207.742 197.06C207.742 195.836 207.514 194.918 207.058 194.306C206.602 193.682 205.948 193.37 205.096 193.37ZM218.299 191.12C219.715 191.12 220.813 191.45 221.593 192.11C222.385 192.77 222.781 193.658 222.781 194.774C222.781 195.662 222.571 196.394 222.151 196.97C221.743 197.534 221.155 197.948 220.387 198.212L223.483 203H220.063L217.525 198.662H215.671V203H212.629V191.12H218.299ZM217.867 196.466C218.467 196.466 218.917 196.346 219.217 196.106C219.517 195.866 219.667 195.482 219.667 194.954C219.667 193.958 219.067 193.46 217.867 193.46H215.671V196.466H217.867ZM238.381 191.12V203H235.645V197.546L235.735 193.892H235.699L232.765 203H230.263L227.329 193.892H227.293L227.383 197.546V203H224.629V191.12H229.039L230.911 197.168L231.577 199.688H231.613L232.297 197.186L234.151 191.12H238.381ZM239.36 203L243.536 191.12H247.244L251.402 203H248.216L247.406 200.318H243.302L242.474 203H239.36ZM244.85 195.35L243.95 198.212H246.758L245.894 195.368L245.372 193.496H245.336L244.85 195.35ZM255.47 200.606H261.428V203H252.374V191.12H255.47V200.606Z" fill="#FFD274"/>
<g filter="url(#filter0_d)">
<rect x="81" y="267" width="285" height="58" rx="2" fill="#082D40" stroke="#FFD274" stroke-width="2"/>
<path d="M197.751 290.12V294.818H202.287V290.12H205.383V302H202.287V297.212H197.751V302H194.655V290.12H197.751ZM212.933 289.94C214.133 289.94 215.165 290.186 216.029 290.678C216.905 291.158 217.577 291.854 218.045 292.766C218.513 293.678 218.747 294.776 218.747 296.06C218.747 297.344 218.513 298.442 218.045 299.354C217.577 300.266 216.905 300.968 216.029 301.46C215.165 301.94 214.133 302.18 212.933 302.18C211.721 302.18 210.677 301.94 209.801 301.46C208.937 300.968 208.271 300.266 207.803 299.354C207.335 298.442 207.101 297.344 207.101 296.06C207.101 294.776 207.335 293.678 207.803 292.766C208.271 291.854 208.937 291.158 209.801 290.678C210.677 290.186 211.721 289.94 212.933 289.94ZM212.933 292.37C212.069 292.37 211.409 292.682 210.953 293.306C210.497 293.918 210.269 294.836 210.269 296.06C210.269 297.284 210.497 298.208 210.953 298.832C211.409 299.444 212.069 299.75 212.933 299.75C213.785 299.75 214.439 299.444 214.895 298.832C215.351 298.208 215.579 297.284 215.579 296.06C215.579 294.836 215.351 293.918 214.895 293.306C214.439 292.682 213.785 292.37 212.933 292.37ZM231.022 290.12L226.81 302H223.174L218.944 290.12H222.202L224.38 297.302L225.028 299.642L225.658 297.338L227.872 290.12H231.022ZM232.027 302V290.12H241.279V292.514H235.123V294.926H240.019V297.176H235.123V299.606H241.513V302H232.027ZM248.642 290.12C250.058 290.12 251.156 290.45 251.936 291.11C252.728 291.77 253.124 292.658 253.124 293.774C253.124 294.662 252.914 295.394 252.494 295.97C252.086 296.534 251.498 296.948 250.73 297.212L253.826 302H250.406L247.868 297.662H246.014V302H242.972V290.12H248.642ZM248.21 295.466C248.81 295.466 249.26 295.346 249.56 295.106C249.86 294.866 250.01 294.482 250.01 293.954C250.01 292.958 249.41 292.46 248.21 292.46H246.014V295.466H248.21Z" fill="#FFD274"/>
</g>
<g filter="url(#filter1_d)">
<rect x="80" y="365" width="287" height="60" rx="3" fill="#FFD274"/>
<path d="M190.069 389.12C191.509 389.12 192.631 389.468 193.435 390.164C194.251 390.848 194.659 391.82 194.659 393.08C194.659 394.34 194.251 395.318 193.435 396.014C192.631 396.698 191.509 397.04 190.069 397.04H187.711V401H184.615V389.12H190.069ZM189.583 394.718C190.891 394.718 191.545 394.172 191.545 393.08C191.545 391.988 190.891 391.442 189.583 391.442H187.711V394.718H189.583ZM201.899 389.12C203.315 389.12 204.413 389.45 205.193 390.11C205.985 390.77 206.381 391.658 206.381 392.774C206.381 393.662 206.171 394.394 205.751 394.97C205.343 395.534 204.755 395.948 203.987 396.212L207.083 401H203.663L201.125 396.662H199.271V401H196.229V389.12H201.899ZM201.467 394.466C202.067 394.466 202.517 394.346 202.817 394.106C203.117 393.866 203.267 393.482 203.267 392.954C203.267 391.958 202.667 391.46 201.467 391.46H199.271V394.466H201.467ZM208.229 401V389.12H217.481V391.514H211.325V393.926H216.221V396.176H211.325V398.606H217.715V401H208.229ZM223.818 388.94C224.922 388.94 225.894 389.114 226.734 389.462C227.586 389.798 228.324 390.296 228.948 390.956L227.454 392.954C226.938 392.414 226.38 392.012 225.78 391.748C225.192 391.472 224.52 391.334 223.764 391.334C223.104 391.334 222.63 391.442 222.342 391.658C222.054 391.874 221.91 392.138 221.91 392.45C221.91 392.702 222.024 392.918 222.252 393.098C222.492 393.266 222.876 393.41 223.404 393.53L225.402 393.98C226.59 394.256 227.46 394.658 228.012 395.186C228.564 395.714 228.84 396.416 228.84 397.292C228.84 398.132 228.624 398.846 228.192 399.434C227.76 400.01 227.166 400.448 226.41 400.748C225.654 401.036 224.79 401.18 223.818 401.18C222.618 401.18 221.52 400.988 220.524 400.604C219.528 400.208 218.736 399.692 218.148 399.056L219.642 396.986C220.086 397.502 220.686 397.934 221.442 398.282C222.198 398.618 222.978 398.786 223.782 398.786C225.03 398.786 225.654 398.42 225.654 397.688C225.654 397.436 225.558 397.226 225.366 397.058C225.186 396.878 224.85 396.728 224.358 396.608L222.162 396.122C221.49 395.978 220.89 395.774 220.362 395.51C219.846 395.246 219.438 394.898 219.138 394.466C218.838 394.022 218.688 393.47 218.688 392.81C218.688 392.066 218.892 391.406 219.3 390.83C219.708 390.242 220.296 389.78 221.064 389.444C221.832 389.108 222.75 388.94 223.818 388.94ZM235.01 388.94C236.114 388.94 237.086 389.114 237.926 389.462C238.778 389.798 239.516 390.296 240.14 390.956L238.646 392.954C238.13 392.414 237.572 392.012 236.972 391.748C236.384 391.472 235.712 391.334 234.956 391.334C234.296 391.334 233.822 391.442 233.534 391.658C233.246 391.874 233.102 392.138 233.102 392.45C233.102 392.702 233.216 392.918 233.444 393.098C233.684 393.266 234.068 393.41 234.596 393.53L236.594 393.98C237.782 394.256 238.652 394.658 239.204 395.186C239.756 395.714 240.032 396.416 240.032 397.292C240.032 398.132 239.816 398.846 239.384 399.434C238.952 400.01 238.358 400.448 237.602 400.748C236.846 401.036 235.982 401.18 235.01 401.18C233.81 401.18 232.712 400.988 231.716 400.604C230.72 400.208 229.928 399.692 229.34 399.056L230.834 396.986C231.278 397.502 231.878 397.934 232.634 398.282C233.39 398.618 234.17 398.786 234.974 398.786C236.222 398.786 236.846 398.42 236.846 397.688C236.846 397.436 236.75 397.226 236.558 397.058C236.378 396.878 236.042 396.728 235.55 396.608L233.354 396.122C232.682 395.978 232.082 395.774 231.554 395.51C231.038 395.246 230.63 394.898 230.33 394.466C230.03 394.022 229.88 393.47 229.88 392.81C229.88 392.066 230.084 391.406 230.492 390.83C230.9 390.242 231.488 389.78 232.256 389.444C233.024 389.108 233.942 388.94 235.01 388.94ZM241.557 401V389.12H250.809V391.514H244.653V393.926H249.549V396.176H244.653V398.606H251.043V401H241.557ZM257.543 389.12C259.403 389.12 260.825 389.636 261.809 390.668C262.805 391.7 263.303 393.164 263.303 395.06C263.303 396.956 262.805 398.42 261.809 399.452C260.825 400.484 259.403 401 257.543 401H252.503V389.12H257.543ZM257.237 398.66C258.245 398.66 258.977 398.36 259.433 397.76C259.901 397.148 260.135 396.248 260.135 395.06C260.135 393.872 259.901 392.978 259.433 392.378C258.977 391.766 258.245 391.46 257.237 391.46H255.599V398.66H257.237Z" fill="#082D40"/>
</g>
<g filter="url(#filter2_d)">
<rect x="80" y="464" width="287" height="60" rx="3" fill="#C9D6DF"/>
<path d="M190.069 488.12C191.509 488.12 192.631 488.468 193.435 489.164C194.251 489.848 194.659 490.82 194.659 492.08C194.659 493.34 194.251 494.318 193.435 495.014C192.631 495.698 191.509 496.04 190.069 496.04H187.711V500H184.615V488.12H190.069ZM189.583 493.718C190.891 493.718 191.545 493.172 191.545 492.08C191.545 490.988 190.891 490.442 189.583 490.442H187.711V493.718H189.583ZM201.899 488.12C203.315 488.12 204.413 488.45 205.193 489.11C205.985 489.77 206.381 490.658 206.381 491.774C206.381 492.662 206.171 493.394 205.751 493.97C205.343 494.534 204.755 494.948 203.987 495.212L207.083 500H203.663L201.125 495.662H199.271V500H196.229V488.12H201.899ZM201.467 493.466C202.067 493.466 202.517 493.346 202.817 493.106C203.117 492.866 203.267 492.482 203.267 491.954C203.267 490.958 202.667 490.46 201.467 490.46H199.271V493.466H201.467ZM208.229 500V488.12H217.481V490.514H211.325V492.926H216.221V495.176H211.325V497.606H217.715V500H208.229ZM223.818 487.94C224.922 487.94 225.894 488.114 226.734 488.462C227.586 488.798 228.324 489.296 228.948 489.956L227.454 491.954C226.938 491.414 226.38 491.012 225.78 490.748C225.192 490.472 224.52 490.334 223.764 490.334C223.104 490.334 222.63 490.442 222.342 490.658C222.054 490.874 221.91 491.138 221.91 491.45C221.91 491.702 222.024 491.918 222.252 492.098C222.492 492.266 222.876 492.41 223.404 492.53L225.402 492.98C226.59 493.256 227.46 493.658 228.012 494.186C228.564 494.714 228.84 495.416 228.84 496.292C228.84 497.132 228.624 497.846 228.192 498.434C227.76 499.01 227.166 499.448 226.41 499.748C225.654 500.036 224.79 500.18 223.818 500.18C222.618 500.18 221.52 499.988 220.524 499.604C219.528 499.208 218.736 498.692 218.148 498.056L219.642 495.986C220.086 496.502 220.686 496.934 221.442 497.282C222.198 497.618 222.978 497.786 223.782 497.786C225.03 497.786 225.654 497.42 225.654 496.688C225.654 496.436 225.558 496.226 225.366 496.058C225.186 495.878 224.85 495.728 224.358 495.608L222.162 495.122C221.49 494.978 220.89 494.774 220.362 494.51C219.846 494.246 219.438 493.898 219.138 493.466C218.838 493.022 218.688 492.47 218.688 491.81C218.688 491.066 218.892 490.406 219.3 489.83C219.708 489.242 220.296 488.78 221.064 488.444C221.832 488.108 222.75 487.94 223.818 487.94ZM235.01 487.94C236.114 487.94 237.086 488.114 237.926 488.462C238.778 488.798 239.516 489.296 240.14 489.956L238.646 491.954C238.13 491.414 237.572 491.012 236.972 490.748C236.384 490.472 235.712 490.334 234.956 490.334C234.296 490.334 233.822 490.442 233.534 490.658C233.246 490.874 233.102 491.138 233.102 491.45C233.102 491.702 233.216 491.918 233.444 492.098C233.684 492.266 234.068 492.41 234.596 492.53L236.594 492.98C237.782 493.256 238.652 493.658 239.204 494.186C239.756 494.714 240.032 495.416 240.032 496.292C240.032 497.132 239.816 497.846 239.384 498.434C238.952 499.01 238.358 499.448 237.602 499.748C236.846 500.036 235.982 500.18 235.01 500.18C233.81 500.18 232.712 499.988 231.716 499.604C230.72 499.208 229.928 498.692 229.34 498.056L230.834 495.986C231.278 496.502 231.878 496.934 232.634 497.282C233.39 497.618 234.17 497.786 234.974 497.786C236.222 497.786 236.846 497.42 236.846 496.688C236.846 496.436 236.75 496.226 236.558 496.058C236.378 495.878 236.042 495.728 235.55 495.608L233.354 495.122C232.682 494.978 232.082 494.774 231.554 494.51C231.038 494.246 230.63 493.898 230.33 493.466C230.03 493.022 229.88 492.47 229.88 491.81C229.88 491.066 230.084 490.406 230.492 489.83C230.9 489.242 231.488 488.78 232.256 488.444C233.024 488.108 233.942 487.94 235.01 487.94ZM241.557 500V488.12H250.809V490.514H244.653V492.926H249.549V495.176H244.653V497.606H251.043V500H241.557ZM257.543 488.12C259.403 488.12 260.825 488.636 261.809 489.668C262.805 490.7 263.303 492.164 263.303 494.06C263.303 495.956 262.805 497.42 261.809 498.452C260.825 499.484 259.403 500 257.543 500H252.503V488.12H257.543ZM257.237 497.66C258.245 497.66 258.977 497.36 259.433 496.76C259.901 496.148 260.135 495.248 260.135 494.06C260.135 492.872 259.901 491.978 259.433 491.378C258.977 490.766 258.245 490.46 257.237 490.46H255.599V497.66H257.237Z" fill="#082D40" fill-opacity="0.2"/>
</g>
<defs>
<filter id="filter0_d" x="76" y="266" width="295" height="68" filterUnits="userSpaceOnUse" color-interpolation-filters="sRGB">
<feFlood flood-opacity="0" result="BackgroundImageFix"/>
<feColorMatrix in="SourceAlpha" type="matrix" values="0 0 0 0 0 0 0 0 0 0 0 0 0 0 0 0 0 0 127 0"/>
<feOffset dy="4"/>
<feGaussianBlur stdDeviation="2"/>
<feColorMatrix type="matrix" values="0 0 0 0 0 0 0 0 0 0 0 0 0 0 0 0 0 0 0.25 0"/>
<feBlend mode="normal" in2="BackgroundImageFix" result="effect1_dropShadow"/>
<feBlend mode="normal" in="SourceGraphic" in2="effect1_dropShadow" result="shape"/>
</filter>
<filter id="filter1_d" x="76" y="365" width="295" height="68" filterUnits="userSpaceOnUse" color-interpolation-filters="sRGB">
<feFlood flood-opacity="0" result="BackgroundImageFix"/>
<feColorMatrix in="SourceAlpha" type="matrix" values="0 0 0 0 0 0 0 0 0 0 0 0 0 0 0 0 0 0 127 0"/>
<feOffset dy="4"/>
<feGaussianBlur stdDeviation="2"/>
<feColorMatrix type="matrix" values="0 0 0 0 0 0 0 0 0 0 0 0 0 0 0 0 0 0 0.25 0"/>
<feBlend mode="normal" in2="BackgroundImageFix" result="effect1_dropShadow"/>
<feBlend mode="normal" in="SourceGraphic" in2="effect1_dropShadow" result="shape"/>
</filter>
<filter id="filter2_d" x="76" y="464" width="295" height="68" filterUnits="userSpaceOnUse" color-interpolation-filters="sRGB">
<feFlood flood-opacity="0" result="BackgroundImageFix"/>
<feColorMatrix in="SourceAlpha" type="matrix" values="0 0 0 0 0 0 0 0 0 0 0 0 0 0 0 0 0 0 127 0"/>
<feOffset dy="4"/>
<feGaussianBlur stdDeviation="2"/>
<feColorMatrix type="matrix" values="0 0 0 0 0 0 0 0 0 0 0 0 0 0 0 0 0 0 0.25 0"/>
<feBlend mode="normal" in2="BackgroundImageFix" result="effect1_dropShadow"/>
<feBlend mode="normal" in="SourceGraphic" in2="effect1_dropShadow" result="shape"/>
</filter>
</defs>
</svg>
