<svg width="1834" height="780" viewBox="0 0 1834 780" fill="none" xmlns="http://www.w3.org/2000/svg">
<g filter="url(#filter0_i)">
<path d="M192 767C167.333 768.333 145 764.667 125 756C105.667 748 88.6667 736.667 74 722C59.3333 707.333 47 690.667 37 672C27 653.333 19.3333 634 14 614C4.66667 579.333 0.333333 542 1 502C2.33333 462 7.66667 425.333 17 392C27 357.333 38.3333 325.667 51 297C63.6667 267.667 78 241 94 217C110 192.333 128 169.333 148 148C168 126.667 190.667 106 216 86C244.667 62 277.667 44 315 32C352.333 20 388.667 16.6666 424 22C466 28.6666 497.333 45.6666 518 73C539.333 100.333 547.333 138 542 186C538 224 528 258.667 512 290C496 320.667 475.667 348.333 451 373C448.333 376.333 445 379 441 381C437.667 383 434.333 384.667 431 386C413.667 393.333 399.333 392.667 388 384C376.667 374.667 370.667 359.333 370 338C370 317.333 373.667 298.667 381 282C388.333 264.667 397.667 248.333 409 233C413.667 227.667 418.333 222.667 423 218C428.333 212.667 433.333 207.333 438 202C442.667 195.333 444 187.333 442 178C440 168.667 436 161.667 430 157C416 146.333 401.333 143.333 386 148C377.333 151.333 368.333 154.667 359 158C350.333 161.333 342.333 165.667 335 171C281 207 238.333 252 207 306C175.667 359.333 153.333 420.333 140 489C136.667 509.667 136.667 531 140 553C142.667 578.333 150.667 598.333 164 613C178 627 196.333 634.667 219 636C228.333 636 237.333 635.333 246 634C255.333 632 264.667 629.333 274 626C295.333 618.667 315.667 608.667 335 596C355 582.667 374 568.333 392 553C409.333 539 425.667 524.667 441 510C457 494.667 473 479.667 489 465C496.333 458.333 504 452.333 512 447C520 441 528.333 435.667 537 431C539.667 429 543 428.333 547 429C551 429.667 554.333 431 557 433C559.667 435.667 561.667 439.333 563 444C564.333 448.667 564.333 452.667 563 456C559.667 465.333 556.667 474.667 554 484C551.333 492.667 547.667 501 543 509C517.667 550.333 490 588.667 460 624C430.667 658.667 396.667 688.667 358 714C330.667 732 304 745 278 753C252.667 761.667 224 766.333 192 767ZM599.664 565C599.664 526.333 600.997 490.333 603.664 457C606.331 423 614.664 390.333 628.664 359C636.664 341 646.997 328 659.664 320C672.331 312 684.997 308.333 697.664 309C710.331 309.667 722.331 314.667 733.664 324C744.997 333.333 753.664 346.667 759.664 364C764.331 379.333 766.331 395.333 765.664 412C764.997 428 762.997 443 759.664 457C750.331 498.333 740.997 542.333 731.664 589C722.331 635 714.331 679 707.664 721C702.997 732.333 694.997 738 683.664 738C672.331 738 660.997 732 649.664 720C640.331 710.667 632.664 699.667 626.664 687C620.664 674.333 615.664 661 611.664 647C608.331 633 605.664 619 603.664 605C602.331 591 600.997 577.667 599.664 565ZM798.664 208C802.664 217.333 804.331 227 803.664 237C803.664 247 801.664 256 797.664 264C794.331 272 789.331 279 782.664 285C776.664 290.333 769.331 293.333 760.664 294C751.331 294.667 741.997 293.667 732.664 291C723.331 287.667 714.331 283.333 705.664 278C697.664 272.667 690.331 266.333 683.664 259C676.997 251 671.997 242.667 668.664 234C665.331 225.333 663.997 216.333 664.664 207C665.997 197 668.997 188 673.664 180C678.331 172 684.331 165.333 691.664 160C698.997 154.667 707.331 152 716.664 152C733.997 151.333 750.664 156.333 766.664 167C782.664 177.667 793.331 191.333 798.664 208ZM981.789 602C1011.12 564 1033.46 522.667 1048.79 478C1064.79 432.667 1074.12 389 1076.79 347C1077.46 331.667 1076.79 316 1074.79 300C1073.46 283.333 1074.46 267.667 1077.79 253C1085.12 234.333 1096.79 225.667 1112.79 227C1128.79 227.667 1147.12 235 1167.79 249C1189.12 266.333 1202.79 288.667 1208.79 316C1215.46 343.333 1216.46 372.667 1211.79 404C1207.12 435.333 1198.46 467.333 1185.79 500C1173.12 532 1158.79 562 1142.79 590C1127.46 617.333 1111.79 641.333 1095.79 662C1079.79 682 1066.12 695.333 1054.79 702C1045.46 711.333 1032.12 719.667 1014.79 727C998.122 733.667 983.122 739 969.789 743C943.122 746.333 920.122 740.667 900.789 726C882.122 710.667 866.789 690 854.789 664C843.456 637.333 835.122 607 829.789 573C825.122 539 823.122 505.333 823.789 472C824.456 438 828.122 405.667 834.789 375C841.456 344.333 850.456 319.333 861.789 300C871.122 278.667 884.456 264 901.789 256C919.789 248 938.456 250.333 957.789 263C967.789 271.667 974.789 281.333 978.789 292C982.789 302 984.456 312.667 983.789 324C983.789 334.667 982.122 345.667 978.789 357C976.122 368.333 973.456 379.333 970.789 390C964.122 410.667 958.456 433 953.789 457C949.789 480.333 944.789 502.333 938.789 523C934.789 530.333 932.456 542 931.789 558C931.789 573.333 933.122 587.333 935.789 600C939.122 612 944.456 619.667 951.789 623C959.789 626.333 969.789 619.333 981.789 602ZM1454.39 313C1467.72 311 1485.72 308.333 1508.39 305C1531.06 301 1553.39 298 1575.39 296C1597.39 293.333 1616.39 292.333 1632.39 293C1648.39 293.667 1656.72 297.333 1657.39 304C1660.72 322.667 1656.72 339.333 1645.39 354C1634.72 368 1619.39 378.667 1599.39 386C1589.39 390 1576.39 394.333 1560.39 399C1544.39 403 1527.72 407 1510.39 411C1493.06 415 1476.06 419 1459.39 423C1443.39 426.333 1430.39 429.667 1420.39 433C1417.72 441.667 1414.39 453 1410.39 467C1406.39 481 1402.39 495.667 1398.39 511C1395.06 526.333 1392.06 541.667 1389.39 557C1387.39 572.333 1386.72 586 1387.39 598C1388.72 609.333 1391.72 618.333 1396.39 625C1401.72 631 1410.06 632.667 1421.39 630C1451.39 620 1478.72 610 1503.39 600C1528.06 589.333 1551.06 578.333 1572.39 567C1594.39 555.667 1615.39 543.667 1635.39 531C1655.39 518.333 1675.72 504 1696.39 488C1704.39 480.667 1712.39 473.667 1720.39 467C1728.39 460.333 1735.06 456 1740.39 454C1745.72 451.333 1749.72 452.333 1752.39 457C1755.06 461 1755.06 470.333 1752.39 485C1749.06 500.333 1744.06 514.667 1737.39 528C1731.39 541.333 1724.39 553.667 1716.39 565C1697.72 591.667 1677.06 615.667 1654.39 637C1631.72 657.667 1607.72 676.333 1582.39 693C1557.72 709 1532.06 723.333 1505.39 736C1479.39 749.333 1453.39 761.333 1427.39 772C1402.06 780 1378.72 782 1357.39 778C1336.06 774.667 1317.06 766.667 1300.39 754C1284.39 742 1271.39 726.333 1261.39 707C1251.39 687.667 1245.72 667 1244.39 645C1243.06 623.667 1243.06 604.333 1244.39 587C1246.39 569 1249.06 551.667 1252.39 535C1256.39 517.667 1260.39 500.333 1264.39 483C1269.06 465.667 1273.39 446.667 1277.39 426C1270.06 418.667 1263.72 410.333 1258.39 401C1253.72 391.667 1251.72 382.333 1252.39 373C1253.72 363.667 1258.39 355 1266.39 347C1275.06 339 1289.39 332.667 1309.39 328C1312.06 320 1316.06 308 1321.39 292C1326.72 275.333 1331.72 257.667 1336.39 239C1341.06 220.333 1344.72 202.667 1347.39 186C1350.72 168.667 1351.72 156 1350.39 148C1346.39 126 1352.72 109.667 1369.39 99C1383.39 88.3333 1397.39 79.6666 1411.39 73C1452.06 52.9999 1493.06 37.3333 1534.39 26C1575.72 14 1617.39 5.66663 1659.39 0.999942C1675.39 -0.333374 1692.06 -0.333374 1709.39 0.999942C1726.72 2.3333 1743.06 5.66665 1758.39 11C1773.72 15.6666 1787.72 23 1800.39 32.9999C1813.06 42.3333 1822.72 54.3333 1829.39 69C1834.06 81.6666 1834.39 92.6666 1830.39 102C1827.06 110.667 1820.39 116 1810.39 118C1769.06 116.667 1725.06 119.333 1678.39 126C1631.72 132.667 1585.39 147.333 1539.39 170C1525.39 176.667 1514.39 183 1506.39 189C1498.39 194.333 1491.72 200.667 1486.39 208C1481.72 214.667 1477.72 223 1474.39 233C1471.72 242.333 1468.06 254.333 1463.39 269C1462.06 274.333 1460.72 281.333 1459.39 290C1458.06 298 1456.39 305.667 1454.39 313Z" fill="#F2F3F5" fill-opacity="0.92"/>
</g>
<defs>
<filter id="filter0_i" x="0.933105" y="0" width="1832.23" height="830" filterUnits="userSpaceOnUse" color-interpolation-filters="sRGB">
<feFlood flood-opacity="0" result="BackgroundImageFix"/>
<feBlend mode="normal" in="SourceGraphic" in2="BackgroundImageFix" result="shape"/>
<feColorMatrix in="SourceAlpha" type="matrix" values="0 0 0 0 0 0 0 0 0 0 0 0 0 0 0 0 0 0 127 0" result="hardAlpha"/>
<feOffset dy="50"/>
<feGaussianBlur stdDeviation="30"/>
<feComposite in2="hardAlpha" operator="arithmetic" k2="-1" k3="1"/>
<feColorMatrix type="matrix" values="0 0 0 0 0 0 0 0 0 0 0 0 0 0 0 0 0 0 0.25 0"/>
<feBlend mode="normal" in2="shape" result="effect1_innerShadow"/>
</filter>
</defs>
</svg>
