<svg width="4" height="2" viewBox="0 0 4 2" fill="none" xmlns="http://www.w3.org/2000/svg">
<path d="M0.605469 0.774414C0.59668 0.849609 0.568848 0.907715 0.521973 0.94873C0.475423 0.989421 0.413411 1.00977 0.335938 1.00977C0.251953 1.00977 0.18457 0.979655 0.133789 0.919434C0.0833333 0.859212 0.0581055 0.778646 0.0581055 0.677734V0.609375C0.0581055 0.543294 0.0698242 0.485189 0.0932617 0.435059C0.117025 0.384928 0.150553 0.346517 0.193848 0.319824C0.237142 0.292806 0.287272 0.279297 0.344238 0.279297C0.419759 0.279297 0.480306 0.300456 0.525879 0.342773C0.571452 0.384766 0.597982 0.443034 0.605469 0.517578H0.51123C0.503092 0.460938 0.485352 0.419922 0.458008 0.394531C0.43099 0.369141 0.393066 0.356445 0.344238 0.356445C0.284342 0.356445 0.237305 0.378581 0.203125 0.422852C0.169271 0.467122 0.152344 0.530111 0.152344 0.611816V0.680664C0.152344 0.757812 0.168457 0.819173 0.200684 0.864746C0.23291 0.910319 0.277995 0.933105 0.335938 0.933105C0.388021 0.933105 0.427897 0.921387 0.455566 0.897949C0.483561 0.874186 0.502116 0.833008 0.51123 0.774414H0.605469ZM0.828125 0.92334H1.16504V1H0.733887V0.289062H0.828125V0.92334ZM1.78662 0.66748C1.78662 0.737142 1.7749 0.798014 1.75146 0.850098C1.72803 0.901855 1.69482 0.941406 1.65186 0.96875C1.60889 0.996094 1.55876 1.00977 1.50146 1.00977C1.44548 1.00977 1.39583 0.996094 1.35254 0.96875C1.30924 0.941081 1.27555 0.901855 1.25146 0.851074C1.2277 0.799967 1.21549 0.740885 1.21484 0.673828V0.622559C1.21484 0.554199 1.22673 0.493815 1.25049 0.441406C1.27425 0.388997 1.30778 0.348958 1.35107 0.321289C1.39469 0.293294 1.4445 0.279297 1.50049 0.279297C1.55745 0.279297 1.60758 0.293132 1.65088 0.320801C1.6945 0.348145 1.72803 0.388021 1.75146 0.44043C1.7749 0.492513 1.78662 0.553223 1.78662 0.622559V0.66748ZM1.69336 0.621582C1.69336 0.537272 1.67643 0.472656 1.64258 0.427734C1.60872 0.382487 1.56136 0.359863 1.50049 0.359863C1.44124 0.359863 1.39453 0.382487 1.36035 0.427734C1.3265 0.472656 1.30908 0.535156 1.30811 0.615234V0.66748C1.30811 0.749186 1.3252 0.813477 1.35938 0.860352C1.39388 0.906901 1.44124 0.930176 1.50146 0.930176C1.56201 0.930176 1.60889 0.908203 1.64209 0.864258C1.67529 0.819987 1.69238 0.756673 1.69336 0.674316V0.621582ZM2.13672 0.683105C2.05632 0.659993 1.99772 0.631673 1.96094 0.598145C1.92448 0.56429 1.90625 0.522624 1.90625 0.473145C1.90625 0.417155 1.92855 0.370931 1.97314 0.334473C2.01807 0.297689 2.07633 0.279297 2.14795 0.279297C2.19678 0.279297 2.24023 0.288737 2.27832 0.307617C2.31673 0.326497 2.34635 0.352539 2.36719 0.385742C2.38835 0.418945 2.39893 0.455241 2.39893 0.494629H2.30469C2.30469 0.45166 2.29102 0.417969 2.26367 0.393555C2.23633 0.368815 2.19775 0.356445 2.14795 0.356445C2.10173 0.356445 2.06559 0.366699 2.03955 0.387207C2.01383 0.407389 2.00098 0.435547 2.00098 0.47168C2.00098 0.500651 2.01318 0.525228 2.0376 0.54541C2.06234 0.565267 2.10417 0.583496 2.16309 0.600098C2.22233 0.616699 2.26855 0.635091 2.30176 0.655273C2.33529 0.67513 2.36003 0.698405 2.37598 0.725098C2.39225 0.75179 2.40039 0.783203 2.40039 0.819336C2.40039 0.876953 2.37793 0.923177 2.33301 0.958008C2.28809 0.992513 2.22803 1.00977 2.15283 1.00977C2.104 1.00977 2.05843 1.00049 2.01611 0.981934C1.9738 0.963053 1.94108 0.937337 1.91797 0.904785C1.89518 0.872233 1.88379 0.835286 1.88379 0.793945H1.97803C1.97803 0.836914 1.99382 0.870931 2.02539 0.895996C2.05729 0.920736 2.09977 0.933105 2.15283 0.933105C2.20231 0.933105 2.24023 0.923014 2.2666 0.902832C2.29297 0.88265 2.30615 0.855143 2.30615 0.820312C2.30615 0.785482 2.29395 0.758626 2.26953 0.739746C2.24512 0.72054 2.20085 0.70166 2.13672 0.683105ZM2.92285 0.671387H2.61475V0.92334H2.97266V1H2.521V0.289062H2.96777V0.366211H2.61475V0.594727H2.92285V0.671387ZM3.08936 1V0.289062H3.29004C3.35189 0.289062 3.40658 0.302734 3.4541 0.330078C3.50163 0.357422 3.53825 0.396322 3.56396 0.446777C3.59001 0.497233 3.60319 0.555176 3.60352 0.620605V0.666016C3.60352 0.733073 3.59049 0.791829 3.56445 0.842285C3.53874 0.892741 3.50179 0.931478 3.45361 0.958496C3.40576 0.985514 3.34993 0.999349 3.28613 1H3.08936ZM3.18311 0.366211V0.92334H3.28174C3.354 0.92334 3.41016 0.900879 3.4502 0.855957C3.49056 0.811035 3.51074 0.74707 3.51074 0.664062V0.622559C3.51074 0.541829 3.4917 0.479167 3.45361 0.43457C3.41585 0.389648 3.36214 0.366862 3.29248 0.366211H3.18311Z" fill="#FE1111"/>
</svg>
