<svg width="1847" height="832" viewBox="0 0 1847 832" fill="none" xmlns="http://www.w3.org/2000/svg">
<g filter="url(#filter0_i)">
<path d="M194 789C169.333 790.333 147 786.667 127 778C107.667 770 90.6667 758.667 76 744C61.3333 729.333 49 712.667 39 694C29 675.333 21.3333 656 16 636C6.66667 601.333 2.33333 564 3 524C4.33333 484 9.66667 447.333 19 414C29 379.333 40.3333 347.667 53 319C65.6667 289.667 80 263 96 239C112 214.333 130 191.333 150 170C170 148.667 192.667 128 218 108C246.667 84 279.667 66 317 54C354.333 42 390.667 38.6666 426 44C468 50.6666 499.333 67.6666 520 95C541.333 122.333 549.333 160 544 208C540 246 530 280.667 514 312C498 342.667 477.667 370.333 453 395C450.333 398.333 447 401 443 403C439.667 405 436.333 406.667 433 408C415.667 415.333 401.333 414.667 390 406C378.667 396.667 372.667 381.333 372 360C372 339.333 375.667 320.667 383 304C390.333 286.667 399.667 270.333 411 255C415.667 249.667 420.333 244.667 425 240C430.333 234.667 435.333 229.333 440 224C444.667 217.333 446 209.333 444 200C442 190.667 438 183.667 432 179C418 168.333 403.333 165.333 388 170C379.333 173.333 370.333 176.667 361 180C352.333 183.333 344.333 187.667 337 193C283 229 240.333 274 209 328C177.667 381.333 155.333 442.333 142 511C138.667 531.667 138.667 553 142 575C144.667 600.333 152.667 620.333 166 635C180 649 198.333 656.667 221 658C230.333 658 239.333 657.333 248 656C257.333 654 266.667 651.333 276 648C297.333 640.667 317.667 630.667 337 618C357 604.667 376 590.333 394 575C411.333 561 427.667 546.667 443 532C459 516.667 475 501.667 491 487C498.333 480.333 506 474.333 514 469C522 463 530.333 457.667 539 453C541.667 451 545 450.333 549 451C553 451.667 556.333 453 559 455C561.667 457.667 563.667 461.333 565 466C566.333 470.667 566.333 474.667 565 478C561.667 487.333 558.667 496.667 556 506C553.333 514.667 549.667 523 545 531C519.667 572.333 492 610.667 462 646C432.667 680.667 398.667 710.667 360 736C332.667 754 306 767 280 775C254.667 783.667 226 788.333 194 789ZM601.664 587C601.664 548.333 602.997 512.333 605.664 479C608.331 445 616.664 412.333 630.664 381C638.664 363 648.997 350 661.664 342C674.331 334 686.997 330.333 699.664 331C712.331 331.667 724.331 336.667 735.664 346C746.997 355.333 755.664 368.667 761.664 386C766.331 401.333 768.331 417.333 767.664 434C766.997 450 764.997 465 761.664 479C752.331 520.333 742.997 564.333 733.664 611C724.331 657 716.331 701 709.664 743C704.997 754.333 696.997 760 685.664 760C674.331 760 662.997 754 651.664 742C642.331 732.667 634.664 721.667 628.664 709C622.664 696.333 617.664 683 613.664 669C610.331 655 607.664 641 605.664 627C604.331 613 602.997 599.667 601.664 587ZM800.664 230C804.664 239.333 806.331 249 805.664 259C805.664 269 803.664 278 799.664 286C796.331 294 791.331 301 784.664 307C778.664 312.333 771.331 315.333 762.664 316C753.331 316.667 743.997 315.667 734.664 313C725.331 309.667 716.331 305.333 707.664 300C699.664 294.667 692.331 288.333 685.664 281C678.997 273 673.997 264.667 670.664 256C667.331 247.333 665.997 238.333 666.664 229C667.997 219 670.997 210 675.664 202C680.331 194 686.331 187.333 693.664 182C700.997 176.667 709.331 174 718.664 174C735.997 173.333 752.664 178.333 768.664 189C784.664 199.667 795.331 213.333 800.664 230ZM983.789 624C1013.12 586 1035.46 544.667 1050.79 500C1066.79 454.667 1076.12 411 1078.79 369C1079.46 353.667 1078.79 338 1076.79 322C1075.46 305.333 1076.46 289.667 1079.79 275C1087.12 256.333 1098.79 247.667 1114.79 249C1130.79 249.667 1149.12 257 1169.79 271C1191.12 288.333 1204.79 310.667 1210.79 338C1217.46 365.333 1218.46 394.667 1213.79 426C1209.12 457.333 1200.46 489.333 1187.79 522C1175.12 554 1160.79 584 1144.79 612C1129.46 639.333 1113.79 663.333 1097.79 684C1081.79 704 1068.12 717.333 1056.79 724C1047.46 733.333 1034.12 741.667 1016.79 749C1000.12 755.667 985.122 761 971.789 765C945.122 768.333 922.122 762.667 902.789 748C884.122 732.667 868.789 712 856.789 686C845.456 659.333 837.122 629 831.789 595C827.122 561 825.122 527.333 825.789 494C826.456 460 830.122 427.667 836.789 397C843.456 366.333 852.456 341.333 863.789 322C873.122 300.667 886.456 286 903.789 278C921.789 270 940.456 272.333 959.789 285C969.789 293.667 976.789 303.333 980.789 314C984.789 324 986.456 334.667 985.789 346C985.789 356.667 984.122 367.667 980.789 379C978.122 390.333 975.456 401.333 972.789 412C966.122 432.667 960.456 455 955.789 479C951.789 502.333 946.789 524.333 940.789 545C936.789 552.333 934.456 564 933.789 580C933.789 595.333 935.122 609.333 937.789 622C941.122 634 946.456 641.667 953.789 645C961.789 648.333 971.789 641.333 983.789 624ZM1456.39 335C1469.72 333 1487.72 330.333 1510.39 327C1533.06 323 1555.39 320 1577.39 318C1599.39 315.333 1618.39 314.333 1634.39 315C1650.39 315.667 1658.72 319.333 1659.39 326C1662.72 344.667 1658.72 361.333 1647.39 376C1636.72 390 1621.39 400.667 1601.39 408C1591.39 412 1578.39 416.333 1562.39 421C1546.39 425 1529.72 429 1512.39 433C1495.06 437 1478.06 441 1461.39 445C1445.39 448.333 1432.39 451.667 1422.39 455C1419.72 463.667 1416.39 475 1412.39 489C1408.39 503 1404.39 517.667 1400.39 533C1397.06 548.333 1394.06 563.667 1391.39 579C1389.39 594.333 1388.72 608 1389.39 620C1390.72 631.333 1393.72 640.333 1398.39 647C1403.72 653 1412.06 654.667 1423.39 652C1453.39 642 1480.72 632 1505.39 622C1530.06 611.333 1553.06 600.333 1574.39 589C1596.39 577.667 1617.39 565.667 1637.39 553C1657.39 540.333 1677.72 526 1698.39 510C1706.39 502.667 1714.39 495.667 1722.39 489C1730.39 482.333 1737.06 478 1742.39 476C1747.72 473.333 1751.72 474.333 1754.39 479C1757.06 483 1757.06 492.333 1754.39 507C1751.06 522.333 1746.06 536.667 1739.39 550C1733.39 563.333 1726.39 575.667 1718.39 587C1699.72 613.667 1679.06 637.667 1656.39 659C1633.72 679.667 1609.72 698.333 1584.39 715C1559.72 731 1534.06 745.333 1507.39 758C1481.39 771.333 1455.39 783.333 1429.39 794C1404.06 802 1380.72 804 1359.39 800C1338.06 796.667 1319.06 788.667 1302.39 776C1286.39 764 1273.39 748.333 1263.39 729C1253.39 709.667 1247.72 689 1246.39 667C1245.06 645.667 1245.06 626.333 1246.39 609C1248.39 591 1251.06 573.667 1254.39 557C1258.39 539.667 1262.39 522.333 1266.39 505C1271.06 487.667 1275.39 468.667 1279.39 448C1272.06 440.667 1265.72 432.333 1260.39 423C1255.72 413.667 1253.72 404.333 1254.39 395C1255.72 385.667 1260.39 377 1268.39 369C1277.06 361 1291.39 354.667 1311.39 350C1314.06 342 1318.06 330 1323.39 314C1328.72 297.333 1333.72 279.667 1338.39 261C1343.06 242.333 1346.72 224.667 1349.39 208C1352.72 190.667 1353.72 178 1352.39 170C1348.39 148 1354.72 131.667 1371.39 121C1385.39 110.333 1399.39 101.667 1413.39 95C1454.06 74.9999 1495.06 59.3333 1536.39 48C1577.72 36 1619.39 27.6666 1661.39 22.9999C1677.39 21.6666 1694.06 21.6666 1711.39 22.9999C1728.72 24.3333 1745.06 27.6666 1760.39 33C1775.72 37.6666 1789.72 45 1802.39 54.9999C1815.06 64.3333 1824.72 76.3333 1831.39 91C1836.06 103.667 1836.39 114.667 1832.39 124C1829.06 132.667 1822.39 138 1812.39 140C1771.06 138.667 1727.06 141.333 1680.39 148C1633.72 154.667 1587.39 169.333 1541.39 192C1527.39 198.667 1516.39 205 1508.39 211C1500.39 216.333 1493.72 222.667 1488.39 230C1483.72 236.667 1479.72 245 1476.39 255C1473.72 264.333 1470.06 276.333 1465.39 291C1464.06 296.333 1462.72 303.333 1461.39 312C1460.06 320 1458.39 327.667 1456.39 335Z" fill="white"/>
</g>
<defs>
<filter id="filter0_i" x="2.93335" y="22" width="1832.23" height="830" filterUnits="userSpaceOnUse" color-interpolation-filters="sRGB">
<feFlood flood-opacity="0" result="BackgroundImageFix"/>
<feBlend mode="normal" in="SourceGraphic" in2="BackgroundImageFix" result="shape"/>
<feColorMatrix in="SourceAlpha" type="matrix" values="0 0 0 0 0 0 0 0 0 0 0 0 0 0 0 0 0 0 127 0" result="hardAlpha"/>
<feOffset dy="50"/>
<feGaussianBlur stdDeviation="30"/>
<feComposite in2="hardAlpha" operator="arithmetic" k2="-1" k3="1"/>
<feColorMatrix type="matrix" values="0 0 0 0 0 0 0 0 0 0 0 0 0 0 0 0 0 0 0.25 0"/>
<feBlend mode="normal" in2="shape" result="effect1_innerShadow"/>
</filter>
</defs>
</svg>
