<svg width="100" height="34" viewBox="0 0 100 34" fill="none" xmlns="http://www.w3.org/2000/svg">
<g clip-path="url(#clip0)">
<path d="M11.5029 26.9019H10.8536V17.6997L7.66247 15.9001L7.07805 17.6533L2.71812 19.7034C1.48436 20.2878 0.686582 21.5401 0.686582 22.9038V26.9019H0.0372314V22.8945C0.0372314 21.2804 0.983429 19.7962 2.43983 19.1097L6.54929 17.1709L7.29141 14.9353L11.5029 17.3101V26.9019V26.9019Z" fill="white"/>
<path d="M22.3191 26.9019H21.6698V22.8945C21.6698 21.5308 20.872 20.2785 19.6382 19.6941L15.2783 17.644L14.6939 15.8908L12.4397 17.1616L12.1243 16.5958L15.065 14.9353L15.8071 17.1709L19.9165 19.1097C21.3729 19.7962 22.3191 21.2804 22.3191 22.8945V26.9019Z" fill="white"/>
<path d="M8.31177 14.7302H8.96112V16.066H8.31177V14.7302Z" fill="white"/>
<path d="M13.6368 14.7302H14.2861V16.066H13.6368V14.7302Z" fill="white"/>
<path d="M15.3826 17.1216L15.7046 17.6855L12.8045 19.3412L12.4825 18.7773L15.3826 17.1216Z" fill="white"/>
<path d="M7.05353 17.1277L9.95389 18.7831L9.63201 19.3471L6.73165 17.6916L7.05353 17.1277Z" fill="white"/>
<path d="M16.2246 11.3355L15.8443 10.8067L16.3452 10.4449C16.5586 10.2872 16.7998 10.0275 16.8091 9.76774V9.71209C16.8183 9.46162 16.8554 8.81227 16.7441 8.6824C16.6235 8.61747 16.3174 8.71024 16.1875 8.83083L15.7608 8.33918C16.0298 8.10727 16.6421 7.87536 17.0688 8.12582C17.5233 8.38556 17.4862 9.10912 17.4491 9.74919V9.80485C17.4306 10.2223 17.1523 10.6583 16.707 10.9737L16.2246 11.3355Z" fill="white"/>
<path d="M6.30831 11.3355L5.80738 10.9737C5.37138 10.6583 5.09308 10.2223 5.06525 9.80485V9.74919C5.02814 9.10912 4.99104 8.38556 5.44559 8.12582C5.88159 7.87536 6.48457 8.10727 6.75359 8.33918L6.32686 8.83083C6.18772 8.71951 5.89086 8.61747 5.77027 8.6824C5.65895 8.81227 5.69606 9.46162 5.70533 9.71209V9.76774C5.71461 10.0275 5.9558 10.2872 6.16916 10.4449L6.6701 10.8067L6.30831 11.3355Z" fill="white"/>
<path d="M11.271 15.0552C10.7051 15.0552 10.1486 14.9068 9.6569 14.6192C8.41386 13.8956 6.92963 12.7453 6.92963 11.2982V6.63218C6.92963 6.01993 7.0595 5.41696 7.30996 4.89748C7.81089 3.84925 8.88695 2.6062 11.1782 2.6062C13.2933 2.6062 14.3879 3.56167 14.9352 4.36872C15.3805 5.02735 15.6216 5.81585 15.6216 6.65073V11.3075C15.6216 12.7454 14.1374 13.9049 12.8944 14.6285C12.3934 14.8975 11.8369 15.0552 11.271 15.0552ZM11.1782 3.25555C9.22091 3.25555 8.31182 4.30379 7.89438 5.17578C7.68102 5.61177 7.5697 6.12197 7.5697 6.63218V11.2982C7.5697 12.4856 9.08176 13.5338 9.9723 14.0533C10.3619 14.276 10.8072 14.3966 11.2617 14.3966C11.7163 14.3966 12.1615 14.276 12.5511 14.0533C13.451 13.5338 14.9537 12.4856 14.9537 11.2982V6.64145C14.9537 5.93644 14.7589 5.27782 14.3786 4.73051C13.7293 3.74721 12.6439 3.25555 11.1782 3.25555Z" fill="white"/>
<path d="M6.86473 26.6884H6.21538C6.21538 21.1782 4.21167 18.7663 4.19312 18.7385L4.68477 18.3118C4.77753 18.4138 6.86473 20.9092 6.86473 26.6884Z" fill="white"/>
<path d="M16.4102 26.6889H15.7608C15.7608 20.9097 17.8573 18.4236 17.9408 18.3215L18.4324 18.7482C18.4231 18.7575 16.4102 21.1787 16.4102 26.6889Z" fill="white"/>
<path d="M48.117 27.0504L47.4676 26.9947C47.4676 26.9576 47.7645 23.4697 47.3841 22.0411C47.0965 20.9651 44.3971 18.4234 43.0798 17.2638C42.5232 18.0152 40.8906 19.8241 38.2839 19.8241C35.6587 19.8241 33.924 17.9874 33.3395 17.2545C32.0223 18.4048 29.3135 20.9558 29.026 22.0411C28.6456 23.479 28.9425 26.9669 28.9425 26.9947L28.2931 27.0504C28.2839 26.902 27.987 23.414 28.3952 21.8742C28.5807 21.1784 29.4249 20.1024 30.974 18.5718C32.0872 17.4679 33.1726 16.5403 33.1818 16.531L33.4601 16.2898L33.6642 16.5959C33.6828 16.6237 35.436 19.1655 38.2932 19.1655C41.1503 19.1655 42.7366 16.633 42.7552 16.6052L42.95 16.2805L43.2375 16.531C43.2468 16.5403 44.3322 17.4679 45.4453 18.5718C46.9945 20.1024 47.8387 21.1784 48.0242 21.8742C48.4324 23.414 48.1355 26.902 48.117 27.0504Z" fill="white"/>
<path d="M38.2747 15.0094C37.7459 15.0094 37.2172 14.8703 36.7441 14.6013C35.5752 13.9241 34.1745 12.8295 34.1745 11.4751V6.7627H34.8239V11.4751C34.8239 12.579 36.2339 13.553 37.0687 14.0447C37.8109 14.4714 38.7292 14.4714 39.4713 14.0447C40.3062 13.5623 41.7162 12.579 41.7162 11.4751V7.35638H42.3656V11.4751C42.3656 12.8295 40.9648 13.9241 39.796 14.6013C39.3322 14.8703 38.8034 15.0094 38.2747 15.0094Z" fill="white"/>
<path d="M42.9314 11.5206L42.5511 10.9918L43.0242 10.6486C43.2283 10.5095 43.4416 10.2683 43.4509 10.0271V9.97143C43.4602 9.72097 43.4973 9.14584 43.3952 9.02525C43.2932 8.97886 43.0242 9.05307 42.8943 9.16439L42.4677 8.67275C42.7274 8.45011 43.3025 8.22748 43.7199 8.46867C44.1559 8.71913 44.1188 9.40558 44.0909 10.0085V10.0642C44.0724 10.4631 43.8127 10.8805 43.386 11.1774L42.9314 11.5206Z" fill="white"/>
<path d="M33.6087 11.5206L33.1356 11.1774C32.7182 10.8805 32.4584 10.4631 32.4306 10.0642V10.0085C32.4027 9.40558 32.3656 8.71913 32.8016 8.46867C33.2191 8.22748 33.7943 8.45011 34.054 8.67275L33.6273 9.16439C33.4974 9.05307 33.2284 8.97886 33.1263 9.02525C33.0336 9.15511 33.0614 9.73025 33.0707 9.97143V10.0271C33.08 10.2683 33.3026 10.5002 33.4974 10.6486L33.9705 10.9918L33.6087 11.5206Z" fill="white"/>
<path d="M41.9018 17.0691C41.1968 16.7166 40.3341 16.3363 40.3248 16.3363L40.13 16.2528V14.8242H40.7794V15.8354C41.0762 15.9652 41.6792 16.2435 42.1894 16.494L41.9018 17.0691Z" fill="white"/>
<path d="M34.4712 17.0686L34.1837 16.4842C34.7032 16.2337 35.2969 15.9555 35.5938 15.8256V14.8145H36.2432V16.243L36.0484 16.3265C36.0391 16.3358 35.1763 16.7161 34.4712 17.0686Z" fill="white"/>
<path d="M41.0298 7.70852H37.7552C35.8628 7.70852 34.8888 5.85324 34.8517 5.77902L35.4268 5.48218C35.4361 5.50073 36.2617 7.05917 37.7552 7.05917H41.0298V7.70852V7.70852Z" fill="white"/>
<path d="M45.7884 17.9777L45.1391 17.9499C45.1669 17.3098 44.9257 16.7347 44.6011 15.9369C44.4434 15.5566 44.2671 15.1299 44.1001 14.6289C43.5621 13.0798 43.9796 11.2801 44.4155 10.0464C44.9257 8.59924 44.8794 7.06863 44.2671 5.7421C43.0148 3.00555 39.9536 1.6048 36.9759 2.42113C35.2413 2.9035 34.4064 4.22076 34.3971 4.23004L34.2951 4.38774L34.1096 4.37846C33.3582 4.35063 32.8109 4.70314 32.4213 5.46381C32.3935 5.51947 32.3656 5.56584 32.3378 5.6215C31.6885 6.96658 31.6235 8.58997 32.143 10.0556C32.579 11.2894 32.9964 13.0705 32.4584 14.6196C32.2821 15.1206 32.1059 15.5473 31.9575 15.9276C31.6328 16.7254 31.4009 17.3005 31.4194 17.9406L30.7701 17.9684C30.7423 17.1892 31.0113 16.5306 31.3545 15.6864C31.5029 15.3154 31.6792 14.8979 31.8462 14.4063C32.3192 13.0334 31.9296 11.4007 31.5308 10.269C30.9464 8.63635 31.0298 6.83672 31.7441 5.33393C31.7719 5.27828 31.7998 5.21334 31.8276 5.15768C32.3007 4.23931 33.0242 3.74766 33.9426 3.71983C34.2394 3.31167 35.1671 2.2356 36.7904 1.78106C40.0742 0.881245 43.4601 2.42113 44.8423 5.45453C45.5194 6.93876 45.5844 8.64562 45.0092 10.2504C44.6011 11.3822 44.2207 13.0334 44.6938 14.4063C44.8608 14.8887 45.0278 15.3154 45.1855 15.6864C45.5472 16.5399 45.8163 17.1985 45.7884 17.9777Z" fill="white"/>
<path d="M38.293 21.6518C34.7401 21.6518 33.0982 19.3513 33.024 19.2492L33.5527 18.8782C33.6177 18.9617 35.0834 21.0025 38.2837 21.0025C41.4841 21.0025 42.7643 18.9153 42.7828 18.8967L43.3394 19.2307C43.2837 19.3327 41.8552 21.6518 38.293 21.6518Z" fill="white"/>
<path d="M54.3322 26.7811H53.6829V22.7736C53.6829 21.1595 54.6291 19.6753 56.0855 18.9889L60.1949 17.0501L60.937 14.8145L64.9816 17.0965L64.6662 17.6623L61.3081 15.7699L60.7237 17.5232L56.3637 19.5733C55.13 20.1577 54.3322 21.41 54.3322 22.7736V26.7811Z" fill="white"/>
<path d="M75.9742 26.7811H75.3249V22.7736C75.3249 21.41 74.5271 20.1577 73.2933 19.5733L68.9334 17.5232L68.349 15.7699L66.0948 17.0408L65.7794 16.4749L68.7201 14.8145L69.4622 17.0501L73.5716 18.9889C75.028 19.6753 75.9742 21.1595 75.9742 22.7736V26.7811V26.7811Z" fill="white"/>
<path d="M64.9261 14.9262C64.3695 14.9262 63.8036 14.7778 63.3119 14.4902C62.0595 13.7759 60.5753 12.6164 60.5753 11.1785V6.8186H61.2246V11.1785C61.2246 11.6887 61.54 12.7277 63.6273 13.9336C64.4251 14.3975 65.4177 14.3975 66.2155 13.9336C68.3121 12.7277 68.6182 11.6887 68.6182 11.1785V6.79077H69.2676V11.1785C69.2676 12.6164 67.7833 13.7759 66.5402 14.4995C66.0393 14.7871 65.4827 14.9262 64.9261 14.9262Z" fill="white"/>
<path d="M61.9574 14.6106H62.6068V15.9466H61.9574V14.6106Z" fill="white"/>
<path d="M67.2913 14.6106H67.9406V15.9466H67.2913V14.6106Z" fill="white"/>
<path d="M69.8794 11.2159L69.4991 10.6871L70 10.3253C70.2134 10.1676 70.4545 9.90789 70.4638 9.64814V9.59249C70.4731 9.34202 70.5102 8.69266 70.3989 8.56279C70.2783 8.49785 69.9722 8.59062 69.8423 8.71122L69.4156 8.21955C69.6846 7.98764 70.2968 7.75573 70.7236 8.0062C71.1781 8.26594 71.141 8.98951 71.1039 9.62959V9.68525C71.0853 10.1027 70.807 10.5387 70.3618 10.8541L69.8794 11.2159Z" fill="white"/>
<path d="M59.9631 11.2159L59.4621 10.8541C59.0262 10.5387 58.7479 10.1027 58.72 9.68525V9.62959C58.6829 8.98951 58.6458 8.26594 59.1004 8.0062C59.5363 7.75573 60.1393 7.98764 60.4083 8.21955L59.9816 8.71122C59.8425 8.5999 59.5456 8.49785 59.425 8.56279C59.3137 8.69266 59.3508 9.34202 59.3601 9.59249V9.64814C59.3694 9.90789 59.6106 10.1676 59.8239 10.3253L60.3248 10.6871L59.9631 11.2159Z" fill="white"/>
<path d="M62.3935 26.4105L61.4287 23.0153L60.2599 22.6443L59.2859 17.7556L59.926 17.6257L60.8258 22.1434L61.9575 22.4959L63.015 26.2343L62.3935 26.4105Z" fill="white"/>
<path d="M67.2264 26.4105L66.6049 26.2343L67.6624 22.4959L68.7942 22.1434L69.694 17.6257L70.334 17.7556L69.36 22.6443L68.1912 23.0153L67.2264 26.4105Z" fill="white"/>
<path d="M61.4102 21.7171V16.7078L63.6458 18.09L63.3026 18.6373L62.0596 17.8766V20.5483L63.3026 19.7783L63.6458 20.3349L61.4102 21.7171Z" fill="white"/>
<path d="M68.247 21.7171L66.0114 20.3349L66.3546 19.7783L67.5976 20.5483V17.8766L66.3546 18.6373L66.0114 18.09L68.247 16.7078V21.7171Z" fill="white"/>
<path d="M65.9278 20.6037H63.7943V17.793H65.9278V20.6037ZM64.4436 19.9544H65.2785V18.4423H64.4436V19.9544Z" fill="white"/>
<path d="M64.5084 21.3818H65.1577V26.317H64.5084V21.3818Z" fill="white"/>
<path d="M67.2267 8.8314L66.9484 8.08929C66.132 5.90935 62.6533 5.97429 62.6161 5.97429L62.5976 5.32495C62.6347 5.32495 63.5902 5.30639 64.6663 5.59396C65.8166 5.90008 66.6701 6.44738 67.1896 7.18021C67.3566 6.62363 67.4957 5.91863 67.3287 5.50119L67.9317 5.26001C68.108 5.70527 68.0987 6.32679 67.8853 7.106C67.7369 7.66258 67.5514 8.09857 67.5421 8.11712L67.2267 8.8314Z" fill="white"/>
<path d="M69.657 8.09891L69.5642 7.20837C69.3509 5.15828 67.0874 4.19353 67.0689 4.18425L67.3193 3.58128C67.4121 3.61839 69.2303 4.39761 69.9446 6.10447C70.0744 5.38091 70.0002 4.30484 68.9334 3.11746C68.2934 2.40317 66.336 1.68889 64.555 1.79093C63.7479 1.83731 62.6533 2.0785 62.041 2.94121L61.9019 3.12674L61.6792 3.0618C61.3824 2.96904 60.6217 3.10819 60.2785 3.43286C59.4529 4.23991 59.4993 5.33453 59.7868 6.00243C59.7961 5.98388 59.8147 5.96532 59.824 5.94677C60.1394 5.52006 60.5568 5.29742 61.0392 5.29742V5.94677C60.3713 5.94677 60.1394 6.71672 60.1301 6.75382L59.9724 7.29185L59.5828 6.88369C58.8221 6.08592 58.5438 4.21208 59.824 2.96904C60.2599 2.54232 61.0763 2.33824 61.6329 2.3939C62.2544 1.64251 63.247 1.20652 64.5178 1.13231C66.3546 1.02099 68.5624 1.71672 69.4251 2.67219C70.5661 3.93379 70.7052 5.13045 70.631 5.90967C70.5475 6.7631 70.1858 7.31968 70.1672 7.33824L69.657 8.09891Z" fill="white"/>
<path d="M99.8426 26.3906L99.1932 26.3442C99.1932 26.2978 99.4901 21.8915 99.1097 20.4536C98.8222 19.3776 96.0577 17.3739 94.7776 16.5297L90.0187 20.7783L85.0929 16.5297C83.8127 17.3739 81.039 19.3776 80.7514 20.4536C80.3711 21.8915 80.668 26.2978 80.668 26.3442L80.0186 26.3906C80.0093 26.205 79.7125 21.8358 80.1206 20.2867C80.5381 18.7004 84.4899 16.1401 84.9352 15.8525L85.1393 15.7227L90.0094 19.9156L94.7126 15.7227L94.9167 15.8525C95.362 16.1401 99.3138 18.7004 99.7313 20.2867C100.149 21.8266 99.8519 26.205 99.8426 26.3906Z" fill="white"/>
<path d="M90.0001 14.36C89.4714 14.36 88.9426 14.2209 88.4695 13.9519C87.3007 13.2747 85.9 12.1801 85.9 10.8257V6.11328H86.5493V10.8257C86.5493 11.9296 87.9593 12.9036 88.7942 13.3953C89.5363 13.822 90.4547 13.822 91.1968 13.3953C92.0317 12.9129 93.4417 11.9296 93.4417 10.8257V6.70697H94.0911V10.8257C94.0911 12.1801 92.6903 13.2747 91.5215 13.9519C91.0484 14.2209 90.5289 14.36 90.0001 14.36Z" fill="white"/>
<path d="M94.657 10.8712L94.2766 10.3425L94.7498 9.99924C94.9539 9.8601 95.1673 9.6189 95.1765 9.37771V9.32206C95.1858 9.07159 95.2229 8.50572 95.1209 8.37585C95.0188 8.32946 94.7498 8.40368 94.6199 8.515L94.1931 8.02334C94.4529 7.8007 95.0281 7.57806 95.4456 7.81925C95.8816 8.06972 95.8445 8.75619 95.8167 9.35917V9.41482C95.7981 9.81371 95.5384 10.2312 95.1116 10.528L94.657 10.8712Z" fill="white"/>
<path d="M85.3246 10.8712L84.8516 10.528C84.4341 10.2312 84.1744 9.81371 84.1466 9.41482V9.35917C84.1188 8.75619 84.0816 8.06972 84.5176 7.81925C84.935 7.57806 85.5101 7.8007 85.7699 8.02334L85.3432 8.515C85.2133 8.40368 84.9443 8.32946 84.8423 8.37585C84.7495 8.50572 84.7773 9.08087 84.7866 9.32206V9.37771C84.7959 9.6189 85.0185 9.85082 85.2133 9.99924L85.6864 10.3425L85.3246 10.8712Z" fill="white"/>
<path d="M93.6273 16.4099C92.9223 16.0574 92.0596 15.6771 92.0503 15.6771L91.8555 15.5936V14.165H92.5048V15.1762C92.8017 15.306 93.4046 15.5843 93.9149 15.8348L93.6273 16.4099Z" fill="white"/>
<path d="M86.1876 16.4095L85.9 15.825C86.4195 15.5746 87.0133 15.2963 87.3102 15.1664V14.1553H87.9596V15.5838L87.7648 15.6673C87.7648 15.6859 86.902 16.0662 86.1876 16.4095Z" fill="white"/>
<path d="M92.7553 7.05911H89.4807C87.5883 7.05911 86.6143 5.20382 86.5771 5.12961L87.1523 4.83276C87.1616 4.85132 87.9872 6.40976 89.4807 6.40976H92.7553V7.05911Z" fill="white"/>
<path d="M94.063 12.8661V12.2167C94.6103 12.2167 95.1205 11.6787 95.4452 11.2242C96.0574 10.3615 96.4192 9.30395 96.4748 8.15367C96.5398 7.02194 96.3543 5.89949 95.9925 5.10172C94.7402 2.36517 91.6789 0.964428 88.7012 1.78075C86.9758 2.25385 86.1317 3.58038 86.1224 3.58966L86.0204 3.74736L85.8348 3.73808C85.0927 3.71025 84.5361 4.06276 84.1465 4.82343C84.1187 4.87908 84.0909 4.92547 84.063 4.98113C83.423 6.31693 83.2931 7.89393 83.7105 9.40599C84.1187 10.8902 85.2782 11.6787 85.9554 11.6787V12.3281C84.5083 12.3281 83.3859 10.6861 83.0797 9.58224C82.6252 7.91248 82.7644 6.18706 83.4786 4.70283C83.5065 4.64717 83.5343 4.58224 83.5621 4.52658C84.0352 3.60821 84.7588 3.11656 85.6771 3.08873C85.974 2.68057 86.9016 1.6045 88.525 1.14996C91.8088 0.250141 95.1947 1.79003 96.5769 4.82343C96.985 5.72324 97.1891 6.94773 97.1149 8.1815C97.05 9.45237 96.6511 10.6305 95.9646 11.5952C95.371 12.4394 94.7309 12.8661 94.063 12.8661Z" fill="white"/>
<path d="M95.6959 4.50786L95.5382 4.26668C94.9074 3.30193 94.0168 2.54126 92.9593 2.07744L92.6996 1.96612L92.7738 1.6971C93.0521 0.723077 93.9519 0.0366211 94.9723 0.0366211C96.2339 0.0366211 97.2543 1.05703 97.2543 2.31863C97.2543 3.19989 96.7441 4.00694 95.9463 4.38727L95.6959 4.50786ZM93.4974 1.62289C94.4621 2.10527 95.2784 2.801 95.9092 3.66371C96.3452 3.35759 96.605 2.85666 96.605 2.31863C96.605 1.41881 95.8721 0.685972 94.9723 0.685972C94.3415 0.685972 93.7664 1.05703 93.4974 1.62289Z" fill="white"/>
<path d="M89.6848 20.343H90.3341V26.3634H89.6848V20.343Z" fill="white"/>
<path d="M91.9668 22.9307C91.4287 22.9307 90.9927 22.4947 90.9927 21.9567C90.9927 21.4187 91.4287 20.9827 91.9668 20.9827C92.5048 20.9827 92.9408 21.4187 92.9408 21.9567C92.9408 22.4947 92.5048 22.9307 91.9668 22.9307ZM91.9668 21.6413C91.7905 21.6413 91.6421 21.7897 91.6421 21.966C91.6421 22.1422 91.7905 22.2906 91.9668 22.2906C92.143 22.2906 92.2914 22.1422 92.2914 21.966C92.2914 21.7897 92.143 21.6413 91.9668 21.6413Z" fill="white"/>
<path d="M91.9668 26.4C91.4287 26.4 90.9927 25.964 90.9927 25.4259C90.9927 24.8879 91.4287 24.4519 91.9668 24.4519C92.5048 24.4519 92.9408 24.8879 92.9408 25.4259C92.9408 25.964 92.5048 26.4 91.9668 26.4ZM91.9668 25.1013C91.7905 25.1013 91.6421 25.2497 91.6421 25.4259C91.6421 25.6022 91.7905 25.7506 91.9668 25.7506C92.143 25.7506 92.2914 25.6022 92.2914 25.4259C92.2914 25.2497 92.143 25.1013 91.9668 25.1013Z" fill="white"/>
<path d="M2.08012 29.825V29.6225C2.08012 29.5475 2.09262 29.4783 2.11762 29.415C2.14428 29.35 2.18928 29.285 2.25262 29.22L2.36512 29.3075C2.32512 29.3475 2.29512 29.385 2.27512 29.42C2.25678 29.455 2.24512 29.4908 2.24012 29.5275H2.37762V29.825H2.08012ZM2.52762 29.825V29.6225C2.52762 29.5475 2.54012 29.4783 2.56512 29.415C2.59178 29.35 2.63678 29.285 2.70012 29.22L2.81262 29.3075C2.77262 29.3475 2.74262 29.385 2.72262 29.42C2.70428 29.455 2.69262 29.4908 2.68762 29.5275H2.82512V29.825H2.52762ZM3.63695 31V29.455H3.01195V29.2375H4.51945V29.455H3.89445V31H3.63695ZM4.70777 31V29.2375H4.96027V29.97C5.00194 29.9 5.05777 29.8475 5.12777 29.8125C5.19944 29.7758 5.27944 29.7575 5.36777 29.7575C5.65611 29.7575 5.80027 29.9208 5.80027 30.2475V31H5.54777V30.2625C5.54777 30.1575 5.52694 30.0808 5.48527 30.0325C5.44527 29.9842 5.38194 29.96 5.29527 29.96C5.19361 29.96 5.11194 29.9925 5.05027 30.0575C4.99027 30.1208 4.96027 30.205 4.96027 30.31V31H4.70777ZM6.7207 31.0225C6.5207 31.0225 6.3632 30.9667 6.2482 30.855C6.1332 30.7417 6.0757 30.5875 6.0757 30.3925C6.0757 30.2675 6.1007 30.1575 6.1507 30.0625C6.20237 29.9658 6.2732 29.8908 6.3632 29.8375C6.4532 29.7842 6.55654 29.7575 6.6732 29.7575C6.84154 29.7575 6.97404 29.8117 7.0707 29.92C7.16737 30.0267 7.2157 30.1742 7.2157 30.3625V30.4475H6.3207C6.33904 30.7008 6.4732 30.8275 6.7232 30.8275C6.7932 30.8275 6.86154 30.8167 6.9282 30.795C6.99654 30.7733 7.0607 30.7375 7.1207 30.6875L7.1957 30.8625C7.1407 30.9125 7.06987 30.9517 6.9832 30.98C6.89654 31.0083 6.80904 31.0225 6.7207 31.0225ZM6.6832 29.935C6.5782 29.935 6.49487 29.9675 6.4332 30.0325C6.37154 30.0975 6.33404 30.1842 6.3207 30.2925H7.0032C6.9982 30.1792 6.9682 30.0917 6.9132 30.03C6.8582 29.9667 6.78154 29.935 6.6832 29.935ZM8.61271 31.0225C8.50605 31.0225 8.41188 30.9975 8.33021 30.9475C8.25021 30.8958 8.18771 30.8225 8.14271 30.7275C8.09771 30.6325 8.07521 30.52 8.07521 30.39C8.07521 30.26 8.09771 30.1483 8.14271 30.055C8.18771 29.96 8.25021 29.8867 8.33021 29.835C8.41021 29.7833 8.50438 29.7575 8.61271 29.7575C8.70438 29.7575 8.78605 29.7775 8.85771 29.8175C8.92938 29.8575 8.98271 29.9117 9.01771 29.98V29.2375H9.27021V31H9.02271V30.7875C8.98771 30.8608 8.93355 30.9183 8.86021 30.96C8.78855 31.0017 8.70605 31.0225 8.61271 31.0225ZM8.67771 30.8275C8.78105 30.8275 8.86438 30.79 8.92771 30.715C8.99105 30.64 9.02271 30.5317 9.02271 30.39C9.02271 30.2483 8.99105 30.1408 8.92771 30.0675C8.86438 29.9925 8.78105 29.955 8.67771 29.955C8.57271 29.955 8.48855 29.9925 8.42521 30.0675C8.36188 30.1408 8.33021 30.2483 8.33021 30.39C8.33021 30.5317 8.36188 30.64 8.42521 30.715C8.48855 30.79 8.57271 30.8275 8.67771 30.8275ZM10.0148 31.0225C9.92977 31.0225 9.85393 31.0058 9.78727 30.9725C9.7206 30.9392 9.66727 30.8942 9.62727 30.8375C9.58893 30.7808 9.56977 30.7167 9.56977 30.645C9.56977 30.555 9.59227 30.4842 9.63727 30.4325C9.68393 30.3808 9.75977 30.3433 9.86477 30.32C9.97143 30.2967 10.1148 30.285 10.2948 30.285H10.3798V30.22C10.3798 30.125 10.3598 30.0567 10.3198 30.015C10.2798 29.9733 10.2139 29.9525 10.1223 29.9525C10.0523 29.9525 9.98227 29.9633 9.91227 29.985C9.84227 30.005 9.7706 30.0375 9.69727 30.0825L9.61977 29.905C9.6831 29.86 9.76227 29.8242 9.85727 29.7975C9.95227 29.7708 10.0431 29.7575 10.1298 29.7575C10.2964 29.7575 10.4198 29.7975 10.4998 29.8775C10.5798 29.9558 10.6198 30.0792 10.6198 30.2475V31H10.3823V30.7975C10.3523 30.8675 10.3056 30.9225 10.2423 30.9625C10.1789 31.0025 10.1031 31.0225 10.0148 31.0225ZM10.0648 30.8425C10.1548 30.8425 10.2298 30.8108 10.2898 30.7475C10.3498 30.6842 10.3798 30.6042 10.3798 30.5075V30.44H10.2973C10.1756 30.44 10.0798 30.4458 10.0098 30.4575C9.94143 30.4692 9.89227 30.4892 9.86227 30.5175C9.83393 30.5442 9.81977 30.5817 9.81977 30.63C9.81977 30.6933 9.84143 30.745 9.88477 30.785C9.9281 30.8233 9.9881 30.8425 10.0648 30.8425ZM11.395 31.0225C11.295 31.0225 11.2017 31.01 11.115 30.985C11.0284 30.9583 10.9559 30.9217 10.8975 30.875L10.97 30.705C11.0317 30.7483 11.0992 30.7817 11.1725 30.805C11.2475 30.8283 11.3225 30.84 11.3975 30.84C11.4859 30.84 11.5525 30.8242 11.5975 30.7925C11.6425 30.7608 11.665 30.7183 11.665 30.665C11.665 30.6217 11.65 30.5883 11.62 30.565C11.59 30.54 11.545 30.5208 11.485 30.5075L11.2475 30.46C11.0375 30.4167 10.9325 30.3083 10.9325 30.135C10.9325 30.02 10.9784 29.9283 11.07 29.86C11.1617 29.7917 11.2817 29.7575 11.43 29.7575C11.515 29.7575 11.5959 29.77 11.6725 29.795C11.7509 29.82 11.8159 29.8575 11.8675 29.9075L11.795 30.0775C11.745 30.0342 11.6875 30.0008 11.6225 29.9775C11.5575 29.9542 11.4934 29.9425 11.43 29.9425C11.3434 29.9425 11.2775 29.9592 11.2325 29.9925C11.1875 30.0242 11.165 30.0675 11.165 30.1225C11.165 30.2058 11.22 30.2592 11.33 30.2825L11.5675 30.33C11.6759 30.3517 11.7575 30.3883 11.8125 30.44C11.8692 30.4917 11.8975 30.5617 11.8975 30.65C11.8975 30.7667 11.8517 30.8583 11.76 30.925C11.6684 30.99 11.5467 31.0225 11.395 31.0225ZM12.1785 31V29.2375H12.431V29.97C12.4726 29.9 12.5285 29.8475 12.5985 29.8125C12.6701 29.7758 12.7501 29.7575 12.8385 29.7575C13.1268 29.7575 13.271 29.9208 13.271 30.2475V31H13.0185V30.2625C13.0185 30.1575 12.9976 30.0808 12.956 30.0325C12.916 29.9842 12.8526 29.96 12.766 29.96C12.6643 29.96 12.5826 29.9925 12.521 30.0575C12.461 30.1208 12.431 30.205 12.431 30.31V31H12.1785ZM14.2739 31.0225C14.1806 31.0225 14.0981 31.0017 14.0264 30.96C13.9547 30.9183 13.9014 30.8625 13.8664 30.7925V31H13.6189V29.2375H13.8714V29.9775C13.9081 29.9108 13.9614 29.8575 14.0314 29.8175C14.1031 29.7775 14.1839 29.7575 14.2739 29.7575C14.3822 29.7575 14.4764 29.7833 14.5564 29.835C14.6381 29.8867 14.7006 29.96 14.7439 30.055C14.7889 30.1483 14.8114 30.26 14.8114 30.39C14.8114 30.52 14.7889 30.6325 14.7439 30.7275C14.7006 30.8225 14.6381 30.8958 14.5564 30.9475C14.4764 30.9975 14.3822 31.0225 14.2739 31.0225ZM14.2114 30.8275C14.3164 30.8275 14.3997 30.79 14.4614 30.715C14.5247 30.64 14.5564 30.5317 14.5564 30.39C14.5564 30.2483 14.5247 30.1408 14.4614 30.0675C14.3997 29.9925 14.3164 29.955 14.2114 29.955C14.1064 29.955 14.0222 29.9925 13.9589 30.0675C13.8972 30.1408 13.8664 30.2483 13.8664 30.39C13.8664 30.5317 13.8972 30.64 13.9589 30.715C14.0222 30.79 14.1064 30.8275 14.2114 30.8275ZM15.626 31.0225C15.5026 31.0225 15.396 30.9967 15.306 30.945C15.216 30.8933 15.146 30.8208 15.096 30.7275C15.0476 30.6325 15.0235 30.52 15.0235 30.39C15.0235 30.26 15.0476 30.1483 15.096 30.055C15.146 29.96 15.216 29.8867 15.306 29.835C15.396 29.7833 15.5026 29.7575 15.626 29.7575C15.746 29.7575 15.851 29.7833 15.941 29.835C16.031 29.8867 16.101 29.96 16.151 30.055C16.201 30.1483 16.226 30.26 16.226 30.39C16.226 30.52 16.201 30.6325 16.151 30.7275C16.101 30.8208 16.031 30.8933 15.941 30.945C15.851 30.9967 15.746 31.0225 15.626 31.0225ZM15.626 30.8275C15.7293 30.8275 15.8126 30.79 15.876 30.715C15.9393 30.64 15.971 30.5317 15.971 30.39C15.971 30.2483 15.9393 30.1408 15.876 30.0675C15.8126 29.9925 15.7293 29.955 15.626 29.955C15.521 29.955 15.4368 29.9925 15.3735 30.0675C15.3101 30.1408 15.2785 30.2483 15.2785 30.39C15.2785 30.5317 15.3101 30.64 15.3735 30.715C15.4368 30.79 15.521 30.8275 15.626 30.8275ZM16.8995 31.0225C16.8145 31.0225 16.7387 31.0058 16.672 30.9725C16.6054 30.9392 16.552 30.8942 16.512 30.8375C16.4737 30.7808 16.4545 30.7167 16.4545 30.645C16.4545 30.555 16.477 30.4842 16.522 30.4325C16.5687 30.3808 16.6445 30.3433 16.7495 30.32C16.8562 30.2967 16.9995 30.285 17.1795 30.285H17.2645V30.22C17.2645 30.125 17.2445 30.0567 17.2045 30.015C17.1645 29.9733 17.0987 29.9525 17.007 29.9525C16.937 29.9525 16.867 29.9633 16.797 29.985C16.727 30.005 16.6554 30.0375 16.582 30.0825L16.5045 29.905C16.5679 29.86 16.647 29.8242 16.742 29.7975C16.837 29.7708 16.9279 29.7575 17.0145 29.7575C17.1812 29.7575 17.3045 29.7975 17.3845 29.8775C17.4645 29.9558 17.5045 30.0792 17.5045 30.2475V31H17.267V30.7975C17.237 30.8675 17.1904 30.9225 17.127 30.9625C17.0637 31.0025 16.9879 31.0225 16.8995 31.0225ZM16.9495 30.8425C17.0395 30.8425 17.1145 30.8108 17.1745 30.7475C17.2345 30.6842 17.2645 30.6042 17.2645 30.5075V30.44H17.182C17.0604 30.44 16.9645 30.4458 16.8945 30.4575C16.8262 30.4692 16.777 30.4892 16.747 30.5175C16.7187 30.5442 16.7045 30.5817 16.7045 30.63C16.7045 30.6933 16.7262 30.745 16.7695 30.785C16.8129 30.8233 16.8729 30.8425 16.9495 30.8425ZM17.8523 31V29.78H18.0973V29.9975C18.1606 29.8525 18.2923 29.7717 18.4923 29.755L18.5748 29.75L18.5923 29.965L18.4398 29.98C18.2181 30.0017 18.1073 30.1158 18.1073 30.3225V31H17.8523ZM19.2328 31.0225C19.1262 31.0225 19.032 30.9975 18.9503 30.9475C18.8703 30.8958 18.8078 30.8225 18.7628 30.7275C18.7178 30.6325 18.6953 30.52 18.6953 30.39C18.6953 30.26 18.7178 30.1483 18.7628 30.055C18.8078 29.96 18.8703 29.8867 18.9503 29.835C19.0303 29.7833 19.1245 29.7575 19.2328 29.7575C19.3245 29.7575 19.4062 29.7775 19.4778 29.8175C19.5495 29.8575 19.6028 29.9117 19.6378 29.98V29.2375H19.8903V31H19.6428V30.7875C19.6078 30.8608 19.5537 30.9183 19.4803 30.96C19.4087 31.0017 19.3262 31.0225 19.2328 31.0225ZM19.2978 30.8275C19.4012 30.8275 19.4845 30.79 19.5478 30.715C19.6112 30.64 19.6428 30.5317 19.6428 30.39C19.6428 30.2483 19.6112 30.1408 19.5478 30.0675C19.4845 29.9925 19.4012 29.955 19.2978 29.955C19.1928 29.955 19.1087 29.9925 19.0453 30.0675C18.982 30.1408 18.9503 30.2483 18.9503 30.39C18.9503 30.5317 18.982 30.64 19.0453 30.715C19.1087 30.79 19.1928 30.8275 19.2978 30.8275ZM0.76002 34V32.78H1.00502V32.9825C1.04669 32.9092 1.10335 32.8533 1.17502 32.815C1.24835 32.7767 1.33002 32.7575 1.42002 32.7575C1.70835 32.7575 1.85252 32.9208 1.85252 33.2475V34H1.60002V33.2625C1.60002 33.1575 1.57919 33.0808 1.53752 33.0325C1.49752 32.9842 1.43419 32.96 1.34752 32.96C1.24585 32.96 1.16419 32.9925 1.10252 33.0575C1.04252 33.1208 1.01252 33.205 1.01252 33.31V34H0.76002ZM2.77295 34.0225C2.57295 34.0225 2.41545 33.9667 2.30045 33.855C2.18545 33.7417 2.12795 33.5875 2.12795 33.3925C2.12795 33.2675 2.15295 33.1575 2.20295 33.0625C2.25462 32.9658 2.32545 32.8908 2.41545 32.8375C2.50545 32.7842 2.60878 32.7575 2.72545 32.7575C2.89378 32.7575 3.02628 32.8117 3.12295 32.92C3.21962 33.0267 3.26795 33.1742 3.26795 33.3625V33.4475H2.37295C2.39128 33.7008 2.52545 33.8275 2.77545 33.8275C2.84545 33.8275 2.91378 33.8167 2.98045 33.795C3.04878 33.7733 3.11295 33.7375 3.17295 33.6875L3.24795 33.8625C3.19295 33.9125 3.12212 33.9517 3.03545 33.98C2.94878 34.0083 2.86128 34.0225 2.77295 34.0225ZM2.73545 32.935C2.63045 32.935 2.54712 32.9675 2.48545 33.0325C2.42378 33.0975 2.38628 33.1842 2.37295 33.2925H3.05545C3.05045 33.1792 3.02045 33.0917 2.96545 33.03C2.91045 32.9667 2.83378 32.935 2.73545 32.935ZM4.11572 34.0225C3.91572 34.0225 3.75822 33.9667 3.64322 33.855C3.52822 33.7417 3.47072 33.5875 3.47072 33.3925C3.47072 33.2675 3.49572 33.1575 3.54572 33.0625C3.59739 32.9658 3.66822 32.8908 3.75822 32.8375C3.84822 32.7842 3.95156 32.7575 4.06822 32.7575C4.23656 32.7575 4.36906 32.8117 4.46572 32.92C4.56239 33.0267 4.61072 33.1742 4.61072 33.3625V33.4475H3.71572C3.73406 33.7008 3.86822 33.8275 4.11822 33.8275C4.18822 33.8275 4.25656 33.8167 4.32322 33.795C4.39156 33.7733 4.45572 33.7375 4.51572 33.6875L4.59072 33.8625C4.53572 33.9125 4.46489 33.9517 4.37822 33.98C4.29156 34.0083 4.20406 34.0225 4.11572 34.0225ZM4.07822 32.935C3.97322 32.935 3.88989 32.9675 3.82822 33.0325C3.76656 33.0975 3.72906 33.1842 3.71572 33.2925H4.39822C4.39322 33.1792 4.36322 33.0917 4.30822 33.03C4.25322 32.9667 4.17656 32.935 4.07822 32.935ZM5.351 34.0225C5.24433 34.0225 5.15016 33.9975 5.0685 33.9475C4.9885 33.8958 4.926 33.8225 4.881 33.7275C4.836 33.6325 4.8135 33.52 4.8135 33.39C4.8135 33.26 4.836 33.1483 4.881 33.055C4.926 32.96 4.9885 32.8867 5.0685 32.835C5.1485 32.7833 5.24266 32.7575 5.351 32.7575C5.44266 32.7575 5.52433 32.7775 5.596 32.8175C5.66766 32.8575 5.721 32.9117 5.756 32.98V32.2375H6.0085V34H5.761V33.7875C5.726 33.8608 5.67183 33.9183 5.5985 33.96C5.52683 34.0017 5.44433 34.0225 5.351 34.0225ZM5.416 33.8275C5.51933 33.8275 5.60266 33.79 5.666 33.715C5.72933 33.64 5.761 33.5317 5.761 33.39C5.761 33.2483 5.72933 33.1408 5.666 33.0675C5.60266 32.9925 5.51933 32.955 5.416 32.955C5.311 32.955 5.22683 32.9925 5.1635 33.0675C5.10016 33.1408 5.0685 33.2483 5.0685 33.39C5.0685 33.5317 5.10016 33.64 5.1635 33.715C5.22683 33.79 5.311 33.8275 5.416 33.8275ZM6.79055 34.0225C6.69055 34.0225 6.59721 34.01 6.51055 33.985C6.42388 33.9583 6.35138 33.9217 6.29305 33.875L6.36555 33.705C6.42721 33.7483 6.49471 33.7817 6.56805 33.805C6.64305 33.8283 6.71805 33.84 6.79305 33.84C6.88138 33.84 6.94805 33.8242 6.99305 33.7925C7.03805 33.7608 7.06055 33.7183 7.06055 33.665C7.06055 33.6217 7.04555 33.5883 7.01555 33.565C6.98555 33.54 6.94055 33.5208 6.88055 33.5075L6.64305 33.46C6.43305 33.4167 6.32805 33.3083 6.32805 33.135C6.32805 33.02 6.37388 32.9283 6.46555 32.86C6.55721 32.7917 6.67721 32.7575 6.82555 32.7575C6.91055 32.7575 6.99138 32.77 7.06805 32.795C7.14638 32.82 7.21138 32.8575 7.26305 32.9075L7.19055 33.0775C7.14055 33.0342 7.08305 33.0008 7.01805 32.9775C6.95305 32.9542 6.88888 32.9425 6.82555 32.9425C6.73888 32.9425 6.67305 32.9592 6.62805 32.9925C6.58305 33.0242 6.56055 33.0675 6.56055 33.1225C6.56055 33.2058 6.61555 33.2592 6.72555 33.2825L6.96305 33.33C7.07138 33.3517 7.15305 33.3883 7.20805 33.44C7.26471 33.4917 7.29305 33.5617 7.29305 33.65C7.29305 33.7667 7.24721 33.8583 7.15555 33.925C7.06388 33.99 6.94221 34.0225 6.79055 34.0225ZM8.75072 34.0225C8.59739 34.0225 8.48322 33.9833 8.40822 33.905C8.33322 33.8267 8.29572 33.7133 8.29572 33.565V32.975H8.05822V32.78H8.29572V32.4125H8.54822V32.78H8.92572V32.975H8.54822V33.545C8.54822 33.6333 8.56656 33.7 8.60322 33.745C8.64156 33.79 8.70322 33.8125 8.78822 33.8125C8.81489 33.8125 8.84072 33.81 8.86572 33.805C8.89072 33.7983 8.91572 33.7908 8.94072 33.7825L8.98072 33.9725C8.95572 33.9875 8.92072 33.9992 8.87572 34.0075C8.83239 34.0175 8.79072 34.0225 8.75072 34.0225ZM9.6616 34.0225C9.53827 34.0225 9.4316 33.9967 9.3416 33.945C9.2516 33.8933 9.1816 33.8208 9.1316 33.7275C9.08327 33.6325 9.0591 33.52 9.0591 33.39C9.0591 33.26 9.08327 33.1483 9.1316 33.055C9.1816 32.96 9.2516 32.8867 9.3416 32.835C9.4316 32.7833 9.53827 32.7575 9.6616 32.7575C9.7816 32.7575 9.8866 32.7833 9.9766 32.835C10.0666 32.8867 10.1366 32.96 10.1866 33.055C10.2366 33.1483 10.2616 33.26 10.2616 33.39C10.2616 33.52 10.2366 33.6325 10.1866 33.7275C10.1366 33.8208 10.0666 33.8933 9.9766 33.945C9.8866 33.9967 9.7816 34.0225 9.6616 34.0225ZM9.6616 33.8275C9.76493 33.8275 9.84827 33.79 9.9116 33.715C9.97493 33.64 10.0066 33.5317 10.0066 33.39C10.0066 33.2483 9.97493 33.1408 9.9116 33.0675C9.84827 32.9925 9.76493 32.955 9.6616 32.955C9.5566 32.955 9.47243 32.9925 9.4091 33.0675C9.34577 33.1408 9.3141 33.2483 9.3141 33.39C9.3141 33.5317 9.34577 33.64 9.4091 33.715C9.47243 33.79 9.5566 33.8275 9.6616 33.8275ZM11.6669 34.0225C11.5602 34.0225 11.4661 33.9975 11.3844 33.9475C11.3044 33.8958 11.2419 33.8225 11.1969 33.7275C11.1519 33.6325 11.1294 33.52 11.1294 33.39C11.1294 33.26 11.1519 33.1483 11.1969 33.055C11.2419 32.96 11.3044 32.8867 11.3844 32.835C11.4644 32.7833 11.5586 32.7575 11.6669 32.7575C11.7586 32.7575 11.8402 32.7775 11.9119 32.8175C11.9836 32.8575 12.0369 32.9117 12.0719 32.98V32.2375H12.3244V34H12.0769V33.7875C12.0419 33.8608 11.9877 33.9183 11.9144 33.96C11.8427 34.0017 11.7602 34.0225 11.6669 34.0225ZM11.7319 33.8275C11.8352 33.8275 11.9186 33.79 11.9819 33.715C12.0452 33.64 12.0769 33.5317 12.0769 33.39C12.0769 33.2483 12.0452 33.1408 11.9819 33.0675C11.9186 32.9925 11.8352 32.955 11.7319 32.955C11.6269 32.955 11.5427 32.9925 11.4794 33.0675C11.4161 33.1408 11.3844 33.2483 11.3844 33.39C11.3844 33.5317 11.4161 33.64 11.4794 33.715C11.5427 33.79 11.6269 33.8275 11.7319 33.8275ZM13.209 34.0225C13.0856 34.0225 12.979 33.9967 12.889 33.945C12.799 33.8933 12.729 33.8208 12.679 33.7275C12.6306 33.6325 12.6065 33.52 12.6065 33.39C12.6065 33.26 12.6306 33.1483 12.679 33.055C12.729 32.96 12.799 32.8867 12.889 32.835C12.979 32.7833 13.0856 32.7575 13.209 32.7575C13.329 32.7575 13.434 32.7833 13.524 32.835C13.614 32.8867 13.684 32.96 13.734 33.055C13.784 33.1483 13.809 33.26 13.809 33.39C13.809 33.52 13.784 33.6325 13.734 33.7275C13.684 33.8208 13.614 33.8933 13.524 33.945C13.434 33.9967 13.329 34.0225 13.209 34.0225ZM13.209 33.8275C13.3123 33.8275 13.3956 33.79 13.459 33.715C13.5223 33.64 13.554 33.5317 13.554 33.39C13.554 33.2483 13.5223 33.1408 13.459 33.0675C13.3956 32.9925 13.3123 32.955 13.209 32.955C13.104 32.955 13.0198 32.9925 12.9565 33.0675C12.8931 33.1408 12.8615 33.2483 12.8615 33.39C12.8615 33.5317 12.8931 33.64 12.9565 33.715C13.0198 33.79 13.104 33.8275 13.209 33.8275ZM15.2693 34.0225C15.1159 34.0225 15.0018 33.9833 14.9268 33.905C14.8518 33.8267 14.8143 33.7133 14.8143 33.565V32.975H14.5768V32.78H14.8143V32.4125H15.0668V32.78H15.4443V32.975H15.0668V33.545C15.0668 33.6333 15.0851 33.7 15.1218 33.745C15.1601 33.79 15.2218 33.8125 15.3068 33.8125C15.3334 33.8125 15.3593 33.81 15.3843 33.805C15.4093 33.7983 15.4343 33.7908 15.4593 33.7825L15.4993 33.9725C15.4743 33.9875 15.4393 33.9992 15.3943 34.0075C15.3509 34.0175 15.3093 34.0225 15.2693 34.0225ZM15.6624 34V32.2375H15.9149V32.97C15.9565 32.9 16.0124 32.8475 16.0824 32.8125C16.154 32.7758 16.234 32.7575 16.3224 32.7575C16.6107 32.7575 16.7549 32.9208 16.7549 33.2475V34H16.5024V33.2625C16.5024 33.1575 16.4815 33.0808 16.4399 33.0325C16.3999 32.9842 16.3365 32.96 16.2499 32.96C16.1482 32.96 16.0665 32.9925 16.0049 33.0575C15.9449 33.1208 15.9149 33.205 15.9149 33.31V34H15.6624ZM17.0803 32.4975V32.235H17.3753V32.4975H17.0803ZM17.1028 34V32.78H17.3553V34H17.1028ZM18.1382 34.0225C18.0382 34.0225 17.9449 34.01 17.8582 33.985C17.7715 33.9583 17.699 33.9217 17.6407 33.875L17.7132 33.705C17.7749 33.7483 17.8424 33.7817 17.9157 33.805C17.9907 33.8283 18.0657 33.84 18.1407 33.84C18.229 33.84 18.2957 33.8242 18.3407 33.7925C18.3857 33.7608 18.4082 33.7183 18.4082 33.665C18.4082 33.6217 18.3932 33.5883 18.3632 33.565C18.3332 33.54 18.2882 33.5208 18.2282 33.5075L17.9907 33.46C17.7807 33.4167 17.6757 33.3083 17.6757 33.135C17.6757 33.02 17.7215 32.9283 17.8132 32.86C17.9049 32.7917 18.0249 32.7575 18.1732 32.7575C18.2582 32.7575 18.339 32.77 18.4157 32.795C18.494 32.82 18.559 32.8575 18.6107 32.9075L18.5382 33.0775C18.4882 33.0342 18.4307 33.0008 18.3657 32.9775C18.3007 32.9542 18.2365 32.9425 18.1732 32.9425C18.0865 32.9425 18.0207 32.9592 17.9757 32.9925C17.9307 33.0242 17.9082 33.0675 17.9082 33.1225C17.9082 33.2058 17.9632 33.2592 18.0732 33.2825L18.3107 33.33C18.419 33.3517 18.5007 33.3883 18.5557 33.44C18.6124 33.4917 18.6407 33.5617 18.6407 33.65C18.6407 33.7667 18.5949 33.8583 18.5032 33.925C18.4115 33.99 18.2899 34.0225 18.1382 34.0225ZM18.8794 34V33.7025H19.1769V34H18.8794ZM19.4727 34V33.7025H19.7702V34H19.4727ZM20.066 34V33.7025H20.3635V34H20.066ZM20.6524 32.8425L20.5424 32.7575C20.5808 32.7158 20.6091 32.6775 20.6274 32.6425C20.6458 32.6075 20.6583 32.5717 20.6649 32.535H20.5249V32.2375H20.8249V32.44C20.8249 32.515 20.8124 32.585 20.7874 32.65C20.7624 32.715 20.7174 32.7792 20.6524 32.8425ZM21.0999 32.8425L20.9899 32.7575C21.0283 32.7158 21.0566 32.6775 21.0749 32.6425C21.0933 32.6075 21.1058 32.5717 21.1124 32.535H20.9724V32.2375H21.2724V32.44C21.2724 32.515 21.2599 32.585 21.2349 32.65C21.2099 32.715 21.1649 32.7792 21.0999 32.8425Z" fill="white"/>
</g>
<defs>
<clipPath id="clip0">
<rect width="100" height="34" fill="white"/>
</clipPath>
</defs>
</svg>
