<svg xmlns="http://www.w3.org/2000/svg" xmlns:xlink="http://www.w3.org/1999/xlink" version="1.1" x="0px" y="0px" viewBox="0 0 100 125" style="enable-background:new 0 0 100 100;" xml:space="preserve"><path d="M94.46,74.14c0.28,3.05,0.56,6.15,0.54,9.21c0,0.61-0.04,1.26-0.13,1.9c-0.01,0.14-0.03,0.28-0.07,0.41  c-0.26,1.43-0.84,2.78-2.06,3.63c-1.94,1.34-4.54,0.7-6.65,0.24c-2.96-0.64-5.91-1.36-8.83-2.14c-6.02-1.61-11.96-3.51-17.79-5.71  c-1.51-0.57-3.81-2.11-3.59-4.01c0.22-1.9,2.73-1.73,4.02-1.25c4.73,1.78,9.52,3.38,14.37,4.77c2.26,0.64,4.54,1.23,6.83,1.77  c0.98,0.23,1.97,0.46,2.95,0.67c0.66,0.14,1.32,0.28,1.98,0.42c0.57,0.35,0.86,0.23,0.87-0.35c0.07-0.08,0.13-0.16,0.19-0.26  C64.13,56.9,37.34,33.76,7.63,15.05c-1.22-0.77-3.34-2.51-2.39-4.19c0.89-1.59,3.65-0.88,4.83-0.14  c28.5,17.95,54.48,39.67,77.08,64.61c-0.11-1.75-0.24-3.51-0.43-5.25c-0.55-5.1-1.43-10.16-2.55-15.16  c-0.92-4.12,6.78-1.73,7.46,1.31C92.96,62.14,93.9,68.11,94.46,74.14z"/><text x="0" y="115" fill="#000000" font-size="5px" font-weight="bold" font-family="'Helvetica Neue', Helvetica, Arial-Unicode, Arial, Sans-serif">Created by kiddo</text><text x="0" y="120" fill="#000000" font-size="5px" font-weight="bold" font-family="'Helvetica Neue', Helvetica, Arial-Unicode, Arial, Sans-serif">from the Noun Project</text></svg>