<svg xmlns="http://www.w3.org/2000/svg" xmlns:xlink="http://www.w3.org/1999/xlink" version="1.1" x="0px" y="0px" viewBox="0 0 100 125" enable-background="new 0 0 100 100" xml:space="preserve"><g><path d="M93.548,5H23.871c-0.801,0-1.452,0.65-1.452,1.452v8.71v33.386H6.48c-0.801,0-1.452,0.65-1.452,1.452v8.43   C5.01,58.52,5,58.614,5,58.71v26.129C5,90.442,9.558,95,15.161,95h69.677C90.442,95,95,90.442,95,84.839V6.452   C95,5.65,94.35,5,93.548,5z M7.903,84.839V58.99c0.018-0.091,0.028-0.185,0.028-0.281v-7.258h14.488v33.388   c0,4.002-3.256,7.258-7.258,7.258S7.903,88.841,7.903,84.839z M92.097,84.839c0,4.002-3.256,7.258-7.258,7.258H22.259   c1.887-1.846,3.063-4.416,3.063-7.258V50.28c0.018-0.091,0.028-0.185,0.028-0.281c0-0.096-0.01-0.19-0.028-0.281V15.161V7.903   h66.774V84.839z"/><path d="M41.29,65.125h34.839c0.801,0,1.452-0.65,1.452-1.452c0-0.801-0.65-1.452-1.452-1.452H41.29   c-0.801,0-1.452,0.65-1.452,1.452C39.839,64.475,40.489,65.125,41.29,65.125z"/><path d="M65.358,75.895H41.291c-0.801,0-1.452,0.65-1.452,1.452c0,0.801,0.65,1.452,1.452,1.452h24.067   c0.801,0,1.452-0.65,1.452-1.452C66.81,76.545,66.16,75.895,65.358,75.895z"/><path d="M41.29,51.452h34.839c0.801,0,1.452-0.65,1.452-1.452s-0.65-1.452-1.452-1.452H41.29c-0.801,0-1.452,0.65-1.452,1.452   S40.489,51.452,41.29,51.452z"/><path d="M41.29,37.778h34.839c0.801,0,1.452-0.65,1.452-1.452s-0.65-1.452-1.452-1.452H41.29c-0.801,0-1.452,0.65-1.452,1.452   S40.489,37.778,41.29,37.778z"/><path d="M41.29,24.106h34.839c0.801,0,1.452-0.65,1.452-1.452c0-0.801-0.65-1.452-1.452-1.452H41.29   c-0.801,0-1.452,0.65-1.452,1.452C39.839,23.456,40.489,24.106,41.29,24.106z"/></g><text x="0" y="115" fill="#000000" font-size="5px" font-weight="bold" font-family="'Helvetica Neue', Helvetica, Arial-Unicode, Arial, Sans-serif">Created by Viktor Ostrovsky</text><text x="0" y="120" fill="#000000" font-size="5px" font-weight="bold" font-family="'Helvetica Neue', Helvetica, Arial-Unicode, Arial, Sans-serif">from the Noun Project</text></svg>