<svg width="10" height="8" viewBox="0 0 10 8" fill="none" xmlns="http://www.w3.org/2000/svg">
<g clip-path="url(#clip0)">
<path d="M3.33597 3.2272C3.34261 3.21791 3.35323 3.21525 3.36253 3.20994C3.57368 3.09838 3.79679 3.06651 4.0292 3.11698C4.54447 3.22853 4.87515 3.7199 4.7875 4.23915C4.72243 4.62561 4.42894 4.93902 4.04646 5.02667C4.02123 5.03198 3.996 5.0373 3.97209 5.04128C3.95881 5.04394 3.95217 5.04925 3.95217 5.06386C3.9535 5.08643 3.94819 5.10768 3.94155 5.12893C3.93889 5.1369 3.94022 5.14354 3.94952 5.14619C3.95616 5.14885 3.9628 5.15151 3.97077 5.15416C4.18458 5.23251 4.40503 5.25376 4.62947 5.21525C4.96812 5.15682 5.24169 4.98949 5.45152 4.71857C5.49269 4.66545 5.52854 4.60967 5.56042 4.54991C5.56175 4.54593 5.56573 4.54062 5.5644 4.53796C5.56175 4.53265 5.55511 4.5353 5.54979 4.53663C5.52456 4.54327 5.50066 4.54726 5.4741 4.54593C5.30809 4.53132 5.21911 4.35735 5.30544 4.21259C5.31739 4.19267 5.31739 4.194 5.2988 4.17939C5.22575 4.12096 5.19521 4.04526 5.21779 3.95363C5.23903 3.86465 5.2988 3.81153 5.38777 3.79161C5.41168 3.7863 5.41168 3.7863 5.41433 3.76239C5.42496 3.65084 5.51394 3.56585 5.62549 3.56319C5.66268 3.56186 5.66268 3.56186 5.65072 3.52734C5.45816 2.94168 4.87648 2.56983 4.26426 2.6442C3.99334 2.67607 3.75695 2.78497 3.55244 2.96558C3.47541 3.03464 3.40635 3.11166 3.34792 3.19666C3.34128 3.20463 3.328 3.21259 3.33597 3.2272V3.22455V3.2272Z" fill="#D9009B"/>
<path d="M4.7619 4.07018C4.76323 4.01042 4.75526 3.948 4.74331 3.88691C4.65035 3.42211 4.21077 3.07815 3.70612 3.1419C3.38342 3.18306 3.14437 3.3557 2.98767 3.64256C2.96509 3.68372 2.94782 3.72755 2.93189 3.77137C2.92392 3.79395 2.91994 3.79528 2.89603 3.79129C2.88275 3.78864 2.86947 3.78598 2.85486 3.78465C2.76057 3.78067 2.68089 3.85504 2.67691 3.95065C2.67292 4.03963 2.74862 4.12197 2.83893 4.12728C2.84822 4.12728 2.85752 4.12728 2.86814 4.12861C2.87611 4.12994 2.88142 4.13658 2.88275 4.14322C2.88541 4.15118 2.88142 4.15915 2.87478 4.16181C2.86682 4.16579 2.85752 4.16845 2.84822 4.17243C2.78182 4.20298 2.74065 4.25211 2.738 4.32648C2.73534 4.40085 2.76987 4.4553 2.83627 4.4885C2.87611 4.50842 2.91728 4.5124 2.95978 4.49912C2.9704 4.49647 2.9797 4.49647 2.98501 4.50576C2.99165 4.51639 2.98899 4.52568 2.9797 4.53365C2.97704 4.53631 2.97306 4.53896 2.9704 4.54295C2.91861 4.59872 2.90666 4.66114 2.93322 4.73153C2.95845 4.79793 3.02352 4.84042 3.09524 4.84042C3.13375 4.84042 3.16828 4.82847 3.19882 4.80589C3.20812 4.79925 3.21741 4.79527 3.22804 4.80457C3.23866 4.81253 3.23601 4.82316 3.23069 4.83378C3.22804 4.83777 3.22671 4.84175 3.22405 4.84441C3.18421 4.92807 3.21741 5.03166 3.29842 5.07548C3.38076 5.11931 3.48169 5.09009 3.53083 5.00775C3.53348 5.00244 3.53747 4.99713 3.54012 4.99049C3.54543 4.97986 3.5534 4.97322 3.56535 4.97854C3.57731 4.98252 3.57996 4.99182 3.57731 5.0051C3.57598 5.01174 3.57332 5.0197 3.57199 5.02634C3.5534 5.11798 3.61316 5.20695 3.7048 5.22687C3.79245 5.24679 3.88275 5.18969 3.90533 5.10204C3.91064 5.07946 3.91064 5.05822 3.90931 5.03564C3.90798 5.01439 3.91197 5.01041 3.93322 5.00642C3.95048 5.00377 3.96642 5.00244 3.98368 4.99846C4.43786 4.91745 4.7619 4.531 4.7619 4.07018Z" fill="#7578FF"/>
<path d="M4.00164 2.40912C4.00297 2.36928 4.00031 2.33076 3.99632 2.29092C3.99101 2.24577 3.98304 2.20062 3.95914 2.16078C3.92594 2.10633 3.87149 2.09969 3.82501 2.14351C3.81439 2.15414 3.80509 2.16609 3.79712 2.17804C3.78251 2.19929 3.77056 2.22452 3.75994 2.24843C3.72939 2.32412 3.71213 2.40248 3.69752 2.48216C3.6869 2.53926 3.68026 2.59504 3.67494 2.65215C3.67362 2.6641 3.67229 2.67738 3.65768 2.67871C3.64174 2.68136 3.63643 2.66808 3.63245 2.65613C3.63112 2.65082 3.62846 2.64551 3.62714 2.64152C3.60057 2.56981 3.57269 2.49809 3.53949 2.43037C3.51027 2.3706 3.47707 2.31217 3.43457 2.25905C3.41332 2.23382 3.39075 2.20991 3.36153 2.19398C3.30841 2.16476 3.25927 2.18468 3.23935 2.24179C3.22873 2.27366 3.2274 2.30553 3.22873 2.33873C3.23537 2.43435 3.26193 2.52598 3.2938 2.61762C3.29646 2.62691 3.30044 2.63621 3.3031 2.64551C3.30575 2.6548 3.3031 2.66277 3.29513 2.66808C3.28716 2.67339 3.27919 2.67207 3.27123 2.66543C3.26591 2.66011 3.2606 2.6548 3.25529 2.65082C3.22209 2.61895 3.18756 2.58973 3.1517 2.56051C3.10788 2.52598 3.06273 2.49411 3.01359 2.47021C2.98703 2.45693 2.96047 2.44763 2.93258 2.44365C2.87415 2.43568 2.83298 2.47419 2.83563 2.53262C2.83696 2.55653 2.8436 2.5791 2.8529 2.60035C2.87149 2.64418 2.8954 2.68269 2.92328 2.7212C2.96976 2.78628 3.02289 2.84471 3.07866 2.90182C3.08397 2.90713 3.08929 2.91244 3.09327 2.91775C3.09991 2.92572 3.09991 2.93369 3.0946 2.94166C3.08929 2.94962 3.08132 2.95228 3.07202 2.94962C3.06405 2.94697 3.05609 2.94298 3.04812 2.94033C2.95516 2.9058 2.8622 2.87393 2.76392 2.85932C2.71478 2.85135 2.66432 2.84737 2.61518 2.8633C2.55808 2.88189 2.53949 2.93236 2.56737 2.98548C2.58198 3.01204 2.60323 3.03329 2.62581 3.05321C2.66432 3.08641 2.70549 3.11297 2.74931 3.13688C2.83431 3.18336 2.92328 3.22054 3.01359 3.25374C3.02289 3.2564 3.03085 3.26038 3.04015 3.26437C3.04812 3.26835 3.0521 3.27499 3.05077 3.28163C3.05077 3.29093 3.04413 3.29757 3.03617 3.30022C3.03085 3.30155 3.02554 3.30155 3.02023 3.30288C2.95516 3.30819 2.88876 3.31749 2.82501 3.32944C2.744 3.34405 2.66565 3.36397 2.59128 3.3985C2.56339 3.41178 2.53683 3.42771 2.51558 3.45029C2.47176 3.49544 2.4784 3.55122 2.53285 3.58442C2.56073 3.60169 2.59261 3.61098 2.62581 3.61629C2.73205 3.63489 2.83962 3.62825 2.94586 3.61762C2.96047 3.61629 2.96578 3.607 2.97109 3.5977C3.03749 3.48084 3.12382 3.38123 3.23138 3.30022C3.24201 3.29226 3.24998 3.28296 3.25662 3.27233C3.41996 2.99345 3.6537 2.7969 3.95648 2.68269C3.97242 2.67605 3.97906 2.66941 3.98172 2.65215C3.99234 2.56715 3.99765 2.4888 4.00164 2.40912Z" fill="#CCD6DA"/>
<path d="M5.93359 6.30682C5.93359 6.77562 5.93359 7.24574 5.93359 7.71454C5.93359 7.72251 5.93359 7.7318 5.93359 7.73977C5.93359 7.76633 5.93359 7.76633 5.96015 7.76766C5.99866 7.76766 6.03717 7.76899 6.07436 7.76899C6.12349 7.76899 6.12349 7.76899 6.12349 7.71985C6.12349 6.78226 6.12349 5.84466 6.12349 4.90707C6.12349 4.8991 6.12349 4.89246 6.12349 4.88449C6.12216 4.85793 6.12216 4.85793 6.10092 4.87121C6.05709 4.89645 6.01194 4.89645 5.96679 4.87387C5.95616 4.86856 5.94819 4.85262 5.93757 4.86059C5.92827 4.8659 5.93491 4.88184 5.93491 4.89379C5.93359 5.36391 5.93359 5.83537 5.93359 6.30682Z" fill="#E1FF00"/>
<path d="M5.93349 4.60409C5.93349 4.6519 5.93349 4.69971 5.93349 4.74752C5.93349 4.77806 5.94411 4.8033 5.96536 4.82454C5.99192 4.84978 6.02512 4.85775 6.05965 4.84579C6.09417 4.83517 6.11409 4.80994 6.11941 4.77408C6.12073 4.76213 6.12206 4.7515 6.12206 4.73955C6.12206 4.65589 6.12206 4.57222 6.12206 4.48723C6.12206 4.41684 6.11011 4.35044 6.08222 4.28537C6.03309 4.16983 5.95341 4.08218 5.84584 4.01843C5.78608 3.9839 5.76616 3.93344 5.78475 3.86704C5.78874 3.85243 5.79272 3.83782 5.7967 3.82454C5.8153 3.75548 5.79272 3.68244 5.73562 3.63994C5.67586 3.59479 5.60946 3.58948 5.54438 3.62401C5.47798 3.65986 5.44611 3.71962 5.4501 3.79532C5.45142 3.82719 5.45275 3.82719 5.42221 3.82719C5.33987 3.82852 5.26949 3.88696 5.25222 3.96531C5.23496 4.04632 5.27214 4.12733 5.34651 4.16584C5.35714 4.17115 5.3744 4.17248 5.37573 4.18178C5.37838 4.19373 5.36245 4.20037 5.35448 4.20967C5.30402 4.26677 5.29339 4.34513 5.32792 4.41153C5.36245 4.47793 5.43283 4.51644 5.5072 4.50715C5.5829 4.49785 5.64266 4.44473 5.65992 4.36903C5.66656 4.34247 5.6732 4.31591 5.67851 4.28802C5.68648 4.25084 5.70773 4.22428 5.74491 4.21498C5.7821 4.20568 5.81131 4.22029 5.83654 4.24685C5.89896 4.31325 5.93216 4.39161 5.93216 4.48324C5.93349 4.52308 5.93349 4.56425 5.93349 4.60409Z" fill="#7577FF"/>
<path d="M4.20865 6.40102C4.20865 6.0358 4.20865 5.67059 4.20865 5.30537C4.20865 5.29608 4.20865 5.28678 4.20865 5.27616C4.20865 5.2642 4.20467 5.25756 4.19139 5.25491C4.16217 5.2496 4.13295 5.24296 4.10374 5.23764C4.06788 5.22968 4.06788 5.22968 4.06788 5.26686C4.06788 5.45544 4.06788 5.64536 4.06788 5.83394C4.06788 5.8698 4.06788 5.8698 4.03335 5.87644C3.98687 5.88573 3.94969 5.92425 3.94571 5.9694C3.94172 6.01455 3.96828 6.05838 4.01211 6.07565C4.0214 6.07963 4.0307 6.08096 4.03999 6.08229C4.06655 6.0876 4.06788 6.08893 4.06921 6.11416C4.06921 6.1208 4.06921 6.12744 4.06921 6.13275C4.06921 6.60554 4.06921 7.07833 4.06921 7.55111C4.06921 7.61486 4.06257 7.62416 4.00015 7.63478C3.96828 7.64009 3.94571 7.66665 3.94703 7.6972C3.94836 7.72774 3.97094 7.75298 4.00281 7.75696C4.01211 7.75829 4.0214 7.75829 4.03203 7.75829C4.29763 7.75829 4.56323 7.75829 4.82883 7.75829C4.83945 7.75829 4.85007 7.75829 4.8607 7.75696C4.88859 7.75298 4.90851 7.73173 4.91249 7.70384C4.91647 7.67595 4.90187 7.65204 4.87531 7.64009C4.86203 7.63345 4.84875 7.63478 4.83414 7.63478C4.67345 7.63478 4.51276 7.63478 4.3534 7.63478C4.34411 7.63478 4.33481 7.63478 4.32419 7.63478C4.2631 7.63212 4.2206 7.59361 4.21263 7.53385C4.21131 7.52057 4.21131 7.50596 4.21131 7.49268C4.20865 7.12746 4.20865 6.7649 4.20865 6.40102Z" fill="#E1FF00"/>
<path d="M4.61866 6.40801C4.61866 6.04147 4.61866 5.67493 4.61866 5.3084C4.61866 5.2991 4.61866 5.28981 4.61866 5.27918C4.61866 5.2659 4.61335 5.26059 4.60007 5.26192C4.56687 5.2659 4.53499 5.26723 4.50179 5.27121C4.48054 5.27387 4.47922 5.27387 4.47922 5.29645C4.47922 5.30441 4.47922 5.31105 4.47922 5.31902C4.47922 5.49034 4.47922 5.66165 4.47922 5.83164C4.47922 5.86883 4.47922 5.86883 4.44203 5.87547C4.39555 5.88476 4.35969 5.92328 4.35438 5.96976C4.3504 6.01358 4.37829 6.05873 4.42211 6.07467C4.43141 6.07865 4.4407 6.07998 4.45 6.08131C4.47523 6.08662 4.47789 6.08795 4.47922 6.11451C4.47922 6.12115 4.47922 6.12779 4.47922 6.1331C4.47922 6.60588 4.47922 7.07866 4.47922 7.55144C4.47922 7.56074 4.47922 7.57003 4.47922 7.58066C4.47922 7.58995 4.48187 7.59527 4.49117 7.59527C4.53632 7.59527 4.5828 7.59527 4.62795 7.59527C4.63858 7.59527 4.64123 7.58995 4.63592 7.58066C4.61999 7.55542 4.61999 7.52621 4.61999 7.49699C4.61866 7.13444 4.61866 6.77056 4.61866 6.40801Z" fill="#E1FF00"/>
<path d="M5.10463 7.75852C5.12057 7.75852 5.13651 7.75852 5.15244 7.75852C5.18963 7.75852 5.22681 7.75985 5.264 7.75719C5.29587 7.75586 5.3211 7.72665 5.3211 7.6961C5.3211 7.66555 5.29454 7.63899 5.26267 7.63633C5.2547 7.635 5.2454 7.63633 5.23744 7.63633C5.16705 7.63633 5.09799 7.63633 5.02761 7.63633C5.00237 7.63633 4.97714 7.63633 4.95191 7.63633C4.9373 7.63633 4.93597 7.64164 4.94261 7.6536C4.95722 7.68282 4.95589 7.71204 4.94261 7.74258C4.93464 7.75852 4.93597 7.75985 4.95456 7.76118C5.00237 7.75852 5.05417 7.75852 5.10463 7.75852Z" fill="#E1FF00"/>
<path d="M6.03085 0.0107422C6.03616 0.0226943 6.04147 0.0359747 6.04811 0.0479268C6.1092 0.174089 6.25396 0.231194 6.38411 0.183385C6.39341 0.180729 6.40138 0.175417 6.41067 0.172761C6.42661 0.168777 6.43856 0.179401 6.43591 0.195337C6.43458 0.201977 6.43059 0.208617 6.42794 0.216585C6.37747 0.3547 6.43989 0.500782 6.57535 0.560543C6.58066 0.563199 6.58465 0.564527 6.58996 0.567183C6.59793 0.571167 6.60457 0.576479 6.60457 0.585775C6.60457 0.595071 6.59926 0.601712 6.59129 0.604368C6.58598 0.607024 6.57934 0.60968 6.57402 0.612336C6.44255 0.673425 6.38278 0.823491 6.43591 0.957621C6.44122 0.969573 6.45184 0.981526 6.43989 0.996134C6.42661 1.01074 6.412 0.99879 6.39872 0.994806C6.26193 0.944341 6.11452 1.00809 6.05608 1.14089C6.05077 1.15417 6.04944 1.17276 6.02952 1.17143C6.01093 1.17143 6.0096 1.15417 6.00429 1.14222C5.94187 1.00941 5.79445 0.949653 5.65634 1.0041C5.65235 1.00543 5.64837 1.00676 5.64438 1.00941C5.63509 1.0134 5.62579 1.01473 5.61782 1.00676C5.60985 0.99879 5.61118 0.989494 5.61517 0.980198C5.6311 0.943013 5.63907 0.905828 5.63774 0.865988C5.63243 0.75709 5.58064 0.677409 5.48236 0.628272C5.47439 0.624288 5.46642 0.621632 5.45846 0.617648C5.45049 0.613664 5.44385 0.608352 5.44385 0.599056C5.44385 0.589759 5.44916 0.583119 5.45713 0.579135C5.46244 0.576479 5.46642 0.575151 5.47174 0.572495C5.60587 0.510078 5.66563 0.362668 5.61251 0.225882C5.6072 0.213929 5.59657 0.200649 5.60853 0.187369C5.62181 0.172761 5.63642 0.184713 5.6497 0.188697C5.78649 0.237834 5.9339 0.175417 5.99233 0.0426146C5.99632 0.0319905 6.00163 0.0213663 6.00562 0.0107422C6.01358 0.0107422 6.02155 0.0107422 6.03085 0.0107422Z" fill="#151D38"/>
<path d="M5.66826 0.944089C5.6656 0.958697 5.67755 0.953385 5.68552 0.952057C5.74528 0.937449 5.80372 0.941433 5.86083 0.962682C5.92457 0.985258 5.97504 1.02643 6.01355 1.0822C6.02683 1.10212 6.02683 1.10212 6.04144 1.08088C6.04277 1.07955 6.0441 1.07689 6.04542 1.07556C6.09987 0.99721 6.17425 0.952057 6.26987 0.940105C6.30439 0.936121 6.3376 0.938777 6.3708 0.946745C6.38142 0.949401 6.38806 0.948073 6.38408 0.934793C6.38275 0.928153 6.38142 0.922841 6.38009 0.916201C6.36017 0.784727 6.404 0.681141 6.51157 0.602788C6.51555 0.600132 6.51821 0.597476 6.5222 0.596147C6.53282 0.590835 6.53016 0.585523 6.52087 0.580211C6.51688 0.577555 6.51157 0.574899 6.50759 0.572243C6.43853 0.525762 6.39603 0.463345 6.37744 0.383664C6.36681 0.339839 6.36681 0.296015 6.37611 0.250862C6.38009 0.23227 6.37877 0.23227 6.3615 0.234926C6.34424 0.237582 6.32564 0.241566 6.30838 0.242894C6.19151 0.246878 6.09855 0.200397 6.03214 0.103451C6.02019 0.086187 6.02019 0.0861869 6.00957 0.102123C6.00824 0.104779 6.00691 0.107435 6.00425 0.110091C5.92723 0.216333 5.82497 0.261486 5.69482 0.244222C5.68685 0.242894 5.68021 0.241566 5.67357 0.240238C5.66693 0.23891 5.66295 0.242894 5.66427 0.248206C5.66427 0.253518 5.66693 0.25883 5.66826 0.264142C5.69083 0.398272 5.64834 0.505842 5.53678 0.586851C5.5328 0.589507 5.53014 0.592163 5.52616 0.593491C5.51952 0.597476 5.51952 0.60146 5.52483 0.605444C5.53014 0.609428 5.53545 0.612084 5.54076 0.616068C5.61115 0.663877 5.65498 0.72895 5.67357 0.811287C5.68021 0.852456 5.68021 0.89628 5.66826 0.944089Z" fill="#EBBE62"/>
<path d="M0.00683594 2.22863C0.0214442 2.21934 0.0373806 2.21668 0.0546448 2.21668C0.160886 2.21668 0.267128 2.21668 0.37337 2.21668C0.381338 2.21668 0.387978 2.21668 0.395946 2.21668C0.409226 2.21801 0.415867 2.2127 0.414538 2.19809C0.414538 2.19012 0.414538 2.18348 0.414538 2.17551C0.414538 2.08255 0.414538 1.99092 0.414538 1.89796C0.414538 1.69742 0.547341 1.52213 0.739904 1.46768C0.986916 1.39729 1.24057 1.54603 1.30033 1.7957C1.30033 1.79835 1.30166 1.79968 1.30166 1.80234C1.3083 1.83288 1.3083 1.83288 1.33751 1.8196C1.50352 1.7439 1.6921 1.84085 1.72795 2.02146C1.72928 2.0281 1.73061 2.03341 1.73194 2.04005C1.73459 2.0613 1.73459 2.0613 1.75584 2.05732C1.77443 2.05333 1.79302 2.05068 1.81294 2.05333C1.88466 2.06263 1.93645 2.11708 1.94309 2.18879C1.94575 2.21668 1.94575 2.21668 1.97496 2.21668C2.02543 2.21668 2.07457 2.21668 2.12503 2.21668C2.133 2.21668 2.14229 2.21668 2.15026 2.21801C2.15956 2.22066 2.16487 2.2273 2.16487 2.2366C2.16487 2.2459 2.15956 2.25254 2.15026 2.25519C2.14362 2.25652 2.13565 2.25785 2.12769 2.25785C2.06394 2.25785 2.0002 2.25785 1.93645 2.25785C1.93379 2.25785 1.92981 2.25785 1.92715 2.25785C1.90325 2.25652 1.89661 2.24988 1.90059 2.22598C1.90325 2.21004 1.90458 2.1941 1.90059 2.17817C1.88333 2.10645 1.80498 2.0706 1.7399 2.10645C1.69874 2.12903 1.69342 2.12637 1.69342 2.07724C1.69209 1.98029 1.65093 1.90725 1.56593 1.86077C1.4836 1.81695 1.39993 1.82359 1.32158 1.87405C1.28439 1.89796 1.27775 1.8953 1.27111 1.85147C1.24322 1.67352 1.14362 1.55533 0.970979 1.50486C0.730608 1.4358 0.483596 1.60579 0.457035 1.85546C0.453051 1.88866 0.454379 1.92186 0.454379 1.95373C0.454379 2.04138 0.454379 2.1277 0.454379 2.21535C0.454379 2.25254 0.451723 2.25652 0.415866 2.25652C0.293689 2.25652 0.171511 2.25652 0.0493328 2.25652C0.0333965 2.25652 0.0201162 2.24988 0.00683594 2.2459C0.00683594 2.24191 0.00683594 2.23527 0.00683594 2.22863Z" fill="white"/>
<path d="M9.99438 5.81807C9.96251 5.83268 9.93065 5.82338 9.89745 5.82471C9.88816 5.82471 9.88284 5.81674 9.88152 5.80745C9.88019 5.79682 9.88683 5.78753 9.89745 5.78753C9.92932 5.78753 9.96251 5.77956 9.99438 5.79284C9.99438 5.80081 9.99438 5.80877 9.99438 5.81807Z" fill="#5FD855"/>
<path d="M7.81432 5.48574C7.45045 5.48574 7.0879 5.48574 6.72403 5.48574C6.71474 5.48574 6.70544 5.48574 6.69482 5.48574C6.68419 5.48441 6.67755 5.47644 6.67888 5.46582C6.67888 5.45652 6.68419 5.44988 6.69349 5.44856C6.70278 5.44723 6.71208 5.44723 6.7227 5.44723C6.84222 5.44723 6.96042 5.44723 7.07994 5.44723C7.08392 5.44723 7.0879 5.44723 7.09322 5.44723C7.12376 5.44723 7.12376 5.44723 7.12376 5.41536C7.12376 5.20818 7.12376 5.00101 7.12376 4.79384C7.12376 4.55746 7.12376 4.31974 7.12376 4.08336C7.12376 4.07804 7.12376 4.07273 7.12376 4.06742C7.12376 4.03422 7.1211 4.03953 7.0972 4.0382C6.84355 4.01828 6.68552 3.80182 6.68685 3.58933C6.68685 3.39544 6.68685 3.20023 6.68685 3.00634C6.68685 2.91736 6.73731 2.84697 6.81699 2.82174C6.9312 2.78589 7.04806 2.86557 7.05736 2.98509C7.05869 2.99837 7.05869 3.01032 7.05869 3.0236C7.05869 3.18163 7.05869 3.33967 7.05869 3.49903C7.05869 3.50833 7.05736 3.51895 7.05869 3.52825C7.06134 3.54551 7.07462 3.55613 7.09189 3.55613C7.10782 3.55613 7.11978 3.54684 7.12376 3.52957C7.12509 3.51762 7.12509 3.50567 7.12509 3.49505C7.12509 3.14047 7.12509 2.78589 7.12509 2.42998C7.12509 2.40209 7.12642 2.3742 7.13438 2.34764C7.15962 2.26663 7.23531 2.21351 7.31765 2.21749C7.40131 2.22148 7.4717 2.27991 7.49029 2.36225C7.4956 2.3835 7.49693 2.40607 7.49693 2.42865C7.49693 2.89345 7.49693 3.35959 7.49693 3.82439C7.49693 3.83502 7.4956 3.84564 7.49693 3.85627C7.49826 3.87353 7.51287 3.88548 7.5288 3.88548C7.54474 3.88548 7.55935 3.8722 7.56067 3.85627C7.562 3.84697 7.56067 3.83767 7.56067 3.82705C7.56067 3.66105 7.56067 3.49505 7.56067 3.33037C7.56067 3.25866 7.58989 3.20023 7.65231 3.16171C7.71472 3.1232 7.78112 3.12187 7.84619 3.1564C7.91259 3.19226 7.94579 3.25069 7.94579 3.32639C7.94712 3.4406 7.94712 3.55613 7.94579 3.67034C7.94579 3.69292 7.95111 3.7062 7.97103 3.71948C8.02016 3.75135 8.0454 3.79916 8.05071 3.85759C8.05204 3.8722 8.05203 3.88681 8.05203 3.90275C8.05203 4.06211 8.05203 4.22147 8.05203 4.38083C8.05203 4.3888 8.05203 4.3981 8.05203 4.40606C8.05469 4.42598 8.06797 4.43926 8.08391 4.43926C8.1025 4.44059 8.11578 4.42598 8.11844 4.40474C8.11976 4.39544 8.11844 4.38614 8.11844 4.37552C8.11844 3.93462 8.11844 3.49372 8.11844 3.05282C8.11844 3.0329 8.11843 3.01298 8.12242 2.99306C8.145 2.89877 8.23397 2.83502 8.32826 2.84565C8.42919 2.85627 8.50223 2.93462 8.50223 3.03555C8.50223 3.37287 8.50223 3.71151 8.50223 4.04883C8.50223 4.05812 8.50223 4.06742 8.50223 4.07804C8.50488 4.09796 8.51816 4.10992 8.53543 4.10992C8.55269 4.10992 8.56464 4.09929 8.56863 4.0807C8.56996 4.07008 8.56996 4.05945 8.56996 4.04883C8.56996 3.79916 8.56996 3.54949 8.56996 3.29983C8.56996 3.24671 8.58589 3.20155 8.62175 3.16304C8.6762 3.10461 8.75853 3.08602 8.83157 3.11523C8.90594 3.14445 8.95375 3.21218 8.95375 3.29319C8.95375 3.57738 8.95508 3.86291 8.95375 4.1471C8.95242 4.3556 8.79173 4.54019 8.58456 4.57472C8.56332 4.57871 8.54207 4.58269 8.52082 4.58136C8.50488 4.58136 8.49957 4.588 8.5009 4.60261C8.5009 4.60792 8.5009 4.61323 8.5009 4.61855C8.5009 4.88149 8.5009 5.14577 8.5009 5.40872C8.5009 5.41004 8.5009 5.41137 8.5009 5.41137C8.5009 5.44856 8.49824 5.4459 8.53543 5.4459C8.6576 5.4459 8.77978 5.4459 8.90196 5.4459C8.91125 5.4459 8.92055 5.4459 8.93117 5.44723C8.94047 5.44856 8.94578 5.4552 8.94711 5.46449C8.94711 5.47512 8.9418 5.48308 8.93117 5.48441C8.92188 5.48574 8.91258 5.48574 8.90196 5.48574C8.54074 5.48574 8.17687 5.48574 7.81432 5.48574Z" fill="#1E1E1E"/>
<path d="M8.15945 3.71584C8.15945 3.93894 8.15945 4.16205 8.15945 4.38515C8.15945 4.39445 8.15945 4.40375 8.15945 4.41437C8.15546 4.46218 8.10765 4.49272 8.06117 4.47546C8.02797 4.46351 8.01336 4.4396 8.01336 4.39711C8.01336 4.23243 8.01336 4.06776 8.01336 3.90309C8.01336 3.88981 8.01336 3.87786 8.01203 3.86458C8.00672 3.79021 7.94829 3.73178 7.8779 3.72646C7.80087 3.72248 7.73978 3.77029 7.72518 3.84598C7.72119 3.86325 7.72119 3.87918 7.72119 3.89645C7.72119 4.07706 7.72119 4.25767 7.72119 4.43828C7.72119 4.46218 7.72252 4.48476 7.72518 4.50866C7.7451 4.67732 7.86728 4.81676 8.03063 4.85792C8.06117 4.86589 8.09172 4.86855 8.12226 4.86988C8.15679 4.8712 8.15945 4.87652 8.15945 4.90972C8.15945 5.07837 8.15945 5.24703 8.15945 5.41569C8.15945 5.4449 8.15945 5.44623 8.18866 5.44623C8.26569 5.44623 8.34404 5.44623 8.42107 5.44623C8.47021 5.44623 8.4649 5.45022 8.4649 5.40506C8.4649 5.13415 8.4649 4.86324 8.4649 4.59232C8.4649 4.58303 8.4649 4.57373 8.4649 4.56311C8.46623 4.55116 8.47287 4.54319 8.48482 4.54319C8.49279 4.54319 8.49943 4.54319 8.50739 4.54319C8.72387 4.54053 8.91776 4.36656 8.91643 4.12487C8.91511 3.85395 8.91643 3.58304 8.91643 3.31213C8.91643 3.30416 8.91643 3.29486 8.91643 3.28689C8.91112 3.20854 8.85136 3.14745 8.773 3.14081C8.70129 3.13417 8.63356 3.18597 8.61497 3.25768C8.61098 3.27361 8.61098 3.28955 8.61098 3.30549C8.61098 3.55382 8.61098 3.80216 8.61098 4.0505C8.61098 4.06112 8.61098 4.07175 8.61098 4.08237C8.607 4.12221 8.57512 4.14877 8.53396 4.14744C8.49544 4.14611 8.46755 4.11823 8.4649 4.07839C8.4649 4.07042 8.4649 4.06112 8.4649 4.05315C8.4649 3.95355 8.4649 3.85395 8.4649 3.75302C8.4649 3.51398 8.4649 3.27494 8.4649 3.0359C8.4649 2.96153 8.4131 2.89912 8.34272 2.88451C8.27233 2.8699 8.20194 2.90708 8.17273 2.97216C8.1621 2.99606 8.15945 3.02129 8.15945 3.04653C8.15945 3.27096 8.15945 3.49273 8.15945 3.71584Z" fill="#23984B"/>
<path d="M7.45587 3.13167C7.45587 2.89926 7.45587 2.66686 7.45587 2.43446C7.45587 2.41586 7.45455 2.39594 7.45189 2.37735C7.43994 2.31494 7.38947 2.26713 7.32839 2.26049C7.26199 2.25252 7.20488 2.28439 7.177 2.34282C7.16504 2.36806 7.16239 2.39594 7.16239 2.42383C7.16239 2.78373 7.16239 3.14362 7.16239 3.50351C7.16239 3.51812 7.16239 3.53273 7.1584 3.54734C7.14778 3.57656 7.12122 3.59515 7.09068 3.59515C7.0588 3.59515 7.03224 3.57656 7.02162 3.54867C7.01631 3.53671 7.01764 3.52343 7.01764 3.51148C7.01764 3.35079 7.01764 3.1901 7.01764 3.03074C7.01764 3.01879 7.01764 3.00683 7.01764 2.99621C7.00967 2.89528 6.91804 2.83154 6.8264 2.86208C6.76664 2.882 6.7268 2.93778 6.72548 3.00683C6.72415 3.0905 6.72548 3.17416 6.72548 3.25916C6.72548 3.37071 6.72282 3.48227 6.7268 3.59382C6.73212 3.75982 6.80781 3.88598 6.95788 3.96301C7.011 3.9909 7.06943 4.00152 7.13052 4.00152C7.16106 4.00152 7.16504 4.00551 7.16504 4.03738C7.16504 4.04535 7.16504 4.05464 7.16504 4.06261C7.16504 4.44242 7.16504 4.82091 7.16504 5.20072C7.16504 5.27377 7.16504 5.34681 7.16504 5.42118C7.16504 5.45039 7.16504 5.45039 7.19559 5.45039C7.26863 5.45039 7.34167 5.45039 7.41603 5.45039C7.46251 5.45039 7.45853 5.45438 7.45853 5.40657C7.45853 5.05597 7.45853 4.70537 7.45853 4.35478C7.45853 4.31361 7.46251 4.30962 7.50368 4.30697C7.55415 4.30431 7.60328 4.29767 7.64976 4.27908C7.68296 4.2658 7.68296 4.2658 7.68296 4.2326C7.68296 4.11839 7.68296 4.00285 7.68296 3.88864C7.68296 3.86341 7.68562 3.8395 7.69359 3.81693C7.71749 3.74389 7.78787 3.6828 7.88216 3.69076C7.90872 3.69342 7.90872 3.68944 7.90872 3.66819C7.90872 3.55398 7.91005 3.43844 7.90872 3.32423C7.90739 3.24853 7.85029 3.18612 7.77592 3.17682C7.70288 3.16752 7.6325 3.21268 7.61125 3.28439C7.60461 3.30431 7.60461 3.32423 7.60461 3.34415C7.60461 3.50617 7.60461 3.66952 7.60461 3.83154C7.60461 3.84349 7.60461 3.85544 7.60328 3.86606C7.59797 3.90458 7.5661 3.92981 7.52759 3.92848C7.4904 3.92715 7.46251 3.89926 7.45986 3.86208C7.45986 3.85278 7.45986 3.84349 7.45986 3.83286C7.45587 3.59648 7.45587 3.36407 7.45587 3.13167Z" fill="#A3CEB5"/>
<path d="M2.69867 7.30549C2.70929 7.31346 2.71593 7.30284 2.7239 7.29753C2.75976 7.27229 2.79561 7.24839 2.83412 7.22847C2.86467 7.21253 2.89654 7.19792 2.9324 7.19128C2.94037 7.18996 2.94966 7.18863 2.95763 7.1873C3.032 7.18332 3.0745 7.23909 3.05192 7.30948C3.04129 7.34268 3.02005 7.37189 2.99747 7.39846C2.94568 7.46087 2.88326 7.51267 2.81819 7.56047C2.72788 7.6282 2.63227 7.68664 2.53134 7.7371C2.52602 7.73976 2.52071 7.74241 2.51407 7.74507C2.51142 7.7464 2.51009 7.74772 2.51142 7.75038C2.51274 7.75171 2.51407 7.75437 2.5154 7.75437C2.5247 7.75437 2.53399 7.75569 2.54462 7.75569C2.7664 7.75569 2.98817 7.75569 3.20995 7.75569C3.21925 7.75569 3.22854 7.75569 3.23917 7.75702C3.24979 7.75835 3.25643 7.76499 3.25643 7.77694C3.25643 7.78624 3.24979 7.79288 3.24183 7.79553C3.23386 7.79686 3.22456 7.79686 3.21659 7.79686C2.93373 7.79686 2.65219 7.79686 2.36932 7.79686C2.1648 7.79686 1.95896 7.79686 1.75445 7.79686C1.74515 7.79686 1.73586 7.79686 1.72523 7.79686C1.71195 7.79553 1.70133 7.79022 1.70266 7.77561C1.70266 7.76233 1.71328 7.75835 1.72523 7.75702C1.7332 7.75702 1.7425 7.75702 1.75046 7.75702C1.88991 7.75702 2.02935 7.75702 2.16746 7.75702C2.17543 7.75702 2.18738 7.76101 2.19004 7.75304C2.19137 7.74507 2.17808 7.74374 2.17144 7.73976C2.03732 7.67203 1.91115 7.59102 1.79694 7.49275C1.75843 7.45954 1.72258 7.42369 1.6907 7.38252C1.67211 7.35729 1.65618 7.33205 1.64821 7.30151C1.63227 7.23776 1.66946 7.18863 1.73453 7.1873C1.76773 7.1873 1.7996 7.19792 1.83015 7.20988C1.88061 7.23113 1.92576 7.26034 1.97091 7.29089C1.97755 7.2962 1.98419 7.30018 1.99216 7.30549C1.99349 7.30682 1.99615 7.30815 1.99747 7.30682C2.00146 7.30549 2.00013 7.30151 2.00013 7.29885C1.99615 7.28823 1.99216 7.27761 1.98818 7.26565C1.96693 7.20855 1.94967 7.15144 1.9417 7.09036C1.93904 7.06778 1.94037 7.04653 1.94435 7.02395C1.95896 6.95622 2.02005 6.92834 2.07981 6.96286C2.10372 6.97614 2.12364 6.99607 2.1409 7.01731C2.16613 7.04786 2.18738 7.08106 2.20597 7.11559C2.20996 7.12223 2.21261 7.12887 2.2166 7.13551C2.21793 7.13816 2.22058 7.14082 2.22324 7.13949C2.22589 7.13816 2.22722 7.13418 2.22722 7.13152C2.22855 7.12356 2.22855 7.11426 2.22988 7.10629C2.23519 7.05848 2.24183 7.012 2.26042 6.96685C2.26972 6.94427 2.28034 6.92302 2.29893 6.90576C2.33346 6.87256 2.38127 6.87256 2.41713 6.90576C2.43705 6.92435 2.449 6.94826 2.4583 6.97349C2.4729 7.012 2.47954 7.05184 2.48486 7.09168C2.48618 7.09965 2.4822 7.11293 2.49017 7.11426C2.50079 7.11692 2.50212 7.10231 2.50743 7.09567C2.52735 7.06379 2.54727 7.03325 2.57251 7.00536C2.58579 6.99075 2.59907 6.9788 2.61633 6.96818C2.6814 6.92701 2.74913 6.95888 2.75976 7.03458C2.76374 7.05981 2.76241 7.08504 2.75843 7.11028C2.7478 7.18066 2.72921 7.2444 2.69867 7.30549L2.69999 7.30682L2.69867 7.30549Z" fill="#5FD855"/>
<path d="M4.94141 1.56681C4.87501 1.56681 4.80994 1.56681 4.74354 1.56681C4.71033 1.56681 4.70635 1.56282 4.71166 1.52962C4.72096 1.46721 4.70104 1.41807 4.64792 1.38487C4.59612 1.35167 4.543 1.35432 4.49254 1.38752C4.48324 1.39416 4.47394 1.40346 4.46066 1.39549C4.44871 1.38752 4.45004 1.37557 4.45137 1.36495C4.45535 1.32511 4.45004 1.2866 4.43676 1.24941C4.37434 1.05818 4.14592 0.979823 3.97991 1.09403C3.93742 1.12325 3.93078 1.12059 3.92546 1.07013C3.8989 0.832412 3.70634 0.643833 3.46862 0.617273C3.20965 0.588057 2.94537 0.764683 2.90288 1.05286C2.87631 1.22949 2.93209 1.38221 3.05958 1.50705C3.06888 1.51634 3.07818 1.52431 3.0888 1.53228C3.09677 1.53892 3.10075 1.54689 3.09677 1.55751C3.09278 1.56681 3.08482 1.56946 3.07685 1.56946C3.07154 1.56946 3.06622 1.56946 3.06091 1.56946C2.94537 1.56946 2.82983 1.56946 2.71297 1.56946C2.70633 1.56946 2.69969 1.56946 2.69437 1.56946C2.68242 1.56946 2.67578 1.56282 2.67578 1.5522C2.67578 1.53892 2.68242 1.53228 2.69437 1.53095C2.70234 1.53095 2.71164 1.53095 2.71961 1.53095C2.80726 1.53095 2.89358 1.53095 2.98123 1.53095C2.98654 1.53095 2.99185 1.53095 2.99717 1.53095C3.00381 1.52962 3.0131 1.53493 3.01709 1.52564C3.01841 1.52033 3.01045 1.51501 3.00646 1.51103C2.93342 1.43135 2.88694 1.33972 2.86569 1.23347C2.80859 0.942638 3.00115 0.650474 3.28933 0.588057C3.6001 0.520327 3.89758 0.716875 3.95867 1.02896C3.95867 1.03162 3.95867 1.03294 3.95999 1.0356C3.96398 1.05419 3.96531 1.05552 3.98257 1.04622C4.02108 1.02498 4.06225 1.0117 4.10608 1.00506C4.28271 0.978495 4.45934 1.10731 4.48855 1.28394C4.48855 1.28527 4.48855 1.2866 4.48855 1.2866C4.49121 1.30386 4.48855 1.32511 4.49785 1.3344C4.50714 1.3437 4.52574 1.32776 4.54167 1.32644C4.65456 1.30917 4.7515 1.38885 4.75549 1.50306C4.75682 1.53095 4.75549 1.52962 4.7847 1.52962C4.90157 1.52962 5.01844 1.52962 5.13531 1.52962C5.1446 1.52962 5.15523 1.52962 5.16319 1.53095C5.17249 1.53228 5.17648 1.54025 5.17648 1.54954C5.17648 1.55884 5.17116 1.56548 5.16187 1.56681C5.1539 1.56813 5.1446 1.56813 5.13663 1.56813C5.07023 1.56681 5.00516 1.56681 4.94141 1.56681Z" fill="white" stroke="white" stroke-width="0.1"/>
<path d="M1.89928 5.98922C1.76249 5.98922 1.62571 5.98922 1.48892 5.98922C1.48095 5.98922 1.47166 5.98922 1.46369 5.98789C1.45439 5.98656 1.44908 5.97992 1.44775 5.97063C1.44775 5.96 1.45307 5.95203 1.46502 5.95071C1.47166 5.94938 1.4783 5.94938 1.48361 5.94938C1.50884 5.94938 1.53408 5.94938 1.56064 5.94938C1.59251 5.94938 1.59782 5.95469 1.58188 5.91883C1.55665 5.86438 1.53142 5.8086 1.50751 5.75415C1.50353 5.74618 1.50087 5.73822 1.49689 5.73025C1.49158 5.71829 1.49423 5.709 1.50619 5.70369C1.51681 5.69837 1.52744 5.70236 1.53275 5.71431C1.53806 5.72361 1.54204 5.7329 1.54603 5.74353C1.56064 5.77407 1.57392 5.80595 1.58852 5.83649C1.58985 5.83915 1.59251 5.84313 1.59516 5.84313C1.6018 5.84313 1.60048 5.83782 1.60048 5.83384C1.60048 5.77009 1.60048 5.70634 1.60048 5.6426C1.60048 5.63463 1.60048 5.62533 1.60048 5.61736C1.6018 5.60541 1.60844 5.6001 1.61907 5.6001C1.62969 5.6001 1.63633 5.60674 1.63766 5.61736C1.63899 5.62533 1.63899 5.63197 1.63899 5.63994C1.63899 5.69572 1.63899 5.75282 1.63899 5.8086C1.63899 5.81657 1.63899 5.82321 1.63899 5.83118C1.63899 5.83516 1.63766 5.84048 1.64164 5.8418C1.64696 5.84313 1.64829 5.83782 1.64961 5.83384C1.66555 5.80063 1.68016 5.76611 1.69609 5.7329C1.69875 5.72626 1.70141 5.71962 1.70539 5.71298C1.7107 5.70369 1.72 5.70103 1.73062 5.70634C1.73992 5.71033 1.74257 5.71829 1.73992 5.72759C1.73859 5.73556 1.73461 5.74353 1.73062 5.7515C1.70539 5.80727 1.68016 5.86305 1.65493 5.92016C1.65227 5.9268 1.64829 5.93344 1.64563 5.94008C1.64297 5.94672 1.6443 5.95203 1.6536 5.95336C1.65891 5.95336 1.66422 5.95336 1.66953 5.95336C1.74789 5.95336 1.82624 5.95336 1.90459 5.95336C1.92983 5.95336 1.93115 5.95336 1.93514 5.92813C1.94045 5.89758 1.94975 5.86837 1.96435 5.84048C1.98029 5.80993 2.00287 5.78603 2.03872 5.78204C2.052 5.78071 2.05599 5.77275 2.05732 5.76079C2.0613 5.73822 2.06794 5.71564 2.07591 5.69306C2.08255 5.67447 2.09052 5.6572 2.10247 5.6426C2.13301 5.60408 2.17684 5.60408 2.20738 5.64127C2.22066 5.6572 2.22863 5.6758 2.23527 5.69439C2.25253 5.74087 2.2605 5.78868 2.26582 5.83782C2.2698 5.86969 2.27113 5.90157 2.27246 5.93344C2.27378 5.94805 2.2791 5.95469 2.2937 5.95336C2.30433 5.95336 2.31495 5.95336 2.32558 5.95336C2.33753 5.95336 2.34284 5.96 2.34284 5.97195C2.34284 5.98258 2.33753 5.99055 2.32558 5.99055C2.31761 5.99188 2.30831 5.99055 2.30034 5.99055C2.16887 5.98922 2.03474 5.98922 1.89928 5.98922ZM2.05466 5.94407C2.07591 5.94407 2.09716 5.94407 2.1184 5.94407C2.1277 5.94407 2.13567 5.94274 2.13301 5.92946C2.1277 5.89758 2.12106 5.86704 2.10114 5.84048C2.07458 5.80727 2.03607 5.80727 2.00951 5.84048C1.99091 5.86571 1.98162 5.89493 1.97631 5.92547C1.97365 5.93742 1.97896 5.94274 1.99091 5.94274C2.01216 5.94407 2.03341 5.94407 2.05466 5.94407Z" fill="#5FD855"/>
<path d="M8.40533 1.70634C8.31768 1.70634 8.22871 1.70634 8.14106 1.70634C8.10786 1.70634 8.1052 1.70236 8.10387 1.66916C8.10387 1.63994 8.10387 1.61205 8.10387 1.58284C8.10122 1.39427 7.9538 1.23624 7.76788 1.22163C7.57532 1.2057 7.40267 1.33849 7.3708 1.52839C7.36814 1.54698 7.36681 1.5669 7.36549 1.58549C7.36416 1.59612 7.3615 1.60541 7.35221 1.60807C7.34025 1.61205 7.33229 1.60541 7.32565 1.59479C7.30041 1.55628 7.26721 1.53105 7.22339 1.5191C7.12113 1.49121 7.01754 1.56292 7.00559 1.66783C7.00559 1.67314 7.00559 1.67845 7.00426 1.68377C7.00293 1.69705 6.99629 1.70501 6.98169 1.70501C6.97505 1.70501 6.96841 1.70501 6.96309 1.70501C6.82763 1.70501 6.6935 1.70501 6.55804 1.70501C6.5514 1.70501 6.54476 1.70501 6.53945 1.70501C6.5275 1.70501 6.51953 1.69837 6.51953 1.68509C6.51953 1.67181 6.5275 1.6665 6.54078 1.6665C6.54875 1.6665 6.55804 1.6665 6.56601 1.6665C6.68554 1.6665 6.80639 1.6665 6.92591 1.6665C6.93388 1.6665 6.94052 1.6665 6.94849 1.6665C6.95911 1.6665 6.96708 1.66385 6.96708 1.65189C6.96708 1.64393 6.96973 1.63729 6.97239 1.63065C7.01223 1.48855 7.17823 1.42879 7.30041 1.51246C7.30307 1.51378 7.30573 1.51644 7.30838 1.51777C7.3283 1.53238 7.32963 1.53238 7.33494 1.50714C7.35221 1.42348 7.39205 1.35177 7.45446 1.29334C7.57399 1.18445 7.71343 1.15258 7.86483 1.20304C8.01755 1.2535 8.10786 1.36505 8.1384 1.52175C8.14504 1.55761 8.14504 1.59346 8.14504 1.62932C8.14504 1.67181 8.14371 1.6665 8.18355 1.6665C8.34292 1.6665 8.50228 1.6665 8.66164 1.6665C8.67094 1.6665 8.68156 1.6665 8.69086 1.66783C8.70149 1.66916 8.70812 1.67713 8.7068 1.68908C8.70547 1.69837 8.70016 1.70501 8.69086 1.70634C8.68289 1.70767 8.6736 1.70767 8.66563 1.70767C8.57798 1.70634 8.49166 1.70634 8.40533 1.70634Z" fill="white"/>
<path d="M2.46747 6.25928C2.60692 6.25928 2.74769 6.25928 2.88713 6.25928C2.89643 6.25928 2.90705 6.25928 2.91502 6.26061C2.92565 6.26326 2.93096 6.2699 2.93096 6.28185C2.92963 6.29115 2.92432 6.29779 2.91502 6.29912C2.90705 6.30045 2.89776 6.30045 2.88979 6.30045C2.60692 6.30045 2.32537 6.30045 2.0425 6.30045C2.0332 6.30045 2.0239 6.30045 2.01461 6.29912C2.00531 6.29779 2 6.28982 2 6.28053C2 6.27123 2.00531 6.26459 2.01461 6.26193C2.0239 6.26061 2.0332 6.26061 2.0425 6.26061C2.1846 6.25928 2.32537 6.25928 2.46747 6.25928Z" fill="#5FD855"/>
<path d="M9.29382 5.82465C9.17961 5.82465 9.06673 5.82465 8.95252 5.82465C8.94455 5.82465 8.93525 5.82465 8.92728 5.82465C8.91533 5.82465 8.90869 5.818 8.90869 5.80738C8.90869 5.79543 8.91533 5.78746 8.92728 5.78613C8.93392 5.78613 8.94056 5.78613 8.94588 5.78613C9.17562 5.78613 9.4067 5.78613 9.63645 5.78613C9.64441 5.78613 9.65105 5.78613 9.65902 5.78746C9.66965 5.78879 9.67629 5.79543 9.67629 5.80605C9.67629 5.81668 9.67097 5.82465 9.65902 5.82465C9.65105 5.82465 9.64176 5.82465 9.63379 5.82465C9.52091 5.82465 9.40803 5.82465 9.29382 5.82465Z" fill="#5FD855"/>
<path d="M3.48714 7.59926C3.48714 7.58199 3.48714 7.56473 3.48714 7.5488C3.48714 7.52357 3.49245 7.51427 3.50574 7.51427C3.52034 7.51294 3.52566 7.52357 3.52566 7.55012C3.52566 7.58598 3.52566 7.62183 3.52566 7.65769C3.52566 7.66167 3.52433 7.66698 3.52831 7.66831C3.53362 7.66964 3.53495 7.66565 3.53761 7.66167C3.54558 7.64441 3.55355 7.62714 3.56151 7.60988C3.56683 7.59793 3.57347 7.58598 3.5894 7.59129C3.60135 7.59527 3.60401 7.60723 3.59737 7.62316C3.57479 7.67495 3.55089 7.72807 3.52698 7.77986C3.523 7.78915 3.51636 7.79579 3.50574 7.79579C3.49644 7.79446 3.49113 7.78915 3.48714 7.78118C3.46324 7.72807 3.43933 7.67495 3.41543 7.62183C3.41012 7.60988 3.41012 7.59793 3.4234 7.59262C3.43668 7.58731 3.44465 7.59527 3.44996 7.60723C3.45793 7.62449 3.46589 7.64175 3.47386 7.65901C3.47652 7.663 3.47785 7.67097 3.48316 7.67097C3.4898 7.66964 3.48714 7.663 3.48714 7.65769C3.48847 7.63777 3.48714 7.61918 3.48714 7.59926Z" fill="#5FD855"/>
<path d="M1.37031 6.30009C1.31587 6.30009 1.26275 6.30009 1.2083 6.30009C1.20033 6.30009 1.19103 6.30009 1.18307 6.29877C1.17377 6.29744 1.16846 6.28947 1.16846 6.28017C1.16846 6.27088 1.17377 6.26424 1.18307 6.26158C1.18971 6.26025 1.19767 6.26025 1.20564 6.26025C1.31852 6.26025 1.43007 6.26025 1.54295 6.26025C1.56951 6.26025 1.57881 6.26689 1.57748 6.2815C1.57615 6.29478 1.56819 6.30009 1.54295 6.30009C1.48452 6.30009 1.42742 6.30009 1.37031 6.30009Z" fill="#5FD855"/>
<path d="M1.95867 6.53935C1.90289 6.53935 1.84579 6.53935 1.79001 6.53935C1.76611 6.53935 1.75548 6.53404 1.75548 6.52076C1.75415 6.50615 1.76478 6.49951 1.79134 6.49951C1.90422 6.49951 2.01577 6.49951 2.12865 6.49951C2.13662 6.49951 2.14326 6.49951 2.15123 6.50084C2.16052 6.5035 2.16584 6.51014 2.16584 6.51943C2.16584 6.52873 2.16052 6.53537 2.15123 6.53802C2.14459 6.53935 2.13662 6.53935 2.12865 6.53935C2.07155 6.53935 2.01444 6.53935 1.95867 6.53935Z" fill="#5FD855"/>
<path d="M8.8762 6.02129C8.83237 6.02129 8.78986 6.02129 8.74604 6.02129C8.73807 6.02129 8.73143 6.02129 8.72346 6.01996C8.71283 6.0173 8.70752 6.01066 8.70752 5.99871C8.70885 5.98941 8.71416 5.98277 8.72346 5.98277C8.7301 5.98277 8.73674 5.98145 8.74205 5.98145C8.83237 5.98145 8.92268 5.98145 9.01299 5.98145C9.01698 5.98145 9.02096 5.98145 9.02628 5.98145C9.03956 5.98145 9.05018 5.98676 9.04886 6.00137C9.04886 6.01597 9.03823 6.02129 9.02495 6.02129C8.98112 6.02129 8.93862 6.02129 8.89479 6.02129C8.88815 6.02129 8.88284 6.02129 8.8762 6.02129Z" fill="#5FD855"/>
<path d="M7.31607 6.14873C7.26958 6.14873 7.2231 6.14873 7.17662 6.14873C7.15271 6.14873 7.14342 6.14342 7.14209 6.12881C7.14209 6.11553 7.15139 6.10889 7.17529 6.10889C7.26693 6.10889 7.35989 6.10889 7.45153 6.10889C7.45286 6.10889 7.45419 6.10889 7.45419 6.10889C7.47543 6.11021 7.48473 6.11553 7.4834 6.12881C7.48207 6.14607 7.46879 6.1474 7.45551 6.1474C7.40903 6.14873 7.36255 6.14873 7.31607 6.14873Z" fill="#5FD855"/>
<path d="M8.3985 5.82489C8.35468 5.82489 8.31085 5.82489 8.26836 5.82489C8.26039 5.82489 8.25375 5.82489 8.24578 5.82489C8.23383 5.82357 8.22852 5.81692 8.22852 5.8063C8.22852 5.79567 8.23516 5.78903 8.24578 5.7877C8.25242 5.78637 8.25906 5.7877 8.26437 5.7877C8.35335 5.7877 8.44233 5.7877 8.5313 5.7877C8.53794 5.7877 8.54458 5.7877 8.5499 5.78903C8.56052 5.79036 8.56716 5.797 8.56716 5.80895C8.56716 5.81958 8.56185 5.82622 8.5499 5.82755C8.54193 5.82755 8.53529 5.82755 8.52732 5.82755C8.48482 5.82489 8.441 5.82489 8.3985 5.82489Z" fill="#5FD855"/>
<path d="M2.55665 6.53903C2.53142 6.53903 2.50619 6.53903 2.48095 6.53903C2.47431 6.53903 2.46767 6.53903 2.46236 6.5377C2.45307 6.53637 2.44775 6.52973 2.44775 6.52042C2.44775 6.51112 2.45174 6.50448 2.46103 6.50182C2.46767 6.50049 2.47299 6.50049 2.47963 6.50049C2.53275 6.50049 2.58587 6.50049 2.63766 6.50049C2.64032 6.50049 2.6443 6.50049 2.64696 6.50049C2.66024 6.50049 2.66953 6.5058 2.66953 6.52042C2.66953 6.53372 2.66024 6.53903 2.64829 6.53903C2.635 6.53903 2.62305 6.53903 2.60977 6.53903C2.59251 6.53903 2.57524 6.53903 2.55665 6.53903Z" fill="#5FD855"/>
<path d="M9.36918 5.98277C9.39175 5.98277 9.41565 5.98277 9.43822 5.98277C9.4515 5.98277 9.46212 5.98543 9.46345 6.00004C9.46478 6.01199 9.45548 6.02129 9.43822 6.02129C9.39175 6.02129 9.34528 6.02129 9.29881 6.02129C9.28022 6.02129 9.27225 6.01332 9.27358 6.00004C9.27491 5.98543 9.28553 5.98145 9.29881 5.98145C9.32271 5.98277 9.34528 5.98277 9.36918 5.98277Z" fill="#5FD855"/>
<path d="M3.25355 6.25928C3.26816 6.25928 3.28277 6.25928 3.29737 6.25928C3.31065 6.25928 3.31995 6.26592 3.31995 6.28053C3.31995 6.29381 3.31065 6.29912 3.2987 6.29912C3.26949 6.29912 3.24027 6.29912 3.20972 6.29912C3.19777 6.29912 3.18848 6.29248 3.18848 6.28053C3.18848 6.26725 3.1991 6.26061 3.21238 6.26061C3.22566 6.25928 3.24027 6.25928 3.25355 6.25928Z" fill="#5FD855"/>
<path d="M1.77552 6.29865C1.76091 6.29865 1.74631 6.29865 1.7317 6.29865C1.71975 6.29865 1.71045 6.29201 1.71045 6.27873C1.71045 6.26678 1.71842 6.25881 1.73037 6.25881C1.76091 6.25748 1.79146 6.25748 1.822 6.25881C1.83396 6.25881 1.84192 6.26678 1.8406 6.28006C1.8406 6.29334 1.82997 6.29865 1.81935 6.29865C1.80607 6.29998 1.79146 6.29865 1.77552 6.29865Z" fill="#5FD855"/>
<path d="M2.74498 5.98283C2.72904 5.98283 2.7131 5.98283 2.69717 5.98283C2.68521 5.98283 2.67725 5.97619 2.67725 5.96292C2.67725 5.94965 2.68521 5.94434 2.69717 5.94434C2.72771 5.94434 2.75826 5.94434 2.7888 5.94434C2.80075 5.94434 2.80872 5.95363 2.80739 5.96557C2.80606 5.97619 2.79942 5.98283 2.7888 5.98283C2.77552 5.98416 2.76091 5.98283 2.74498 5.98283Z" fill="#5FD855"/>
<path d="M5.23115 5.94434C5.24443 5.94434 5.25903 5.94434 5.27231 5.94434C5.28426 5.94434 5.29355 5.95098 5.29355 5.96293C5.29355 5.97754 5.28559 5.98418 5.27098 5.98418C5.24177 5.98418 5.21256 5.98418 5.18203 5.98418C5.17008 5.98418 5.16211 5.97754 5.16211 5.96426C5.16211 5.95098 5.17008 5.94566 5.18203 5.94566C5.19929 5.94434 5.21522 5.94434 5.23115 5.94434Z" fill="#5FD855"/>
<path d="M9.80738 5.48578C9.79543 5.48578 9.78347 5.48578 9.77285 5.48578C9.7609 5.48578 9.75293 5.47914 9.75293 5.46586C9.75293 5.45523 9.75957 5.44727 9.77019 5.44727C9.79675 5.44727 9.82331 5.44727 9.84987 5.44727C9.8605 5.44727 9.86714 5.45523 9.86714 5.46586C9.86714 5.47648 9.8605 5.48445 9.84987 5.48445C9.83527 5.48578 9.82066 5.48578 9.80738 5.48578Z" fill="#5FD855"/>
<path d="M6.99865 6.14852C6.98537 6.14852 6.97342 6.14985 6.96014 6.14852C6.94951 6.14719 6.94287 6.14055 6.94287 6.12993C6.94287 6.1193 6.94951 6.11133 6.96014 6.11133C6.9867 6.11133 7.01326 6.11133 7.03982 6.11133C7.05044 6.11133 7.05708 6.1193 7.05708 6.12993C7.05708 6.14055 7.05044 6.14852 7.03982 6.14852C7.02654 6.14985 7.01193 6.14852 6.99865 6.14852Z" fill="#5FD855"/>
<path d="M8.72765 5.82468C8.71437 5.82468 8.70242 5.82468 8.68914 5.82468C8.67851 5.82468 8.67188 5.81671 8.67188 5.80608C8.67188 5.79545 8.67851 5.78748 8.68914 5.78615C8.7157 5.78482 8.74226 5.78482 8.76749 5.78615C8.77812 5.78615 8.78476 5.79412 8.78476 5.80475C8.78476 5.81804 8.77812 5.82335 8.76484 5.82468C8.75288 5.82468 8.7396 5.82468 8.72765 5.82468Z" fill="#5FD855"/>
<path d="M9.11277 5.48578C9.10082 5.48578 9.09019 5.48578 9.07824 5.48578C9.06496 5.48578 9.05566 5.47914 9.05566 5.46586C9.05566 5.45391 9.06363 5.44727 9.07691 5.44727C9.10082 5.44727 9.12472 5.44727 9.14995 5.44727C9.16191 5.44727 9.16987 5.45391 9.16987 5.46719C9.16987 5.48047 9.16191 5.48578 9.14863 5.48578C9.13535 5.48578 9.12339 5.48578 9.11277 5.48578Z" fill="#5FD855"/>
<path d="M3.26705 4.19921C3.25908 4.19921 3.24978 4.19921 3.24181 4.19921C3.22853 4.19921 3.21924 4.1939 3.21924 4.17929C3.21924 4.16601 3.22853 4.1607 3.24049 4.1607C3.27501 4.15937 3.31087 4.15671 3.3454 4.15007C3.58975 4.10226 3.77169 3.90041 3.79427 3.65339C3.7956 3.63613 3.79692 3.61886 3.79825 3.60293C3.79958 3.59098 3.80489 3.58301 3.81817 3.58301C3.83145 3.58301 3.83676 3.5923 3.83676 3.60426C3.83809 3.64542 3.83278 3.68527 3.82481 3.72378C3.76904 3.98938 3.53929 4.18593 3.26705 4.19921Z" fill="#151D38"/>
<path d="M4.13104 3.99764C4.13104 4.25528 3.97833 4.47839 3.74593 4.56604C3.73664 4.57002 3.72601 4.57268 3.71539 4.57533C3.70609 4.57666 3.69945 4.57135 3.6968 4.56205C3.69414 4.55276 3.6968 4.54479 3.70476 4.53948C3.7114 4.53549 3.71804 4.53284 3.72468 4.53018C3.95575 4.44253 4.1005 4.22606 4.08987 3.98037C4.08855 3.93655 4.08058 3.89405 4.06863 3.85156C4.06597 3.84491 4.06464 3.83695 4.06199 3.83031C4.058 3.81835 4.06331 3.80906 4.07394 3.80507C4.08589 3.79976 4.09519 3.8064 4.09917 3.81835C4.10979 3.84624 4.11643 3.87546 4.12175 3.90468C4.12838 3.93788 4.13237 3.97241 4.13104 3.99764Z" fill="#151D38"/>
<path d="M6.02281 0.826088C5.89399 0.826088 5.78775 0.718518 5.78907 0.5897C5.7904 0.460882 5.89665 0.354641 6.02547 0.355969C6.15429 0.357297 6.25788 0.460882 6.25788 0.5897C6.25788 0.719846 6.15163 0.826088 6.02281 0.826088Z" fill="#151D38"/>
<path d="M6.21629 0.593657C6.21762 0.486087 6.13129 0.398438 6.02372 0.398438C5.91614 0.398438 5.82849 0.483431 5.82716 0.591001C5.82584 0.695914 5.91349 0.787548 6.01973 0.787548C6.1459 0.784892 6.21894 0.683962 6.21629 0.593657Z" fill="#FFF3A2"/>
</g>
<defs>
<clipPath id="clip0">
<rect width="10" height="7.82205" fill="white"/>
</clipPath>
</defs>
</svg>
